<?xml version="1.0" encoding="utf-8" standalone="no"?>
<!DOCTYPE svg PUBLIC "-//W3C//DTD SVG 1.1//EN"
  "http://www.w3.org/Graphics/SVG/1.1/DTD/svg11.dtd">
<!-- Created with matplotlib (http://matplotlib.org/) -->
<svg height="417.270125pt" version="1.1" viewBox="0 0 1001.258125 417.270125" width="1001.258125pt" xmlns="http://www.w3.org/2000/svg" xmlns:xlink="http://www.w3.org/1999/xlink">
 <defs>
  <style type="text/css">
*{stroke-linecap:butt;stroke-linejoin:round;}
  </style>
 </defs>
 <g id="figure_1">
  <g id="patch_1">
   <path d="M 0 417.270125 
L 1001.258125 417.270125 
L 1001.258125 0 
L 0 0 
z
" style="fill:#ffffff;"/>
  </g>
  <g id="axes_1">
   <g id="patch_2">
    <path d="M 43.148125 381.6495 
L 990.558125 381.6495 
L 990.558125 36.6095 
L 43.148125 36.6095 
z
" style="fill:#ffffff;"/>
   </g>
   <g id="patch_3">
    <path clip-path="url(#p70351e8436)" d="M 746.794809 381.6495 
L 2556.171998 381.6495 
L 2556.171998 36.6095 
L 746.794809 36.6095 
z
" style="fill:#c3e6c3;"/>
   </g>
   <g id="patch_4">
    <path clip-path="url(#p70351e8436)" d="M 545.7529 381.6495 
L 746.794809 381.6495 
L 746.794809 36.6095 
L 545.7529 36.6095 
z
" style="fill:#e6dcc3;"/>
   </g>
   <g id="patch_5">
    <path clip-path="url(#p70351e8436)" d="M 43.148125 381.6495 
L 545.7529 381.6495 
L 545.7529 36.6095 
L 43.148125 36.6095 
z
" style="fill:#e6c3c3;"/>
   </g>
   <g id="matplotlib.axis_1">
    <g id="xtick_1">
     <g id="text_1">
      <!-- 0 -->
      <defs>
       <path d="M 31.78125 66.40625 
Q 24.171875 66.40625 20.328125 58.90625 
Q 16.5 51.421875 16.5 36.375 
Q 16.5 21.390625 20.328125 13.890625 
Q 24.171875 6.390625 31.78125 6.390625 
Q 39.453125 6.390625 43.28125 13.890625 
Q 47.125 21.390625 47.125 36.375 
Q 47.125 51.421875 43.28125 58.90625 
Q 39.453125 66.40625 31.78125 66.40625 
z
M 31.78125 74.21875 
Q 44.046875 74.21875 50.515625 64.515625 
Q 56.984375 54.828125 56.984375 36.375 
Q 56.984375 17.96875 50.515625 8.265625 
Q 44.046875 -1.421875 31.78125 -1.421875 
Q 19.53125 -1.421875 13.0625 8.265625 
Q 6.59375 17.96875 6.59375 36.375 
Q 6.59375 54.828125 13.0625 64.515625 
Q 19.53125 74.21875 31.78125 74.21875 
z
" id="DejaVuSans-30"/>
      </defs>
      <g transform="translate(40.603125 394.72825)scale(0.08 -0.08)">
       <use xlink:href="#DejaVuSans-30"/>
      </g>
     </g>
    </g>
    <g id="xtick_2">
     <g id="text_2">
      <!-- 5 -->
      <defs>
       <path d="M 10.796875 72.90625 
L 49.515625 72.90625 
L 49.515625 64.59375 
L 19.828125 64.59375 
L 19.828125 46.734375 
Q 21.96875 47.46875 24.109375 47.828125 
Q 26.265625 48.1875 28.421875 48.1875 
Q 40.625 48.1875 47.75 41.5 
Q 54.890625 34.8125 54.890625 23.390625 
Q 54.890625 11.625 47.5625 5.09375 
Q 40.234375 -1.421875 26.90625 -1.421875 
Q 22.3125 -1.421875 17.546875 -0.640625 
Q 12.796875 0.140625 7.71875 1.703125 
L 7.71875 11.625 
Q 12.109375 9.234375 16.796875 8.0625 
Q 21.484375 6.890625 26.703125 6.890625 
Q 35.15625 6.890625 40.078125 11.328125 
Q 45.015625 15.765625 45.015625 23.390625 
Q 45.015625 31 40.078125 35.4375 
Q 35.15625 39.890625 26.703125 39.890625 
Q 22.75 39.890625 18.8125 39.015625 
Q 14.890625 38.140625 10.796875 36.28125 
z
" id="DejaVuSans-35"/>
      </defs>
      <g transform="translate(166.254319 394.72825)scale(0.08 -0.08)">
       <use xlink:href="#DejaVuSans-35"/>
      </g>
     </g>
    </g>
    <g id="xtick_3">
     <g id="text_3">
      <!-- 10 -->
      <defs>
       <path d="M 12.40625 8.296875 
L 28.515625 8.296875 
L 28.515625 63.921875 
L 10.984375 60.40625 
L 10.984375 69.390625 
L 28.421875 72.90625 
L 38.28125 72.90625 
L 38.28125 8.296875 
L 54.390625 8.296875 
L 54.390625 0 
L 12.40625 0 
z
" id="DejaVuSans-31"/>
      </defs>
      <g transform="translate(289.360512 394.72825)scale(0.08 -0.08)">
       <use xlink:href="#DejaVuSans-31"/>
       <use x="63.623047" xlink:href="#DejaVuSans-30"/>
      </g>
     </g>
    </g>
    <g id="xtick_4">
     <g id="text_4">
      <!-- 15 -->
      <g transform="translate(415.011706 394.72825)scale(0.08 -0.08)">
       <use xlink:href="#DejaVuSans-31"/>
       <use x="63.623047" xlink:href="#DejaVuSans-35"/>
      </g>
     </g>
    </g>
    <g id="xtick_5">
     <g id="text_5">
      <!-- 20 -->
      <defs>
       <path d="M 19.1875 8.296875 
L 53.609375 8.296875 
L 53.609375 0 
L 7.328125 0 
L 7.328125 8.296875 
Q 12.9375 14.109375 22.625 23.890625 
Q 32.328125 33.6875 34.8125 36.53125 
Q 39.546875 41.84375 41.421875 45.53125 
Q 43.3125 49.21875 43.3125 52.78125 
Q 43.3125 58.59375 39.234375 62.25 
Q 35.15625 65.921875 28.609375 65.921875 
Q 23.96875 65.921875 18.8125 64.3125 
Q 13.671875 62.703125 7.8125 59.421875 
L 7.8125 69.390625 
Q 13.765625 71.78125 18.9375 73 
Q 24.125 74.21875 28.421875 74.21875 
Q 39.75 74.21875 46.484375 68.546875 
Q 53.21875 62.890625 53.21875 53.421875 
Q 53.21875 48.921875 51.53125 44.890625 
Q 49.859375 40.875 45.40625 35.40625 
Q 44.1875 33.984375 37.640625 27.21875 
Q 31.109375 20.453125 19.1875 8.296875 
z
" id="DejaVuSans-32"/>
      </defs>
      <g transform="translate(540.6629 394.72825)scale(0.08 -0.08)">
       <use xlink:href="#DejaVuSans-32"/>
       <use x="63.623047" xlink:href="#DejaVuSans-30"/>
      </g>
     </g>
    </g>
    <g id="xtick_6">
     <g id="text_6">
      <!-- 25 -->
      <g transform="translate(666.314093 394.72825)scale(0.08 -0.08)">
       <use xlink:href="#DejaVuSans-32"/>
       <use x="63.623047" xlink:href="#DejaVuSans-35"/>
      </g>
     </g>
    </g>
    <g id="xtick_7">
     <g id="text_7">
      <!-- 30 -->
      <defs>
       <path d="M 40.578125 39.3125 
Q 47.65625 37.796875 51.625 33 
Q 55.609375 28.21875 55.609375 21.1875 
Q 55.609375 10.40625 48.1875 4.484375 
Q 40.765625 -1.421875 27.09375 -1.421875 
Q 22.515625 -1.421875 17.65625 -0.515625 
Q 12.796875 0.390625 7.625 2.203125 
L 7.625 11.71875 
Q 11.71875 9.328125 16.59375 8.109375 
Q 21.484375 6.890625 26.8125 6.890625 
Q 36.078125 6.890625 40.9375 10.546875 
Q 45.796875 14.203125 45.796875 21.1875 
Q 45.796875 27.640625 41.28125 31.265625 
Q 36.765625 34.90625 28.71875 34.90625 
L 20.21875 34.90625 
L 20.21875 43.015625 
L 29.109375 43.015625 
Q 36.375 43.015625 40.234375 45.921875 
Q 44.09375 48.828125 44.09375 54.296875 
Q 44.09375 59.90625 40.109375 62.90625 
Q 36.140625 65.921875 28.71875 65.921875 
Q 24.65625 65.921875 20.015625 65.03125 
Q 15.375 64.15625 9.8125 62.3125 
L 9.8125 71.09375 
Q 15.4375 72.65625 20.34375 73.4375 
Q 25.25 74.21875 29.59375 74.21875 
Q 40.828125 74.21875 47.359375 69.109375 
Q 53.90625 64.015625 53.90625 55.328125 
Q 53.90625 49.265625 50.4375 45.09375 
Q 46.96875 40.921875 40.578125 39.3125 
z
" id="DejaVuSans-33"/>
      </defs>
      <g transform="translate(791.965287 394.72825)scale(0.08 -0.08)">
       <use xlink:href="#DejaVuSans-33"/>
       <use x="63.623047" xlink:href="#DejaVuSans-30"/>
      </g>
     </g>
    </g>
    <g id="xtick_8">
     <g id="text_8">
      <!-- 35 -->
      <g transform="translate(917.61648 394.72825)scale(0.08 -0.08)">
       <use xlink:href="#DejaVuSans-33"/>
       <use x="63.623047" xlink:href="#DejaVuSans-35"/>
      </g>
     </g>
    </g>
    <g id="text_9">
     <!-- Mean Sequence Quality (Phred Score) -->
     <defs>
      <path d="M 9.8125 72.90625 
L 24.515625 72.90625 
L 43.109375 23.296875 
L 61.8125 72.90625 
L 76.515625 72.90625 
L 76.515625 0 
L 66.890625 0 
L 66.890625 64.015625 
L 48.09375 14.015625 
L 38.1875 14.015625 
L 19.390625 64.015625 
L 19.390625 0 
L 9.8125 0 
z
" id="DejaVuSans-4d"/>
      <path d="M 56.203125 29.59375 
L 56.203125 25.203125 
L 14.890625 25.203125 
Q 15.484375 15.921875 20.484375 11.0625 
Q 25.484375 6.203125 34.421875 6.203125 
Q 39.59375 6.203125 44.453125 7.46875 
Q 49.3125 8.734375 54.109375 11.28125 
L 54.109375 2.78125 
Q 49.265625 0.734375 44.1875 -0.34375 
Q 39.109375 -1.421875 33.890625 -1.421875 
Q 20.796875 -1.421875 13.15625 6.1875 
Q 5.515625 13.8125 5.515625 26.8125 
Q 5.515625 40.234375 12.765625 48.109375 
Q 20.015625 56 32.328125 56 
Q 43.359375 56 49.78125 48.890625 
Q 56.203125 41.796875 56.203125 29.59375 
z
M 47.21875 32.234375 
Q 47.125 39.59375 43.09375 43.984375 
Q 39.0625 48.390625 32.421875 48.390625 
Q 24.90625 48.390625 20.390625 44.140625 
Q 15.875 39.890625 15.1875 32.171875 
z
" id="DejaVuSans-65"/>
      <path d="M 34.28125 27.484375 
Q 23.390625 27.484375 19.1875 25 
Q 14.984375 22.515625 14.984375 16.5 
Q 14.984375 11.71875 18.140625 8.90625 
Q 21.296875 6.109375 26.703125 6.109375 
Q 34.1875 6.109375 38.703125 11.40625 
Q 43.21875 16.703125 43.21875 25.484375 
L 43.21875 27.484375 
z
M 52.203125 31.203125 
L 52.203125 0 
L 43.21875 0 
L 43.21875 8.296875 
Q 40.140625 3.328125 35.546875 0.953125 
Q 30.953125 -1.421875 24.3125 -1.421875 
Q 15.921875 -1.421875 10.953125 3.296875 
Q 6 8.015625 6 15.921875 
Q 6 25.140625 12.171875 29.828125 
Q 18.359375 34.515625 30.609375 34.515625 
L 43.21875 34.515625 
L 43.21875 35.40625 
Q 43.21875 41.609375 39.140625 45 
Q 35.0625 48.390625 27.6875 48.390625 
Q 23 48.390625 18.546875 47.265625 
Q 14.109375 46.140625 10.015625 43.890625 
L 10.015625 52.203125 
Q 14.9375 54.109375 19.578125 55.046875 
Q 24.21875 56 28.609375 56 
Q 40.484375 56 46.34375 49.84375 
Q 52.203125 43.703125 52.203125 31.203125 
z
" id="DejaVuSans-61"/>
      <path d="M 54.890625 33.015625 
L 54.890625 0 
L 45.90625 0 
L 45.90625 32.71875 
Q 45.90625 40.484375 42.875 44.328125 
Q 39.84375 48.1875 33.796875 48.1875 
Q 26.515625 48.1875 22.3125 43.546875 
Q 18.109375 38.921875 18.109375 30.90625 
L 18.109375 0 
L 9.078125 0 
L 9.078125 54.6875 
L 18.109375 54.6875 
L 18.109375 46.1875 
Q 21.34375 51.125 25.703125 53.5625 
Q 30.078125 56 35.796875 56 
Q 45.21875 56 50.046875 50.171875 
Q 54.890625 44.34375 54.890625 33.015625 
z
" id="DejaVuSans-6e"/>
      <path id="DejaVuSans-20"/>
      <path d="M 53.515625 70.515625 
L 53.515625 60.890625 
Q 47.90625 63.578125 42.921875 64.890625 
Q 37.9375 66.21875 33.296875 66.21875 
Q 25.25 66.21875 20.875 63.09375 
Q 16.5 59.96875 16.5 54.203125 
Q 16.5 49.359375 19.40625 46.890625 
Q 22.3125 44.4375 30.421875 42.921875 
L 36.375 41.703125 
Q 47.40625 39.59375 52.65625 34.296875 
Q 57.90625 29 57.90625 20.125 
Q 57.90625 9.515625 50.796875 4.046875 
Q 43.703125 -1.421875 29.984375 -1.421875 
Q 24.8125 -1.421875 18.96875 -0.25 
Q 13.140625 0.921875 6.890625 3.21875 
L 6.890625 13.375 
Q 12.890625 10.015625 18.65625 8.296875 
Q 24.421875 6.59375 29.984375 6.59375 
Q 38.421875 6.59375 43.015625 9.90625 
Q 47.609375 13.234375 47.609375 19.390625 
Q 47.609375 24.75 44.3125 27.78125 
Q 41.015625 30.8125 33.5 32.328125 
L 27.484375 33.5 
Q 16.453125 35.6875 11.515625 40.375 
Q 6.59375 45.0625 6.59375 53.421875 
Q 6.59375 63.09375 13.40625 68.65625 
Q 20.21875 74.21875 32.171875 74.21875 
Q 37.3125 74.21875 42.625 73.28125 
Q 47.953125 72.359375 53.515625 70.515625 
z
" id="DejaVuSans-53"/>
      <path d="M 14.796875 27.296875 
Q 14.796875 17.390625 18.875 11.75 
Q 22.953125 6.109375 30.078125 6.109375 
Q 37.203125 6.109375 41.296875 11.75 
Q 45.40625 17.390625 45.40625 27.296875 
Q 45.40625 37.203125 41.296875 42.84375 
Q 37.203125 48.484375 30.078125 48.484375 
Q 22.953125 48.484375 18.875 42.84375 
Q 14.796875 37.203125 14.796875 27.296875 
z
M 45.40625 8.203125 
Q 42.578125 3.328125 38.25 0.953125 
Q 33.9375 -1.421875 27.875 -1.421875 
Q 17.96875 -1.421875 11.734375 6.484375 
Q 5.515625 14.40625 5.515625 27.296875 
Q 5.515625 40.1875 11.734375 48.09375 
Q 17.96875 56 27.875 56 
Q 33.9375 56 38.25 53.625 
Q 42.578125 51.265625 45.40625 46.390625 
L 45.40625 54.6875 
L 54.390625 54.6875 
L 54.390625 -20.796875 
L 45.40625 -20.796875 
z
" id="DejaVuSans-71"/>
      <path d="M 8.5 21.578125 
L 8.5 54.6875 
L 17.484375 54.6875 
L 17.484375 21.921875 
Q 17.484375 14.15625 20.5 10.265625 
Q 23.53125 6.390625 29.59375 6.390625 
Q 36.859375 6.390625 41.078125 11.03125 
Q 45.3125 15.671875 45.3125 23.6875 
L 45.3125 54.6875 
L 54.296875 54.6875 
L 54.296875 0 
L 45.3125 0 
L 45.3125 8.40625 
Q 42.046875 3.421875 37.71875 1 
Q 33.40625 -1.421875 27.6875 -1.421875 
Q 18.265625 -1.421875 13.375 4.4375 
Q 8.5 10.296875 8.5 21.578125 
z
M 31.109375 56 
z
" id="DejaVuSans-75"/>
      <path d="M 48.78125 52.59375 
L 48.78125 44.1875 
Q 44.96875 46.296875 41.140625 47.34375 
Q 37.3125 48.390625 33.40625 48.390625 
Q 24.65625 48.390625 19.8125 42.84375 
Q 14.984375 37.3125 14.984375 27.296875 
Q 14.984375 17.28125 19.8125 11.734375 
Q 24.65625 6.203125 33.40625 6.203125 
Q 37.3125 6.203125 41.140625 7.25 
Q 44.96875 8.296875 48.78125 10.40625 
L 48.78125 2.09375 
Q 45.015625 0.34375 40.984375 -0.53125 
Q 36.96875 -1.421875 32.421875 -1.421875 
Q 20.0625 -1.421875 12.78125 6.34375 
Q 5.515625 14.109375 5.515625 27.296875 
Q 5.515625 40.671875 12.859375 48.328125 
Q 20.21875 56 33.015625 56 
Q 37.15625 56 41.109375 55.140625 
Q 45.0625 54.296875 48.78125 52.59375 
z
" id="DejaVuSans-63"/>
      <path d="M 39.40625 66.21875 
Q 28.65625 66.21875 22.328125 58.203125 
Q 16.015625 50.203125 16.015625 36.375 
Q 16.015625 22.609375 22.328125 14.59375 
Q 28.65625 6.59375 39.40625 6.59375 
Q 50.140625 6.59375 56.421875 14.59375 
Q 62.703125 22.609375 62.703125 36.375 
Q 62.703125 50.203125 56.421875 58.203125 
Q 50.140625 66.21875 39.40625 66.21875 
z
M 53.21875 1.3125 
L 66.21875 -12.890625 
L 54.296875 -12.890625 
L 43.5 -1.21875 
Q 41.890625 -1.3125 41.03125 -1.359375 
Q 40.1875 -1.421875 39.40625 -1.421875 
Q 24.03125 -1.421875 14.8125 8.859375 
Q 5.609375 19.140625 5.609375 36.375 
Q 5.609375 53.65625 14.8125 63.9375 
Q 24.03125 74.21875 39.40625 74.21875 
Q 54.734375 74.21875 63.90625 63.9375 
Q 73.09375 53.65625 73.09375 36.375 
Q 73.09375 23.6875 67.984375 14.640625 
Q 62.890625 5.609375 53.21875 1.3125 
z
" id="DejaVuSans-51"/>
      <path d="M 9.421875 75.984375 
L 18.40625 75.984375 
L 18.40625 0 
L 9.421875 0 
z
" id="DejaVuSans-6c"/>
      <path d="M 9.421875 54.6875 
L 18.40625 54.6875 
L 18.40625 0 
L 9.421875 0 
z
M 9.421875 75.984375 
L 18.40625 75.984375 
L 18.40625 64.59375 
L 9.421875 64.59375 
z
" id="DejaVuSans-69"/>
      <path d="M 18.3125 70.21875 
L 18.3125 54.6875 
L 36.8125 54.6875 
L 36.8125 47.703125 
L 18.3125 47.703125 
L 18.3125 18.015625 
Q 18.3125 11.328125 20.140625 9.421875 
Q 21.96875 7.515625 27.59375 7.515625 
L 36.8125 7.515625 
L 36.8125 0 
L 27.59375 0 
Q 17.1875 0 13.234375 3.875 
Q 9.28125 7.765625 9.28125 18.015625 
L 9.28125 47.703125 
L 2.6875 47.703125 
L 2.6875 54.6875 
L 9.28125 54.6875 
L 9.28125 70.21875 
z
" id="DejaVuSans-74"/>
      <path d="M 32.171875 -5.078125 
Q 28.375 -14.84375 24.75 -17.8125 
Q 21.140625 -20.796875 15.09375 -20.796875 
L 7.90625 -20.796875 
L 7.90625 -13.28125 
L 13.1875 -13.28125 
Q 16.890625 -13.28125 18.9375 -11.515625 
Q 21 -9.765625 23.484375 -3.21875 
L 25.09375 0.875 
L 2.984375 54.6875 
L 12.5 54.6875 
L 29.59375 11.921875 
L 46.6875 54.6875 
L 56.203125 54.6875 
z
" id="DejaVuSans-79"/>
      <path d="M 31 75.875 
Q 24.46875 64.65625 21.28125 53.65625 
Q 18.109375 42.671875 18.109375 31.390625 
Q 18.109375 20.125 21.3125 9.0625 
Q 24.515625 -2 31 -13.1875 
L 23.1875 -13.1875 
Q 15.875 -1.703125 12.234375 9.375 
Q 8.59375 20.453125 8.59375 31.390625 
Q 8.59375 42.28125 12.203125 53.3125 
Q 15.828125 64.359375 23.1875 75.875 
z
" id="DejaVuSans-28"/>
      <path d="M 19.671875 64.796875 
L 19.671875 37.40625 
L 32.078125 37.40625 
Q 38.96875 37.40625 42.71875 40.96875 
Q 46.484375 44.53125 46.484375 51.125 
Q 46.484375 57.671875 42.71875 61.234375 
Q 38.96875 64.796875 32.078125 64.796875 
z
M 9.8125 72.90625 
L 32.078125 72.90625 
Q 44.34375 72.90625 50.609375 67.359375 
Q 56.890625 61.8125 56.890625 51.125 
Q 56.890625 40.328125 50.609375 34.8125 
Q 44.34375 29.296875 32.078125 29.296875 
L 19.671875 29.296875 
L 19.671875 0 
L 9.8125 0 
z
" id="DejaVuSans-50"/>
      <path d="M 54.890625 33.015625 
L 54.890625 0 
L 45.90625 0 
L 45.90625 32.71875 
Q 45.90625 40.484375 42.875 44.328125 
Q 39.84375 48.1875 33.796875 48.1875 
Q 26.515625 48.1875 22.3125 43.546875 
Q 18.109375 38.921875 18.109375 30.90625 
L 18.109375 0 
L 9.078125 0 
L 9.078125 75.984375 
L 18.109375 75.984375 
L 18.109375 46.1875 
Q 21.34375 51.125 25.703125 53.5625 
Q 30.078125 56 35.796875 56 
Q 45.21875 56 50.046875 50.171875 
Q 54.890625 44.34375 54.890625 33.015625 
z
" id="DejaVuSans-68"/>
      <path d="M 41.109375 46.296875 
Q 39.59375 47.171875 37.8125 47.578125 
Q 36.03125 48 33.890625 48 
Q 26.265625 48 22.1875 43.046875 
Q 18.109375 38.09375 18.109375 28.8125 
L 18.109375 0 
L 9.078125 0 
L 9.078125 54.6875 
L 18.109375 54.6875 
L 18.109375 46.1875 
Q 20.953125 51.171875 25.484375 53.578125 
Q 30.03125 56 36.53125 56 
Q 37.453125 56 38.578125 55.875 
Q 39.703125 55.765625 41.0625 55.515625 
z
" id="DejaVuSans-72"/>
      <path d="M 45.40625 46.390625 
L 45.40625 75.984375 
L 54.390625 75.984375 
L 54.390625 0 
L 45.40625 0 
L 45.40625 8.203125 
Q 42.578125 3.328125 38.25 0.953125 
Q 33.9375 -1.421875 27.875 -1.421875 
Q 17.96875 -1.421875 11.734375 6.484375 
Q 5.515625 14.40625 5.515625 27.296875 
Q 5.515625 40.1875 11.734375 48.09375 
Q 17.96875 56 27.875 56 
Q 33.9375 56 38.25 53.625 
Q 42.578125 51.265625 45.40625 46.390625 
z
M 14.796875 27.296875 
Q 14.796875 17.390625 18.875 11.75 
Q 22.953125 6.109375 30.078125 6.109375 
Q 37.203125 6.109375 41.296875 11.75 
Q 45.40625 17.390625 45.40625 27.296875 
Q 45.40625 37.203125 41.296875 42.84375 
Q 37.203125 48.484375 30.078125 48.484375 
Q 22.953125 48.484375 18.875 42.84375 
Q 14.796875 37.203125 14.796875 27.296875 
z
" id="DejaVuSans-64"/>
      <path d="M 30.609375 48.390625 
Q 23.390625 48.390625 19.1875 42.75 
Q 14.984375 37.109375 14.984375 27.296875 
Q 14.984375 17.484375 19.15625 11.84375 
Q 23.34375 6.203125 30.609375 6.203125 
Q 37.796875 6.203125 41.984375 11.859375 
Q 46.1875 17.53125 46.1875 27.296875 
Q 46.1875 37.015625 41.984375 42.703125 
Q 37.796875 48.390625 30.609375 48.390625 
z
M 30.609375 56 
Q 42.328125 56 49.015625 48.375 
Q 55.71875 40.765625 55.71875 27.296875 
Q 55.71875 13.875 49.015625 6.21875 
Q 42.328125 -1.421875 30.609375 -1.421875 
Q 18.84375 -1.421875 12.171875 6.21875 
Q 5.515625 13.875 5.515625 27.296875 
Q 5.515625 40.765625 12.171875 48.375 
Q 18.84375 56 30.609375 56 
z
" id="DejaVuSans-6f"/>
      <path d="M 8.015625 75.875 
L 15.828125 75.875 
Q 23.140625 64.359375 26.78125 53.3125 
Q 30.421875 42.28125 30.421875 31.390625 
Q 30.421875 20.453125 26.78125 9.375 
Q 23.140625 -1.703125 15.828125 -13.1875 
L 8.015625 -13.1875 
Q 14.5 -2 17.703125 9.0625 
Q 20.90625 20.125 20.90625 31.390625 
Q 20.90625 42.671875 17.703125 53.65625 
Q 14.5 64.65625 8.015625 75.875 
z
" id="DejaVuSans-29"/>
     </defs>
     <g transform="translate(421.839062 407.990437)scale(0.1 -0.1)">
      <use xlink:href="#DejaVuSans-4d"/>
      <use x="86.279297" xlink:href="#DejaVuSans-65"/>
      <use x="147.802734" xlink:href="#DejaVuSans-61"/>
      <use x="209.082031" xlink:href="#DejaVuSans-6e"/>
      <use x="272.460938" xlink:href="#DejaVuSans-20"/>
      <use x="304.248047" xlink:href="#DejaVuSans-53"/>
      <use x="367.724609" xlink:href="#DejaVuSans-65"/>
      <use x="429.248047" xlink:href="#DejaVuSans-71"/>
      <use x="492.724609" xlink:href="#DejaVuSans-75"/>
      <use x="556.103516" xlink:href="#DejaVuSans-65"/>
      <use x="617.626953" xlink:href="#DejaVuSans-6e"/>
      <use x="681.005859" xlink:href="#DejaVuSans-63"/>
      <use x="735.986328" xlink:href="#DejaVuSans-65"/>
      <use x="797.509766" xlink:href="#DejaVuSans-20"/>
      <use x="829.296875" xlink:href="#DejaVuSans-51"/>
      <use x="908.007812" xlink:href="#DejaVuSans-75"/>
      <use x="971.386719" xlink:href="#DejaVuSans-61"/>
      <use x="1032.666016" xlink:href="#DejaVuSans-6c"/>
      <use x="1060.449219" xlink:href="#DejaVuSans-69"/>
      <use x="1088.232422" xlink:href="#DejaVuSans-74"/>
      <use x="1127.441406" xlink:href="#DejaVuSans-79"/>
      <use x="1186.621094" xlink:href="#DejaVuSans-20"/>
      <use x="1218.408203" xlink:href="#DejaVuSans-28"/>
      <use x="1257.421875" xlink:href="#DejaVuSans-50"/>
      <use x="1317.724609" xlink:href="#DejaVuSans-68"/>
      <use x="1381.103516" xlink:href="#DejaVuSans-72"/>
      <use x="1422.185547" xlink:href="#DejaVuSans-65"/>
      <use x="1483.708984" xlink:href="#DejaVuSans-64"/>
      <use x="1547.185547" xlink:href="#DejaVuSans-20"/>
      <use x="1578.972656" xlink:href="#DejaVuSans-53"/>
      <use x="1642.449219" xlink:href="#DejaVuSans-63"/>
      <use x="1697.429688" xlink:href="#DejaVuSans-6f"/>
      <use x="1758.611328" xlink:href="#DejaVuSans-72"/>
      <use x="1799.693359" xlink:href="#DejaVuSans-65"/>
      <use x="1861.216797" xlink:href="#DejaVuSans-29"/>
     </g>
    </g>
   </g>
   <g id="matplotlib.axis_2">
    <g id="ytick_1">
     <g id="line2d_1">
      <path clip-path="url(#p70351e8436)" d="M 43.148125 381.6495 
L 990.558125 381.6495 
" style="fill:none;stroke:#dedede;stroke-linecap:square;"/>
     </g>
     <g id="text_10">
      <!-- 0 -->
      <g transform="translate(31.058125 384.688875)scale(0.08 -0.08)">
       <use xlink:href="#DejaVuSans-30"/>
      </g>
     </g>
    </g>
    <g id="ytick_2">
     <g id="line2d_2">
      <path clip-path="url(#p70351e8436)" d="M 43.148125 327.24395 
L 990.558125 327.24395 
" style="fill:none;stroke:#dedede;stroke-linecap:square;"/>
     </g>
     <g id="text_11">
      <!-- 100 -->
      <g transform="translate(20.878125 330.283325)scale(0.08 -0.08)">
       <use xlink:href="#DejaVuSans-31"/>
       <use x="63.623047" xlink:href="#DejaVuSans-30"/>
       <use x="127.246094" xlink:href="#DejaVuSans-30"/>
      </g>
     </g>
    </g>
    <g id="ytick_3">
     <g id="line2d_3">
      <path clip-path="url(#p70351e8436)" d="M 43.148125 272.838399 
L 990.558125 272.838399 
" style="fill:none;stroke:#dedede;stroke-linecap:square;"/>
     </g>
     <g id="text_12">
      <!-- 200 -->
      <g transform="translate(20.878125 275.877774)scale(0.08 -0.08)">
       <use xlink:href="#DejaVuSans-32"/>
       <use x="63.623047" xlink:href="#DejaVuSans-30"/>
       <use x="127.246094" xlink:href="#DejaVuSans-30"/>
      </g>
     </g>
    </g>
    <g id="ytick_4">
     <g id="line2d_4">
      <path clip-path="url(#p70351e8436)" d="M 43.148125 218.432849 
L 990.558125 218.432849 
" style="fill:none;stroke:#dedede;stroke-linecap:square;"/>
     </g>
     <g id="text_13">
      <!-- 300 -->
      <g transform="translate(20.878125 221.472224)scale(0.08 -0.08)">
       <use xlink:href="#DejaVuSans-33"/>
       <use x="63.623047" xlink:href="#DejaVuSans-30"/>
       <use x="127.246094" xlink:href="#DejaVuSans-30"/>
      </g>
     </g>
    </g>
    <g id="ytick_5">
     <g id="line2d_5">
      <path clip-path="url(#p70351e8436)" d="M 43.148125 164.027299 
L 990.558125 164.027299 
" style="fill:none;stroke:#dedede;stroke-linecap:square;"/>
     </g>
     <g id="text_14">
      <!-- 400 -->
      <defs>
       <path d="M 37.796875 64.3125 
L 12.890625 25.390625 
L 37.796875 25.390625 
z
M 35.203125 72.90625 
L 47.609375 72.90625 
L 47.609375 25.390625 
L 58.015625 25.390625 
L 58.015625 17.1875 
L 47.609375 17.1875 
L 47.609375 0 
L 37.796875 0 
L 37.796875 17.1875 
L 4.890625 17.1875 
L 4.890625 26.703125 
z
" id="DejaVuSans-34"/>
      </defs>
      <g transform="translate(20.878125 167.066674)scale(0.08 -0.08)">
       <use xlink:href="#DejaVuSans-34"/>
       <use x="63.623047" xlink:href="#DejaVuSans-30"/>
       <use x="127.246094" xlink:href="#DejaVuSans-30"/>
      </g>
     </g>
    </g>
    <g id="ytick_6">
     <g id="line2d_6">
      <path clip-path="url(#p70351e8436)" d="M 43.148125 109.621749 
L 990.558125 109.621749 
" style="fill:none;stroke:#dedede;stroke-linecap:square;"/>
     </g>
     <g id="text_15">
      <!-- 500 -->
      <g transform="translate(20.878125 112.661124)scale(0.08 -0.08)">
       <use xlink:href="#DejaVuSans-35"/>
       <use x="63.623047" xlink:href="#DejaVuSans-30"/>
       <use x="127.246094" xlink:href="#DejaVuSans-30"/>
      </g>
     </g>
    </g>
    <g id="ytick_7">
     <g id="line2d_7">
      <path clip-path="url(#p70351e8436)" d="M 43.148125 55.216198 
L 990.558125 55.216198 
" style="fill:none;stroke:#dedede;stroke-linecap:square;"/>
     </g>
     <g id="text_16">
      <!-- 600 -->
      <defs>
       <path d="M 33.015625 40.375 
Q 26.375 40.375 22.484375 35.828125 
Q 18.609375 31.296875 18.609375 23.390625 
Q 18.609375 15.53125 22.484375 10.953125 
Q 26.375 6.390625 33.015625 6.390625 
Q 39.65625 6.390625 43.53125 10.953125 
Q 47.40625 15.53125 47.40625 23.390625 
Q 47.40625 31.296875 43.53125 35.828125 
Q 39.65625 40.375 33.015625 40.375 
z
M 52.59375 71.296875 
L 52.59375 62.3125 
Q 48.875 64.0625 45.09375 64.984375 
Q 41.3125 65.921875 37.59375 65.921875 
Q 27.828125 65.921875 22.671875 59.328125 
Q 17.53125 52.734375 16.796875 39.40625 
Q 19.671875 43.65625 24.015625 45.921875 
Q 28.375 48.1875 33.59375 48.1875 
Q 44.578125 48.1875 50.953125 41.515625 
Q 57.328125 34.859375 57.328125 23.390625 
Q 57.328125 12.15625 50.6875 5.359375 
Q 44.046875 -1.421875 33.015625 -1.421875 
Q 20.359375 -1.421875 13.671875 8.265625 
Q 6.984375 17.96875 6.984375 36.375 
Q 6.984375 53.65625 15.1875 63.9375 
Q 23.390625 74.21875 37.203125 74.21875 
Q 40.921875 74.21875 44.703125 73.484375 
Q 48.484375 72.75 52.59375 71.296875 
z
" id="DejaVuSans-36"/>
      </defs>
      <g transform="translate(20.878125 58.255573)scale(0.08 -0.08)">
       <use xlink:href="#DejaVuSans-36"/>
       <use x="63.623047" xlink:href="#DejaVuSans-30"/>
       <use x="127.246094" xlink:href="#DejaVuSans-30"/>
      </g>
     </g>
    </g>
    <g id="text_17">
     <!-- Count -->
     <defs>
      <path d="M 64.40625 67.28125 
L 64.40625 56.890625 
Q 59.421875 61.53125 53.78125 63.8125 
Q 48.140625 66.109375 41.796875 66.109375 
Q 29.296875 66.109375 22.65625 58.46875 
Q 16.015625 50.828125 16.015625 36.375 
Q 16.015625 21.96875 22.65625 14.328125 
Q 29.296875 6.6875 41.796875 6.6875 
Q 48.140625 6.6875 53.78125 8.984375 
Q 59.421875 11.28125 64.40625 15.921875 
L 64.40625 5.609375 
Q 59.234375 2.09375 53.4375 0.328125 
Q 47.65625 -1.421875 41.21875 -1.421875 
Q 24.65625 -1.421875 15.125 8.703125 
Q 5.609375 18.84375 5.609375 36.375 
Q 5.609375 53.953125 15.125 64.078125 
Q 24.65625 74.21875 41.21875 74.21875 
Q 47.75 74.21875 53.53125 72.484375 
Q 59.328125 70.75 64.40625 67.28125 
z
" id="DejaVuSans-43"/>
     </defs>
     <g transform="translate(14.798437 223.977937)rotate(-90)scale(0.1 -0.1)">
      <use xlink:href="#DejaVuSans-43"/>
      <use x="69.824219" xlink:href="#DejaVuSans-6f"/>
      <use x="131.005859" xlink:href="#DejaVuSans-75"/>
      <use x="194.384766" xlink:href="#DejaVuSans-6e"/>
      <use x="257.763672" xlink:href="#DejaVuSans-74"/>
     </g>
    </g>
   </g>
   <g id="line2d_8">
    <path clip-path="url(#p70351e8436)" d="M 294.450512 381.105444 
L 319.580751 381.6495 
L 344.71099 381.6495 
L 369.841228 381.6495 
L 394.971467 381.6495 
L 420.101706 381.6495 
L 445.231945 381.105444 
L 470.362183 381.6495 
L 495.492422 381.6495 
L 520.622661 381.6495 
L 545.7529 381.6495 
L 570.883138 381.105444 
L 596.013377 381.6495 
L 621.143616 381.6495 
L 646.273854 381.6495 
L 671.404093 381.6495 
L 696.534332 380.561389 
L 721.664571 381.105444 
L 746.794809 381.105444 
L 771.925048 381.105444 
L 797.055287 381.105444 
L 822.185526 378.929222 
L 847.315764 375.664889 
L 872.446003 365.327835 
L 897.576242 380.017333 
" style="fill:none;stroke:#5cb85c;stroke-linecap:square;"/>
   </g>
   <g id="line2d_9">
    <path clip-path="url(#p70351e8436)" d="M 93.408602 380.561389 
L 118.538841 381.6495 
L 143.66908 381.6495 
L 168.799319 381.6495 
L 193.929557 381.6495 
L 219.059796 381.6495 
L 244.190035 381.6495 
L 269.320274 381.6495 
L 294.450512 381.6495 
L 319.580751 381.105444 
L 344.71099 381.105444 
L 369.841228 381.6495 
L 394.971467 381.6495 
L 420.101706 381.6495 
L 445.231945 381.6495 
L 470.362183 381.105444 
L 495.492422 381.6495 
L 520.622661 381.6495 
L 545.7529 381.6495 
L 570.883138 381.6495 
L 596.013377 381.6495 
L 621.143616 381.6495 
L 646.273854 381.6495 
L 671.404093 381.105444 
L 696.534332 379.473278 
L 721.664571 381.6495 
L 746.794809 380.561389 
L 771.925048 380.561389 
L 797.055287 381.105444 
L 822.185526 378.929222 
L 847.315764 374.576778 
L 872.446003 368.048112 
" style="fill:none;stroke:#5cb85c;stroke-linecap:square;"/>
   </g>
   <g id="line2d_10">
    <path clip-path="url(#p70351e8436)" d="M 596.013377 381.105444 
L 621.143616 381.6495 
L 646.273854 381.6495 
L 671.404093 381.6495 
L 696.534332 381.6495 
L 721.664571 381.6495 
L 746.794809 381.6495 
L 771.925048 380.561389 
L 797.055287 381.105444 
L 822.185526 380.561389 
L 847.315764 379.473278 
L 872.446003 371.856501 
L 897.576242 380.017333 
" style="fill:none;stroke:#5cb85c;stroke-linecap:square;"/>
   </g>
   <g id="line2d_11">
    <path clip-path="url(#p70351e8436)" d="M 269.320274 381.105444 
L 294.450512 381.6495 
L 319.580751 381.6495 
L 344.71099 381.6495 
L 369.841228 381.6495 
L 394.971467 381.6495 
L 420.101706 381.6495 
L 445.231945 381.6495 
L 470.362183 381.6495 
L 495.492422 381.6495 
L 520.622661 381.6495 
L 545.7529 381.6495 
L 570.883138 381.6495 
L 596.013377 381.105444 
L 621.143616 381.6495 
L 646.273854 381.6495 
L 671.404093 381.6495 
L 696.534332 381.6495 
L 721.664571 381.6495 
L 746.794809 381.6495 
L 771.925048 381.6495 
L 797.055287 381.105444 
L 822.185526 380.561389 
L 847.315764 376.753 
L 872.446003 372.400556 
" style="fill:none;stroke:#5cb85c;stroke-linecap:square;"/>
   </g>
   <g id="line2d_12">
    <path clip-path="url(#p70351e8436)" d="M 570.883138 380.561389 
L 596.013377 381.6495 
L 621.143616 381.6495 
L 646.273854 381.105444 
L 671.404093 381.6495 
L 696.534332 381.105444 
L 721.664571 381.6495 
L 746.794809 381.105444 
L 771.925048 381.6495 
L 797.055287 380.561389 
L 822.185526 378.929222 
L 847.315764 378.929222 
L 872.446003 368.592168 
L 897.576242 365.327835 
" style="fill:none;stroke:#5cb85c;stroke-linecap:square;"/>
   </g>
   <g id="line2d_13">
    <path clip-path="url(#p70351e8436)" d="M 118.538841 381.105444 
L 143.66908 381.6495 
L 168.799319 381.6495 
L 193.929557 381.6495 
L 219.059796 381.6495 
L 244.190035 381.6495 
L 269.320274 381.6495 
L 294.450512 381.105444 
L 319.580751 381.6495 
L 344.71099 381.6495 
L 369.841228 381.6495 
L 394.971467 381.105444 
L 420.101706 381.6495 
L 445.231945 381.105444 
L 470.362183 381.6495 
L 495.492422 381.6495 
L 520.622661 381.6495 
L 545.7529 381.6495 
L 570.883138 381.6495 
L 596.013377 381.6495 
L 621.143616 381.105444 
L 646.273854 381.6495 
L 671.404093 381.105444 
L 696.534332 381.105444 
L 721.664571 381.6495 
L 746.794809 381.6495 
L 771.925048 380.017333 
L 797.055287 378.929222 
L 822.185526 377.841111 
L 847.315764 374.576778 
L 872.446003 362.063502 
" style="fill:none;stroke:#5cb85c;stroke-linecap:square;"/>
   </g>
   <g id="line2d_14">
    <path clip-path="url(#p70351e8436)" d="M 244.190035 381.105444 
L 269.320274 381.6495 
L 294.450512 381.105444 
L 319.580751 381.6495 
L 344.71099 381.6495 
L 369.841228 381.6495 
L 394.971467 381.6495 
L 420.101706 381.6495 
L 445.231945 381.6495 
L 470.362183 381.6495 
L 495.492422 381.6495 
L 520.622661 381.6495 
L 545.7529 380.561389 
L 570.883138 381.6495 
L 596.013377 381.6495 
L 621.143616 381.6495 
L 646.273854 381.6495 
L 671.404093 381.6495 
L 696.534332 381.6495 
L 721.664571 381.105444 
L 746.794809 381.6495 
L 771.925048 380.017333 
L 797.055287 381.105444 
L 822.185526 380.017333 
L 847.315764 376.208945 
L 872.446003 372.400556 
L 897.576242 347.374003 
" style="fill:none;stroke:#5cb85c;stroke-linecap:square;"/>
   </g>
   <g id="line2d_15">
    <path clip-path="url(#p70351e8436)" d="M 93.408602 379.473278 
L 118.538841 381.6495 
L 143.66908 381.6495 
L 168.799319 381.6495 
L 193.929557 381.6495 
L 219.059796 381.6495 
L 244.190035 381.6495 
L 269.320274 381.6495 
L 294.450512 381.6495 
L 319.580751 381.6495 
L 344.71099 381.6495 
L 369.841228 381.105444 
L 394.971467 381.6495 
L 420.101706 381.6495 
L 445.231945 381.6495 
L 470.362183 381.105444 
L 495.492422 381.105444 
L 520.622661 381.105444 
L 545.7529 381.6495 
L 570.883138 381.105444 
L 596.013377 381.6495 
L 621.143616 381.105444 
L 646.273854 381.105444 
L 671.404093 381.6495 
L 696.534332 380.017333 
L 721.664571 381.105444 
L 746.794809 381.6495 
L 771.925048 381.6495 
L 797.055287 381.105444 
L 822.185526 377.297056 
L 847.315764 367.504057 
L 872.446003 353.358614 
" style="fill:none;stroke:#5cb85c;stroke-linecap:square;"/>
   </g>
   <g id="line2d_16">
    <path clip-path="url(#p70351e8436)" d="M 721.664571 381.105444 
L 746.794809 381.105444 
L 771.925048 381.105444 
L 797.055287 378.929222 
L 822.185526 381.105444 
L 847.315764 379.473278 
L 872.446003 368.048112 
L 897.576242 351.182392 
" style="fill:none;stroke:#5cb85c;stroke-linecap:square;"/>
   </g>
   <g id="line2d_17">
    <path clip-path="url(#p70351e8436)" d="M 93.408602 380.017333 
L 118.538841 381.6495 
L 143.66908 381.6495 
L 168.799319 381.6495 
L 193.929557 381.6495 
L 219.059796 381.6495 
L 244.190035 381.6495 
L 269.320274 381.6495 
L 294.450512 381.6495 
L 319.580751 381.105444 
L 344.71099 381.6495 
L 369.841228 381.6495 
L 394.971467 381.6495 
L 420.101706 381.6495 
L 445.231945 381.6495 
L 470.362183 381.6495 
L 495.492422 381.6495 
L 520.622661 381.6495 
L 545.7529 381.105444 
L 570.883138 381.6495 
L 596.013377 381.6495 
L 621.143616 381.6495 
L 646.273854 381.6495 
L 671.404093 381.105444 
L 696.534332 381.6495 
L 721.664571 381.6495 
L 746.794809 381.6495 
L 771.925048 381.105444 
L 797.055287 381.105444 
L 822.185526 377.297056 
L 847.315764 371.312445 
L 872.446003 349.550225 
" style="fill:none;stroke:#5cb85c;stroke-linecap:square;"/>
   </g>
   <g id="line2d_18">
    <path clip-path="url(#p70351e8436)" d="M 696.534332 381.105444 
L 721.664571 381.105444 
L 746.794809 381.105444 
L 771.925048 381.105444 
L 797.055287 380.561389 
L 822.185526 380.017333 
L 847.315764 378.929222 
L 872.446003 363.695668 
L 897.576242 364.239724 
" style="fill:none;stroke:#5cb85c;stroke-linecap:square;"/>
   </g>
   <g id="line2d_19">
    <path clip-path="url(#p70351e8436)" d="M 93.408602 380.561389 
L 118.538841 381.105444 
L 143.66908 381.6495 
L 168.799319 381.6495 
L 193.929557 381.6495 
L 219.059796 381.6495 
L 244.190035 381.105444 
L 269.320274 381.105444 
L 294.450512 381.6495 
L 319.580751 381.6495 
L 344.71099 381.6495 
L 369.841228 381.6495 
L 394.971467 381.6495 
L 420.101706 381.6495 
L 445.231945 381.6495 
L 470.362183 381.105444 
L 495.492422 381.6495 
L 520.622661 381.6495 
L 545.7529 381.6495 
L 570.883138 381.105444 
L 596.013377 381.105444 
L 621.143616 381.6495 
L 646.273854 381.6495 
L 671.404093 380.561389 
L 696.534332 381.105444 
L 721.664571 381.6495 
L 746.794809 381.105444 
L 771.925048 381.105444 
L 797.055287 380.017333 
L 822.185526 380.017333 
L 847.315764 377.297056 
L 872.446003 353.358614 
" style="fill:none;stroke:#5cb85c;stroke-linecap:square;"/>
   </g>
   <g id="line2d_20">
    <path clip-path="url(#p70351e8436)" d="M 319.580751 381.105444 
L 344.71099 381.6495 
L 369.841228 381.105444 
L 394.971467 381.6495 
L 420.101706 381.105444 
L 445.231945 381.6495 
L 470.362183 380.561389 
L 495.492422 381.6495 
L 520.622661 381.6495 
L 545.7529 381.105444 
L 570.883138 381.105444 
L 596.013377 381.105444 
L 621.143616 381.6495 
L 646.273854 380.561389 
L 671.404093 381.105444 
L 696.534332 379.473278 
L 721.664571 379.473278 
L 746.794809 377.841111 
L 771.925048 375.120834 
L 797.055287 373.488667 
L 822.185526 371.312445 
L 847.315764 362.063502 
L 872.446003 356.622947 
L 897.576242 305.48173 
L 922.70648 68.27353 
" style="fill:none;stroke:#5cb85c;stroke-linecap:square;"/>
   </g>
   <g id="line2d_21">
    <path clip-path="url(#p70351e8436)" d="M 93.408602 372.944612 
L 118.538841 380.561389 
L 143.66908 381.105444 
L 168.799319 381.6495 
L 193.929557 381.105444 
L 219.059796 381.6495 
L 244.190035 381.6495 
L 269.320274 381.6495 
L 294.450512 381.105444 
L 319.580751 381.6495 
L 344.71099 380.561389 
L 369.841228 381.6495 
L 394.971467 380.561389 
L 420.101706 381.6495 
L 445.231945 381.105444 
L 470.362183 380.561389 
L 495.492422 380.017333 
L 520.622661 381.105444 
L 545.7529 381.6495 
L 570.883138 380.017333 
L 596.013377 381.105444 
L 621.143616 381.105444 
L 646.273854 380.561389 
L 671.404093 380.017333 
L 696.534332 378.929222 
L 721.664571 374.032723 
L 746.794809 376.753 
L 771.925048 371.856501 
L 797.055287 373.488667 
L 822.185526 367.504057 
L 847.315764 358.255113 
L 872.446003 343.021559 
L 897.576242 265.221622 
L 922.70648 156.954577 
" style="fill:none;stroke:#5cb85c;stroke-linecap:square;"/>
   </g>
   <g id="line2d_22">
    <path clip-path="url(#p70351e8436)" d="M 394.971467 381.105444 
L 420.101706 381.6495 
L 445.231945 381.6495 
L 470.362183 381.6495 
L 495.492422 381.6495 
L 520.622661 381.105444 
L 545.7529 381.6495 
L 570.883138 381.6495 
L 596.013377 380.561389 
L 621.143616 381.105444 
L 646.273854 381.105444 
L 671.404093 380.017333 
L 696.534332 380.561389 
L 721.664571 380.561389 
L 746.794809 377.841111 
L 771.925048 376.753 
L 797.055287 374.576778 
L 822.185526 371.856501 
L 847.315764 363.151613 
L 872.446003 352.270503 
L 897.576242 310.378229 
L 922.70648 99.828749 
L 947.836719 380.561389 
" style="fill:none;stroke:#5cb85c;stroke-linecap:square;"/>
   </g>
   <g id="line2d_23">
    <path clip-path="url(#p70351e8436)" d="M 93.408602 375.120834 
L 118.538841 381.105444 
L 143.66908 381.105444 
L 168.799319 381.6495 
L 193.929557 381.105444 
L 219.059796 381.6495 
L 244.190035 381.105444 
L 269.320274 381.6495 
L 294.450512 380.561389 
L 319.580751 381.105444 
L 344.71099 381.6495 
L 369.841228 381.6495 
L 394.971467 380.561389 
L 420.101706 381.105444 
L 445.231945 381.105444 
L 470.362183 381.6495 
L 495.492422 380.017333 
L 520.622661 381.6495 
L 545.7529 380.561389 
L 570.883138 380.561389 
L 596.013377 380.017333 
L 621.143616 381.105444 
L 646.273854 378.929222 
L 671.404093 378.929222 
L 696.534332 380.017333 
L 721.664571 377.841111 
L 746.794809 377.841111 
L 771.925048 374.032723 
L 797.055287 368.592168 
L 822.185526 369.136223 
L 847.315764 360.975391 
L 872.446003 337.581004 
L 897.576242 299.497119 
L 922.70648 160.21891 
" style="fill:none;stroke:#5cb85c;stroke-linecap:square;"/>
   </g>
   <g id="line2d_24">
    <path clip-path="url(#p70351e8436)" d="M 570.883138 380.561389 
L 596.013377 381.6495 
L 621.143616 379.473278 
L 646.273854 380.017333 
L 671.404093 380.561389 
L 696.534332 381.105444 
L 721.664571 379.473278 
L 746.794809 376.753 
L 771.925048 379.473278 
L 797.055287 374.032723 
L 822.185526 371.312445 
L 847.315764 365.87189 
L 872.446003 350.094281 
L 897.576242 308.746063 
L 922.70648 88.403584 
L 947.836719 380.017333 
" style="fill:none;stroke:#5cb85c;stroke-linecap:square;"/>
   </g>
   <g id="line2d_25">
    <path clip-path="url(#p70351e8436)" d="M 93.408602 377.297056 
L 118.538841 380.561389 
L 143.66908 381.105444 
L 168.799319 380.561389 
L 193.929557 380.561389 
L 219.059796 381.105444 
L 244.190035 381.6495 
L 269.320274 381.6495 
L 294.450512 381.105444 
L 319.580751 380.561389 
L 344.71099 381.6495 
L 369.841228 381.105444 
L 394.971467 381.6495 
L 420.101706 380.561389 
L 445.231945 381.105444 
L 470.362183 381.105444 
L 495.492422 380.561389 
L 520.622661 381.105444 
L 545.7529 379.473278 
L 570.883138 380.561389 
L 596.013377 381.105444 
L 621.143616 381.105444 
L 646.273854 380.017333 
L 671.404093 378.929222 
L 696.534332 381.6495 
L 721.664571 376.208945 
L 746.794809 372.944612 
L 771.925048 370.224334 
L 797.055287 369.136223 
L 822.185526 369.136223 
L 847.315764 356.622947 
L 872.446003 343.565615 
L 897.576242 285.351676 
L 922.70648 166.203521 
" style="fill:none;stroke:#5cb85c;stroke-linecap:square;"/>
   </g>
   <g id="line2d_26">
    <path clip-path="url(#p70351e8436)" d="M 294.450512 381.105444 
L 319.580751 381.6495 
L 344.71099 381.6495 
L 369.841228 381.105444 
L 394.971467 381.6495 
L 420.101706 381.6495 
L 445.231945 381.105444 
L 470.362183 381.105444 
L 495.492422 381.6495 
L 520.622661 380.561389 
L 545.7529 381.6495 
L 570.883138 381.6495 
L 596.013377 381.105444 
L 621.143616 381.105444 
L 646.273854 379.473278 
L 671.404093 381.6495 
L 696.534332 380.561389 
L 721.664571 380.017333 
L 746.794809 380.017333 
L 771.925048 377.841111 
L 797.055287 375.664889 
L 822.185526 371.312445 
L 847.315764 360.975391 
L 872.446003 338.669115 
L 897.576242 294.60062 
L 922.70648 56.304309 
L 947.836719 380.561389 
" style="fill:none;stroke:#5cb85c;stroke-linecap:square;"/>
   </g>
   <g id="line2d_27">
    <path clip-path="url(#p70351e8436)" d="M 93.408602 374.576778 
L 118.538841 381.105444 
L 143.66908 380.561389 
L 168.799319 380.561389 
L 193.929557 381.6495 
L 219.059796 381.105444 
L 244.190035 381.105444 
L 269.320274 381.6495 
L 294.450512 381.6495 
L 319.580751 380.561389 
L 344.71099 381.105444 
L 369.841228 381.6495 
L 394.971467 381.6495 
L 420.101706 381.105444 
L 445.231945 381.105444 
L 470.362183 380.561389 
L 495.492422 381.105444 
L 520.622661 381.6495 
L 545.7529 380.561389 
L 570.883138 380.561389 
L 596.013377 379.473278 
L 621.143616 381.6495 
L 646.273854 377.841111 
L 671.404093 380.017333 
L 696.534332 378.929222 
L 721.664571 377.841111 
L 746.794809 377.841111 
L 771.925048 374.576778 
L 797.055287 368.592168 
L 822.185526 367.504057 
L 847.315764 351.726447 
L 872.446003 337.581004 
L 897.576242 273.92651 
L 922.70648 124.855303 
" style="fill:none;stroke:#5cb85c;stroke-linecap:square;"/>
   </g>
   <g id="line2d_28">
    <path clip-path="url(#p70351e8436)" d="M 344.71099 381.105444 
L 369.841228 381.6495 
L 394.971467 381.105444 
L 420.101706 381.105444 
L 445.231945 381.6495 
L 470.362183 381.6495 
L 495.492422 380.561389 
L 520.622661 381.6495 
L 545.7529 379.473278 
L 570.883138 381.6495 
L 596.013377 381.105444 
L 621.143616 381.6495 
L 646.273854 381.105444 
L 671.404093 380.017333 
L 696.534332 380.017333 
L 721.664571 380.017333 
L 746.794809 378.385167 
L 771.925048 378.929222 
L 797.055287 374.032723 
L 822.185526 370.224334 
L 847.315764 364.783779 
L 872.446003 353.358614 
L 897.576242 307.113896 
L 922.70648 53.039976 
L 947.836719 381.105444 
" style="fill:none;stroke:#5cb85c;stroke-linecap:square;"/>
   </g>
   <g id="line2d_29">
    <path clip-path="url(#p70351e8436)" d="M 93.408602 375.120834 
L 118.538841 381.105444 
L 143.66908 381.105444 
L 168.799319 381.6495 
L 193.929557 381.6495 
L 219.059796 381.6495 
L 244.190035 381.6495 
L 269.320274 381.6495 
L 294.450512 379.473278 
L 319.580751 381.6495 
L 344.71099 381.105444 
L 369.841228 381.6495 
L 394.971467 381.6495 
L 420.101706 381.6495 
L 445.231945 381.105444 
L 470.362183 379.473278 
L 495.492422 381.105444 
L 520.622661 380.561389 
L 545.7529 380.561389 
L 570.883138 381.105444 
L 596.013377 380.017333 
L 621.143616 379.473278 
L 646.273854 380.017333 
L 671.404093 379.473278 
L 696.534332 378.929222 
L 721.664571 379.473278 
L 746.794809 376.208945 
L 771.925048 375.664889 
L 797.055287 371.856501 
L 822.185526 371.312445 
L 847.315764 352.814558 
L 872.446003 341.389393 
L 897.576242 273.382455 
L 922.70648 134.648302 
" style="fill:none;stroke:#5cb85c;stroke-linecap:square;"/>
   </g>
   <g id="line2d_30">
    <path clip-path="url(#p70351e8436)" d="M 43.148125 381.6495 
L 990.558125 381.6495 
" style="fill:none;stroke:#dedede;stroke-linecap:square;stroke-width:2;"/>
   </g>
   <g id="text_18">
    <!-- FastQC: Per Sequence Quality Scores -->
    <defs>
     <path d="M 9.8125 72.90625 
L 51.703125 72.90625 
L 51.703125 64.59375 
L 19.671875 64.59375 
L 19.671875 43.109375 
L 48.578125 43.109375 
L 48.578125 34.8125 
L 19.671875 34.8125 
L 19.671875 0 
L 9.8125 0 
z
" id="DejaVuSans-46"/>
     <path d="M 44.28125 53.078125 
L 44.28125 44.578125 
Q 40.484375 46.53125 36.375 47.5 
Q 32.28125 48.484375 27.875 48.484375 
Q 21.1875 48.484375 17.84375 46.4375 
Q 14.5 44.390625 14.5 40.28125 
Q 14.5 37.15625 16.890625 35.375 
Q 19.28125 33.59375 26.515625 31.984375 
L 29.59375 31.296875 
Q 39.15625 29.25 43.1875 25.515625 
Q 47.21875 21.78125 47.21875 15.09375 
Q 47.21875 7.46875 41.1875 3.015625 
Q 35.15625 -1.421875 24.609375 -1.421875 
Q 20.21875 -1.421875 15.453125 -0.5625 
Q 10.6875 0.296875 5.421875 2 
L 5.421875 11.28125 
Q 10.40625 8.6875 15.234375 7.390625 
Q 20.0625 6.109375 24.8125 6.109375 
Q 31.15625 6.109375 34.5625 8.28125 
Q 37.984375 10.453125 37.984375 14.40625 
Q 37.984375 18.0625 35.515625 20.015625 
Q 33.0625 21.96875 24.703125 23.78125 
L 21.578125 24.515625 
Q 13.234375 26.265625 9.515625 29.90625 
Q 5.8125 33.546875 5.8125 39.890625 
Q 5.8125 47.609375 11.28125 51.796875 
Q 16.75 56 26.8125 56 
Q 31.78125 56 36.171875 55.265625 
Q 40.578125 54.546875 44.28125 53.078125 
z
" id="DejaVuSans-73"/>
     <path d="M 11.71875 12.40625 
L 22.015625 12.40625 
L 22.015625 0 
L 11.71875 0 
z
M 11.71875 51.703125 
L 22.015625 51.703125 
L 22.015625 39.3125 
L 11.71875 39.3125 
z
" id="DejaVuSans-3a"/>
    </defs>
    <g transform="translate(367.478125 19.3575)scale(0.16 -0.16)">
     <use xlink:href="#DejaVuSans-46"/>
     <use x="57.378906" xlink:href="#DejaVuSans-61"/>
     <use x="118.658203" xlink:href="#DejaVuSans-73"/>
     <use x="170.757812" xlink:href="#DejaVuSans-74"/>
     <use x="209.966797" xlink:href="#DejaVuSans-51"/>
     <use x="288.677734" xlink:href="#DejaVuSans-43"/>
     <use x="358.501953" xlink:href="#DejaVuSans-3a"/>
     <use x="392.193359" xlink:href="#DejaVuSans-20"/>
     <use x="423.980469" xlink:href="#DejaVuSans-50"/>
     <use x="484.236328" xlink:href="#DejaVuSans-65"/>
     <use x="545.759766" xlink:href="#DejaVuSans-72"/>
     <use x="586.873047" xlink:href="#DejaVuSans-20"/>
     <use x="618.660156" xlink:href="#DejaVuSans-53"/>
     <use x="682.136719" xlink:href="#DejaVuSans-65"/>
     <use x="743.660156" xlink:href="#DejaVuSans-71"/>
     <use x="807.136719" xlink:href="#DejaVuSans-75"/>
     <use x="870.515625" xlink:href="#DejaVuSans-65"/>
     <use x="932.039062" xlink:href="#DejaVuSans-6e"/>
     <use x="995.417969" xlink:href="#DejaVuSans-63"/>
     <use x="1050.398438" xlink:href="#DejaVuSans-65"/>
     <use x="1111.921875" xlink:href="#DejaVuSans-20"/>
     <use x="1143.708984" xlink:href="#DejaVuSans-51"/>
     <use x="1222.419922" xlink:href="#DejaVuSans-75"/>
     <use x="1285.798828" xlink:href="#DejaVuSans-61"/>
     <use x="1347.078125" xlink:href="#DejaVuSans-6c"/>
     <use x="1374.861328" xlink:href="#DejaVuSans-69"/>
     <use x="1402.644531" xlink:href="#DejaVuSans-74"/>
     <use x="1441.853516" xlink:href="#DejaVuSans-79"/>
     <use x="1501.033203" xlink:href="#DejaVuSans-20"/>
     <use x="1532.820312" xlink:href="#DejaVuSans-53"/>
     <use x="1596.296875" xlink:href="#DejaVuSans-63"/>
     <use x="1651.277344" xlink:href="#DejaVuSans-6f"/>
     <use x="1712.458984" xlink:href="#DejaVuSans-72"/>
     <use x="1753.541016" xlink:href="#DejaVuSans-65"/>
     <use x="1815.064453" xlink:href="#DejaVuSans-73"/>
    </g>
   </g>
  </g>
 </g>
 <defs>
  <clipPath id="p70351e8436">
   <rect height="345.04" width="947.41" x="43.148125" y="36.6095"/>
  </clipPath>
 </defs>
</svg>
