<?xml version="1.0" encoding="utf-8" standalone="no"?>
<!DOCTYPE svg PUBLIC "-//W3C//DTD SVG 1.1//EN"
  "http://www.w3.org/Graphics/SVG/1.1/DTD/svg11.dtd">
<!-- Created with matplotlib (http://matplotlib.org/) -->
<svg height="417.270125pt" version="1.1" viewBox="0 0 1001.298125 417.270125" width="1001.298125pt" xmlns="http://www.w3.org/2000/svg" xmlns:xlink="http://www.w3.org/1999/xlink">
 <defs>
  <style type="text/css">
*{stroke-linecap:butt;stroke-linejoin:round;}
  </style>
 </defs>
 <g id="figure_1">
  <g id="patch_1">
   <path d="M 0 417.270125 
L 1001.298125 417.270125 
L 1001.298125 0 
L 0 0 
z
" style="fill:#ffffff;"/>
  </g>
  <g id="axes_1">
   <g id="patch_2">
    <path d="M 38.058125 381.6495 
L 990.598125 381.6495 
L 990.598125 36.6095 
L 38.058125 36.6095 
z
" style="fill:#ffffff;"/>
   </g>
   <g id="patch_3">
    <path clip-path="url(#p1e1226654a)" d="M 38.058125 111.922034 
L 956.047776 111.922034 
L 956.047776 -581.662877 
L 38.058125 -581.662877 
z
" style="fill:#c3e6c3;"/>
   </g>
   <g id="patch_4">
    <path clip-path="url(#p1e1226654a)" d="M 38.058125 188.987025 
L 956.047776 188.987025 
L 956.047776 111.922034 
L 38.058125 111.922034 
z
" style="fill:#e6dcc3;"/>
   </g>
   <g id="patch_5">
    <path clip-path="url(#p1e1226654a)" d="M 38.058125 381.6495 
L 956.047776 381.6495 
L 956.047776 188.987025 
L 38.058125 188.987025 
z
" style="fill:#e6c3c3;"/>
   </g>
   <g id="matplotlib.axis_1">
    <g id="xtick_1">
     <g id="text_1">
      <!-- 0 -->
      <defs>
       <path d="M 31.78125 66.40625 
Q 24.171875 66.40625 20.328125 58.90625 
Q 16.5 51.421875 16.5 36.375 
Q 16.5 21.390625 20.328125 13.890625 
Q 24.171875 6.390625 31.78125 6.390625 
Q 39.453125 6.390625 43.28125 13.890625 
Q 47.125 21.390625 47.125 36.375 
Q 47.125 51.421875 43.28125 58.90625 
Q 39.453125 66.40625 31.78125 66.40625 
z
M 31.78125 74.21875 
Q 44.046875 74.21875 50.515625 64.515625 
Q 56.984375 54.828125 56.984375 36.375 
Q 56.984375 17.96875 50.515625 8.265625 
Q 44.046875 -1.421875 31.78125 -1.421875 
Q 19.53125 -1.421875 13.0625 8.265625 
Q 6.59375 17.96875 6.59375 36.375 
Q 6.59375 54.828125 13.0625 64.515625 
Q 19.53125 74.21875 31.78125 74.21875 
z
" id="DejaVuSans-30"/>
      </defs>
      <g transform="translate(70.063474 394.72825)scale(0.08 -0.08)">
       <use xlink:href="#DejaVuSans-30"/>
      </g>
     </g>
    </g>
    <g id="xtick_2">
     <g id="text_2">
      <!-- 20 -->
      <defs>
       <path d="M 19.1875 8.296875 
L 53.609375 8.296875 
L 53.609375 0 
L 7.328125 0 
L 7.328125 8.296875 
Q 12.9375 14.109375 22.625 23.890625 
Q 32.328125 33.6875 34.8125 36.53125 
Q 39.546875 41.84375 41.421875 45.53125 
Q 43.3125 49.21875 43.3125 52.78125 
Q 43.3125 58.59375 39.234375 62.25 
Q 35.15625 65.921875 28.609375 65.921875 
Q 23.96875 65.921875 18.8125 64.3125 
Q 13.671875 62.703125 7.8125 59.421875 
L 7.8125 69.390625 
Q 13.765625 71.78125 18.9375 73 
Q 24.125 74.21875 28.421875 74.21875 
Q 39.75 74.21875 46.484375 68.546875 
Q 53.21875 62.890625 53.21875 53.421875 
Q 53.21875 48.921875 51.53125 44.890625 
Q 49.859375 40.875 45.40625 35.40625 
Q 44.1875 33.984375 37.640625 27.21875 
Q 31.109375 20.453125 19.1875 8.296875 
z
" id="DejaVuSans-32"/>
      </defs>
      <g transform="translate(242.45695 394.72825)scale(0.08 -0.08)">
       <use xlink:href="#DejaVuSans-32"/>
       <use x="63.623047" xlink:href="#DejaVuSans-30"/>
      </g>
     </g>
    </g>
    <g id="xtick_3">
     <g id="text_3">
      <!-- 40 -->
      <defs>
       <path d="M 37.796875 64.3125 
L 12.890625 25.390625 
L 37.796875 25.390625 
z
M 35.203125 72.90625 
L 47.609375 72.90625 
L 47.609375 25.390625 
L 58.015625 25.390625 
L 58.015625 17.1875 
L 47.609375 17.1875 
L 47.609375 0 
L 37.796875 0 
L 37.796875 17.1875 
L 4.890625 17.1875 
L 4.890625 26.703125 
z
" id="DejaVuSans-34"/>
      </defs>
      <g transform="translate(417.395425 394.72825)scale(0.08 -0.08)">
       <use xlink:href="#DejaVuSans-34"/>
       <use x="63.623047" xlink:href="#DejaVuSans-30"/>
      </g>
     </g>
    </g>
    <g id="xtick_4">
     <g id="text_4">
      <!-- 60 -->
      <defs>
       <path d="M 33.015625 40.375 
Q 26.375 40.375 22.484375 35.828125 
Q 18.609375 31.296875 18.609375 23.390625 
Q 18.609375 15.53125 22.484375 10.953125 
Q 26.375 6.390625 33.015625 6.390625 
Q 39.65625 6.390625 43.53125 10.953125 
Q 47.40625 15.53125 47.40625 23.390625 
Q 47.40625 31.296875 43.53125 35.828125 
Q 39.65625 40.375 33.015625 40.375 
z
M 52.59375 71.296875 
L 52.59375 62.3125 
Q 48.875 64.0625 45.09375 64.984375 
Q 41.3125 65.921875 37.59375 65.921875 
Q 27.828125 65.921875 22.671875 59.328125 
Q 17.53125 52.734375 16.796875 39.40625 
Q 19.671875 43.65625 24.015625 45.921875 
Q 28.375 48.1875 33.59375 48.1875 
Q 44.578125 48.1875 50.953125 41.515625 
Q 57.328125 34.859375 57.328125 23.390625 
Q 57.328125 12.15625 50.6875 5.359375 
Q 44.046875 -1.421875 33.015625 -1.421875 
Q 20.359375 -1.421875 13.671875 8.265625 
Q 6.984375 17.96875 6.984375 36.375 
Q 6.984375 53.65625 15.1875 63.9375 
Q 23.390625 74.21875 37.203125 74.21875 
Q 40.921875 74.21875 44.703125 73.484375 
Q 48.484375 72.75 52.59375 71.296875 
z
" id="DejaVuSans-36"/>
      </defs>
      <g transform="translate(592.333901 394.72825)scale(0.08 -0.08)">
       <use xlink:href="#DejaVuSans-36"/>
       <use x="63.623047" xlink:href="#DejaVuSans-30"/>
      </g>
     </g>
    </g>
    <g id="xtick_5">
     <g id="text_5">
      <!-- 80 -->
      <defs>
       <path d="M 31.78125 34.625 
Q 24.75 34.625 20.71875 30.859375 
Q 16.703125 27.09375 16.703125 20.515625 
Q 16.703125 13.921875 20.71875 10.15625 
Q 24.75 6.390625 31.78125 6.390625 
Q 38.8125 6.390625 42.859375 10.171875 
Q 46.921875 13.96875 46.921875 20.515625 
Q 46.921875 27.09375 42.890625 30.859375 
Q 38.875 34.625 31.78125 34.625 
z
M 21.921875 38.8125 
Q 15.578125 40.375 12.03125 44.71875 
Q 8.5 49.078125 8.5 55.328125 
Q 8.5 64.0625 14.71875 69.140625 
Q 20.953125 74.21875 31.78125 74.21875 
Q 42.671875 74.21875 48.875 69.140625 
Q 55.078125 64.0625 55.078125 55.328125 
Q 55.078125 49.078125 51.53125 44.71875 
Q 48 40.375 41.703125 38.8125 
Q 48.828125 37.15625 52.796875 32.3125 
Q 56.78125 27.484375 56.78125 20.515625 
Q 56.78125 9.90625 50.3125 4.234375 
Q 43.84375 -1.421875 31.78125 -1.421875 
Q 19.734375 -1.421875 13.25 4.234375 
Q 6.78125 9.90625 6.78125 20.515625 
Q 6.78125 27.484375 10.78125 32.3125 
Q 14.796875 37.15625 21.921875 38.8125 
z
M 18.3125 54.390625 
Q 18.3125 48.734375 21.84375 45.5625 
Q 25.390625 42.390625 31.78125 42.390625 
Q 38.140625 42.390625 41.71875 45.5625 
Q 45.3125 48.734375 45.3125 54.390625 
Q 45.3125 60.0625 41.71875 63.234375 
Q 38.140625 66.40625 31.78125 66.40625 
Q 25.390625 66.40625 21.84375 63.234375 
Q 18.3125 60.0625 18.3125 54.390625 
z
" id="DejaVuSans-38"/>
      </defs>
      <g transform="translate(767.272377 394.72825)scale(0.08 -0.08)">
       <use xlink:href="#DejaVuSans-38"/>
       <use x="63.623047" xlink:href="#DejaVuSans-30"/>
      </g>
     </g>
    </g>
    <g id="xtick_6">
     <g id="text_6">
      <!-- 100 -->
      <defs>
       <path d="M 12.40625 8.296875 
L 28.515625 8.296875 
L 28.515625 63.921875 
L 10.984375 60.40625 
L 10.984375 69.390625 
L 28.421875 72.90625 
L 38.28125 72.90625 
L 38.28125 8.296875 
L 54.390625 8.296875 
L 54.390625 0 
L 12.40625 0 
z
" id="DejaVuSans-31"/>
      </defs>
      <g transform="translate(939.665852 394.72825)scale(0.08 -0.08)">
       <use xlink:href="#DejaVuSans-31"/>
       <use x="63.623047" xlink:href="#DejaVuSans-30"/>
       <use x="127.246094" xlink:href="#DejaVuSans-30"/>
      </g>
     </g>
    </g>
    <g id="text_7">
     <!-- Position (bp) -->
     <defs>
      <path d="M 19.671875 64.796875 
L 19.671875 37.40625 
L 32.078125 37.40625 
Q 38.96875 37.40625 42.71875 40.96875 
Q 46.484375 44.53125 46.484375 51.125 
Q 46.484375 57.671875 42.71875 61.234375 
Q 38.96875 64.796875 32.078125 64.796875 
z
M 9.8125 72.90625 
L 32.078125 72.90625 
Q 44.34375 72.90625 50.609375 67.359375 
Q 56.890625 61.8125 56.890625 51.125 
Q 56.890625 40.328125 50.609375 34.8125 
Q 44.34375 29.296875 32.078125 29.296875 
L 19.671875 29.296875 
L 19.671875 0 
L 9.8125 0 
z
" id="DejaVuSans-50"/>
      <path d="M 30.609375 48.390625 
Q 23.390625 48.390625 19.1875 42.75 
Q 14.984375 37.109375 14.984375 27.296875 
Q 14.984375 17.484375 19.15625 11.84375 
Q 23.34375 6.203125 30.609375 6.203125 
Q 37.796875 6.203125 41.984375 11.859375 
Q 46.1875 17.53125 46.1875 27.296875 
Q 46.1875 37.015625 41.984375 42.703125 
Q 37.796875 48.390625 30.609375 48.390625 
z
M 30.609375 56 
Q 42.328125 56 49.015625 48.375 
Q 55.71875 40.765625 55.71875 27.296875 
Q 55.71875 13.875 49.015625 6.21875 
Q 42.328125 -1.421875 30.609375 -1.421875 
Q 18.84375 -1.421875 12.171875 6.21875 
Q 5.515625 13.875 5.515625 27.296875 
Q 5.515625 40.765625 12.171875 48.375 
Q 18.84375 56 30.609375 56 
z
" id="DejaVuSans-6f"/>
      <path d="M 44.28125 53.078125 
L 44.28125 44.578125 
Q 40.484375 46.53125 36.375 47.5 
Q 32.28125 48.484375 27.875 48.484375 
Q 21.1875 48.484375 17.84375 46.4375 
Q 14.5 44.390625 14.5 40.28125 
Q 14.5 37.15625 16.890625 35.375 
Q 19.28125 33.59375 26.515625 31.984375 
L 29.59375 31.296875 
Q 39.15625 29.25 43.1875 25.515625 
Q 47.21875 21.78125 47.21875 15.09375 
Q 47.21875 7.46875 41.1875 3.015625 
Q 35.15625 -1.421875 24.609375 -1.421875 
Q 20.21875 -1.421875 15.453125 -0.5625 
Q 10.6875 0.296875 5.421875 2 
L 5.421875 11.28125 
Q 10.40625 8.6875 15.234375 7.390625 
Q 20.0625 6.109375 24.8125 6.109375 
Q 31.15625 6.109375 34.5625 8.28125 
Q 37.984375 10.453125 37.984375 14.40625 
Q 37.984375 18.0625 35.515625 20.015625 
Q 33.0625 21.96875 24.703125 23.78125 
L 21.578125 24.515625 
Q 13.234375 26.265625 9.515625 29.90625 
Q 5.8125 33.546875 5.8125 39.890625 
Q 5.8125 47.609375 11.28125 51.796875 
Q 16.75 56 26.8125 56 
Q 31.78125 56 36.171875 55.265625 
Q 40.578125 54.546875 44.28125 53.078125 
z
" id="DejaVuSans-73"/>
      <path d="M 9.421875 54.6875 
L 18.40625 54.6875 
L 18.40625 0 
L 9.421875 0 
z
M 9.421875 75.984375 
L 18.40625 75.984375 
L 18.40625 64.59375 
L 9.421875 64.59375 
z
" id="DejaVuSans-69"/>
      <path d="M 18.3125 70.21875 
L 18.3125 54.6875 
L 36.8125 54.6875 
L 36.8125 47.703125 
L 18.3125 47.703125 
L 18.3125 18.015625 
Q 18.3125 11.328125 20.140625 9.421875 
Q 21.96875 7.515625 27.59375 7.515625 
L 36.8125 7.515625 
L 36.8125 0 
L 27.59375 0 
Q 17.1875 0 13.234375 3.875 
Q 9.28125 7.765625 9.28125 18.015625 
L 9.28125 47.703125 
L 2.6875 47.703125 
L 2.6875 54.6875 
L 9.28125 54.6875 
L 9.28125 70.21875 
z
" id="DejaVuSans-74"/>
      <path d="M 54.890625 33.015625 
L 54.890625 0 
L 45.90625 0 
L 45.90625 32.71875 
Q 45.90625 40.484375 42.875 44.328125 
Q 39.84375 48.1875 33.796875 48.1875 
Q 26.515625 48.1875 22.3125 43.546875 
Q 18.109375 38.921875 18.109375 30.90625 
L 18.109375 0 
L 9.078125 0 
L 9.078125 54.6875 
L 18.109375 54.6875 
L 18.109375 46.1875 
Q 21.34375 51.125 25.703125 53.5625 
Q 30.078125 56 35.796875 56 
Q 45.21875 56 50.046875 50.171875 
Q 54.890625 44.34375 54.890625 33.015625 
z
" id="DejaVuSans-6e"/>
      <path id="DejaVuSans-20"/>
      <path d="M 31 75.875 
Q 24.46875 64.65625 21.28125 53.65625 
Q 18.109375 42.671875 18.109375 31.390625 
Q 18.109375 20.125 21.3125 9.0625 
Q 24.515625 -2 31 -13.1875 
L 23.1875 -13.1875 
Q 15.875 -1.703125 12.234375 9.375 
Q 8.59375 20.453125 8.59375 31.390625 
Q 8.59375 42.28125 12.203125 53.3125 
Q 15.828125 64.359375 23.1875 75.875 
z
" id="DejaVuSans-28"/>
      <path d="M 48.6875 27.296875 
Q 48.6875 37.203125 44.609375 42.84375 
Q 40.53125 48.484375 33.40625 48.484375 
Q 26.265625 48.484375 22.1875 42.84375 
Q 18.109375 37.203125 18.109375 27.296875 
Q 18.109375 17.390625 22.1875 11.75 
Q 26.265625 6.109375 33.40625 6.109375 
Q 40.53125 6.109375 44.609375 11.75 
Q 48.6875 17.390625 48.6875 27.296875 
z
M 18.109375 46.390625 
Q 20.953125 51.265625 25.265625 53.625 
Q 29.59375 56 35.59375 56 
Q 45.5625 56 51.78125 48.09375 
Q 58.015625 40.1875 58.015625 27.296875 
Q 58.015625 14.40625 51.78125 6.484375 
Q 45.5625 -1.421875 35.59375 -1.421875 
Q 29.59375 -1.421875 25.265625 0.953125 
Q 20.953125 3.328125 18.109375 8.203125 
L 18.109375 0 
L 9.078125 0 
L 9.078125 75.984375 
L 18.109375 75.984375 
z
" id="DejaVuSans-62"/>
      <path d="M 18.109375 8.203125 
L 18.109375 -20.796875 
L 9.078125 -20.796875 
L 9.078125 54.6875 
L 18.109375 54.6875 
L 18.109375 46.390625 
Q 20.953125 51.265625 25.265625 53.625 
Q 29.59375 56 35.59375 56 
Q 45.5625 56 51.78125 48.09375 
Q 58.015625 40.1875 58.015625 27.296875 
Q 58.015625 14.40625 51.78125 6.484375 
Q 45.5625 -1.421875 35.59375 -1.421875 
Q 29.59375 -1.421875 25.265625 0.953125 
Q 20.953125 3.328125 18.109375 8.203125 
z
M 48.6875 27.296875 
Q 48.6875 37.203125 44.609375 42.84375 
Q 40.53125 48.484375 33.40625 48.484375 
Q 26.265625 48.484375 22.1875 42.84375 
Q 18.109375 37.203125 18.109375 27.296875 
Q 18.109375 17.390625 22.1875 11.75 
Q 26.265625 6.109375 33.40625 6.109375 
Q 40.53125 6.109375 44.609375 11.75 
Q 48.6875 17.390625 48.6875 27.296875 
z
" id="DejaVuSans-70"/>
      <path d="M 8.015625 75.875 
L 15.828125 75.875 
Q 23.140625 64.359375 26.78125 53.3125 
Q 30.421875 42.28125 30.421875 31.390625 
Q 30.421875 20.453125 26.78125 9.375 
Q 23.140625 -1.703125 15.828125 -13.1875 
L 8.015625 -13.1875 
Q 14.5 -2 17.703125 9.0625 
Q 20.90625 20.125 20.90625 31.390625 
Q 20.90625 42.671875 17.703125 53.65625 
Q 14.5 64.65625 8.015625 75.875 
z
" id="DejaVuSans-29"/>
     </defs>
     <g transform="translate(482.846094 407.990437)scale(0.1 -0.1)">
      <use xlink:href="#DejaVuSans-50"/>
      <use x="60.255859" xlink:href="#DejaVuSans-6f"/>
      <use x="121.4375" xlink:href="#DejaVuSans-73"/>
      <use x="173.537109" xlink:href="#DejaVuSans-69"/>
      <use x="201.320312" xlink:href="#DejaVuSans-74"/>
      <use x="240.529297" xlink:href="#DejaVuSans-69"/>
      <use x="268.3125" xlink:href="#DejaVuSans-6f"/>
      <use x="329.494141" xlink:href="#DejaVuSans-6e"/>
      <use x="392.873047" xlink:href="#DejaVuSans-20"/>
      <use x="424.660156" xlink:href="#DejaVuSans-28"/>
      <use x="463.673828" xlink:href="#DejaVuSans-62"/>
      <use x="527.150391" xlink:href="#DejaVuSans-70"/>
      <use x="590.626953" xlink:href="#DejaVuSans-29"/>
     </g>
    </g>
   </g>
   <g id="matplotlib.axis_2">
    <g id="ytick_1">
     <g id="line2d_1">
      <path clip-path="url(#p1e1226654a)" d="M 38.058125 381.6495 
L 990.598125 381.6495 
" style="fill:none;stroke:#dedede;stroke-linecap:square;"/>
     </g>
     <g id="text_8">
      <!-- 0 -->
      <g transform="translate(25.968125 384.688875)scale(0.08 -0.08)">
       <use xlink:href="#DejaVuSans-30"/>
      </g>
     </g>
    </g>
    <g id="ytick_2">
     <g id="line2d_2">
      <path clip-path="url(#p1e1226654a)" d="M 38.058125 333.483881 
L 990.598125 333.483881 
" style="fill:none;stroke:#dedede;stroke-linecap:square;"/>
     </g>
     <g id="text_9">
      <!-- 5 -->
      <defs>
       <path d="M 10.796875 72.90625 
L 49.515625 72.90625 
L 49.515625 64.59375 
L 19.828125 64.59375 
L 19.828125 46.734375 
Q 21.96875 47.46875 24.109375 47.828125 
Q 26.265625 48.1875 28.421875 48.1875 
Q 40.625 48.1875 47.75 41.5 
Q 54.890625 34.8125 54.890625 23.390625 
Q 54.890625 11.625 47.5625 5.09375 
Q 40.234375 -1.421875 26.90625 -1.421875 
Q 22.3125 -1.421875 17.546875 -0.640625 
Q 12.796875 0.140625 7.71875 1.703125 
L 7.71875 11.625 
Q 12.109375 9.234375 16.796875 8.0625 
Q 21.484375 6.890625 26.703125 6.890625 
Q 35.15625 6.890625 40.078125 11.328125 
Q 45.015625 15.765625 45.015625 23.390625 
Q 45.015625 31 40.078125 35.4375 
Q 35.15625 39.890625 26.703125 39.890625 
Q 22.75 39.890625 18.8125 39.015625 
Q 14.890625 38.140625 10.796875 36.28125 
z
" id="DejaVuSans-35"/>
      </defs>
      <g transform="translate(25.968125 336.523256)scale(0.08 -0.08)">
       <use xlink:href="#DejaVuSans-35"/>
      </g>
     </g>
    </g>
    <g id="ytick_3">
     <g id="line2d_3">
      <path clip-path="url(#p1e1226654a)" d="M 38.058125 285.318262 
L 990.598125 285.318262 
" style="fill:none;stroke:#dedede;stroke-linecap:square;"/>
     </g>
     <g id="text_10">
      <!-- 10 -->
      <g transform="translate(20.878125 288.357637)scale(0.08 -0.08)">
       <use xlink:href="#DejaVuSans-31"/>
       <use x="63.623047" xlink:href="#DejaVuSans-30"/>
      </g>
     </g>
    </g>
    <g id="ytick_4">
     <g id="line2d_4">
      <path clip-path="url(#p1e1226654a)" d="M 38.058125 237.152643 
L 990.598125 237.152643 
" style="fill:none;stroke:#dedede;stroke-linecap:square;"/>
     </g>
     <g id="text_11">
      <!-- 15 -->
      <g transform="translate(20.878125 240.192018)scale(0.08 -0.08)">
       <use xlink:href="#DejaVuSans-31"/>
       <use x="63.623047" xlink:href="#DejaVuSans-35"/>
      </g>
     </g>
    </g>
    <g id="ytick_5">
     <g id="line2d_5">
      <path clip-path="url(#p1e1226654a)" d="M 38.058125 188.987025 
L 990.598125 188.987025 
" style="fill:none;stroke:#dedede;stroke-linecap:square;"/>
     </g>
     <g id="text_12">
      <!-- 20 -->
      <g transform="translate(20.878125 192.0264)scale(0.08 -0.08)">
       <use xlink:href="#DejaVuSans-32"/>
       <use x="63.623047" xlink:href="#DejaVuSans-30"/>
      </g>
     </g>
    </g>
    <g id="ytick_6">
     <g id="line2d_6">
      <path clip-path="url(#p1e1226654a)" d="M 38.058125 140.821406 
L 990.598125 140.821406 
" style="fill:none;stroke:#dedede;stroke-linecap:square;"/>
     </g>
     <g id="text_13">
      <!-- 25 -->
      <g transform="translate(20.878125 143.860781)scale(0.08 -0.08)">
       <use xlink:href="#DejaVuSans-32"/>
       <use x="63.623047" xlink:href="#DejaVuSans-35"/>
      </g>
     </g>
    </g>
    <g id="ytick_7">
     <g id="line2d_7">
      <path clip-path="url(#p1e1226654a)" d="M 38.058125 92.655787 
L 990.598125 92.655787 
" style="fill:none;stroke:#dedede;stroke-linecap:square;"/>
     </g>
     <g id="text_14">
      <!-- 30 -->
      <defs>
       <path d="M 40.578125 39.3125 
Q 47.65625 37.796875 51.625 33 
Q 55.609375 28.21875 55.609375 21.1875 
Q 55.609375 10.40625 48.1875 4.484375 
Q 40.765625 -1.421875 27.09375 -1.421875 
Q 22.515625 -1.421875 17.65625 -0.515625 
Q 12.796875 0.390625 7.625 2.203125 
L 7.625 11.71875 
Q 11.71875 9.328125 16.59375 8.109375 
Q 21.484375 6.890625 26.8125 6.890625 
Q 36.078125 6.890625 40.9375 10.546875 
Q 45.796875 14.203125 45.796875 21.1875 
Q 45.796875 27.640625 41.28125 31.265625 
Q 36.765625 34.90625 28.71875 34.90625 
L 20.21875 34.90625 
L 20.21875 43.015625 
L 29.109375 43.015625 
Q 36.375 43.015625 40.234375 45.921875 
Q 44.09375 48.828125 44.09375 54.296875 
Q 44.09375 59.90625 40.109375 62.90625 
Q 36.140625 65.921875 28.71875 65.921875 
Q 24.65625 65.921875 20.015625 65.03125 
Q 15.375 64.15625 9.8125 62.3125 
L 9.8125 71.09375 
Q 15.4375 72.65625 20.34375 73.4375 
Q 25.25 74.21875 29.59375 74.21875 
Q 40.828125 74.21875 47.359375 69.109375 
Q 53.90625 64.015625 53.90625 55.328125 
Q 53.90625 49.265625 50.4375 45.09375 
Q 46.96875 40.921875 40.578125 39.3125 
z
" id="DejaVuSans-33"/>
      </defs>
      <g transform="translate(20.878125 95.695162)scale(0.08 -0.08)">
       <use xlink:href="#DejaVuSans-33"/>
       <use x="63.623047" xlink:href="#DejaVuSans-30"/>
      </g>
     </g>
    </g>
    <g id="ytick_8">
     <g id="line2d_8">
      <path clip-path="url(#p1e1226654a)" d="M 38.058125 44.490168 
L 990.598125 44.490168 
" style="fill:none;stroke:#dedede;stroke-linecap:square;"/>
     </g>
     <g id="text_15">
      <!-- 35 -->
      <g transform="translate(20.878125 47.529543)scale(0.08 -0.08)">
       <use xlink:href="#DejaVuSans-33"/>
       <use x="63.623047" xlink:href="#DejaVuSans-35"/>
      </g>
     </g>
    </g>
    <g id="text_16">
     <!-- Phred Score -->
     <defs>
      <path d="M 54.890625 33.015625 
L 54.890625 0 
L 45.90625 0 
L 45.90625 32.71875 
Q 45.90625 40.484375 42.875 44.328125 
Q 39.84375 48.1875 33.796875 48.1875 
Q 26.515625 48.1875 22.3125 43.546875 
Q 18.109375 38.921875 18.109375 30.90625 
L 18.109375 0 
L 9.078125 0 
L 9.078125 75.984375 
L 18.109375 75.984375 
L 18.109375 46.1875 
Q 21.34375 51.125 25.703125 53.5625 
Q 30.078125 56 35.796875 56 
Q 45.21875 56 50.046875 50.171875 
Q 54.890625 44.34375 54.890625 33.015625 
z
" id="DejaVuSans-68"/>
      <path d="M 41.109375 46.296875 
Q 39.59375 47.171875 37.8125 47.578125 
Q 36.03125 48 33.890625 48 
Q 26.265625 48 22.1875 43.046875 
Q 18.109375 38.09375 18.109375 28.8125 
L 18.109375 0 
L 9.078125 0 
L 9.078125 54.6875 
L 18.109375 54.6875 
L 18.109375 46.1875 
Q 20.953125 51.171875 25.484375 53.578125 
Q 30.03125 56 36.53125 56 
Q 37.453125 56 38.578125 55.875 
Q 39.703125 55.765625 41.0625 55.515625 
z
" id="DejaVuSans-72"/>
      <path d="M 56.203125 29.59375 
L 56.203125 25.203125 
L 14.890625 25.203125 
Q 15.484375 15.921875 20.484375 11.0625 
Q 25.484375 6.203125 34.421875 6.203125 
Q 39.59375 6.203125 44.453125 7.46875 
Q 49.3125 8.734375 54.109375 11.28125 
L 54.109375 2.78125 
Q 49.265625 0.734375 44.1875 -0.34375 
Q 39.109375 -1.421875 33.890625 -1.421875 
Q 20.796875 -1.421875 13.15625 6.1875 
Q 5.515625 13.8125 5.515625 26.8125 
Q 5.515625 40.234375 12.765625 48.109375 
Q 20.015625 56 32.328125 56 
Q 43.359375 56 49.78125 48.890625 
Q 56.203125 41.796875 56.203125 29.59375 
z
M 47.21875 32.234375 
Q 47.125 39.59375 43.09375 43.984375 
Q 39.0625 48.390625 32.421875 48.390625 
Q 24.90625 48.390625 20.390625 44.140625 
Q 15.875 39.890625 15.1875 32.171875 
z
" id="DejaVuSans-65"/>
      <path d="M 45.40625 46.390625 
L 45.40625 75.984375 
L 54.390625 75.984375 
L 54.390625 0 
L 45.40625 0 
L 45.40625 8.203125 
Q 42.578125 3.328125 38.25 0.953125 
Q 33.9375 -1.421875 27.875 -1.421875 
Q 17.96875 -1.421875 11.734375 6.484375 
Q 5.515625 14.40625 5.515625 27.296875 
Q 5.515625 40.1875 11.734375 48.09375 
Q 17.96875 56 27.875 56 
Q 33.9375 56 38.25 53.625 
Q 42.578125 51.265625 45.40625 46.390625 
z
M 14.796875 27.296875 
Q 14.796875 17.390625 18.875 11.75 
Q 22.953125 6.109375 30.078125 6.109375 
Q 37.203125 6.109375 41.296875 11.75 
Q 45.40625 17.390625 45.40625 27.296875 
Q 45.40625 37.203125 41.296875 42.84375 
Q 37.203125 48.484375 30.078125 48.484375 
Q 22.953125 48.484375 18.875 42.84375 
Q 14.796875 37.203125 14.796875 27.296875 
z
" id="DejaVuSans-64"/>
      <path d="M 53.515625 70.515625 
L 53.515625 60.890625 
Q 47.90625 63.578125 42.921875 64.890625 
Q 37.9375 66.21875 33.296875 66.21875 
Q 25.25 66.21875 20.875 63.09375 
Q 16.5 59.96875 16.5 54.203125 
Q 16.5 49.359375 19.40625 46.890625 
Q 22.3125 44.4375 30.421875 42.921875 
L 36.375 41.703125 
Q 47.40625 39.59375 52.65625 34.296875 
Q 57.90625 29 57.90625 20.125 
Q 57.90625 9.515625 50.796875 4.046875 
Q 43.703125 -1.421875 29.984375 -1.421875 
Q 24.8125 -1.421875 18.96875 -0.25 
Q 13.140625 0.921875 6.890625 3.21875 
L 6.890625 13.375 
Q 12.890625 10.015625 18.65625 8.296875 
Q 24.421875 6.59375 29.984375 6.59375 
Q 38.421875 6.59375 43.015625 9.90625 
Q 47.609375 13.234375 47.609375 19.390625 
Q 47.609375 24.75 44.3125 27.78125 
Q 41.015625 30.8125 33.5 32.328125 
L 27.484375 33.5 
Q 16.453125 35.6875 11.515625 40.375 
Q 6.59375 45.0625 6.59375 53.421875 
Q 6.59375 63.09375 13.40625 68.65625 
Q 20.21875 74.21875 32.171875 74.21875 
Q 37.3125 74.21875 42.625 73.28125 
Q 47.953125 72.359375 53.515625 70.515625 
z
" id="DejaVuSans-53"/>
      <path d="M 48.78125 52.59375 
L 48.78125 44.1875 
Q 44.96875 46.296875 41.140625 47.34375 
Q 37.3125 48.390625 33.40625 48.390625 
Q 24.65625 48.390625 19.8125 42.84375 
Q 14.984375 37.3125 14.984375 27.296875 
Q 14.984375 17.28125 19.8125 11.734375 
Q 24.65625 6.203125 33.40625 6.203125 
Q 37.3125 6.203125 41.140625 7.25 
Q 44.96875 8.296875 48.78125 10.40625 
L 48.78125 2.09375 
Q 45.015625 0.34375 40.984375 -0.53125 
Q 36.96875 -1.421875 32.421875 -1.421875 
Q 20.0625 -1.421875 12.78125 6.34375 
Q 5.515625 14.109375 5.515625 27.296875 
Q 5.515625 40.671875 12.859375 48.328125 
Q 20.21875 56 33.015625 56 
Q 37.15625 56 41.109375 55.140625 
Q 45.0625 54.296875 48.78125 52.59375 
z
" id="DejaVuSans-63"/>
     </defs>
     <g transform="translate(14.798438 239.320125)rotate(-90)scale(0.1 -0.1)">
      <use xlink:href="#DejaVuSans-50"/>
      <use x="60.302734" xlink:href="#DejaVuSans-68"/>
      <use x="123.681641" xlink:href="#DejaVuSans-72"/>
      <use x="164.763672" xlink:href="#DejaVuSans-65"/>
      <use x="226.287109" xlink:href="#DejaVuSans-64"/>
      <use x="289.763672" xlink:href="#DejaVuSans-20"/>
      <use x="321.550781" xlink:href="#DejaVuSans-53"/>
      <use x="385.027344" xlink:href="#DejaVuSans-63"/>
      <use x="440.007812" xlink:href="#DejaVuSans-6f"/>
      <use x="501.189453" xlink:href="#DejaVuSans-72"/>
      <use x="542.271484" xlink:href="#DejaVuSans-65"/>
     </g>
    </g>
   </g>
   <g id="line2d_9">
    <path clip-path="url(#p1e1226654a)" d="M 81.355398 89.167932 
L 90.102322 74.884334 
L 98.849245 71.230391 
L 107.596169 82.524398 
L 116.343093 83.022663 
L 125.090017 63.092062 
L 133.83694 73.223451 
L 142.583864 60.102472 
L 151.330788 61.597267 
L 160.077712 60.185516 
L 177.571559 63.009018 
L 195.065407 63.092062 
L 212.559254 64.005548 
L 230.053102 63.83946 
L 247.54695 56.697661 
L 265.040797 58.773765 
L 282.534645 58.607677 
L 300.028492 60.26856 
L 317.52234 60.932914 
L 335.016187 57.777235 
L 352.510035 59.022898 
L 370.003883 68.656022 
L 387.49773 66.081652 
L 404.991578 67.244271 
L 422.485425 65.749476 
L 439.979273 67.327315 
L 457.47312 66.579917 
L 474.966968 68.323845 
L 492.460816 73.057363 
L 509.954663 81.610912 
L 527.448511 72.80823 
L 544.942358 70.81517 
L 562.436206 69.569508 
L 579.930053 70.233861 
L 597.423901 65.83252 
L 614.917749 71.562568 
L 632.411596 69.486463 
L 649.905444 75.880865 
L 667.399291 88.088358 
L 684.893139 164.073773 
L 702.386986 85.680077 
L 719.880834 77.707836 
L 737.374681 75.548688 
L 754.868529 73.057363 
L 772.362377 78.78741 
L 789.856224 71.313435 
L 807.350072 73.721716 
L 824.843919 83.437884 
L 842.337767 83.770061 
L 859.831614 87.091828 
L 877.325462 84.932679 
L 894.81931 87.590093 
L 912.313157 95.230156 
L 929.807005 112.088123 
L 947.300852 161.41636 
" style="fill:none;stroke:#5cb85c;stroke-linecap:square;"/>
   </g>
   <g id="line2d_10">
    <path clip-path="url(#p1e1226654a)" d="M 81.355398 128.530869 
L 90.102322 95.3132 
L 98.849245 85.181812 
L 107.596169 90.33055 
L 116.343093 94.814935 
L 125.090017 98.136702 
L 133.83694 98.967144 
L 142.583864 96.143642 
L 151.330788 90.828815 
L 160.077712 92.074478 
L 177.571559 90.413594 
L 195.065407 86.34443 
L 212.559254 90.579683 
L 230.053102 84.019193 
L 247.54695 78.870455 
L 265.040797 86.759651 
L 282.534645 90.911859 
L 300.028492 79.119587 
L 317.52234 79.36872 
L 335.016187 86.095297 
L 352.510035 82.856575 
L 370.003883 80.780471 
L 387.49773 82.607442 
L 404.991578 85.015723 
L 422.485425 84.268326 
L 439.979273 84.35137 
L 457.47312 82.192221 
L 474.966968 84.766591 
L 492.460816 84.019193 
L 509.954663 85.513988 
L 527.448511 80.780471 
L 544.942358 79.36872 
L 562.436206 81.777001 
L 579.930053 83.105707 
L 597.423901 81.777001 
L 614.917749 86.593562 
L 632.411596 90.745771 
L 649.905444 87.257916 
L 667.399291 83.437884 
L 684.893139 90.247506 
L 702.386986 96.475819 
L 719.880834 85.430944 
L 737.374681 85.430944 
L 754.868529 87.507048 
L 772.362377 97.389305 
L 789.856224 91.32708 
L 807.350072 87.507048 
L 824.843919 106.85634 
L 842.337767 115.492934 
L 859.831614 116.821641 
L 877.325462 125.624323 
L 894.81931 127.866515 
L 912.313157 126.786941 
L 929.807005 130.939149 
L 947.300852 150.703662 
" style="fill:none;stroke:#5cb85c;stroke-linecap:square;"/>
   </g>
   <g id="line2d_11">
    <path clip-path="url(#p1e1226654a)" d="M 81.355398 79.915204 
L 90.102322 74.321777 
L 98.849245 64.688653 
L 107.596169 59.095227 
L 116.343093 66.242383 
L 125.090017 63.44567 
L 133.83694 66.553129 
L 142.583864 61.270448 
L 151.330788 64.067162 
L 160.077712 61.270448 
L 177.571559 60.959702 
L 195.065407 60.493583 
L 212.559254 61.581194 
L 230.053102 58.473735 
L 247.54695 61.115075 
L 265.040797 60.959702 
L 282.534645 60.493583 
L 300.028492 62.668805 
L 317.52234 61.115075 
L 335.016187 60.493583 
L 352.510035 65.620891 
L 370.003883 65.310145 
L 387.49773 68.72835 
L 404.991578 58.162989 
L 422.485425 61.425821 
L 439.979273 68.262232 
L 457.47312 63.44567 
L 474.966968 55.832394 
L 492.460816 55.987767 
L 509.954663 62.979551 
L 527.448511 59.405973 
L 544.942358 57.075378 
L 562.436206 62.358059 
L 579.930053 59.095227 
L 597.423901 66.863875 
L 614.917749 62.513432 
L 632.411596 62.047313 
L 649.905444 59.716719 
L 667.399291 60.493583 
L 684.893139 58.939854 
L 702.386986 64.53328 
L 719.880834 56.453886 
L 737.374681 56.609259 
L 754.868529 63.44567 
L 772.362377 73.078793 
L 789.856224 69.505215 
L 807.350072 70.437453 
L 824.843919 74.787896 
L 842.337767 69.039096 
L 859.831614 72.923421 
L 877.325462 76.496999 
L 894.81931 67.019248 
L 912.313157 89.703701 
L 929.807005 99.492197 
L 947.300852 148.434681 
" style="fill:none;stroke:#5cb85c;stroke-linecap:square;"/>
   </g>
   <g id="line2d_12">
    <path clip-path="url(#p1e1226654a)" d="M 81.355398 122.487396 
L 90.102322 81.158188 
L 98.849245 87.994598 
L 107.596169 84.576393 
L 116.343093 92.966533 
L 125.090017 83.022663 
L 133.83694 78.67222 
L 142.583864 92.034295 
L 151.330788 83.954901 
L 160.077712 80.070577 
L 177.571559 80.536696 
L 195.065407 74.011031 
L 212.559254 72.457302 
L 230.053102 71.83581 
L 247.54695 69.194469 
L 265.040797 64.53328 
L 282.534645 68.883723 
L 300.028492 73.078793 
L 317.52234 75.875507 
L 335.016187 67.019248 
L 352.510035 74.011031 
L 370.003883 75.875507 
L 387.49773 77.584609 
L 404.991578 73.544912 
L 422.485425 72.923421 
L 439.979273 73.389539 
L 457.47312 76.186253 
L 474.966968 71.680437 
L 492.460816 81.313561 
L 509.954663 72.612675 
L 527.448511 68.262232 
L 544.942358 67.174621 
L 562.436206 75.254015 
L 579.930053 73.078793 
L 597.423901 71.214318 
L 614.917749 68.417605 
L 632.411596 70.903572 
L 649.905444 72.768048 
L 667.399291 72.457302 
L 684.893139 74.787896 
L 702.386986 81.002815 
L 719.880834 67.796113 
L 737.374681 68.883723 
L 754.868529 67.019248 
L 772.362377 70.126707 
L 789.856224 67.796113 
L 807.350072 73.544912 
L 824.843919 71.214318 
L 842.337767 76.496999 
L 859.831614 78.827593 
L 877.325462 84.576393 
L 894.81931 80.847442 
L 912.313157 94.054144 
L 929.807005 94.209517 
L 947.300852 113.320391 
" style="fill:none;stroke:#5cb85c;stroke-linecap:square;"/>
   </g>
   <g id="line2d_13">
    <path clip-path="url(#p1e1226654a)" d="M 81.355398 84.650797 
L 90.102322 76.510129 
L 98.849245 70.811661 
L 107.596169 75.83174 
L 116.343093 68.912172 
L 125.090017 62.670993 
L 133.83694 66.062938 
L 142.583864 71.354372 
L 151.330788 60.771504 
L 160.077712 64.027771 
L 177.571559 58.125787 
L 195.065407 64.773999 
L 212.559254 60.975021 
L 230.053102 59.075532 
L 247.54695 58.600659 
L 265.040797 62.603154 
L 282.534645 66.198616 
L 300.028492 64.841838 
L 317.52234 60.025276 
L 335.016187 64.299127 
L 352.510035 59.753921 
L 370.003883 60.635826 
L 387.49773 59.414726 
L 404.991578 60.025276 
L 422.485425 58.057948 
L 439.979273 57.108203 
L 457.47312 61.178537 
L 474.966968 63.892093 
L 492.460816 61.924765 
L 509.954663 59.075532 
L 527.448511 61.856926 
L 544.942358 64.773999 
L 562.436206 63.281543 
L 579.930053 58.668498 
L 597.423901 59.550404 
L 614.917749 55.751425 
L 632.411596 59.957437 
L 649.905444 61.517732 
L 667.399291 62.26396 
L 684.893139 63.824255 
L 702.386986 66.266455 
L 719.880834 58.125787 
L 737.374681 70.8795 
L 754.868529 63.756416 
L 772.362377 66.537811 
L 789.856224 63.756416 
L 807.350072 65.791583 
L 824.843919 67.555394 
L 842.337767 68.776494 
L 859.831614 75.967418 
L 877.325462 73.660895 
L 894.81931 76.170934 
L 912.313157 78.680974 
L 929.807005 83.904569 
L 947.300852 85.464864 
" style="fill:none;stroke:#5cb85c;stroke-linecap:square;"/>
   </g>
   <g id="line2d_14">
    <path clip-path="url(#p1e1226654a)" d="M 81.355398 130.374215 
L 90.102322 80.309107 
L 98.849245 85.464864 
L 107.596169 86.27893 
L 116.343093 84.108086 
L 125.090017 86.957319 
L 133.83694 80.987496 
L 142.583864 82.479952 
L 151.330788 77.731229 
L 160.077712 87.092997 
L 177.571559 84.379441 
L 195.065407 82.344274 
L 212.559254 80.580463 
L 230.053102 82.886985 
L 247.54695 79.630718 
L 265.040797 77.324196 
L 282.534645 77.324196 
L 300.028492 72.236278 
L 317.52234 72.914667 
L 335.016187 74.881995 
L 352.510035 70.743822 
L 370.003883 75.424706 
L 387.49773 74.135767 
L 404.991578 72.371956 
L 422.485425 73.932251 
L 439.979273 76.713645 
L 457.47312 82.00508 
L 474.966968 71.964922 
L 492.460816 76.577968 
L 509.954663 78.952329 
L 527.448511 75.83174 
L 544.942358 78.27394 
L 562.436206 80.716141 
L 579.930053 79.155846 
L 597.423901 80.716141 
L 614.917749 82.61563 
L 632.411596 87.907064 
L 649.905444 83.701052 
L 667.399291 78.002585 
L 684.893139 83.497535 
L 702.386986 86.007575 
L 719.880834 79.223685 
L 737.374681 80.376946 
L 754.868529 81.462368 
L 772.362377 80.037752 
L 789.856224 87.092997 
L 807.350072 85.66838 
L 824.843919 85.125669 
L 842.337767 90.349264 
L 859.831614 84.44728 
L 877.325462 92.384431 
L 894.81931 89.263842 
L 912.313157 87.500031 
L 929.807005 103.306494 
L 947.300852 106.494922 
" style="fill:none;stroke:#5cb85c;stroke-linecap:square;"/>
   </g>
   <g id="line2d_15">
    <path clip-path="url(#p1e1226654a)" d="M 81.355398 75.656157 
L 90.102322 78.96164 
L 98.849245 73.200655 
L 107.596169 71.406249 
L 116.343093 70.745152 
L 125.090017 67.061899 
L 133.83694 70.65071 
L 142.583864 59.412066 
L 151.330788 63.9453 
L 160.077712 61.584241 
L 177.571559 57.759324 
L 195.065407 56.484352 
L 212.559254 59.60095 
L 230.053102 55.917697 
L 247.54695 61.348135 
L 265.040797 58.278757 
L 282.534645 55.870476 
L 300.028492 67.250784 
L 317.52234 56.531573 
L 335.016187 58.750969 
L 352.510035 61.678683 
L 370.003883 62.434222 
L 387.49773 62.859213 
L 404.991578 61.725904 
L 422.485425 63.331425 
L 439.979273 63.614752 
L 457.47312 60.923144 
L 474.966968 63.14254 
L 492.460816 61.15925 
L 509.954663 71.217364 
L 527.448511 66.164697 
L 544.942358 63.52031 
L 562.436206 61.96201 
L 579.930053 59.931499 
L 597.423901 65.5036 
L 614.917749 60.167605 
L 632.411596 63.425867 
L 649.905444 70.697931 
L 667.399291 62.906434 
L 684.893139 64.039743 
L 702.386986 63.614752 
L 719.880834 68.147987 
L 737.374681 72.492337 
L 754.868529 64.275849 
L 772.362377 63.992522 
L 789.856224 61.867568 
L 807.350072 64.039743 
L 824.843919 65.786927 
L 842.337767 66.117475 
L 859.831614 68.384093 
L 877.325462 67.817438 
L 894.81931 68.006323 
L 912.313157 71.83124 
L 929.807005 77.686668 
L 947.300852 77.592226 
" style="fill:none;stroke:#5cb85c;stroke-linecap:square;"/>
   </g>
   <g id="line2d_16">
    <path clip-path="url(#p1e1226654a)" d="M 81.355398 139.499212 
L 90.102322 92.561345 
L 98.849245 87.744783 
L 107.596169 107.766569 
L 116.343093 94.166865 
L 125.090017 94.827962 
L 133.83694 92.655787 
L 142.583864 101.627814 
L 151.330788 90.38917 
L 160.077712 98.133446 
L 177.571559 87.555898 
L 195.065407 91.333593 
L 212.559254 88.453101 
L 230.053102 84.533741 
L 247.54695 80.708825 
L 265.040797 79.292189 
L 282.534645 82.361566 
L 300.028492 81.181037 
L 317.52234 80.378276 
L 335.016187 85.430944 
L 352.510035 79.433852 
L 370.003883 83.730981 
L 387.49773 78.631092 
L 404.991578 78.914419 
L 422.485425 78.867198 
L 439.979273 73.058991 
L 457.47312 77.308899 
L 474.966968 74.333963 
L 492.460816 77.214456 
L 509.954663 80.189391 
L 527.448511 79.292189 
L 544.942358 75.325608 
L 562.436206 79.575516 
L 579.930053 74.1923 
L 597.423901 77.167235 
L 614.917749 74.99506 
L 632.411596 79.008862 
L 649.905444 78.678313 
L 667.399291 84.533741 
L 684.893139 82.314345 
L 702.386986 84.533741 
L 719.880834 86.186483 
L 737.374681 96.33904 
L 754.868529 82.456009 
L 772.362377 84.250414 
L 789.856224 88.264216 
L 807.350072 82.928221 
L 824.843919 84.297635 
L 842.337767 101.958362 
L 859.831614 96.575146 
L 877.325462 96.008492 
L 894.81931 105.594394 
L 912.313157 105.216625 
L 929.807005 107.247136 
L 947.300852 112.110919 
" style="fill:none;stroke:#5cb85c;stroke-linecap:square;"/>
   </g>
   <g id="line2d_17">
    <path clip-path="url(#p1e1226654a)" d="M 81.355398 71.339939 
L 90.102322 73.69698 
L 98.849245 67.138257 
L 107.596169 66.010977 
L 116.343093 62.629135 
L 125.090017 60.169614 
L 133.83694 62.629135 
L 142.583864 58.017533 
L 151.330788 74.00442 
L 160.077712 58.734894 
L 177.571559 56.224133 
L 195.065407 55.404292 
L 212.559254 58.683654 
L 230.053102 58.939854 
L 247.54695 57.761333 
L 265.040797 57.095213 
L 282.534645 52.534851 
L 300.028492 55.301812 
L 317.52234 67.445697 
L 335.016187 55.762972 
L 352.510035 55.916693 
L 370.003883 56.377853 
L 387.49773 59.605974 
L 404.991578 57.453893 
L 422.485425 52.944771 
L 439.979273 54.891892 
L 457.47312 55.967933 
L 474.966968 55.455532 
L 492.460816 52.637331 
L 509.954663 54.584452 
L 527.448511 55.558012 
L 544.942358 56.326613 
L 562.436206 53.815852 
L 579.930053 54.020812 
L 597.423901 54.533212 
L 614.917749 54.328252 
L 632.411596 55.096852 
L 649.905444 51.561291 
L 667.399291 59.810934 
L 684.893139 52.073691 
L 702.386986 52.329891 
L 719.880834 52.227411 
L 737.374681 54.994372 
L 754.868529 54.994372 
L 772.362377 53.047251 
L 789.856224 50.07533 
L 807.350072 53.764612 
L 824.843919 58.939854 
L 842.337767 55.660492 
L 859.831614 57.658853 
L 877.325462 62.014255 
L 894.81931 58.324973 
L 912.313157 64.883696 
L 929.807005 81.690423 
L 947.300852 75.74658 
" style="fill:none;stroke:#5cb85c;stroke-linecap:square;"/>
   </g>
   <g id="line2d_18">
    <path clip-path="url(#p1e1226654a)" d="M 81.355398 136.824684 
L 90.102322 87.634265 
L 98.849245 86.609465 
L 107.596169 95.832668 
L 116.343093 91.938427 
L 125.090017 92.655787 
L 133.83694 89.171466 
L 142.583864 86.199544 
L 151.330788 88.556585 
L 160.077712 87.275585 
L 177.571559 82.151583 
L 195.065407 83.688783 
L 212.559254 82.049103 
L 230.053102 78.411061 
L 247.54695 80.358182 
L 265.040797 75.28542 
L 282.534645 76.515181 
L 300.028492 76.412701 
L 317.52234 77.335021 
L 335.016187 74.77302 
L 352.510035 76.258981 
L 370.003883 84.303664 
L 387.49773 75.59286 
L 404.991578 79.897022 
L 422.485425 71.339939 
L 439.979273 72.723419 
L 457.47312 77.437501 
L 474.966968 69.649018 
L 492.460816 72.569699 
L 509.954663 70.058938 
L 527.448511 72.364739 
L 544.942358 72.108539 
L 562.436206 74.3631 
L 579.930053 74.00442 
L 597.423901 72.159779 
L 614.917749 71.749859 
L 632.411596 70.673818 
L 649.905444 68.777938 
L 667.399291 71.493659 
L 684.893139 68.521737 
L 702.386986 68.624218 
L 719.880834 71.749859 
L 737.374681 73.338299 
L 754.868529 71.596139 
L 772.362377 77.335021 
L 789.856224 73.389539 
L 807.350072 74.05566 
L 824.843919 73.440779 
L 842.337767 74.67054 
L 859.831614 74.1069 
L 877.325462 76.617661 
L 894.81931 78.667261 
L 912.313157 80.511902 
L 929.807005 81.024302 
L 947.300852 85.635904 
" style="fill:none;stroke:#5cb85c;stroke-linecap:square;"/>
   </g>
   <g id="line2d_19">
    <path clip-path="url(#p1e1226654a)" d="M 81.355398 70.584959 
L 90.102322 78.26707 
L 98.849245 66.560996 
L 107.596169 76.925749 
L 116.343093 63.268663 
L 125.090017 61.073774 
L 133.83694 60.220206 
L 142.583864 77.901256 
L 151.330788 56.196243 
L 160.077712 58.695977 
L 177.571559 85.644336 
L 195.065407 59.610514 
L 212.559254 72.353064 
L 230.053102 56.805934 
L 247.54695 56.135273 
L 265.040797 59.427607 
L 282.534645 56.805934 
L 300.028492 56.257212 
L 317.52234 55.525582 
L 335.016187 54.428138 
L 352.510035 57.720471 
L 370.003883 56.196243 
L 387.49773 55.098798 
L 404.991578 64.12223 
L 422.485425 55.098798 
L 439.979273 58.208224 
L 457.47312 54.184261 
L 474.966968 54.001354 
L 492.460816 61.195712 
L 509.954663 82.839756 
L 527.448511 61.012804 
L 544.942358 52.477125 
L 562.436206 52.11131 
L 579.930053 62.110249 
L 597.423901 54.854922 
L 614.917749 63.817385 
L 632.411596 56.623027 
L 649.905444 51.44065 
L 667.399291 54.123292 
L 684.893139 52.721002 
L 702.386986 57.598533 
L 719.880834 53.879415 
L 737.374681 55.037829 
L 754.868529 52.964878 
L 772.362377 56.683996 
L 789.856224 53.696508 
L 807.350072 53.5136 
L 824.843919 53.208755 
L 842.337767 52.477125 
L 859.831614 55.586551 
L 877.325462 63.45157 
L 894.81931 66.25615 
L 912.313157 76.559935 
L 929.807005 72.65791 
L 947.300852 73.938262 
" style="fill:none;stroke:#5cb85c;stroke-linecap:square;"/>
   </g>
   <g id="line2d_20">
    <path clip-path="url(#p1e1226654a)" d="M 81.355398 127.164319 
L 90.102322 89.241515 
L 98.849245 85.33949 
L 107.596169 94.362923 
L 116.343093 91.680281 
L 125.090017 93.631293 
L 133.83694 90.460898 
L 142.583864 94.119046 
L 151.330788 92.046096 
L 160.077712 87.961163 
L 177.571559 85.644336 
L 195.065407 93.326447 
L 212.559254 87.534379 
L 230.053102 88.20504 
L 247.54695 79.547422 
L 265.040797 83.26654 
L 282.534645 81.742311 
L 300.028492 78.571916 
L 317.52234 83.327509 
L 335.016187 80.522929 
L 352.510035 109.300362 
L 370.003883 92.107065 
L 387.49773 86.741781 
L 404.991578 88.266009 
L 422.485425 84.973676 
L 439.979273 86.254027 
L 457.47312 82.352003 
L 474.966968 83.9372 
L 492.460816 81.742311 
L 509.954663 81.986188 
L 527.448511 80.888743 
L 544.942358 82.169095 
L 562.436206 85.766274 
L 579.930053 95.887151 
L 597.423901 81.010682 
L 614.917749 83.998169 
L 632.411596 81.681342 
L 649.905444 79.303546 
L 667.399291 83.205571 
L 684.893139 84.363984 
L 702.386986 82.961694 
L 719.880834 82.717817 
L 737.374681 86.497904 
L 754.868529 85.461429 
L 772.362377 87.107595 
L 789.856224 85.095614 
L 807.350072 86.193058 
L 824.843919 87.290503 
L 842.337767 91.497373 
L 859.831614 97.777195 
L 877.325462 94.789707 
L 894.81931 97.899133 
L 912.313157 96.801688 
L 929.807005 105.093491 
L 947.300852 111.190405 
" style="fill:none;stroke:#5cb85c;stroke-linecap:square;"/>
   </g>
   <g id="line2d_21">
    <path clip-path="url(#p1e1226654a)" d="M 81.355398 86.532663 
L 90.102322 69.370202 
L 98.849245 53.890768 
L 107.596169 51.200137 
L 116.343093 51.764837 
L 125.090017 45.45348 
L 133.83694 48.642377 
L 142.583864 44.069411 
L 151.330788 63.977867 
L 160.077712 45.220957 
L 177.571559 44.301935 
L 195.065407 43.288796 
L 212.559254 44.252108 
L 230.053102 43.100562 
L 247.54695 45.575279 
L 265.040797 45.292928 
L 282.534645 57.810453 
L 300.028492 43.344159 
L 317.52234 44.335152 
L 335.016187 45.769048 
L 352.510035 45.331682 
L 370.003883 46.16766 
L 387.49773 45.353827 
L 404.991578 45.813339 
L 422.485425 51.58214 
L 439.979273 44.60643 
L 457.47312 46.699143 
L 474.966968 45.342755 
L 492.460816 48.492897 
L 509.954663 45.852092 
L 527.448511 45.962818 
L 544.942358 45.304001 
L 562.436206 44.506777 
L 579.930053 45.497771 
L 597.423901 46.245168 
L 614.917749 45.763512 
L 632.411596 47.978023 
L 649.905444 47.59602 
L 667.399291 47.773181 
L 684.893139 47.103291 
L 702.386986 46.92613 
L 719.880834 46.029253 
L 737.374681 51.21121 
L 754.868529 48.470752 
L 772.362377 47.629238 
L 789.856224 48.387708 
L 807.350072 48.581478 
L 824.843919 51.62643 
L 842.337767 50.718481 
L 859.831614 51.919853 
L 877.325462 51.997361 
L 894.81931 53.24856 
L 912.313157 56.454065 
L 929.807005 63.939113 
L 947.300852 68.096858 
" style="fill:none;stroke:#5cb85c;stroke-linecap:square;"/>
   </g>
   <g id="line2d_22">
    <path clip-path="url(#p1e1226654a)" d="M 81.355398 138.19721 
L 90.102322 73.754934 
L 98.849245 63.800706 
L 107.596169 68.705848 
L 116.343093 68.905154 
L 125.090017 72.459445 
L 133.83694 61.342598 
L 142.583864 61.209728 
L 151.330788 84.639256 
L 160.077712 60.949523 
L 177.571559 60.960595 
L 195.065407 59.775832 
L 212.559254 57.649901 
L 230.053102 60.340532 
L 247.54695 57.107346 
L 265.040797 60.334996 
L 282.534645 60.030501 
L 300.028492 57.633292 
L 317.52234 56.011163 
L 335.016187 59.006289 
L 352.510035 58.314254 
L 370.003883 56.409775 
L 387.49773 65.478198 
L 404.991578 58.364081 
L 422.485425 61.004885 
L 439.979273 59.18345 
L 457.47312 58.668576 
L 474.966968 59.903166 
L 492.460816 69.718987 
L 509.954663 67.63181 
L 527.448511 58.46927 
L 544.942358 59.111478 
L 562.436206 57.75509 
L 579.930053 57.887961 
L 597.423901 57.522567 
L 614.917749 57.694191 
L 632.411596 58.292109 
L 649.905444 58.336399 
L 667.399291 57.433986 
L 684.893139 57.284507 
L 702.386986 59.13916 
L 719.880834 58.574459 
L 737.374681 59.288639 
L 754.868529 57.345406 
L 772.362377 59.144696 
L 789.856224 59.404901 
L 807.350072 60.406967 
L 824.843919 60.816652 
L 842.337767 64.287898 
L 859.831614 62.250548 
L 877.325462 63.667835 
L 894.81931 66.413829 
L 912.313157 84.229572 
L 929.807005 76.058025 
L 947.300852 81.262127 
" style="fill:none;stroke:#5cb85c;stroke-linecap:square;"/>
   </g>
   <g id="line2d_23">
    <path clip-path="url(#p1e1226654a)" d="M 81.355398 84.91553 
L 90.102322 72.979619 
L 98.849245 54.292083 
L 107.596169 51.868731 
L 116.343093 46.310696 
L 125.090017 46.985858 
L 133.83694 47.73336 
L 142.583864 48.517031 
L 151.330788 50.964495 
L 160.077712 48.191506 
L 177.571559 45.659646 
L 195.065407 43.86926 
L 212.559254 50.247135 
L 230.053102 43.097645 
L 247.54695 42.8746 
L 265.040797 43.429198 
L 282.534645 43.194097 
L 300.028492 45.936945 
L 317.52234 46.190131 
L 335.016187 64.726962 
L 352.510035 43.911457 
L 370.003883 44.815693 
L 387.49773 45.316037 
L 404.991578 45.388375 
L 422.485425 51.024778 
L 439.979273 44.785552 
L 457.47312 46.147933 
L 474.966968 44.610733 
L 492.460816 45.056822 
L 509.954663 45.153274 
L 527.448511 43.567848 
L 544.942358 43.001193 
L 562.436206 43.839118 
L 579.930053 43.32069 
L 597.423901 43.266436 
L 614.917749 46.696503 
L 632.411596 44.978455 
L 649.905444 44.701156 
L 667.399291 46.328781 
L 684.893139 45.520997 
L 702.386986 44.918173 
L 719.880834 45.243698 
L 737.374681 46.226301 
L 754.868529 44.664987 
L 772.362377 46.377006 
L 789.856224 52.079719 
L 807.350072 46.244385 
L 824.843919 48.498946 
L 842.337767 47.245073 
L 859.831614 49.704594 
L 877.325462 50.855987 
L 894.81931 52.712684 
L 912.313157 55.961904 
L 929.807005 62.755728 
L 947.300852 68.398159 
" style="fill:none;stroke:#5cb85c;stroke-linecap:square;"/>
   </g>
   <g id="line2d_24">
    <path clip-path="url(#p1e1226654a)" d="M 81.355398 138.820031 
L 90.102322 68.554893 
L 98.849245 62.104679 
L 107.596169 66.481179 
L 116.343093 67.156342 
L 125.090017 62.996858 
L 133.83694 65.420209 
L 142.583864 61.417459 
L 151.330788 69.459128 
L 160.077712 62.846152 
L 177.571559 59.114673 
L 195.065407 65.522689 
L 212.559254 58.867515 
L 230.053102 56.305514 
L 247.54695 60.597619 
L 265.040797 56.878196 
L 282.534645 57.487048 
L 300.028492 54.57541 
L 317.52234 55.250572 
L 335.016187 56.064384 
L 352.510035 57.661867 
L 370.003883 70.074009 
L 387.49773 55.564041 
L 404.991578 61.206471 
L 422.485425 57.613641 
L 439.979273 61.339092 
L 457.47312 57.300173 
L 474.966968 62.743672 
L 492.460816 57.505133 
L 509.954663 58.355115 
L 527.448511 57.794489 
L 544.942358 55.491702 
L 562.436206 56.329627 
L 579.930053 56.088497 
L 597.423901 56.136723 
L 614.917749 67.035777 
L 632.411596 57.402653 
L 649.905444 56.950535 
L 667.399291 55.328939 
L 684.893139 56.190977 
L 702.386986 57.553359 
L 719.880834 55.955876 
L 737.374681 57.812573 
L 754.868529 57.812573 
L 772.362377 59.663242 
L 789.856224 61.779154 
L 807.350072 60.639817 
L 824.843919 67.16237 
L 842.337767 61.622419 
L 859.831614 64.998233 
L 877.325462 65.884384 
L 894.81931 71.147035 
L 912.313157 72.322541 
L 929.807005 78.670276 
L 947.300852 85.705229 
" style="fill:none;stroke:#5cb85c;stroke-linecap:square;"/>
   </g>
   <g id="line2d_25">
    <path clip-path="url(#p1e1226654a)" d="M 81.355398 83.886725 
L 90.102322 69.045876 
L 98.849245 53.983174 
L 107.596169 49.40598 
L 116.343093 46.755412 
L 125.090017 46.241645 
L 133.83694 45.517701 
L 142.583864 50.316748 
L 151.330788 56.248417 
L 160.077712 48.693713 
L 177.571559 44.169064 
L 195.065407 48.874699 
L 212.559254 45.459319 
L 230.053102 43.357546 
L 247.54695 44.531036 
L 265.040797 43.538532 
L 282.534645 45.827129 
L 300.028492 45.027288 
L 317.52234 44.589418 
L 335.016187 45.926379 
L 352.510035 50.334263 
L 370.003883 46.469337 
L 387.49773 46.89553 
L 404.991578 44.898846 
L 422.485425 45.809614 
L 439.979273 45.190759 
L 457.47312 45.38926 
L 474.966968 45.762908 
L 492.460816 46.79628 
L 509.954663 46.988942 
L 527.448511 45.541054 
L 544.942358 44.233285 
L 562.436206 44.945552 
L 579.930053 44.192417 
L 597.423901 44.61861 
L 614.917749 45.325039 
L 632.411596 44.712022 
L 649.905444 45.225788 
L 667.399291 47.771268 
L 684.893139 45.08567 
L 702.386986 44.624448 
L 719.880834 48.448506 
L 737.374681 44.630286 
L 754.868529 44.361726 
L 772.362377 49.30673 
L 789.856224 46.469337 
L 807.350072 47.771268 
L 824.843919 49.137421 
L 842.337767 48.203299 
L 859.831614 52.3543 
L 877.325462 51.496076 
L 894.81931 53.76132 
L 912.313157 56.289285 
L 929.807005 60.230108 
L 947.300852 63.721386 
" style="fill:none;stroke:#5cb85c;stroke-linecap:square;"/>
   </g>
   <g id="line2d_26">
    <path clip-path="url(#p1e1226654a)" d="M 81.355398 135.275062 
L 90.102322 67.539606 
L 98.849245 64.748919 
L 107.596169 68.041696 
L 116.343093 66.115071 
L 125.090017 64.492036 
L 133.83694 74.568867 
L 142.583864 60.732199 
L 151.330788 63.336061 
L 160.077712 65.396966 
L 177.571559 58.735515 
L 195.065407 64.07752 
L 212.559254 57.830585 
L 230.053102 58.408572 
L 247.54695 79.700695 
L 265.040797 57.351848 
L 282.534645 58.875633 
L 300.028492 57.019067 
L 317.52234 58.192557 
L 335.016187 59.751371 
L 352.510035 57.573702 
L 370.003883 62.512867 
L 387.49773 60.533698 
L 404.991578 57.48029 
L 422.485425 58.256778 
L 439.979273 59.196737 
L 457.47312 60.002416 
L 474.966968 60.557051 
L 492.460816 57.918159 
L 509.954663 65.058347 
L 527.448511 58.385219 
L 544.942358 61.654643 
L 562.436206 55.822225 
L 579.930053 56.966523 
L 597.423901 62.927383 
L 614.917749 55.641239 
L 632.411596 58.402734 
L 649.905444 58.361866 
L 667.399291 61.012435 
L 684.893139 57.305142 
L 702.386986 61.298509 
L 719.880834 61.199259 
L 737.374681 60.936538 
L 754.868529 58.992398 
L 772.362377 58.630426 
L 789.856224 60.481154 
L 807.350072 61.257642 
L 824.843919 62.740559 
L 842.337767 64.030814 
L 859.831614 63.44115 
L 877.325462 67.539606 
L 894.81931 66.844853 
L 912.313157 70.295263 
L 929.807005 77.966733 
L 947.300852 78.71403 
" style="fill:none;stroke:#5cb85c;stroke-linecap:square;"/>
   </g>
   <g id="line2d_27">
    <path clip-path="url(#p1e1226654a)" d="M 81.355398 84.291265 
L 90.102322 69.521851 
L 98.849245 59.342093 
L 107.596169 50.616587 
L 116.343093 45.614376 
L 125.090017 44.304519 
L 133.83694 45.315275 
L 142.583864 45.335903 
L 151.330788 46.006302 
L 160.077712 46.924234 
L 177.571559 46.589034 
L 195.065407 45.346217 
L 212.559254 48.595075 
L 230.053102 44.350931 
L 247.54695 46.594191 
L 265.040797 43.778513 
L 282.534645 45.155411 
L 300.028492 44.299362 
L 317.52234 43.835239 
L 335.016187 44.748014 
L 352.510035 45.934105 
L 370.003883 48.373328 
L 387.49773 52.127564 
L 404.991578 46.124911 
L 422.485425 44.541737 
L 439.979273 44.175596 
L 457.47312 45.35653 
L 474.966968 44.144655 
L 492.460816 45.877379 
L 509.954663 46.150696 
L 527.448511 46.073342 
L 544.942358 44.995546 
L 562.436206 45.145097 
L 579.930053 44.567522 
L 597.423901 45.237921 
L 614.917749 44.160125 
L 632.411596 46.171324 
L 649.905444 49.935874 
L 667.399291 46.326031 
L 684.893139 47.713242 
L 702.386986 47.790596 
L 719.880834 47.424455 
L 737.374681 47.249119 
L 754.868529 46.919077 
L 772.362377 50.064797 
L 789.856224 46.790154 
L 807.350072 51.225104 
L 824.843919 49.394398 
L 842.337767 49.678028 
L 859.831614 50.802236 
L 877.325462 50.508292 
L 894.81931 50.740353 
L 912.313157 55.572386 
L 929.807005 58.991423 
L 947.300852 66.046087 
" style="fill:none;stroke:#5cb85c;stroke-linecap:square;"/>
   </g>
   <g id="line2d_28">
    <path clip-path="url(#p1e1226654a)" d="M 81.355398 137.809765 
L 90.102322 71.955916 
L 98.849245 62.302165 
L 107.596169 64.014262 
L 116.343093 61.838042 
L 125.090017 63.086016 
L 133.83694 61.982436 
L 142.583864 61.023249 
L 151.330788 62.467186 
L 160.077712 60.517871 
L 177.571559 59.842314 
L 195.065407 59.140974 
L 212.559254 58.135374 
L 230.053102 55.943684 
L 247.54695 59.378192 
L 265.040797 55.072165 
L 282.534645 56.196373 
L 300.028492 59.254426 
L 317.52234 57.980667 
L 335.016187 55.881801 
L 352.510035 56.861616 
L 370.003883 57.965196 
L 387.49773 57.57327 
L 404.991578 57.717664 
L 422.485425 57.454661 
L 439.979273 58.052864 
L 457.47312 58.640752 
L 474.966968 60.192985 
L 492.460816 58.10959 
L 509.954663 59.697921 
L 527.448511 60.280653 
L 544.942358 54.989654 
L 562.436206 58.248827 
L 579.930053 55.747721 
L 597.423901 58.800617 
L 614.917749 54.690553 
L 632.411596 56.459376 
L 649.905444 54.82979 
L 667.399291 56.495474 
L 684.893139 57.738292 
L 702.386986 57.124618 
L 719.880834 58.785146 
L 737.374681 58.17663 
L 754.868529 59.254426 
L 772.362377 57.944568 
L 789.856224 59.166758 
L 807.350072 60.816972 
L 824.843919 62.425931 
L 842.337767 63.493413 
L 859.831614 63.993634 
L 877.325462 62.451715 
L 894.81931 68.495624 
L 912.313157 72.131251 
L 929.807005 81.356978 
L 947.300852 79.314839 
" style="fill:none;stroke:#5cb85c;stroke-linecap:square;"/>
   </g>
   <g id="line2d_29">
    <path clip-path="url(#p1e1226654a)" d="M 81.355398 91.823295 
L 90.102322 68.891919 
L 98.849245 54.469263 
L 107.596169 53.377292 
L 116.343093 46.414631 
L 125.090017 45.149675 
L 133.83694 44.901008 
L 142.583864 43.852284 
L 151.330788 46.425442 
L 160.077712 45.511863 
L 177.571559 44.944255 
L 195.065407 44.392864 
L 212.559254 44.246907 
L 230.053102 42.781937 
L 247.54695 46.279486 
L 265.040797 47.26334 
L 282.534645 42.679227 
L 300.028492 43.560372 
L 317.52234 44.187444 
L 335.016187 44.12798 
L 352.510035 45.095617 
L 370.003883 45.976761 
L 387.49773 45.171298 
L 404.991578 44.776675 
L 422.485425 45.906486 
L 439.979273 44.998313 
L 457.47312 47.025485 
L 474.966968 48.036369 
L 492.460816 47.73905 
L 509.954663 46.457877 
L 527.448511 46.68492 
L 544.942358 45.268602 
L 562.436206 45.787558 
L 579.930053 44.819921 
L 597.423901 46.403819 
L 614.917749 46.625456 
L 632.411596 46.722761 
L 649.905444 47.117384 
L 667.399291 47.360644 
L 684.893139 48.295847 
L 702.386986 47.506601 
L 719.880834 47.301181 
L 737.374681 47.187659 
L 754.868529 48.31747 
L 772.362377 46.349761 
L 789.856224 47.182253 
L 807.350072 49.566208 
L 824.843919 50.15544 
L 842.337767 49.636483 
L 859.831614 51.609598 
L 877.325462 51.647438 
L 894.81931 55.312566 
L 912.313157 57.372174 
L 929.807005 63.345575 
L 947.300852 68.135108 
" style="fill:none;stroke:#5cb85c;stroke-linecap:square;"/>
   </g>
   <g id="line2d_30">
    <path clip-path="url(#p1e1226654a)" d="M 81.355398 136.756249 
L 90.102322 71.000179 
L 98.849245 62.210359 
L 107.596169 65.983602 
L 116.343093 63.356387 
L 125.090017 61.377867 
L 133.83694 62.880677 
L 142.583864 64.307807 
L 151.330788 60.610244 
L 160.077712 62.237388 
L 177.571559 60.334548 
L 195.065407 56.918087 
L 212.559254 57.074855 
L 230.053102 56.236957 
L 247.54695 60.475099 
L 265.040797 62.091431 
L 282.534645 54.782799 
L 300.028492 55.134175 
L 317.52234 55.458523 
L 335.016187 55.009842 
L 352.510035 54.928755 
L 370.003883 57.355956 
L 387.49773 55.793682 
L 404.991578 60.421041 
L 422.485425 55.33419 
L 439.979273 56.696449 
L 457.47312 55.53961 
L 474.966968 57.566782 
L 492.460816 57.437043 
L 509.954663 56.36129 
L 527.448511 57.372174 
L 544.942358 55.090929 
L 562.436206 55.220668 
L 579.930053 55.836928 
L 597.423901 56.934304 
L 614.917749 53.642176 
L 632.411596 54.901726 
L 649.905444 57.837072 
L 667.399291 54.734147 
L 684.893139 55.496363 
L 702.386986 54.901726 
L 719.880834 57.447855 
L 737.374681 58.496579 
L 754.868529 56.555899 
L 772.362377 58.183043 
L 789.856224 57.658681 
L 807.350072 58.156014 
L 824.843919 60.51294 
L 842.337767 61.069736 
L 859.831614 62.815808 
L 877.325462 63.994271 
L 894.81931 68.481079 
L 912.313157 71.432642 
L 929.807005 74.562597 
L 947.300852 78.579101 
" style="fill:none;stroke:#5cb85c;stroke-linecap:square;"/>
   </g>
   <g id="line2d_31">
    <path clip-path="url(#p1e1226654a)" d="M 38.058125 381.6495 
L 990.598125 381.6495 
" style="fill:none;stroke:#dedede;stroke-linecap:square;stroke-width:2;"/>
   </g>
   <g id="text_17">
    <!-- FastQC: Mean Quality Scores -->
    <defs>
     <path d="M 9.8125 72.90625 
L 51.703125 72.90625 
L 51.703125 64.59375 
L 19.671875 64.59375 
L 19.671875 43.109375 
L 48.578125 43.109375 
L 48.578125 34.8125 
L 19.671875 34.8125 
L 19.671875 0 
L 9.8125 0 
z
" id="DejaVuSans-46"/>
     <path d="M 34.28125 27.484375 
Q 23.390625 27.484375 19.1875 25 
Q 14.984375 22.515625 14.984375 16.5 
Q 14.984375 11.71875 18.140625 8.90625 
Q 21.296875 6.109375 26.703125 6.109375 
Q 34.1875 6.109375 38.703125 11.40625 
Q 43.21875 16.703125 43.21875 25.484375 
L 43.21875 27.484375 
z
M 52.203125 31.203125 
L 52.203125 0 
L 43.21875 0 
L 43.21875 8.296875 
Q 40.140625 3.328125 35.546875 0.953125 
Q 30.953125 -1.421875 24.3125 -1.421875 
Q 15.921875 -1.421875 10.953125 3.296875 
Q 6 8.015625 6 15.921875 
Q 6 25.140625 12.171875 29.828125 
Q 18.359375 34.515625 30.609375 34.515625 
L 43.21875 34.515625 
L 43.21875 35.40625 
Q 43.21875 41.609375 39.140625 45 
Q 35.0625 48.390625 27.6875 48.390625 
Q 23 48.390625 18.546875 47.265625 
Q 14.109375 46.140625 10.015625 43.890625 
L 10.015625 52.203125 
Q 14.9375 54.109375 19.578125 55.046875 
Q 24.21875 56 28.609375 56 
Q 40.484375 56 46.34375 49.84375 
Q 52.203125 43.703125 52.203125 31.203125 
z
" id="DejaVuSans-61"/>
     <path d="M 39.40625 66.21875 
Q 28.65625 66.21875 22.328125 58.203125 
Q 16.015625 50.203125 16.015625 36.375 
Q 16.015625 22.609375 22.328125 14.59375 
Q 28.65625 6.59375 39.40625 6.59375 
Q 50.140625 6.59375 56.421875 14.59375 
Q 62.703125 22.609375 62.703125 36.375 
Q 62.703125 50.203125 56.421875 58.203125 
Q 50.140625 66.21875 39.40625 66.21875 
z
M 53.21875 1.3125 
L 66.21875 -12.890625 
L 54.296875 -12.890625 
L 43.5 -1.21875 
Q 41.890625 -1.3125 41.03125 -1.359375 
Q 40.1875 -1.421875 39.40625 -1.421875 
Q 24.03125 -1.421875 14.8125 8.859375 
Q 5.609375 19.140625 5.609375 36.375 
Q 5.609375 53.65625 14.8125 63.9375 
Q 24.03125 74.21875 39.40625 74.21875 
Q 54.734375 74.21875 63.90625 63.9375 
Q 73.09375 53.65625 73.09375 36.375 
Q 73.09375 23.6875 67.984375 14.640625 
Q 62.890625 5.609375 53.21875 1.3125 
z
" id="DejaVuSans-51"/>
     <path d="M 64.40625 67.28125 
L 64.40625 56.890625 
Q 59.421875 61.53125 53.78125 63.8125 
Q 48.140625 66.109375 41.796875 66.109375 
Q 29.296875 66.109375 22.65625 58.46875 
Q 16.015625 50.828125 16.015625 36.375 
Q 16.015625 21.96875 22.65625 14.328125 
Q 29.296875 6.6875 41.796875 6.6875 
Q 48.140625 6.6875 53.78125 8.984375 
Q 59.421875 11.28125 64.40625 15.921875 
L 64.40625 5.609375 
Q 59.234375 2.09375 53.4375 0.328125 
Q 47.65625 -1.421875 41.21875 -1.421875 
Q 24.65625 -1.421875 15.125 8.703125 
Q 5.609375 18.84375 5.609375 36.375 
Q 5.609375 53.953125 15.125 64.078125 
Q 24.65625 74.21875 41.21875 74.21875 
Q 47.75 74.21875 53.53125 72.484375 
Q 59.328125 70.75 64.40625 67.28125 
z
" id="DejaVuSans-43"/>
     <path d="M 11.71875 12.40625 
L 22.015625 12.40625 
L 22.015625 0 
L 11.71875 0 
z
M 11.71875 51.703125 
L 22.015625 51.703125 
L 22.015625 39.3125 
L 11.71875 39.3125 
z
" id="DejaVuSans-3a"/>
     <path d="M 9.8125 72.90625 
L 24.515625 72.90625 
L 43.109375 23.296875 
L 61.8125 72.90625 
L 76.515625 72.90625 
L 76.515625 0 
L 66.890625 0 
L 66.890625 64.015625 
L 48.09375 14.015625 
L 38.1875 14.015625 
L 19.390625 64.015625 
L 19.390625 0 
L 9.8125 0 
z
" id="DejaVuSans-4d"/>
     <path d="M 8.5 21.578125 
L 8.5 54.6875 
L 17.484375 54.6875 
L 17.484375 21.921875 
Q 17.484375 14.15625 20.5 10.265625 
Q 23.53125 6.390625 29.59375 6.390625 
Q 36.859375 6.390625 41.078125 11.03125 
Q 45.3125 15.671875 45.3125 23.6875 
L 45.3125 54.6875 
L 54.296875 54.6875 
L 54.296875 0 
L 45.3125 0 
L 45.3125 8.40625 
Q 42.046875 3.421875 37.71875 1 
Q 33.40625 -1.421875 27.6875 -1.421875 
Q 18.265625 -1.421875 13.375 4.4375 
Q 8.5 10.296875 8.5 21.578125 
z
M 31.109375 56 
z
" id="DejaVuSans-75"/>
     <path d="M 9.421875 75.984375 
L 18.40625 75.984375 
L 18.40625 0 
L 9.421875 0 
z
" id="DejaVuSans-6c"/>
     <path d="M 32.171875 -5.078125 
Q 28.375 -14.84375 24.75 -17.8125 
Q 21.140625 -20.796875 15.09375 -20.796875 
L 7.90625 -20.796875 
L 7.90625 -13.28125 
L 13.1875 -13.28125 
Q 16.890625 -13.28125 18.9375 -11.515625 
Q 21 -9.765625 23.484375 -3.21875 
L 25.09375 0.875 
L 2.984375 54.6875 
L 12.5 54.6875 
L 29.59375 11.921875 
L 46.6875 54.6875 
L 56.203125 54.6875 
z
" id="DejaVuSans-79"/>
    </defs>
    <g transform="translate(398.193125 19.3575)scale(0.16 -0.16)">
     <use xlink:href="#DejaVuSans-46"/>
     <use x="57.378906" xlink:href="#DejaVuSans-61"/>
     <use x="118.658203" xlink:href="#DejaVuSans-73"/>
     <use x="170.757812" xlink:href="#DejaVuSans-74"/>
     <use x="209.966797" xlink:href="#DejaVuSans-51"/>
     <use x="288.677734" xlink:href="#DejaVuSans-43"/>
     <use x="358.501953" xlink:href="#DejaVuSans-3a"/>
     <use x="392.193359" xlink:href="#DejaVuSans-20"/>
     <use x="423.980469" xlink:href="#DejaVuSans-4d"/>
     <use x="510.259766" xlink:href="#DejaVuSans-65"/>
     <use x="571.783203" xlink:href="#DejaVuSans-61"/>
     <use x="633.0625" xlink:href="#DejaVuSans-6e"/>
     <use x="696.441406" xlink:href="#DejaVuSans-20"/>
     <use x="728.228516" xlink:href="#DejaVuSans-51"/>
     <use x="806.939453" xlink:href="#DejaVuSans-75"/>
     <use x="870.318359" xlink:href="#DejaVuSans-61"/>
     <use x="931.597656" xlink:href="#DejaVuSans-6c"/>
     <use x="959.380859" xlink:href="#DejaVuSans-69"/>
     <use x="987.164062" xlink:href="#DejaVuSans-74"/>
     <use x="1026.373047" xlink:href="#DejaVuSans-79"/>
     <use x="1085.552734" xlink:href="#DejaVuSans-20"/>
     <use x="1117.339844" xlink:href="#DejaVuSans-53"/>
     <use x="1180.816406" xlink:href="#DejaVuSans-63"/>
     <use x="1235.796875" xlink:href="#DejaVuSans-6f"/>
     <use x="1296.978516" xlink:href="#DejaVuSans-72"/>
     <use x="1338.060547" xlink:href="#DejaVuSans-65"/>
     <use x="1399.583984" xlink:href="#DejaVuSans-73"/>
    </g>
   </g>
  </g>
 </g>
 <defs>
  <clipPath id="p1e1226654a">
   <rect height="345.04" width="952.54" x="38.058125" y="36.6095"/>
  </clipPath>
 </defs>
</svg>
