<?xml version="1.0" encoding="utf-8" standalone="no"?>
<!DOCTYPE svg PUBLIC "-//W3C//DTD SVG 1.1//EN"
  "http://www.w3.org/Graphics/SVG/1.1/DTD/svg11.dtd">
<!-- Created with matplotlib (http://matplotlib.org/) -->
<svg height="364.923084pt" version="1.1" viewBox="0 0 1001.160625 364.923084" width="1001.160625pt" xmlns="http://www.w3.org/2000/svg" xmlns:xlink="http://www.w3.org/1999/xlink">
 <defs>
  <style type="text/css">
*{stroke-linecap:butt;stroke-linejoin:round;}
  </style>
 </defs>
 <g id="figure_1">
  <g id="patch_1">
   <path d="M 0 364.923084 
L 1001.160625 364.923084 
L 1001.160625 0 
L 0 0 
z
" style="fill:#ffffff;"/>
  </g>
  <g id="axes_1">
   <g id="patch_2">
    <path d="M 60.960625 302.41566 
L 990.460625 302.41566 
L 990.460625 32.83646 
L 60.960625 32.83646 
z
" style="fill:#ffffff;"/>
   </g>
   <g id="matplotlib.axis_1">
    <g id="xtick_1">
     <g id="text_1">
      <!-- 0 -->
      <defs>
       <path d="M 31.78125 66.40625 
Q 24.171875 66.40625 20.328125 58.90625 
Q 16.5 51.421875 16.5 36.375 
Q 16.5 21.390625 20.328125 13.890625 
Q 24.171875 6.390625 31.78125 6.390625 
Q 39.453125 6.390625 43.28125 13.890625 
Q 47.125 21.390625 47.125 36.375 
Q 47.125 51.421875 43.28125 58.90625 
Q 39.453125 66.40625 31.78125 66.40625 
z
M 31.78125 74.21875 
Q 44.046875 74.21875 50.515625 64.515625 
Q 56.984375 54.828125 56.984375 36.375 
Q 56.984375 17.96875 50.515625 8.265625 
Q 44.046875 -1.421875 31.78125 -1.421875 
Q 19.53125 -1.421875 13.0625 8.265625 
Q 6.59375 17.96875 6.59375 36.375 
Q 6.59375 54.828125 13.0625 64.515625 
Q 19.53125 74.21875 31.78125 74.21875 
z
" id="DejaVuSans-30"/>
      </defs>
      <g transform="translate(58.415625 315.49441)scale(0.08 -0.08)">
       <use xlink:href="#DejaVuSans-30"/>
      </g>
     </g>
    </g>
    <g id="xtick_2">
     <g id="text_2">
      <!-- 100 -->
      <defs>
       <path d="M 12.40625 8.296875 
L 28.515625 8.296875 
L 28.515625 63.921875 
L 10.984375 60.40625 
L 10.984375 69.390625 
L 28.421875 72.90625 
L 38.28125 72.90625 
L 38.28125 8.296875 
L 54.390625 8.296875 
L 54.390625 0 
L 12.40625 0 
z
" id="DejaVuSans-31"/>
      </defs>
      <g transform="translate(200.027014 315.49441)scale(0.08 -0.08)">
       <use xlink:href="#DejaVuSans-31"/>
       <use x="63.623047" xlink:href="#DejaVuSans-30"/>
       <use x="127.246094" xlink:href="#DejaVuSans-30"/>
      </g>
     </g>
    </g>
    <g id="xtick_3">
     <g id="text_3">
      <!-- 200 -->
      <defs>
       <path d="M 19.1875 8.296875 
L 53.609375 8.296875 
L 53.609375 0 
L 7.328125 0 
L 7.328125 8.296875 
Q 12.9375 14.109375 22.625 23.890625 
Q 32.328125 33.6875 34.8125 36.53125 
Q 39.546875 41.84375 41.421875 45.53125 
Q 43.3125 49.21875 43.3125 52.78125 
Q 43.3125 58.59375 39.234375 62.25 
Q 35.15625 65.921875 28.609375 65.921875 
Q 23.96875 65.921875 18.8125 64.3125 
Q 13.671875 62.703125 7.8125 59.421875 
L 7.8125 69.390625 
Q 13.765625 71.78125 18.9375 73 
Q 24.125 74.21875 28.421875 74.21875 
Q 39.75 74.21875 46.484375 68.546875 
Q 53.21875 62.890625 53.21875 53.421875 
Q 53.21875 48.921875 51.53125 44.890625 
Q 49.859375 40.875 45.40625 35.40625 
Q 44.1875 33.984375 37.640625 27.21875 
Q 31.109375 20.453125 19.1875 8.296875 
z
" id="DejaVuSans-32"/>
      </defs>
      <g transform="translate(346.728403 315.49441)scale(0.08 -0.08)">
       <use xlink:href="#DejaVuSans-32"/>
       <use x="63.623047" xlink:href="#DejaVuSans-30"/>
       <use x="127.246094" xlink:href="#DejaVuSans-30"/>
      </g>
     </g>
    </g>
    <g id="xtick_4">
     <g id="text_4">
      <!-- 300 -->
      <defs>
       <path d="M 40.578125 39.3125 
Q 47.65625 37.796875 51.625 33 
Q 55.609375 28.21875 55.609375 21.1875 
Q 55.609375 10.40625 48.1875 4.484375 
Q 40.765625 -1.421875 27.09375 -1.421875 
Q 22.515625 -1.421875 17.65625 -0.515625 
Q 12.796875 0.390625 7.625 2.203125 
L 7.625 11.71875 
Q 11.71875 9.328125 16.59375 8.109375 
Q 21.484375 6.890625 26.8125 6.890625 
Q 36.078125 6.890625 40.9375 10.546875 
Q 45.796875 14.203125 45.796875 21.1875 
Q 45.796875 27.640625 41.28125 31.265625 
Q 36.765625 34.90625 28.71875 34.90625 
L 20.21875 34.90625 
L 20.21875 43.015625 
L 29.109375 43.015625 
Q 36.375 43.015625 40.234375 45.921875 
Q 44.09375 48.828125 44.09375 54.296875 
Q 44.09375 59.90625 40.109375 62.90625 
Q 36.140625 65.921875 28.71875 65.921875 
Q 24.65625 65.921875 20.015625 65.03125 
Q 15.375 64.15625 9.8125 62.3125 
L 9.8125 71.09375 
Q 15.4375 72.65625 20.34375 73.4375 
Q 25.25 74.21875 29.59375 74.21875 
Q 40.828125 74.21875 47.359375 69.109375 
Q 53.90625 64.015625 53.90625 55.328125 
Q 53.90625 49.265625 50.4375 45.09375 
Q 46.96875 40.921875 40.578125 39.3125 
z
" id="DejaVuSans-33"/>
      </defs>
      <g transform="translate(493.429792 315.49441)scale(0.08 -0.08)">
       <use xlink:href="#DejaVuSans-33"/>
       <use x="63.623047" xlink:href="#DejaVuSans-30"/>
       <use x="127.246094" xlink:href="#DejaVuSans-30"/>
      </g>
     </g>
    </g>
    <g id="xtick_5">
     <g id="text_5">
      <!-- 400 -->
      <defs>
       <path d="M 37.796875 64.3125 
L 12.890625 25.390625 
L 37.796875 25.390625 
z
M 35.203125 72.90625 
L 47.609375 72.90625 
L 47.609375 25.390625 
L 58.015625 25.390625 
L 58.015625 17.1875 
L 47.609375 17.1875 
L 47.609375 0 
L 37.796875 0 
L 37.796875 17.1875 
L 4.890625 17.1875 
L 4.890625 26.703125 
z
" id="DejaVuSans-34"/>
      </defs>
      <g transform="translate(640.131181 315.49441)scale(0.08 -0.08)">
       <use xlink:href="#DejaVuSans-34"/>
       <use x="63.623047" xlink:href="#DejaVuSans-30"/>
       <use x="127.246094" xlink:href="#DejaVuSans-30"/>
      </g>
     </g>
    </g>
    <g id="xtick_6">
     <g id="text_6">
      <!-- 500 -->
      <defs>
       <path d="M 10.796875 72.90625 
L 49.515625 72.90625 
L 49.515625 64.59375 
L 19.828125 64.59375 
L 19.828125 46.734375 
Q 21.96875 47.46875 24.109375 47.828125 
Q 26.265625 48.1875 28.421875 48.1875 
Q 40.625 48.1875 47.75 41.5 
Q 54.890625 34.8125 54.890625 23.390625 
Q 54.890625 11.625 47.5625 5.09375 
Q 40.234375 -1.421875 26.90625 -1.421875 
Q 22.3125 -1.421875 17.546875 -0.640625 
Q 12.796875 0.140625 7.71875 1.703125 
L 7.71875 11.625 
Q 12.109375 9.234375 16.796875 8.0625 
Q 21.484375 6.890625 26.703125 6.890625 
Q 35.15625 6.890625 40.078125 11.328125 
Q 45.015625 15.765625 45.015625 23.390625 
Q 45.015625 31 40.078125 35.4375 
Q 35.15625 39.890625 26.703125 39.890625 
Q 22.75 39.890625 18.8125 39.015625 
Q 14.890625 38.140625 10.796875 36.28125 
z
" id="DejaVuSans-35"/>
      </defs>
      <g transform="translate(786.832569 315.49441)scale(0.08 -0.08)">
       <use xlink:href="#DejaVuSans-35"/>
       <use x="63.623047" xlink:href="#DejaVuSans-30"/>
       <use x="127.246094" xlink:href="#DejaVuSans-30"/>
      </g>
     </g>
    </g>
    <g id="xtick_7">
     <g id="text_7">
      <!-- 600 -->
      <defs>
       <path d="M 33.015625 40.375 
Q 26.375 40.375 22.484375 35.828125 
Q 18.609375 31.296875 18.609375 23.390625 
Q 18.609375 15.53125 22.484375 10.953125 
Q 26.375 6.390625 33.015625 6.390625 
Q 39.65625 6.390625 43.53125 10.953125 
Q 47.40625 15.53125 47.40625 23.390625 
Q 47.40625 31.296875 43.53125 35.828125 
Q 39.65625 40.375 33.015625 40.375 
z
M 52.59375 71.296875 
L 52.59375 62.3125 
Q 48.875 64.0625 45.09375 64.984375 
Q 41.3125 65.921875 37.59375 65.921875 
Q 27.828125 65.921875 22.671875 59.328125 
Q 17.53125 52.734375 16.796875 39.40625 
Q 19.671875 43.65625 24.015625 45.921875 
Q 28.375 48.1875 33.59375 48.1875 
Q 44.578125 48.1875 50.953125 41.515625 
Q 57.328125 34.859375 57.328125 23.390625 
Q 57.328125 12.15625 50.6875 5.359375 
Q 44.046875 -1.421875 33.015625 -1.421875 
Q 20.359375 -1.421875 13.671875 8.265625 
Q 6.984375 17.96875 6.984375 36.375 
Q 6.984375 53.65625 15.1875 63.9375 
Q 23.390625 74.21875 37.203125 74.21875 
Q 40.921875 74.21875 44.703125 73.484375 
Q 48.484375 72.75 52.59375 71.296875 
z
" id="DejaVuSans-36"/>
      </defs>
      <g transform="translate(933.533958 315.49441)scale(0.08 -0.08)">
       <use xlink:href="#DejaVuSans-36"/>
       <use x="63.623047" xlink:href="#DejaVuSans-30"/>
       <use x="127.246094" xlink:href="#DejaVuSans-30"/>
      </g>
     </g>
    </g>
    <g id="text_8">
     <!-- Insert Size (bp) -->
     <defs>
      <path d="M 9.8125 72.90625 
L 19.671875 72.90625 
L 19.671875 0 
L 9.8125 0 
z
" id="DejaVuSans-49"/>
      <path d="M 54.890625 33.015625 
L 54.890625 0 
L 45.90625 0 
L 45.90625 32.71875 
Q 45.90625 40.484375 42.875 44.328125 
Q 39.84375 48.1875 33.796875 48.1875 
Q 26.515625 48.1875 22.3125 43.546875 
Q 18.109375 38.921875 18.109375 30.90625 
L 18.109375 0 
L 9.078125 0 
L 9.078125 54.6875 
L 18.109375 54.6875 
L 18.109375 46.1875 
Q 21.34375 51.125 25.703125 53.5625 
Q 30.078125 56 35.796875 56 
Q 45.21875 56 50.046875 50.171875 
Q 54.890625 44.34375 54.890625 33.015625 
z
" id="DejaVuSans-6e"/>
      <path d="M 44.28125 53.078125 
L 44.28125 44.578125 
Q 40.484375 46.53125 36.375 47.5 
Q 32.28125 48.484375 27.875 48.484375 
Q 21.1875 48.484375 17.84375 46.4375 
Q 14.5 44.390625 14.5 40.28125 
Q 14.5 37.15625 16.890625 35.375 
Q 19.28125 33.59375 26.515625 31.984375 
L 29.59375 31.296875 
Q 39.15625 29.25 43.1875 25.515625 
Q 47.21875 21.78125 47.21875 15.09375 
Q 47.21875 7.46875 41.1875 3.015625 
Q 35.15625 -1.421875 24.609375 -1.421875 
Q 20.21875 -1.421875 15.453125 -0.5625 
Q 10.6875 0.296875 5.421875 2 
L 5.421875 11.28125 
Q 10.40625 8.6875 15.234375 7.390625 
Q 20.0625 6.109375 24.8125 6.109375 
Q 31.15625 6.109375 34.5625 8.28125 
Q 37.984375 10.453125 37.984375 14.40625 
Q 37.984375 18.0625 35.515625 20.015625 
Q 33.0625 21.96875 24.703125 23.78125 
L 21.578125 24.515625 
Q 13.234375 26.265625 9.515625 29.90625 
Q 5.8125 33.546875 5.8125 39.890625 
Q 5.8125 47.609375 11.28125 51.796875 
Q 16.75 56 26.8125 56 
Q 31.78125 56 36.171875 55.265625 
Q 40.578125 54.546875 44.28125 53.078125 
z
" id="DejaVuSans-73"/>
      <path d="M 56.203125 29.59375 
L 56.203125 25.203125 
L 14.890625 25.203125 
Q 15.484375 15.921875 20.484375 11.0625 
Q 25.484375 6.203125 34.421875 6.203125 
Q 39.59375 6.203125 44.453125 7.46875 
Q 49.3125 8.734375 54.109375 11.28125 
L 54.109375 2.78125 
Q 49.265625 0.734375 44.1875 -0.34375 
Q 39.109375 -1.421875 33.890625 -1.421875 
Q 20.796875 -1.421875 13.15625 6.1875 
Q 5.515625 13.8125 5.515625 26.8125 
Q 5.515625 40.234375 12.765625 48.109375 
Q 20.015625 56 32.328125 56 
Q 43.359375 56 49.78125 48.890625 
Q 56.203125 41.796875 56.203125 29.59375 
z
M 47.21875 32.234375 
Q 47.125 39.59375 43.09375 43.984375 
Q 39.0625 48.390625 32.421875 48.390625 
Q 24.90625 48.390625 20.390625 44.140625 
Q 15.875 39.890625 15.1875 32.171875 
z
" id="DejaVuSans-65"/>
      <path d="M 41.109375 46.296875 
Q 39.59375 47.171875 37.8125 47.578125 
Q 36.03125 48 33.890625 48 
Q 26.265625 48 22.1875 43.046875 
Q 18.109375 38.09375 18.109375 28.8125 
L 18.109375 0 
L 9.078125 0 
L 9.078125 54.6875 
L 18.109375 54.6875 
L 18.109375 46.1875 
Q 20.953125 51.171875 25.484375 53.578125 
Q 30.03125 56 36.53125 56 
Q 37.453125 56 38.578125 55.875 
Q 39.703125 55.765625 41.0625 55.515625 
z
" id="DejaVuSans-72"/>
      <path d="M 18.3125 70.21875 
L 18.3125 54.6875 
L 36.8125 54.6875 
L 36.8125 47.703125 
L 18.3125 47.703125 
L 18.3125 18.015625 
Q 18.3125 11.328125 20.140625 9.421875 
Q 21.96875 7.515625 27.59375 7.515625 
L 36.8125 7.515625 
L 36.8125 0 
L 27.59375 0 
Q 17.1875 0 13.234375 3.875 
Q 9.28125 7.765625 9.28125 18.015625 
L 9.28125 47.703125 
L 2.6875 47.703125 
L 2.6875 54.6875 
L 9.28125 54.6875 
L 9.28125 70.21875 
z
" id="DejaVuSans-74"/>
      <path id="DejaVuSans-20"/>
      <path d="M 53.515625 70.515625 
L 53.515625 60.890625 
Q 47.90625 63.578125 42.921875 64.890625 
Q 37.9375 66.21875 33.296875 66.21875 
Q 25.25 66.21875 20.875 63.09375 
Q 16.5 59.96875 16.5 54.203125 
Q 16.5 49.359375 19.40625 46.890625 
Q 22.3125 44.4375 30.421875 42.921875 
L 36.375 41.703125 
Q 47.40625 39.59375 52.65625 34.296875 
Q 57.90625 29 57.90625 20.125 
Q 57.90625 9.515625 50.796875 4.046875 
Q 43.703125 -1.421875 29.984375 -1.421875 
Q 24.8125 -1.421875 18.96875 -0.25 
Q 13.140625 0.921875 6.890625 3.21875 
L 6.890625 13.375 
Q 12.890625 10.015625 18.65625 8.296875 
Q 24.421875 6.59375 29.984375 6.59375 
Q 38.421875 6.59375 43.015625 9.90625 
Q 47.609375 13.234375 47.609375 19.390625 
Q 47.609375 24.75 44.3125 27.78125 
Q 41.015625 30.8125 33.5 32.328125 
L 27.484375 33.5 
Q 16.453125 35.6875 11.515625 40.375 
Q 6.59375 45.0625 6.59375 53.421875 
Q 6.59375 63.09375 13.40625 68.65625 
Q 20.21875 74.21875 32.171875 74.21875 
Q 37.3125 74.21875 42.625 73.28125 
Q 47.953125 72.359375 53.515625 70.515625 
z
" id="DejaVuSans-53"/>
      <path d="M 9.421875 54.6875 
L 18.40625 54.6875 
L 18.40625 0 
L 9.421875 0 
z
M 9.421875 75.984375 
L 18.40625 75.984375 
L 18.40625 64.59375 
L 9.421875 64.59375 
z
" id="DejaVuSans-69"/>
      <path d="M 5.515625 54.6875 
L 48.1875 54.6875 
L 48.1875 46.484375 
L 14.40625 7.171875 
L 48.1875 7.171875 
L 48.1875 0 
L 4.296875 0 
L 4.296875 8.203125 
L 38.09375 47.515625 
L 5.515625 47.515625 
z
" id="DejaVuSans-7a"/>
      <path d="M 31 75.875 
Q 24.46875 64.65625 21.28125 53.65625 
Q 18.109375 42.671875 18.109375 31.390625 
Q 18.109375 20.125 21.3125 9.0625 
Q 24.515625 -2 31 -13.1875 
L 23.1875 -13.1875 
Q 15.875 -1.703125 12.234375 9.375 
Q 8.59375 20.453125 8.59375 31.390625 
Q 8.59375 42.28125 12.203125 53.3125 
Q 15.828125 64.359375 23.1875 75.875 
z
" id="DejaVuSans-28"/>
      <path d="M 48.6875 27.296875 
Q 48.6875 37.203125 44.609375 42.84375 
Q 40.53125 48.484375 33.40625 48.484375 
Q 26.265625 48.484375 22.1875 42.84375 
Q 18.109375 37.203125 18.109375 27.296875 
Q 18.109375 17.390625 22.1875 11.75 
Q 26.265625 6.109375 33.40625 6.109375 
Q 40.53125 6.109375 44.609375 11.75 
Q 48.6875 17.390625 48.6875 27.296875 
z
M 18.109375 46.390625 
Q 20.953125 51.265625 25.265625 53.625 
Q 29.59375 56 35.59375 56 
Q 45.5625 56 51.78125 48.09375 
Q 58.015625 40.1875 58.015625 27.296875 
Q 58.015625 14.40625 51.78125 6.484375 
Q 45.5625 -1.421875 35.59375 -1.421875 
Q 29.59375 -1.421875 25.265625 0.953125 
Q 20.953125 3.328125 18.109375 8.203125 
L 18.109375 0 
L 9.078125 0 
L 9.078125 75.984375 
L 18.109375 75.984375 
z
" id="DejaVuSans-62"/>
      <path d="M 18.109375 8.203125 
L 18.109375 -20.796875 
L 9.078125 -20.796875 
L 9.078125 54.6875 
L 18.109375 54.6875 
L 18.109375 46.390625 
Q 20.953125 51.265625 25.265625 53.625 
Q 29.59375 56 35.59375 56 
Q 45.5625 56 51.78125 48.09375 
Q 58.015625 40.1875 58.015625 27.296875 
Q 58.015625 14.40625 51.78125 6.484375 
Q 45.5625 -1.421875 35.59375 -1.421875 
Q 29.59375 -1.421875 25.265625 0.953125 
Q 20.953125 3.328125 18.109375 8.203125 
z
M 48.6875 27.296875 
Q 48.6875 37.203125 44.609375 42.84375 
Q 40.53125 48.484375 33.40625 48.484375 
Q 26.265625 48.484375 22.1875 42.84375 
Q 18.109375 37.203125 18.109375 27.296875 
Q 18.109375 17.390625 22.1875 11.75 
Q 26.265625 6.109375 33.40625 6.109375 
Q 40.53125 6.109375 44.609375 11.75 
Q 48.6875 17.390625 48.6875 27.296875 
z
" id="DejaVuSans-70"/>
      <path d="M 8.015625 75.875 
L 15.828125 75.875 
Q 23.140625 64.359375 26.78125 53.3125 
Q 30.421875 42.28125 30.421875 31.390625 
Q 30.421875 20.453125 26.78125 9.375 
Q 23.140625 -1.703125 15.828125 -13.1875 
L 8.015625 -13.1875 
Q 14.5 -2 17.703125 9.0625 
Q 20.90625 20.125 20.90625 31.390625 
Q 20.90625 42.671875 17.703125 53.65625 
Q 14.5 64.65625 8.015625 75.875 
z
" id="DejaVuSans-29"/>
     </defs>
     <g transform="translate(487.677813 328.756597)scale(0.1 -0.1)">
      <use xlink:href="#DejaVuSans-49"/>
      <use x="29.492188" xlink:href="#DejaVuSans-6e"/>
      <use x="92.871094" xlink:href="#DejaVuSans-73"/>
      <use x="144.970703" xlink:href="#DejaVuSans-65"/>
      <use x="206.494141" xlink:href="#DejaVuSans-72"/>
      <use x="247.607422" xlink:href="#DejaVuSans-74"/>
      <use x="286.816406" xlink:href="#DejaVuSans-20"/>
      <use x="318.603516" xlink:href="#DejaVuSans-53"/>
      <use x="382.080078" xlink:href="#DejaVuSans-69"/>
      <use x="409.863281" xlink:href="#DejaVuSans-7a"/>
      <use x="462.353516" xlink:href="#DejaVuSans-65"/>
      <use x="523.876953" xlink:href="#DejaVuSans-20"/>
      <use x="555.664062" xlink:href="#DejaVuSans-28"/>
      <use x="594.677734" xlink:href="#DejaVuSans-62"/>
      <use x="658.154297" xlink:href="#DejaVuSans-70"/>
      <use x="721.630859" xlink:href="#DejaVuSans-29"/>
     </g>
    </g>
   </g>
   <g id="matplotlib.axis_2">
    <g id="ytick_1">
     <g id="line2d_1">
      <path clip-path="url(#p4167cc5f74)" d="M 60.960625 302.41566 
L 990.460625 302.41566 
" style="fill:none;stroke:#dedede;stroke-linecap:square;"/>
     </g>
     <g id="text_9">
      <!-- 0.00000 -->
      <defs>
       <path d="M 10.6875 12.40625 
L 21 12.40625 
L 21 0 
L 10.6875 0 
z
" id="DejaVuSans-2e"/>
      </defs>
      <g transform="translate(20.878125 305.455035)scale(0.08 -0.08)">
       <use xlink:href="#DejaVuSans-30"/>
       <use x="63.623047" xlink:href="#DejaVuSans-2e"/>
       <use x="95.410156" xlink:href="#DejaVuSans-30"/>
       <use x="159.033203" xlink:href="#DejaVuSans-30"/>
       <use x="222.65625" xlink:href="#DejaVuSans-30"/>
       <use x="286.279297" xlink:href="#DejaVuSans-30"/>
       <use x="349.902344" xlink:href="#DejaVuSans-30"/>
      </g>
     </g>
    </g>
    <g id="ytick_2">
     <g id="line2d_2">
      <path clip-path="url(#p4167cc5f74)" d="M 60.960625 271.46512 
L 990.460625 271.46512 
" style="fill:none;stroke:#dedede;stroke-linecap:square;"/>
     </g>
     <g id="text_10">
      <!-- 0.00001 -->
      <g transform="translate(20.878125 274.504495)scale(0.08 -0.08)">
       <use xlink:href="#DejaVuSans-30"/>
       <use x="63.623047" xlink:href="#DejaVuSans-2e"/>
       <use x="95.410156" xlink:href="#DejaVuSans-30"/>
       <use x="159.033203" xlink:href="#DejaVuSans-30"/>
       <use x="222.65625" xlink:href="#DejaVuSans-30"/>
       <use x="286.279297" xlink:href="#DejaVuSans-30"/>
       <use x="349.902344" xlink:href="#DejaVuSans-31"/>
      </g>
     </g>
    </g>
    <g id="ytick_3">
     <g id="line2d_3">
      <path clip-path="url(#p4167cc5f74)" d="M 60.960625 240.514581 
L 990.460625 240.514581 
" style="fill:none;stroke:#dedede;stroke-linecap:square;"/>
     </g>
     <g id="text_11">
      <!-- 0.00002 -->
      <g transform="translate(20.878125 243.553956)scale(0.08 -0.08)">
       <use xlink:href="#DejaVuSans-30"/>
       <use x="63.623047" xlink:href="#DejaVuSans-2e"/>
       <use x="95.410156" xlink:href="#DejaVuSans-30"/>
       <use x="159.033203" xlink:href="#DejaVuSans-30"/>
       <use x="222.65625" xlink:href="#DejaVuSans-30"/>
       <use x="286.279297" xlink:href="#DejaVuSans-30"/>
       <use x="349.902344" xlink:href="#DejaVuSans-32"/>
      </g>
     </g>
    </g>
    <g id="ytick_4">
     <g id="line2d_4">
      <path clip-path="url(#p4167cc5f74)" d="M 60.960625 209.564041 
L 990.460625 209.564041 
" style="fill:none;stroke:#dedede;stroke-linecap:square;"/>
     </g>
     <g id="text_12">
      <!-- 0.00003 -->
      <g transform="translate(20.878125 212.603416)scale(0.08 -0.08)">
       <use xlink:href="#DejaVuSans-30"/>
       <use x="63.623047" xlink:href="#DejaVuSans-2e"/>
       <use x="95.410156" xlink:href="#DejaVuSans-30"/>
       <use x="159.033203" xlink:href="#DejaVuSans-30"/>
       <use x="222.65625" xlink:href="#DejaVuSans-30"/>
       <use x="286.279297" xlink:href="#DejaVuSans-30"/>
       <use x="349.902344" xlink:href="#DejaVuSans-33"/>
      </g>
     </g>
    </g>
    <g id="ytick_5">
     <g id="line2d_5">
      <path clip-path="url(#p4167cc5f74)" d="M 60.960625 178.613502 
L 990.460625 178.613502 
" style="fill:none;stroke:#dedede;stroke-linecap:square;"/>
     </g>
     <g id="text_13">
      <!-- 0.00004 -->
      <g transform="translate(20.878125 181.652877)scale(0.08 -0.08)">
       <use xlink:href="#DejaVuSans-30"/>
       <use x="63.623047" xlink:href="#DejaVuSans-2e"/>
       <use x="95.410156" xlink:href="#DejaVuSans-30"/>
       <use x="159.033203" xlink:href="#DejaVuSans-30"/>
       <use x="222.65625" xlink:href="#DejaVuSans-30"/>
       <use x="286.279297" xlink:href="#DejaVuSans-30"/>
       <use x="349.902344" xlink:href="#DejaVuSans-34"/>
      </g>
     </g>
    </g>
    <g id="ytick_6">
     <g id="line2d_6">
      <path clip-path="url(#p4167cc5f74)" d="M 60.960625 147.662962 
L 990.460625 147.662962 
" style="fill:none;stroke:#dedede;stroke-linecap:square;"/>
     </g>
     <g id="text_14">
      <!-- 0.00005 -->
      <g transform="translate(20.878125 150.702337)scale(0.08 -0.08)">
       <use xlink:href="#DejaVuSans-30"/>
       <use x="63.623047" xlink:href="#DejaVuSans-2e"/>
       <use x="95.410156" xlink:href="#DejaVuSans-30"/>
       <use x="159.033203" xlink:href="#DejaVuSans-30"/>
       <use x="222.65625" xlink:href="#DejaVuSans-30"/>
       <use x="286.279297" xlink:href="#DejaVuSans-30"/>
       <use x="349.902344" xlink:href="#DejaVuSans-35"/>
      </g>
     </g>
    </g>
    <g id="ytick_7">
     <g id="line2d_7">
      <path clip-path="url(#p4167cc5f74)" d="M 60.960625 116.712422 
L 990.460625 116.712422 
" style="fill:none;stroke:#dedede;stroke-linecap:square;"/>
     </g>
     <g id="text_15">
      <!-- 0.00006 -->
      <g transform="translate(20.878125 119.751797)scale(0.08 -0.08)">
       <use xlink:href="#DejaVuSans-30"/>
       <use x="63.623047" xlink:href="#DejaVuSans-2e"/>
       <use x="95.410156" xlink:href="#DejaVuSans-30"/>
       <use x="159.033203" xlink:href="#DejaVuSans-30"/>
       <use x="222.65625" xlink:href="#DejaVuSans-30"/>
       <use x="286.279297" xlink:href="#DejaVuSans-30"/>
       <use x="349.902344" xlink:href="#DejaVuSans-36"/>
      </g>
     </g>
    </g>
    <g id="ytick_8">
     <g id="line2d_8">
      <path clip-path="url(#p4167cc5f74)" d="M 60.960625 85.761883 
L 990.460625 85.761883 
" style="fill:none;stroke:#dedede;stroke-linecap:square;"/>
     </g>
     <g id="text_16">
      <!-- 0.00007 -->
      <defs>
       <path d="M 8.203125 72.90625 
L 55.078125 72.90625 
L 55.078125 68.703125 
L 28.609375 0 
L 18.3125 0 
L 43.21875 64.59375 
L 8.203125 64.59375 
z
" id="DejaVuSans-37"/>
      </defs>
      <g transform="translate(20.878125 88.801258)scale(0.08 -0.08)">
       <use xlink:href="#DejaVuSans-30"/>
       <use x="63.623047" xlink:href="#DejaVuSans-2e"/>
       <use x="95.410156" xlink:href="#DejaVuSans-30"/>
       <use x="159.033203" xlink:href="#DejaVuSans-30"/>
       <use x="222.65625" xlink:href="#DejaVuSans-30"/>
       <use x="286.279297" xlink:href="#DejaVuSans-30"/>
       <use x="349.902344" xlink:href="#DejaVuSans-37"/>
      </g>
     </g>
    </g>
    <g id="ytick_9">
     <g id="line2d_9">
      <path clip-path="url(#p4167cc5f74)" d="M 60.960625 54.811343 
L 990.460625 54.811343 
" style="fill:none;stroke:#dedede;stroke-linecap:square;"/>
     </g>
     <g id="text_17">
      <!-- 0.00008 -->
      <defs>
       <path d="M 31.78125 34.625 
Q 24.75 34.625 20.71875 30.859375 
Q 16.703125 27.09375 16.703125 20.515625 
Q 16.703125 13.921875 20.71875 10.15625 
Q 24.75 6.390625 31.78125 6.390625 
Q 38.8125 6.390625 42.859375 10.171875 
Q 46.921875 13.96875 46.921875 20.515625 
Q 46.921875 27.09375 42.890625 30.859375 
Q 38.875 34.625 31.78125 34.625 
z
M 21.921875 38.8125 
Q 15.578125 40.375 12.03125 44.71875 
Q 8.5 49.078125 8.5 55.328125 
Q 8.5 64.0625 14.71875 69.140625 
Q 20.953125 74.21875 31.78125 74.21875 
Q 42.671875 74.21875 48.875 69.140625 
Q 55.078125 64.0625 55.078125 55.328125 
Q 55.078125 49.078125 51.53125 44.71875 
Q 48 40.375 41.703125 38.8125 
Q 48.828125 37.15625 52.796875 32.3125 
Q 56.78125 27.484375 56.78125 20.515625 
Q 56.78125 9.90625 50.3125 4.234375 
Q 43.84375 -1.421875 31.78125 -1.421875 
Q 19.734375 -1.421875 13.25 4.234375 
Q 6.78125 9.90625 6.78125 20.515625 
Q 6.78125 27.484375 10.78125 32.3125 
Q 14.796875 37.15625 21.921875 38.8125 
z
M 18.3125 54.390625 
Q 18.3125 48.734375 21.84375 45.5625 
Q 25.390625 42.390625 31.78125 42.390625 
Q 38.140625 42.390625 41.71875 45.5625 
Q 45.3125 48.734375 45.3125 54.390625 
Q 45.3125 60.0625 41.71875 63.234375 
Q 38.140625 66.40625 31.78125 66.40625 
Q 25.390625 66.40625 21.84375 63.234375 
Q 18.3125 60.0625 18.3125 54.390625 
z
" id="DejaVuSans-38"/>
      </defs>
      <g transform="translate(20.878125 57.850718)scale(0.08 -0.08)">
       <use xlink:href="#DejaVuSans-30"/>
       <use x="63.623047" xlink:href="#DejaVuSans-2e"/>
       <use x="95.410156" xlink:href="#DejaVuSans-30"/>
       <use x="159.033203" xlink:href="#DejaVuSans-30"/>
       <use x="222.65625" xlink:href="#DejaVuSans-30"/>
       <use x="286.279297" xlink:href="#DejaVuSans-30"/>
       <use x="349.902344" xlink:href="#DejaVuSans-38"/>
      </g>
     </g>
    </g>
    <g id="text_18">
     <!-- Fraction of reads -->
     <defs>
      <path d="M 9.8125 72.90625 
L 51.703125 72.90625 
L 51.703125 64.59375 
L 19.671875 64.59375 
L 19.671875 43.109375 
L 48.578125 43.109375 
L 48.578125 34.8125 
L 19.671875 34.8125 
L 19.671875 0 
L 9.8125 0 
z
" id="DejaVuSans-46"/>
      <path d="M 34.28125 27.484375 
Q 23.390625 27.484375 19.1875 25 
Q 14.984375 22.515625 14.984375 16.5 
Q 14.984375 11.71875 18.140625 8.90625 
Q 21.296875 6.109375 26.703125 6.109375 
Q 34.1875 6.109375 38.703125 11.40625 
Q 43.21875 16.703125 43.21875 25.484375 
L 43.21875 27.484375 
z
M 52.203125 31.203125 
L 52.203125 0 
L 43.21875 0 
L 43.21875 8.296875 
Q 40.140625 3.328125 35.546875 0.953125 
Q 30.953125 -1.421875 24.3125 -1.421875 
Q 15.921875 -1.421875 10.953125 3.296875 
Q 6 8.015625 6 15.921875 
Q 6 25.140625 12.171875 29.828125 
Q 18.359375 34.515625 30.609375 34.515625 
L 43.21875 34.515625 
L 43.21875 35.40625 
Q 43.21875 41.609375 39.140625 45 
Q 35.0625 48.390625 27.6875 48.390625 
Q 23 48.390625 18.546875 47.265625 
Q 14.109375 46.140625 10.015625 43.890625 
L 10.015625 52.203125 
Q 14.9375 54.109375 19.578125 55.046875 
Q 24.21875 56 28.609375 56 
Q 40.484375 56 46.34375 49.84375 
Q 52.203125 43.703125 52.203125 31.203125 
z
" id="DejaVuSans-61"/>
      <path d="M 48.78125 52.59375 
L 48.78125 44.1875 
Q 44.96875 46.296875 41.140625 47.34375 
Q 37.3125 48.390625 33.40625 48.390625 
Q 24.65625 48.390625 19.8125 42.84375 
Q 14.984375 37.3125 14.984375 27.296875 
Q 14.984375 17.28125 19.8125 11.734375 
Q 24.65625 6.203125 33.40625 6.203125 
Q 37.3125 6.203125 41.140625 7.25 
Q 44.96875 8.296875 48.78125 10.40625 
L 48.78125 2.09375 
Q 45.015625 0.34375 40.984375 -0.53125 
Q 36.96875 -1.421875 32.421875 -1.421875 
Q 20.0625 -1.421875 12.78125 6.34375 
Q 5.515625 14.109375 5.515625 27.296875 
Q 5.515625 40.671875 12.859375 48.328125 
Q 20.21875 56 33.015625 56 
Q 37.15625 56 41.109375 55.140625 
Q 45.0625 54.296875 48.78125 52.59375 
z
" id="DejaVuSans-63"/>
      <path d="M 30.609375 48.390625 
Q 23.390625 48.390625 19.1875 42.75 
Q 14.984375 37.109375 14.984375 27.296875 
Q 14.984375 17.484375 19.15625 11.84375 
Q 23.34375 6.203125 30.609375 6.203125 
Q 37.796875 6.203125 41.984375 11.859375 
Q 46.1875 17.53125 46.1875 27.296875 
Q 46.1875 37.015625 41.984375 42.703125 
Q 37.796875 48.390625 30.609375 48.390625 
z
M 30.609375 56 
Q 42.328125 56 49.015625 48.375 
Q 55.71875 40.765625 55.71875 27.296875 
Q 55.71875 13.875 49.015625 6.21875 
Q 42.328125 -1.421875 30.609375 -1.421875 
Q 18.84375 -1.421875 12.171875 6.21875 
Q 5.515625 13.875 5.515625 27.296875 
Q 5.515625 40.765625 12.171875 48.375 
Q 18.84375 56 30.609375 56 
z
" id="DejaVuSans-6f"/>
      <path d="M 37.109375 75.984375 
L 37.109375 68.5 
L 28.515625 68.5 
Q 23.6875 68.5 21.796875 66.546875 
Q 19.921875 64.59375 19.921875 59.515625 
L 19.921875 54.6875 
L 34.71875 54.6875 
L 34.71875 47.703125 
L 19.921875 47.703125 
L 19.921875 0 
L 10.890625 0 
L 10.890625 47.703125 
L 2.296875 47.703125 
L 2.296875 54.6875 
L 10.890625 54.6875 
L 10.890625 58.5 
Q 10.890625 67.625 15.140625 71.796875 
Q 19.390625 75.984375 28.609375 75.984375 
z
" id="DejaVuSans-66"/>
      <path d="M 45.40625 46.390625 
L 45.40625 75.984375 
L 54.390625 75.984375 
L 54.390625 0 
L 45.40625 0 
L 45.40625 8.203125 
Q 42.578125 3.328125 38.25 0.953125 
Q 33.9375 -1.421875 27.875 -1.421875 
Q 17.96875 -1.421875 11.734375 6.484375 
Q 5.515625 14.40625 5.515625 27.296875 
Q 5.515625 40.1875 11.734375 48.09375 
Q 17.96875 56 27.875 56 
Q 33.9375 56 38.25 53.625 
Q 42.578125 51.265625 45.40625 46.390625 
z
M 14.796875 27.296875 
Q 14.796875 17.390625 18.875 11.75 
Q 22.953125 6.109375 30.078125 6.109375 
Q 37.203125 6.109375 41.296875 11.75 
Q 45.40625 17.390625 45.40625 27.296875 
Q 45.40625 37.203125 41.296875 42.84375 
Q 37.203125 48.484375 30.078125 48.484375 
Q 22.953125 48.484375 18.875 42.84375 
Q 14.796875 37.203125 14.796875 27.296875 
z
" id="DejaVuSans-64"/>
     </defs>
     <g transform="translate(14.798438 209.91356)rotate(-90)scale(0.1 -0.1)">
      <use xlink:href="#DejaVuSans-46"/>
      <use x="57.410156" xlink:href="#DejaVuSans-72"/>
      <use x="98.523438" xlink:href="#DejaVuSans-61"/>
      <use x="159.802734" xlink:href="#DejaVuSans-63"/>
      <use x="214.783203" xlink:href="#DejaVuSans-74"/>
      <use x="253.992188" xlink:href="#DejaVuSans-69"/>
      <use x="281.775391" xlink:href="#DejaVuSans-6f"/>
      <use x="342.957031" xlink:href="#DejaVuSans-6e"/>
      <use x="406.335938" xlink:href="#DejaVuSans-20"/>
      <use x="438.123047" xlink:href="#DejaVuSans-6f"/>
      <use x="499.304688" xlink:href="#DejaVuSans-66"/>
      <use x="534.509766" xlink:href="#DejaVuSans-20"/>
      <use x="566.296875" xlink:href="#DejaVuSans-72"/>
      <use x="607.378906" xlink:href="#DejaVuSans-65"/>
      <use x="668.902344" xlink:href="#DejaVuSans-61"/>
      <use x="730.181641" xlink:href="#DejaVuSans-64"/>
      <use x="793.658203" xlink:href="#DejaVuSans-73"/>
     </g>
    </g>
   </g>
   <g id="line2d_10">
    <path clip-path="url(#p4167cc5f74)" d="M 157.783542 299.320606 
L 281.012708 299.320606 
L 298.616875 296.225552 
L 304.484931 299.320606 
L 326.490139 299.320606 
L 327.957153 296.225552 
L 339.693264 299.320606 
L 407.175903 299.320606 
L 418.912014 296.225552 
L 427.714097 296.225552 
L 430.648125 299.320606 
L 440.917222 299.320606 
L 446.785278 293.130498 
L 448.252292 299.320606 
L 461.455417 299.320606 
L 464.389444 296.225552 
L 465.856458 299.320606 
L 470.2575 299.320606 
L 473.191528 293.130498 
L 477.592569 296.225552 
L 480.526597 299.320606 
L 486.394653 299.320606 
L 489.328681 296.225552 
L 490.795694 299.320606 
L 495.196736 299.320606 
L 496.66375 293.130498 
L 498.130764 299.320606 
L 508.399861 299.320606 
L 512.800903 296.225552 
L 514.267917 299.320606 
L 515.734931 296.225552 
L 517.201944 296.225552 
L 518.668958 299.320606 
L 524.537014 299.320606 
L 527.471042 296.225552 
L 528.938056 299.320606 
L 531.872083 283.845336 
L 533.339097 293.130498 
L 534.806111 296.225552 
L 536.273125 293.130498 
L 537.740139 299.320606 
L 539.207153 296.225552 
L 540.674167 296.225552 
L 542.141181 293.130498 
L 543.608194 286.94039 
L 545.075208 299.320606 
L 546.542222 290.035444 
L 548.009236 293.130498 
L 549.47625 283.845336 
L 550.943264 280.750282 
L 552.410278 265.275012 
L 553.877292 290.035444 
L 555.344306 299.320606 
L 556.811319 271.46512 
L 558.278333 265.275012 
L 559.745347 286.94039 
L 561.212361 265.275012 
L 562.679375 280.750282 
L 564.146389 283.845336 
L 565.613403 277.655228 
L 567.080417 274.560174 
L 568.547431 280.750282 
L 571.481458 286.94039 
L 572.948472 277.655228 
L 574.415486 280.750282 
L 575.8825 293.130498 
L 577.349514 286.94039 
L 578.816528 271.46512 
L 580.283542 280.750282 
L 581.750556 283.845336 
L 583.217569 283.845336 
L 584.684583 280.750282 
L 586.151597 286.94039 
L 589.085625 280.750282 
L 590.552639 286.94039 
L 592.019653 271.46512 
L 593.486667 286.94039 
L 594.953681 293.130498 
L 596.420694 283.845336 
L 597.887708 280.750282 
L 599.354722 299.320606 
L 600.821736 293.130498 
L 603.755764 293.130498 
L 605.222778 296.225552 
L 608.156806 299.320606 
L 609.623819 296.225552 
L 611.090833 299.320606 
L 810.604722 299.320606 
L 810.604722 299.320606 
" style="fill:none;stroke:#7cb5ec;stroke-linecap:square;"/>
   </g>
   <g id="line2d_11">
    <path clip-path="url(#p4167cc5f74)" d="M 273.677639 299.320606 
L 377.835625 299.320606 
L 395.439792 299.320606 
L 448.252292 299.320606 
L 461.455417 299.320606 
L 470.2575 299.320606 
L 471.724514 299.320606 
L 515.734931 299.320606 
L 518.668958 299.320606 
L 520.135972 299.320606 
L 524.537014 299.320606 
L 528.938056 299.320606 
L 533.339097 299.320606 
L 536.273125 299.320606 
L 539.207153 299.320606 
L 543.608194 299.320606 
L 550.943264 296.225552 
L 552.410278 290.035444 
L 558.278333 299.320606 
L 559.745347 299.320606 
L 562.679375 299.320606 
L 564.146389 299.320606 
L 565.613403 296.225552 
L 568.547431 299.320606 
L 570.014444 293.130498 
L 572.948472 299.320606 
L 574.415486 299.320606 
L 578.816528 296.225552 
L 580.283542 299.320606 
L 583.217569 296.225552 
L 584.684583 299.320606 
L 587.618611 299.320606 
L 589.085625 296.225552 
L 592.019653 296.225552 
L 593.486667 296.225552 
L 596.420694 296.225552 
L 602.28875 299.320606 
L 603.755764 299.320606 
L 647.766181 299.320606 
L 800.335625 299.320606 
" style="fill:none;stroke:#434348;stroke-linecap:square;"/>
   </g>
   <g id="line2d_12">
    <path clip-path="url(#p4167cc5f74)" d="M 157.783542 299.320606 
L 464.389444 299.320606 
L 537.740139 299.320606 
L 545.075208 299.320606 
L 546.542222 299.320606 
L 549.47625 299.320606 
L 552.410278 296.225552 
L 558.278333 299.320606 
L 561.212361 296.225552 
L 562.679375 296.225552 
L 567.080417 296.225552 
L 568.547431 299.320606 
L 571.481458 296.225552 
L 575.8825 299.320606 
L 583.217569 299.320606 
L 584.684583 296.225552 
L 589.085625 299.320606 
L 590.552639 299.320606 
L 594.953681 296.225552 
L 596.420694 299.320606 
L 597.887708 299.320606 
L 600.821736 299.320606 
L 608.156806 299.320606 
" style="fill:none;stroke:#90ed7d;stroke-linecap:square;"/>
   </g>
   <g id="line2d_13">
    <path clip-path="url(#p4167cc5f74)" d="M 219.398125 299.320606 
L 232.60125 299.320606 
L 251.672431 299.320606 
L 276.611667 299.320606 
L 281.012708 299.320606 
L 298.616875 299.320606 
L 305.951944 299.320606 
L 325.023125 299.320606 
L 327.957153 299.320606 
L 373.434583 299.320606 
L 405.708889 299.320606 
L 430.648125 299.320606 
L 439.450208 299.320606 
L 454.120347 299.320606 
L 465.856458 299.320606 
L 471.724514 299.320606 
L 473.191528 299.320606 
L 484.927639 299.320606 
L 489.328681 299.320606 
L 493.729722 299.320606 
L 495.196736 299.320606 
L 502.531806 299.320606 
L 503.998819 299.320606 
L 523.07 299.320606 
L 527.471042 299.320606 
L 531.872083 299.320606 
L 539.207153 299.320606 
L 542.141181 299.320606 
L 548.009236 299.320606 
L 549.47625 293.130498 
L 552.410278 296.225552 
L 558.278333 293.130498 
L 559.745347 299.320606 
L 561.212361 296.225552 
L 562.679375 299.320606 
L 564.146389 296.225552 
L 565.613403 296.225552 
L 570.014444 296.225552 
L 571.481458 299.320606 
L 572.948472 296.225552 
L 577.349514 296.225552 
L 583.217569 299.320606 
L 586.151597 299.320606 
L 587.618611 299.320606 
L 592.019653 299.320606 
L 593.486667 299.320606 
L 596.420694 299.320606 
L 597.887708 296.225552 
L 602.28875 299.320606 
L 605.222778 299.320606 
L 609.623819 296.225552 
" style="fill:none;stroke:#f7a35c;stroke-linecap:square;"/>
   </g>
   <g id="line2d_14">
    <path clip-path="url(#p4167cc5f74)" d="M 178.321736 299.320606 
L 217.931111 299.320606 
L 242.870347 299.320606 
L 304.484931 299.320606 
L 326.490139 299.320606 
L 327.957153 299.320606 
L 339.693264 299.320606 
L 347.028333 299.320606 
L 355.830417 299.320606 
L 407.175903 299.320606 
L 418.912014 299.320606 
L 427.714097 296.225552 
L 436.516181 299.320606 
L 440.917222 299.320606 
L 446.785278 299.320606 
L 458.521389 299.320606 
L 477.592569 299.320606 
L 481.993611 299.320606 
L 490.795694 299.320606 
L 496.66375 296.225552 
L 501.064792 299.320606 
L 508.399861 299.320606 
L 512.800903 299.320606 
L 515.734931 296.225552 
L 517.201944 296.225552 
L 531.872083 296.225552 
L 536.273125 299.320606 
L 540.674167 296.225552 
L 543.608194 293.130498 
L 546.542222 299.320606 
L 550.943264 296.225552 
L 552.410278 296.225552 
L 553.877292 299.320606 
L 555.344306 299.320606 
L 556.811319 296.225552 
L 558.278333 293.130498 
L 559.745347 296.225552 
L 561.212361 290.035444 
L 562.679375 296.225552 
L 565.613403 299.320606 
L 567.080417 296.225552 
L 568.547431 299.320606 
L 571.481458 299.320606 
L 572.948472 299.320606 
L 574.415486 299.320606 
L 575.8825 299.320606 
L 577.349514 299.320606 
L 578.816528 290.035444 
L 581.750556 296.225552 
L 583.217569 299.320606 
L 584.684583 299.320606 
L 586.151597 293.130498 
L 587.618611 299.320606 
L 589.085625 299.320606 
L 590.552639 296.225552 
L 592.019653 299.320606 
L 594.953681 299.320606 
L 596.420694 296.225552 
L 597.887708 296.225552 
L 599.354722 299.320606 
L 600.821736 296.225552 
L 603.755764 299.320606 
L 615.491875 299.320606 
" style="fill:none;stroke:#8085e9;stroke-linecap:square;"/>
   </g>
   <g id="line2d_15">
    <path clip-path="url(#p4167cc5f74)" d="M 216.464097 299.320606 
L 241.403333 299.320606 
L 253.139444 299.320606 
L 260.474514 299.320606 
L 298.616875 299.320606 
L 322.089097 299.320606 
L 370.500556 299.320606 
L 380.769653 299.320606 
L 396.906806 299.320606 
L 418.912014 299.320606 
L 446.785278 299.320606 
L 455.587361 299.320606 
L 464.389444 299.320606 
L 477.592569 299.320606 
L 480.526597 299.320606 
L 498.130764 299.320606 
L 499.597778 299.320606 
L 512.800903 299.320606 
L 514.267917 299.320606 
L 521.602986 299.320606 
L 527.471042 299.320606 
L 536.273125 299.320606 
L 542.141181 299.320606 
L 543.608194 299.320606 
L 546.542222 299.320606 
L 548.009236 299.320606 
L 549.47625 299.320606 
L 550.943264 293.130498 
L 552.410278 296.225552 
L 553.877292 293.130498 
L 556.811319 283.845336 
L 558.278333 299.320606 
L 564.146389 293.130498 
L 565.613403 296.225552 
L 567.080417 293.130498 
L 568.547431 293.130498 
L 570.014444 296.225552 
L 572.948472 296.225552 
L 574.415486 296.225552 
L 575.8825 299.320606 
L 577.349514 293.130498 
L 578.816528 296.225552 
L 580.283542 296.225552 
L 581.750556 296.225552 
L 583.217569 299.320606 
L 584.684583 299.320606 
L 587.618611 296.225552 
L 589.085625 296.225552 
L 590.552639 296.225552 
L 592.019653 286.94039 
L 593.486667 296.225552 
L 602.28875 299.320606 
L 605.222778 299.320606 
" style="fill:none;stroke:#f15c80;stroke-linecap:square;"/>
   </g>
   <g id="line2d_16">
    <path clip-path="url(#p4167cc5f74)" d="M 341.160278 299.320606 
L 402.774861 299.320606 
L 446.785278 296.225552 
L 452.653333 299.320606 
L 459.988403 299.320606 
L 473.191528 296.225552 
L 483.460625 299.320606 
L 486.394653 299.320606 
L 489.328681 299.320606 
L 496.66375 299.320606 
L 531.872083 293.130498 
L 533.339097 296.225552 
L 534.806111 296.225552 
L 542.141181 299.320606 
L 546.542222 299.320606 
L 548.009236 299.320606 
L 549.47625 299.320606 
L 553.877292 299.320606 
L 556.811319 296.225552 
L 558.278333 293.130498 
L 559.745347 299.320606 
L 561.212361 290.035444 
L 562.679375 299.320606 
L 564.146389 299.320606 
L 565.613403 299.320606 
L 567.080417 296.225552 
L 568.547431 296.225552 
L 571.481458 299.320606 
L 572.948472 296.225552 
L 574.415486 293.130498 
L 577.349514 299.320606 
L 578.816528 296.225552 
L 580.283542 290.035444 
L 581.750556 296.225552 
L 584.684583 296.225552 
L 586.151597 299.320606 
L 587.618611 299.320606 
L 589.085625 299.320606 
L 590.552639 299.320606 
L 592.019653 299.320606 
L 593.486667 299.320606 
L 594.953681 299.320606 
L 597.887708 296.225552 
L 603.755764 299.320606 
L 611.090833 299.320606 
L 713.781806 299.320606 
L 810.604722 299.320606 
" style="fill:none;stroke:#e4d354;stroke-linecap:square;"/>
   </g>
   <g id="line2d_17">
    <path clip-path="url(#p4167cc5f74)" d="M 109.372083 299.320606 
L 166.585625 299.320606 
L 176.854722 296.225552 
L 190.057847 296.225552 
L 195.925903 299.320606 
L 197.392917 296.225552 
L 203.260972 290.035444 
L 206.195 296.225552 
L 209.129028 296.225552 
L 210.596042 293.130498 
L 212.063056 296.225552 
L 214.997083 296.225552 
L 217.931111 293.130498 
L 219.398125 299.320606 
L 220.865139 290.035444 
L 222.332153 296.225552 
L 223.799167 290.035444 
L 225.266181 299.320606 
L 226.733194 299.320606 
L 228.200208 296.225552 
L 229.667222 299.320606 
L 231.134236 293.130498 
L 232.60125 299.320606 
L 237.002292 290.035444 
L 239.936319 299.320606 
L 241.403333 296.225552 
L 242.870347 299.320606 
L 251.672431 299.320606 
L 254.606458 293.130498 
L 256.073472 286.94039 
L 259.0075 293.130498 
L 260.474514 299.320606 
L 261.941528 293.130498 
L 263.408542 296.225552 
L 264.875556 293.130498 
L 266.342569 296.225552 
L 267.809583 296.225552 
L 269.276597 290.035444 
L 270.743611 299.320606 
L 273.677639 296.225552 
L 276.611667 299.320606 
L 278.078681 290.035444 
L 282.479722 299.320606 
L 283.946736 293.130498 
L 285.41375 299.320606 
L 286.880764 299.320606 
L 288.347778 296.225552 
L 289.814792 286.94039 
L 291.281806 296.225552 
L 292.748819 293.130498 
L 295.682847 299.320606 
L 297.149861 296.225552 
L 298.616875 299.320606 
L 300.083889 286.94039 
L 301.550903 293.130498 
L 304.484931 299.320606 
L 305.951944 299.320606 
L 308.885972 293.130498 
L 310.352986 299.320606 
L 311.82 293.130498 
L 314.754028 293.130498 
L 316.221042 296.225552 
L 317.688056 290.035444 
L 320.622083 296.225552 
L 322.089097 296.225552 
L 323.556111 293.130498 
L 325.023125 293.130498 
L 326.490139 290.035444 
L 327.957153 293.130498 
L 329.424167 299.320606 
L 330.891181 293.130498 
L 332.358194 296.225552 
L 333.825208 286.94039 
L 335.292222 293.130498 
L 336.759236 290.035444 
L 339.693264 296.225552 
L 341.160278 293.130498 
L 342.627292 299.320606 
L 344.094306 296.225552 
L 347.028333 283.845336 
L 349.962361 299.320606 
L 351.429375 286.94039 
L 354.363403 286.94039 
L 355.830417 290.035444 
L 357.297431 299.320606 
L 358.764444 293.130498 
L 360.231458 299.320606 
L 361.698472 299.320606 
L 363.165486 296.225552 
L 364.6325 286.94039 
L 366.099514 299.320606 
L 367.566528 299.320606 
L 370.500556 286.94039 
L 371.967569 299.320606 
L 373.434583 283.845336 
L 374.901597 296.225552 
L 376.368611 293.130498 
L 377.835625 299.320606 
L 380.769653 293.130498 
L 382.236667 299.320606 
L 383.703681 296.225552 
L 385.170694 283.845336 
L 386.637708 293.130498 
L 388.104722 290.035444 
L 389.571736 290.035444 
L 392.505764 296.225552 
L 393.972778 290.035444 
L 395.439792 296.225552 
L 396.906806 299.320606 
L 398.373819 290.035444 
L 399.840833 296.225552 
L 401.307847 283.845336 
L 402.774861 299.320606 
L 404.241875 290.035444 
L 407.175903 290.035444 
L 408.642917 296.225552 
L 413.043958 296.225552 
L 414.510972 277.655228 
L 415.977986 293.130498 
L 417.445 290.035444 
L 418.912014 299.320606 
L 420.379028 296.225552 
L 421.846042 286.94039 
L 423.313056 280.750282 
L 424.780069 293.130498 
L 426.247083 290.035444 
L 427.714097 296.225552 
L 429.181111 290.035444 
L 430.648125 293.130498 
L 433.582153 280.750282 
L 437.983194 280.750282 
L 440.917222 274.560174 
L 442.384236 286.94039 
L 443.85125 280.750282 
L 448.252292 271.46512 
L 449.719306 277.655228 
L 451.186319 268.370066 
L 452.653333 265.275012 
L 454.120347 286.94039 
L 455.587361 274.560174 
L 457.054375 268.370066 
L 458.521389 277.655228 
L 459.988403 271.46512 
L 461.455417 283.845336 
L 462.922431 277.655228 
L 464.389444 283.845336 
L 467.323472 277.655228 
L 468.790486 277.655228 
L 470.2575 283.845336 
L 471.724514 277.655228 
L 473.191528 262.179959 
L 476.125556 280.750282 
L 477.592569 252.894797 
L 479.059583 252.894797 
L 480.526597 274.560174 
L 481.993611 271.46512 
L 483.460625 280.750282 
L 484.927639 274.560174 
L 486.394653 271.46512 
L 487.861667 255.989851 
L 489.328681 265.275012 
L 490.795694 280.750282 
L 492.262708 274.560174 
L 493.729722 259.084905 
L 495.196736 274.560174 
L 496.66375 265.275012 
L 498.130764 252.894797 
L 499.597778 280.750282 
L 501.064792 252.894797 
L 502.531806 262.179959 
L 503.998819 274.560174 
L 505.465833 255.989851 
L 506.932847 259.084905 
L 508.399861 259.084905 
L 511.333889 252.894797 
L 512.800903 274.560174 
L 514.267917 283.845336 
L 515.734931 252.894797 
L 517.201944 228.134365 
L 520.135972 252.894797 
L 521.602986 243.609635 
L 523.07 243.609635 
L 524.537014 237.419527 
L 526.004028 228.134365 
L 527.471042 231.229419 
L 528.938056 225.039311 
L 530.405069 212.659095 
L 531.872083 172.423394 
L 533.339097 231.229419 
L 534.806111 175.518448 
L 536.273125 172.423394 
L 537.740139 200.278879 
L 539.207153 132.187692 
L 540.674167 110.522314 
L 542.141181 144.567908 
L 543.608194 129.092638 
L 545.075208 85.761883 
L 546.542222 91.951991 
L 548.009236 64.096505 
L 549.47625 85.761883 
L 550.943264 101.237153 
L 552.410278 104.332206 
L 553.877292 45.526181 
L 555.344306 95.047045 
L 556.811319 48.621235 
L 558.278333 116.712422 
L 559.745347 101.237153 
L 561.212361 110.522314 
L 562.679375 98.142099 
L 564.146389 91.951991 
L 565.613403 76.476721 
L 567.080417 95.047045 
L 568.547431 88.856937 
L 570.014444 110.522314 
L 571.481458 138.3778 
L 572.948472 88.856937 
L 574.415486 122.90253 
L 575.8825 147.662962 
L 577.349514 104.332206 
L 578.816528 169.32834 
L 580.283542 156.948124 
L 581.750556 153.85307 
L 583.217569 156.948124 
L 584.684583 163.138232 
L 586.151597 194.088771 
L 587.618611 203.373933 
L 589.085625 234.324473 
L 590.552639 262.179959 
L 592.019653 262.179959 
L 593.486667 252.894797 
L 594.953681 268.370066 
L 596.420694 268.370066 
L 597.887708 274.560174 
L 599.354722 286.94039 
L 600.821736 296.225552 
L 602.28875 299.320606 
L 603.755764 293.130498 
L 605.222778 293.130498 
L 611.090833 299.320606 
L 612.557847 299.320606 
L 614.024861 296.225552 
L 621.359931 299.320606 
L 627.227986 299.320606 
L 630.162014 296.225552 
L 631.629028 299.320606 
L 633.096042 299.320606 
L 636.030069 296.225552 
L 640.431111 299.320606 
L 659.502292 299.320606 
L 665.370347 296.225552 
L 668.304375 299.320606 
L 669.771389 299.320606 
L 672.705417 296.225552 
L 674.172431 299.320606 
L 682.974514 299.320606 
L 685.908542 296.225552 
L 690.309583 299.320606 
L 694.710625 299.320606 
L 707.91375 296.225552 
L 710.847778 299.320606 
L 737.254028 299.320606 
L 740.188056 296.225552 
L 743.122083 299.320606 
L 747.523125 299.320606 
L 762.193264 296.225552 
L 765.127292 299.320606 
L 948.504028 299.320606 
L 948.504028 299.320606 
" style="fill:none;stroke:#2b908f;stroke-linecap:square;"/>
   </g>
   <g id="line2d_18">
    <path clip-path="url(#p4167cc5f74)" d="M 109.372083 299.320606 
L 288.347778 299.320606 
L 289.814792 296.225552 
L 295.682847 299.320606 
L 347.028333 299.320606 
L 351.429375 296.225552 
L 354.363403 299.320606 
L 391.03875 299.320606 
L 398.373819 296.225552 
L 399.840833 299.320606 
L 402.774861 299.320606 
L 407.175903 296.225552 
L 414.510972 296.225552 
L 415.977986 299.320606 
L 418.912014 299.320606 
L 421.846042 293.130498 
L 423.313056 296.225552 
L 424.780069 296.225552 
L 426.247083 299.320606 
L 435.049167 299.320606 
L 436.516181 296.225552 
L 437.983194 299.320606 
L 439.450208 296.225552 
L 442.384236 299.320606 
L 443.85125 299.320606 
L 445.318264 290.035444 
L 449.719306 299.320606 
L 452.653333 293.130498 
L 454.120347 293.130498 
L 455.587361 286.94039 
L 458.521389 299.320606 
L 459.988403 293.130498 
L 462.922431 293.130498 
L 464.389444 299.320606 
L 468.790486 299.320606 
L 470.2575 296.225552 
L 471.724514 296.225552 
L 473.191528 293.130498 
L 474.658542 299.320606 
L 476.125556 299.320606 
L 477.592569 296.225552 
L 479.059583 286.94039 
L 480.526597 296.225552 
L 481.993611 293.130498 
L 484.927639 299.320606 
L 489.328681 290.035444 
L 490.795694 296.225552 
L 492.262708 296.225552 
L 493.729722 299.320606 
L 495.196736 293.130498 
L 498.130764 286.94039 
L 499.597778 299.320606 
L 501.064792 290.035444 
L 502.531806 293.130498 
L 505.465833 293.130498 
L 506.932847 296.225552 
L 508.399861 286.94039 
L 509.866875 286.94039 
L 512.800903 293.130498 
L 515.734931 290.035444 
L 517.201944 293.130498 
L 518.668958 286.94039 
L 520.135972 293.130498 
L 521.602986 280.750282 
L 523.07 293.130498 
L 524.537014 280.750282 
L 526.004028 290.035444 
L 527.471042 283.845336 
L 528.938056 283.845336 
L 530.405069 277.655228 
L 531.872083 274.560174 
L 533.339097 293.130498 
L 536.273125 262.179959 
L 537.740139 277.655228 
L 539.207153 283.845336 
L 540.674167 249.799743 
L 542.141181 255.989851 
L 543.608194 246.704689 
L 545.075208 243.609635 
L 546.542222 252.894797 
L 548.009236 255.989851 
L 549.47625 252.894797 
L 550.943264 271.46512 
L 552.410278 259.084905 
L 553.877292 252.894797 
L 555.344306 255.989851 
L 556.811319 221.944257 
L 558.278333 249.799743 
L 559.745347 259.084905 
L 561.212361 231.229419 
L 562.679375 265.275012 
L 564.146389 262.179959 
L 565.613403 249.799743 
L 567.080417 259.084905 
L 568.547431 255.989851 
L 570.014444 262.179959 
L 571.481458 265.275012 
L 572.948472 249.799743 
L 574.415486 255.989851 
L 575.8825 277.655228 
L 577.349514 262.179959 
L 578.816528 268.370066 
L 580.283542 265.275012 
L 581.750556 271.46512 
L 583.217569 268.370066 
L 584.684583 262.179959 
L 586.151597 268.370066 
L 587.618611 280.750282 
L 589.085625 290.035444 
L 590.552639 290.035444 
L 592.019653 296.225552 
L 593.486667 293.130498 
L 594.953681 299.320606 
L 596.420694 290.035444 
L 597.887708 299.320606 
L 599.354722 296.225552 
L 630.162014 299.320606 
L 860.483194 299.320606 
L 860.483194 299.320606 
" style="fill:none;stroke:#f45b5b;stroke-linecap:square;"/>
   </g>
   <g id="line2d_19">
    <path clip-path="url(#p4167cc5f74)" d="M 144.580417 299.320606 
L 207.662014 299.320606 
L 209.129028 296.225552 
L 210.596042 299.320606 
L 217.931111 296.225552 
L 219.398125 299.320606 
L 342.627292 299.320606 
L 344.094306 296.225552 
L 347.028333 296.225552 
L 351.429375 299.320606 
L 352.896389 296.225552 
L 355.830417 299.320606 
L 364.6325 296.225552 
L 367.566528 299.320606 
L 421.846042 299.320606 
L 423.313056 296.225552 
L 424.780069 299.320606 
L 432.115139 299.320606 
L 433.582153 296.225552 
L 435.049167 296.225552 
L 439.450208 299.320606 
L 442.384236 299.320606 
L 443.85125 290.035444 
L 448.252292 299.320606 
L 449.719306 299.320606 
L 452.653333 293.130498 
L 454.120347 296.225552 
L 458.521389 299.320606 
L 459.988403 299.320606 
L 462.922431 296.225552 
L 464.389444 299.320606 
L 465.856458 296.225552 
L 467.323472 296.225552 
L 471.724514 299.320606 
L 473.191528 283.845336 
L 474.658542 293.130498 
L 476.125556 293.130498 
L 477.592569 283.845336 
L 479.059583 296.225552 
L 480.526597 296.225552 
L 481.993611 299.320606 
L 484.927639 296.225552 
L 486.394653 293.130498 
L 489.328681 299.320606 
L 493.729722 290.035444 
L 495.196736 293.130498 
L 496.66375 299.320606 
L 498.130764 293.130498 
L 499.597778 296.225552 
L 501.064792 296.225552 
L 502.531806 293.130498 
L 503.998819 296.225552 
L 505.465833 283.845336 
L 506.932847 286.94039 
L 508.399861 286.94039 
L 509.866875 290.035444 
L 511.333889 290.035444 
L 512.800903 299.320606 
L 515.734931 299.320606 
L 517.201944 290.035444 
L 518.668958 296.225552 
L 520.135972 293.130498 
L 521.602986 283.845336 
L 523.07 283.845336 
L 524.537014 286.94039 
L 526.004028 286.94039 
L 527.471042 290.035444 
L 528.938056 299.320606 
L 530.405069 283.845336 
L 531.872083 271.46512 
L 533.339097 290.035444 
L 534.806111 271.46512 
L 536.273125 280.750282 
L 537.740139 293.130498 
L 539.207153 265.275012 
L 542.141181 277.655228 
L 543.608194 268.370066 
L 545.075208 271.46512 
L 546.542222 252.894797 
L 548.009236 255.989851 
L 549.47625 265.275012 
L 550.943264 252.894797 
L 552.410278 255.989851 
L 555.344306 249.799743 
L 556.811319 262.179959 
L 558.278333 265.275012 
L 559.745347 265.275012 
L 561.212361 262.179959 
L 562.679375 234.324473 
L 564.146389 249.799743 
L 565.613403 246.704689 
L 567.080417 255.989851 
L 568.547431 255.989851 
L 570.014444 259.084905 
L 571.481458 271.46512 
L 572.948472 268.370066 
L 574.415486 252.894797 
L 575.8825 255.989851 
L 577.349514 274.560174 
L 578.816528 277.655228 
L 580.283542 274.560174 
L 581.750556 265.275012 
L 583.217569 259.084905 
L 584.684583 277.655228 
L 586.151597 277.655228 
L 587.618611 280.750282 
L 589.085625 290.035444 
L 590.552639 296.225552 
L 592.019653 299.320606 
L 593.486667 293.130498 
L 594.953681 293.130498 
L 596.420694 296.225552 
L 597.887708 290.035444 
L 599.354722 296.225552 
L 600.821736 299.320606 
L 800.335625 299.320606 
L 800.335625 299.320606 
" style="fill:none;stroke:#91e8e1;stroke-linecap:square;"/>
   </g>
   <g id="line2d_20">
    <path clip-path="url(#p4167cc5f74)" d="M 141.646389 299.320606 
L 176.854722 296.225552 
L 203.260972 296.225552 
L 210.596042 299.320606 
L 212.063056 299.320606 
L 214.997083 296.225552 
L 217.931111 299.320606 
L 222.332153 299.320606 
L 223.799167 296.225552 
L 228.200208 299.320606 
L 234.068264 299.320606 
L 237.002292 296.225552 
L 241.403333 299.320606 
L 254.606458 296.225552 
L 256.073472 299.320606 
L 288.347778 299.320606 
L 289.814792 293.130498 
L 292.748819 299.320606 
L 297.149861 299.320606 
L 300.083889 296.225552 
L 301.550903 299.320606 
L 326.490139 299.320606 
L 327.957153 296.225552 
L 333.825208 299.320606 
L 352.896389 299.320606 
L 364.6325 296.225552 
L 376.368611 296.225552 
L 379.302639 299.320606 
L 380.769653 293.130498 
L 383.703681 299.320606 
L 385.170694 296.225552 
L 389.571736 296.225552 
L 395.439792 299.320606 
L 401.307847 299.320606 
L 404.241875 296.225552 
L 407.175903 296.225552 
L 410.109931 299.320606 
L 413.043958 299.320606 
L 414.510972 293.130498 
L 415.977986 299.320606 
L 417.445 296.225552 
L 423.313056 299.320606 
L 429.181111 299.320606 
L 432.115139 296.225552 
L 433.582153 299.320606 
L 436.516181 299.320606 
L 439.450208 293.130498 
L 442.384236 296.225552 
L 443.85125 299.320606 
L 448.252292 299.320606 
L 449.719306 296.225552 
L 451.186319 299.320606 
L 452.653333 296.225552 
L 454.120347 299.320606 
L 455.587361 299.320606 
L 457.054375 286.94039 
L 458.521389 296.225552 
L 459.988403 296.225552 
L 461.455417 293.130498 
L 462.922431 296.225552 
L 465.856458 299.320606 
L 467.323472 299.320606 
L 468.790486 293.130498 
L 470.2575 299.320606 
L 471.724514 296.225552 
L 473.191528 296.225552 
L 474.658542 299.320606 
L 476.125556 293.130498 
L 477.592569 290.035444 
L 479.059583 293.130498 
L 480.526597 299.320606 
L 481.993611 293.130498 
L 484.927639 293.130498 
L 486.394653 299.320606 
L 487.861667 290.035444 
L 489.328681 296.225552 
L 490.795694 290.035444 
L 492.262708 299.320606 
L 493.729722 286.94039 
L 495.196736 299.320606 
L 496.66375 296.225552 
L 498.130764 290.035444 
L 499.597778 299.320606 
L 501.064792 293.130498 
L 503.998819 296.225552 
L 505.465833 293.130498 
L 506.932847 286.94039 
L 509.866875 299.320606 
L 512.800903 299.320606 
L 514.267917 293.130498 
L 515.734931 290.035444 
L 517.201944 280.750282 
L 518.668958 283.845336 
L 520.135972 296.225552 
L 523.07 290.035444 
L 524.537014 283.845336 
L 526.004028 283.845336 
L 527.471042 290.035444 
L 528.938056 286.94039 
L 530.405069 290.035444 
L 531.872083 277.655228 
L 533.339097 293.130498 
L 534.806111 271.46512 
L 536.273125 271.46512 
L 537.740139 280.750282 
L 539.207153 277.655228 
L 540.674167 259.084905 
L 542.141181 265.275012 
L 543.608194 286.94039 
L 545.075208 255.989851 
L 546.542222 265.275012 
L 548.009236 240.514581 
L 549.47625 265.275012 
L 550.943264 249.799743 
L 552.410278 271.46512 
L 553.877292 249.799743 
L 555.344306 240.514581 
L 556.811319 259.084905 
L 558.278333 274.560174 
L 559.745347 255.989851 
L 561.212361 243.609635 
L 562.679375 268.370066 
L 564.146389 252.894797 
L 567.080417 252.894797 
L 568.547431 265.275012 
L 570.014444 252.894797 
L 571.481458 280.750282 
L 572.948472 255.989851 
L 574.415486 252.894797 
L 575.8825 280.750282 
L 577.349514 240.514581 
L 578.816528 255.989851 
L 580.283542 286.94039 
L 583.217569 255.989851 
L 584.684583 280.750282 
L 586.151597 286.94039 
L 587.618611 283.845336 
L 589.085625 286.94039 
L 590.552639 299.320606 
L 592.019653 283.845336 
L 593.486667 293.130498 
L 594.953681 293.130498 
L 596.420694 296.225552 
L 597.887708 296.225552 
L 599.354722 299.320606 
L 878.087361 299.320606 
L 878.087361 299.320606 
" style="fill:none;stroke:#7cb5ec;stroke-linecap:square;"/>
   </g>
   <g id="line2d_21">
    <path clip-path="url(#p4167cc5f74)" d="M 166.585625 299.320606 
L 225.266181 299.320606 
L 231.134236 296.225552 
L 232.60125 299.320606 
L 241.403333 299.320606 
L 253.139444 296.225552 
L 259.0075 299.320606 
L 261.941528 296.225552 
L 267.809583 299.320606 
L 332.358194 299.320606 
L 333.825208 296.225552 
L 335.292222 299.320606 
L 338.22625 299.320606 
L 341.160278 296.225552 
L 349.962361 299.320606 
L 351.429375 299.320606 
L 352.896389 296.225552 
L 354.363403 290.035444 
L 355.830417 296.225552 
L 358.764444 299.320606 
L 370.500556 299.320606 
L 373.434583 293.130498 
L 377.835625 299.320606 
L 385.170694 299.320606 
L 386.637708 296.225552 
L 389.571736 299.320606 
L 404.241875 299.320606 
L 408.642917 296.225552 
L 411.576944 299.320606 
L 421.846042 299.320606 
L 423.313056 296.225552 
L 426.247083 299.320606 
L 430.648125 296.225552 
L 433.582153 293.130498 
L 435.049167 296.225552 
L 436.516181 293.130498 
L 437.983194 299.320606 
L 440.917222 293.130498 
L 442.384236 299.320606 
L 446.785278 299.320606 
L 448.252292 286.94039 
L 449.719306 299.320606 
L 451.186319 290.035444 
L 452.653333 296.225552 
L 457.054375 293.130498 
L 459.988403 296.225552 
L 461.455417 296.225552 
L 462.922431 299.320606 
L 464.389444 293.130498 
L 465.856458 290.035444 
L 467.323472 293.130498 
L 468.790486 293.130498 
L 470.2575 299.320606 
L 471.724514 296.225552 
L 473.191528 299.320606 
L 474.658542 290.035444 
L 477.592569 293.130498 
L 479.059583 290.035444 
L 481.993611 293.130498 
L 483.460625 299.320606 
L 484.927639 293.130498 
L 486.394653 299.320606 
L 487.861667 293.130498 
L 489.328681 290.035444 
L 492.262708 293.130498 
L 493.729722 293.130498 
L 495.196736 299.320606 
L 496.66375 299.320606 
L 498.130764 296.225552 
L 499.597778 299.320606 
L 501.064792 290.035444 
L 502.531806 283.845336 
L 503.998819 290.035444 
L 506.932847 296.225552 
L 508.399861 296.225552 
L 509.866875 283.845336 
L 511.333889 299.320606 
L 512.800903 296.225552 
L 514.267917 299.320606 
L 515.734931 290.035444 
L 517.201944 277.655228 
L 518.668958 299.320606 
L 520.135972 290.035444 
L 521.602986 299.320606 
L 523.07 293.130498 
L 524.537014 290.035444 
L 526.004028 290.035444 
L 527.471042 283.845336 
L 528.938056 274.560174 
L 530.405069 277.655228 
L 531.872083 286.94039 
L 533.339097 268.370066 
L 534.806111 274.560174 
L 536.273125 271.46512 
L 537.740139 265.275012 
L 539.207153 246.704689 
L 542.141181 252.894797 
L 543.608194 246.704689 
L 545.075208 243.609635 
L 546.542222 262.179959 
L 548.009236 243.609635 
L 549.47625 240.514581 
L 550.943264 246.704689 
L 552.410278 246.704689 
L 553.877292 212.659095 
L 555.344306 243.609635 
L 556.811319 265.275012 
L 559.745347 246.704689 
L 561.212361 265.275012 
L 564.146389 259.084905 
L 565.613403 240.514581 
L 567.080417 246.704689 
L 568.547431 246.704689 
L 570.014444 268.370066 
L 571.481458 252.894797 
L 572.948472 243.609635 
L 574.415486 255.989851 
L 575.8825 249.799743 
L 577.349514 237.419527 
L 578.816528 283.845336 
L 580.283542 268.370066 
L 581.750556 255.989851 
L 583.217569 280.750282 
L 584.684583 268.370066 
L 586.151597 286.94039 
L 587.618611 280.750282 
L 589.085625 293.130498 
L 590.552639 286.94039 
L 592.019653 296.225552 
L 593.486667 290.035444 
L 594.953681 290.035444 
L 597.887708 296.225552 
L 603.755764 299.320606 
L 605.222778 296.225552 
L 614.024861 299.320606 
L 857.549167 299.320606 
L 857.549167 299.320606 
" style="fill:none;stroke:#434348;stroke-linecap:square;"/>
   </g>
   <g id="line2d_22">
    <path clip-path="url(#p4167cc5f74)" d="M 181.255764 296.225552 
L 195.925903 299.320606 
L 222.332153 299.320606 
L 223.799167 296.225552 
L 226.733194 299.320606 
L 228.200208 299.320606 
L 237.002292 296.225552 
L 244.337361 299.320606 
L 256.073472 296.225552 
L 259.0075 299.320606 
L 276.611667 299.320606 
L 278.078681 296.225552 
L 279.545694 299.320606 
L 305.951944 299.320606 
L 308.885972 296.225552 
L 310.352986 299.320606 
L 326.490139 299.320606 
L 330.891181 296.225552 
L 333.825208 299.320606 
L 336.759236 293.130498 
L 338.22625 299.320606 
L 347.028333 296.225552 
L 351.429375 299.320606 
L 366.099514 299.320606 
L 370.500556 296.225552 
L 373.434583 299.320606 
L 388.104722 299.320606 
L 391.03875 296.225552 
L 393.972778 296.225552 
L 401.307847 290.035444 
L 404.241875 299.320606 
L 411.576944 299.320606 
L 414.510972 293.130498 
L 420.379028 299.320606 
L 427.714097 299.320606 
L 429.181111 296.225552 
L 432.115139 293.130498 
L 433.582153 299.320606 
L 435.049167 296.225552 
L 436.516181 299.320606 
L 437.983194 293.130498 
L 439.450208 296.225552 
L 440.917222 286.94039 
L 442.384236 299.320606 
L 445.318264 293.130498 
L 446.785278 293.130498 
L 448.252292 299.320606 
L 449.719306 293.130498 
L 452.653333 293.130498 
L 454.120347 299.320606 
L 455.587361 293.130498 
L 457.054375 280.750282 
L 458.521389 290.035444 
L 459.988403 293.130498 
L 461.455417 299.320606 
L 465.856458 299.320606 
L 467.323472 296.225552 
L 468.790486 299.320606 
L 470.2575 296.225552 
L 471.724514 296.225552 
L 473.191528 293.130498 
L 474.658542 299.320606 
L 477.592569 296.225552 
L 479.059583 290.035444 
L 480.526597 290.035444 
L 481.993611 296.225552 
L 484.927639 296.225552 
L 486.394653 293.130498 
L 487.861667 293.130498 
L 489.328681 299.320606 
L 490.795694 299.320606 
L 492.262708 293.130498 
L 495.196736 293.130498 
L 496.66375 290.035444 
L 499.597778 296.225552 
L 501.064792 293.130498 
L 502.531806 299.320606 
L 505.465833 296.225552 
L 508.399861 296.225552 
L 509.866875 299.320606 
L 511.333889 283.845336 
L 512.800903 296.225552 
L 515.734931 290.035444 
L 517.201944 293.130498 
L 518.668958 283.845336 
L 520.135972 286.94039 
L 521.602986 293.130498 
L 523.07 286.94039 
L 524.537014 293.130498 
L 526.004028 286.94039 
L 528.938056 286.94039 
L 530.405069 283.845336 
L 531.872083 262.179959 
L 533.339097 290.035444 
L 534.806111 283.845336 
L 536.273125 286.94039 
L 537.740139 277.655228 
L 539.207153 252.894797 
L 542.141181 277.655228 
L 543.608194 268.370066 
L 545.075208 265.275012 
L 546.542222 225.039311 
L 548.009236 252.894797 
L 549.47625 243.609635 
L 550.943264 246.704689 
L 552.410278 268.370066 
L 553.877292 234.324473 
L 555.344306 262.179959 
L 556.811319 200.278879 
L 558.278333 240.514581 
L 559.745347 259.084905 
L 561.212361 280.750282 
L 562.679375 243.609635 
L 564.146389 249.799743 
L 565.613403 240.514581 
L 567.080417 252.894797 
L 568.547431 249.799743 
L 570.014444 262.179959 
L 571.481458 255.989851 
L 572.948472 268.370066 
L 574.415486 277.655228 
L 577.349514 259.084905 
L 578.816528 286.94039 
L 580.283542 262.179959 
L 581.750556 277.655228 
L 583.217569 271.46512 
L 584.684583 277.655228 
L 586.151597 271.46512 
L 587.618611 280.750282 
L 589.085625 277.655228 
L 590.552639 296.225552 
L 592.019653 293.130498 
L 593.486667 293.130498 
L 594.953681 296.225552 
L 596.420694 293.130498 
L 597.887708 299.320606 
L 948.504028 299.320606 
L 948.504028 299.320606 
" style="fill:none;stroke:#90ed7d;stroke-linecap:square;"/>
   </g>
   <g id="line2d_23">
    <path clip-path="url(#p4167cc5f74)" d="M 60.960625 302.41566 
L 990.460625 302.41566 
" style="fill:none;stroke:#dedede;stroke-linecap:square;stroke-width:2;"/>
   </g>
   <g id="text_19">
    <!-- Qualimap BamQC: Insert size histogram -->
    <defs>
     <path d="M 39.40625 66.21875 
Q 28.65625 66.21875 22.328125 58.203125 
Q 16.015625 50.203125 16.015625 36.375 
Q 16.015625 22.609375 22.328125 14.59375 
Q 28.65625 6.59375 39.40625 6.59375 
Q 50.140625 6.59375 56.421875 14.59375 
Q 62.703125 22.609375 62.703125 36.375 
Q 62.703125 50.203125 56.421875 58.203125 
Q 50.140625 66.21875 39.40625 66.21875 
z
M 53.21875 1.3125 
L 66.21875 -12.890625 
L 54.296875 -12.890625 
L 43.5 -1.21875 
Q 41.890625 -1.3125 41.03125 -1.359375 
Q 40.1875 -1.421875 39.40625 -1.421875 
Q 24.03125 -1.421875 14.8125 8.859375 
Q 5.609375 19.140625 5.609375 36.375 
Q 5.609375 53.65625 14.8125 63.9375 
Q 24.03125 74.21875 39.40625 74.21875 
Q 54.734375 74.21875 63.90625 63.9375 
Q 73.09375 53.65625 73.09375 36.375 
Q 73.09375 23.6875 67.984375 14.640625 
Q 62.890625 5.609375 53.21875 1.3125 
z
" id="DejaVuSans-51"/>
     <path d="M 8.5 21.578125 
L 8.5 54.6875 
L 17.484375 54.6875 
L 17.484375 21.921875 
Q 17.484375 14.15625 20.5 10.265625 
Q 23.53125 6.390625 29.59375 6.390625 
Q 36.859375 6.390625 41.078125 11.03125 
Q 45.3125 15.671875 45.3125 23.6875 
L 45.3125 54.6875 
L 54.296875 54.6875 
L 54.296875 0 
L 45.3125 0 
L 45.3125 8.40625 
Q 42.046875 3.421875 37.71875 1 
Q 33.40625 -1.421875 27.6875 -1.421875 
Q 18.265625 -1.421875 13.375 4.4375 
Q 8.5 10.296875 8.5 21.578125 
z
M 31.109375 56 
z
" id="DejaVuSans-75"/>
     <path d="M 9.421875 75.984375 
L 18.40625 75.984375 
L 18.40625 0 
L 9.421875 0 
z
" id="DejaVuSans-6c"/>
     <path d="M 52 44.1875 
Q 55.375 50.25 60.0625 53.125 
Q 64.75 56 71.09375 56 
Q 79.640625 56 84.28125 50.015625 
Q 88.921875 44.046875 88.921875 33.015625 
L 88.921875 0 
L 79.890625 0 
L 79.890625 32.71875 
Q 79.890625 40.578125 77.09375 44.375 
Q 74.3125 48.1875 68.609375 48.1875 
Q 61.625 48.1875 57.5625 43.546875 
Q 53.515625 38.921875 53.515625 30.90625 
L 53.515625 0 
L 44.484375 0 
L 44.484375 32.71875 
Q 44.484375 40.625 41.703125 44.40625 
Q 38.921875 48.1875 33.109375 48.1875 
Q 26.21875 48.1875 22.15625 43.53125 
Q 18.109375 38.875 18.109375 30.90625 
L 18.109375 0 
L 9.078125 0 
L 9.078125 54.6875 
L 18.109375 54.6875 
L 18.109375 46.1875 
Q 21.1875 51.21875 25.484375 53.609375 
Q 29.78125 56 35.6875 56 
Q 41.65625 56 45.828125 52.96875 
Q 50 49.953125 52 44.1875 
z
" id="DejaVuSans-6d"/>
     <path d="M 19.671875 34.8125 
L 19.671875 8.109375 
L 35.5 8.109375 
Q 43.453125 8.109375 47.28125 11.40625 
Q 51.125 14.703125 51.125 21.484375 
Q 51.125 28.328125 47.28125 31.5625 
Q 43.453125 34.8125 35.5 34.8125 
z
M 19.671875 64.796875 
L 19.671875 42.828125 
L 34.28125 42.828125 
Q 41.5 42.828125 45.03125 45.53125 
Q 48.578125 48.25 48.578125 53.8125 
Q 48.578125 59.328125 45.03125 62.0625 
Q 41.5 64.796875 34.28125 64.796875 
z
M 9.8125 72.90625 
L 35.015625 72.90625 
Q 46.296875 72.90625 52.390625 68.21875 
Q 58.5 63.53125 58.5 54.890625 
Q 58.5 48.1875 55.375 44.234375 
Q 52.25 40.28125 46.1875 39.3125 
Q 53.46875 37.75 57.5 32.78125 
Q 61.53125 27.828125 61.53125 20.40625 
Q 61.53125 10.640625 54.890625 5.3125 
Q 48.25 0 35.984375 0 
L 9.8125 0 
z
" id="DejaVuSans-42"/>
     <path d="M 64.40625 67.28125 
L 64.40625 56.890625 
Q 59.421875 61.53125 53.78125 63.8125 
Q 48.140625 66.109375 41.796875 66.109375 
Q 29.296875 66.109375 22.65625 58.46875 
Q 16.015625 50.828125 16.015625 36.375 
Q 16.015625 21.96875 22.65625 14.328125 
Q 29.296875 6.6875 41.796875 6.6875 
Q 48.140625 6.6875 53.78125 8.984375 
Q 59.421875 11.28125 64.40625 15.921875 
L 64.40625 5.609375 
Q 59.234375 2.09375 53.4375 0.328125 
Q 47.65625 -1.421875 41.21875 -1.421875 
Q 24.65625 -1.421875 15.125 8.703125 
Q 5.609375 18.84375 5.609375 36.375 
Q 5.609375 53.953125 15.125 64.078125 
Q 24.65625 74.21875 41.21875 74.21875 
Q 47.75 74.21875 53.53125 72.484375 
Q 59.328125 70.75 64.40625 67.28125 
z
" id="DejaVuSans-43"/>
     <path d="M 11.71875 12.40625 
L 22.015625 12.40625 
L 22.015625 0 
L 11.71875 0 
z
M 11.71875 51.703125 
L 22.015625 51.703125 
L 22.015625 39.3125 
L 11.71875 39.3125 
z
" id="DejaVuSans-3a"/>
     <path d="M 54.890625 33.015625 
L 54.890625 0 
L 45.90625 0 
L 45.90625 32.71875 
Q 45.90625 40.484375 42.875 44.328125 
Q 39.84375 48.1875 33.796875 48.1875 
Q 26.515625 48.1875 22.3125 43.546875 
Q 18.109375 38.921875 18.109375 30.90625 
L 18.109375 0 
L 9.078125 0 
L 9.078125 75.984375 
L 18.109375 75.984375 
L 18.109375 46.1875 
Q 21.34375 51.125 25.703125 53.5625 
Q 30.078125 56 35.796875 56 
Q 45.21875 56 50.046875 50.171875 
Q 54.890625 44.34375 54.890625 33.015625 
z
" id="DejaVuSans-68"/>
     <path d="M 45.40625 27.984375 
Q 45.40625 37.75 41.375 43.109375 
Q 37.359375 48.484375 30.078125 48.484375 
Q 22.859375 48.484375 18.828125 43.109375 
Q 14.796875 37.75 14.796875 27.984375 
Q 14.796875 18.265625 18.828125 12.890625 
Q 22.859375 7.515625 30.078125 7.515625 
Q 37.359375 7.515625 41.375 12.890625 
Q 45.40625 18.265625 45.40625 27.984375 
z
M 54.390625 6.78125 
Q 54.390625 -7.171875 48.1875 -13.984375 
Q 42 -20.796875 29.203125 -20.796875 
Q 24.46875 -20.796875 20.265625 -20.09375 
Q 16.0625 -19.390625 12.109375 -17.921875 
L 12.109375 -9.1875 
Q 16.0625 -11.328125 19.921875 -12.34375 
Q 23.78125 -13.375 27.78125 -13.375 
Q 36.625 -13.375 41.015625 -8.765625 
Q 45.40625 -4.15625 45.40625 5.171875 
L 45.40625 9.625 
Q 42.625 4.78125 38.28125 2.390625 
Q 33.9375 0 27.875 0 
Q 17.828125 0 11.671875 7.65625 
Q 5.515625 15.328125 5.515625 27.984375 
Q 5.515625 40.671875 11.671875 48.328125 
Q 17.828125 56 27.875 56 
Q 33.9375 56 38.28125 53.609375 
Q 42.625 51.21875 45.40625 46.390625 
L 45.40625 54.6875 
L 54.390625 54.6875 
z
" id="DejaVuSans-67"/>
    </defs>
    <g transform="translate(365.279375 19.3575)scale(0.16 -0.16)">
     <use xlink:href="#DejaVuSans-51"/>
     <use x="78.710938" xlink:href="#DejaVuSans-75"/>
     <use x="142.089844" xlink:href="#DejaVuSans-61"/>
     <use x="203.369141" xlink:href="#DejaVuSans-6c"/>
     <use x="231.152344" xlink:href="#DejaVuSans-69"/>
     <use x="258.935547" xlink:href="#DejaVuSans-6d"/>
     <use x="356.347656" xlink:href="#DejaVuSans-61"/>
     <use x="417.626953" xlink:href="#DejaVuSans-70"/>
     <use x="481.103516" xlink:href="#DejaVuSans-20"/>
     <use x="512.890625" xlink:href="#DejaVuSans-42"/>
     <use x="581.494141" xlink:href="#DejaVuSans-61"/>
     <use x="642.773438" xlink:href="#DejaVuSans-6d"/>
     <use x="740.185547" xlink:href="#DejaVuSans-51"/>
     <use x="818.896484" xlink:href="#DejaVuSans-43"/>
     <use x="888.720703" xlink:href="#DejaVuSans-3a"/>
     <use x="922.412109" xlink:href="#DejaVuSans-20"/>
     <use x="954.199219" xlink:href="#DejaVuSans-49"/>
     <use x="983.691406" xlink:href="#DejaVuSans-6e"/>
     <use x="1047.070312" xlink:href="#DejaVuSans-73"/>
     <use x="1099.169922" xlink:href="#DejaVuSans-65"/>
     <use x="1160.693359" xlink:href="#DejaVuSans-72"/>
     <use x="1201.806641" xlink:href="#DejaVuSans-74"/>
     <use x="1241.015625" xlink:href="#DejaVuSans-20"/>
     <use x="1272.802734" xlink:href="#DejaVuSans-73"/>
     <use x="1324.902344" xlink:href="#DejaVuSans-69"/>
     <use x="1352.685547" xlink:href="#DejaVuSans-7a"/>
     <use x="1405.175781" xlink:href="#DejaVuSans-65"/>
     <use x="1466.699219" xlink:href="#DejaVuSans-20"/>
     <use x="1498.486328" xlink:href="#DejaVuSans-68"/>
     <use x="1561.865234" xlink:href="#DejaVuSans-69"/>
     <use x="1589.648438" xlink:href="#DejaVuSans-73"/>
     <use x="1641.748047" xlink:href="#DejaVuSans-74"/>
     <use x="1680.957031" xlink:href="#DejaVuSans-6f"/>
     <use x="1742.138672" xlink:href="#DejaVuSans-67"/>
     <use x="1805.615234" xlink:href="#DejaVuSans-72"/>
     <use x="1846.728516" xlink:href="#DejaVuSans-61"/>
     <use x="1908.007812" xlink:href="#DejaVuSans-6d"/>
    </g>
   </g>
   <g id="legend_1">
    <g id="line2d_24">
     <path d="M 68.160625 325.906834 
L 84.160625 325.906834 
" style="fill:none;stroke:#7cb5ec;stroke-linecap:square;"/>
    </g>
    <g id="line2d_25"/>
    <g id="text_20">
     <!-- 1234N.recal -->
     <defs>
      <path d="M 9.8125 72.90625 
L 23.09375 72.90625 
L 55.421875 11.921875 
L 55.421875 72.90625 
L 64.984375 72.90625 
L 64.984375 0 
L 51.703125 0 
L 19.390625 60.984375 
L 19.390625 0 
L 9.8125 0 
z
" id="DejaVuSans-4e"/>
     </defs>
     <g transform="translate(90.560625 328.706834)scale(0.08 -0.08)">
      <use xlink:href="#DejaVuSans-31"/>
      <use x="63.623047" xlink:href="#DejaVuSans-32"/>
      <use x="127.246094" xlink:href="#DejaVuSans-33"/>
      <use x="190.869141" xlink:href="#DejaVuSans-34"/>
      <use x="254.492188" xlink:href="#DejaVuSans-4e"/>
      <use x="329.296875" xlink:href="#DejaVuSans-2e"/>
      <use x="361.083984" xlink:href="#DejaVuSans-72"/>
      <use x="402.166016" xlink:href="#DejaVuSans-65"/>
      <use x="463.689453" xlink:href="#DejaVuSans-63"/>
      <use x="518.669922" xlink:href="#DejaVuSans-61"/>
      <use x="579.949219" xlink:href="#DejaVuSans-6c"/>
     </g>
    </g>
    <g id="line2d_26">
     <path d="M 68.160625 337.649334 
L 84.160625 337.649334 
" style="fill:none;stroke:#434348;stroke-linecap:square;"/>
    </g>
    <g id="line2d_27"/>
    <g id="text_21">
     <!-- 1234N_1234N_M1 -->
     <defs>
      <path d="M 50.984375 -16.609375 
L 50.984375 -23.578125 
L -0.984375 -23.578125 
L -0.984375 -16.609375 
z
" id="DejaVuSans-5f"/>
      <path d="M 9.8125 72.90625 
L 24.515625 72.90625 
L 43.109375 23.296875 
L 61.8125 72.90625 
L 76.515625 72.90625 
L 76.515625 0 
L 66.890625 0 
L 66.890625 64.015625 
L 48.09375 14.015625 
L 38.1875 14.015625 
L 19.390625 64.015625 
L 19.390625 0 
L 9.8125 0 
z
" id="DejaVuSans-4d"/>
     </defs>
     <g transform="translate(90.560625 340.449334)scale(0.08 -0.08)">
      <use xlink:href="#DejaVuSans-31"/>
      <use x="63.623047" xlink:href="#DejaVuSans-32"/>
      <use x="127.246094" xlink:href="#DejaVuSans-33"/>
      <use x="190.869141" xlink:href="#DejaVuSans-34"/>
      <use x="254.492188" xlink:href="#DejaVuSans-4e"/>
      <use x="329.296875" xlink:href="#DejaVuSans-5f"/>
      <use x="379.296875" xlink:href="#DejaVuSans-31"/>
      <use x="442.919922" xlink:href="#DejaVuSans-32"/>
      <use x="506.542969" xlink:href="#DejaVuSans-33"/>
      <use x="570.166016" xlink:href="#DejaVuSans-34"/>
      <use x="633.789062" xlink:href="#DejaVuSans-4e"/>
      <use x="708.59375" xlink:href="#DejaVuSans-5f"/>
      <use x="758.59375" xlink:href="#DejaVuSans-4d"/>
      <use x="844.873047" xlink:href="#DejaVuSans-31"/>
     </g>
    </g>
    <g id="line2d_28">
     <path d="M 68.160625 349.614334 
L 84.160625 349.614334 
" style="fill:none;stroke:#90ed7d;stroke-linecap:square;"/>
    </g>
    <g id="line2d_29"/>
    <g id="text_22">
     <!-- 1234N_1234N_M2 -->
     <g transform="translate(90.560625 352.414334)scale(0.08 -0.08)">
      <use xlink:href="#DejaVuSans-31"/>
      <use x="63.623047" xlink:href="#DejaVuSans-32"/>
      <use x="127.246094" xlink:href="#DejaVuSans-33"/>
      <use x="190.869141" xlink:href="#DejaVuSans-34"/>
      <use x="254.492188" xlink:href="#DejaVuSans-4e"/>
      <use x="329.296875" xlink:href="#DejaVuSans-5f"/>
      <use x="379.296875" xlink:href="#DejaVuSans-31"/>
      <use x="442.919922" xlink:href="#DejaVuSans-32"/>
      <use x="506.542969" xlink:href="#DejaVuSans-33"/>
      <use x="570.166016" xlink:href="#DejaVuSans-34"/>
      <use x="633.789062" xlink:href="#DejaVuSans-4e"/>
      <use x="708.59375" xlink:href="#DejaVuSans-5f"/>
      <use x="758.59375" xlink:href="#DejaVuSans-4d"/>
      <use x="844.873047" xlink:href="#DejaVuSans-32"/>
     </g>
    </g>
    <g id="line2d_30">
     <path d="M 274.26375 325.906834 
L 290.26375 325.906834 
" style="fill:none;stroke:#f7a35c;stroke-linecap:square;"/>
    </g>
    <g id="line2d_31"/>
    <g id="text_23">
     <!-- 1234N_1234N_M4 -->
     <g transform="translate(296.66375 328.706834)scale(0.08 -0.08)">
      <use xlink:href="#DejaVuSans-31"/>
      <use x="63.623047" xlink:href="#DejaVuSans-32"/>
      <use x="127.246094" xlink:href="#DejaVuSans-33"/>
      <use x="190.869141" xlink:href="#DejaVuSans-34"/>
      <use x="254.492188" xlink:href="#DejaVuSans-4e"/>
      <use x="329.296875" xlink:href="#DejaVuSans-5f"/>
      <use x="379.296875" xlink:href="#DejaVuSans-31"/>
      <use x="442.919922" xlink:href="#DejaVuSans-32"/>
      <use x="506.542969" xlink:href="#DejaVuSans-33"/>
      <use x="570.166016" xlink:href="#DejaVuSans-34"/>
      <use x="633.789062" xlink:href="#DejaVuSans-4e"/>
      <use x="708.59375" xlink:href="#DejaVuSans-5f"/>
      <use x="758.59375" xlink:href="#DejaVuSans-4d"/>
      <use x="844.873047" xlink:href="#DejaVuSans-34"/>
     </g>
    </g>
    <g id="line2d_32">
     <path d="M 274.26375 337.871834 
L 290.26375 337.871834 
" style="fill:none;stroke:#8085e9;stroke-linecap:square;"/>
    </g>
    <g id="line2d_33"/>
    <g id="text_24">
     <!-- 1234N_1234N_M5 -->
     <g transform="translate(296.66375 340.671834)scale(0.08 -0.08)">
      <use xlink:href="#DejaVuSans-31"/>
      <use x="63.623047" xlink:href="#DejaVuSans-32"/>
      <use x="127.246094" xlink:href="#DejaVuSans-33"/>
      <use x="190.869141" xlink:href="#DejaVuSans-34"/>
      <use x="254.492188" xlink:href="#DejaVuSans-4e"/>
      <use x="329.296875" xlink:href="#DejaVuSans-5f"/>
      <use x="379.296875" xlink:href="#DejaVuSans-31"/>
      <use x="442.919922" xlink:href="#DejaVuSans-32"/>
      <use x="506.542969" xlink:href="#DejaVuSans-33"/>
      <use x="570.166016" xlink:href="#DejaVuSans-34"/>
      <use x="633.789062" xlink:href="#DejaVuSans-4e"/>
      <use x="708.59375" xlink:href="#DejaVuSans-5f"/>
      <use x="758.59375" xlink:href="#DejaVuSans-4d"/>
      <use x="844.873047" xlink:href="#DejaVuSans-35"/>
     </g>
    </g>
    <g id="line2d_34">
     <path d="M 274.26375 349.836834 
L 290.26375 349.836834 
" style="fill:none;stroke:#f15c80;stroke-linecap:square;"/>
    </g>
    <g id="line2d_35"/>
    <g id="text_25">
     <!-- 1234N_1234N_M6 -->
     <g transform="translate(296.66375 352.636834)scale(0.08 -0.08)">
      <use xlink:href="#DejaVuSans-31"/>
      <use x="63.623047" xlink:href="#DejaVuSans-32"/>
      <use x="127.246094" xlink:href="#DejaVuSans-33"/>
      <use x="190.869141" xlink:href="#DejaVuSans-34"/>
      <use x="254.492188" xlink:href="#DejaVuSans-4e"/>
      <use x="329.296875" xlink:href="#DejaVuSans-5f"/>
      <use x="379.296875" xlink:href="#DejaVuSans-31"/>
      <use x="442.919922" xlink:href="#DejaVuSans-32"/>
      <use x="506.542969" xlink:href="#DejaVuSans-33"/>
      <use x="570.166016" xlink:href="#DejaVuSans-34"/>
      <use x="633.789062" xlink:href="#DejaVuSans-4e"/>
      <use x="708.59375" xlink:href="#DejaVuSans-5f"/>
      <use x="758.59375" xlink:href="#DejaVuSans-4d"/>
      <use x="844.873047" xlink:href="#DejaVuSans-36"/>
     </g>
    </g>
    <g id="line2d_36">
     <path d="M 480.366875 325.906834 
L 496.366875 325.906834 
" style="fill:none;stroke:#e4d354;stroke-linecap:square;"/>
    </g>
    <g id="line2d_37"/>
    <g id="text_26">
     <!-- 1234N_1234N_M7 -->
     <g transform="translate(502.766875 328.706834)scale(0.08 -0.08)">
      <use xlink:href="#DejaVuSans-31"/>
      <use x="63.623047" xlink:href="#DejaVuSans-32"/>
      <use x="127.246094" xlink:href="#DejaVuSans-33"/>
      <use x="190.869141" xlink:href="#DejaVuSans-34"/>
      <use x="254.492188" xlink:href="#DejaVuSans-4e"/>
      <use x="329.296875" xlink:href="#DejaVuSans-5f"/>
      <use x="379.296875" xlink:href="#DejaVuSans-31"/>
      <use x="442.919922" xlink:href="#DejaVuSans-32"/>
      <use x="506.542969" xlink:href="#DejaVuSans-33"/>
      <use x="570.166016" xlink:href="#DejaVuSans-34"/>
      <use x="633.789062" xlink:href="#DejaVuSans-4e"/>
      <use x="708.59375" xlink:href="#DejaVuSans-5f"/>
      <use x="758.59375" xlink:href="#DejaVuSans-4d"/>
      <use x="844.873047" xlink:href="#DejaVuSans-37"/>
     </g>
    </g>
    <g id="line2d_38">
     <path d="M 480.366875 337.871834 
L 496.366875 337.871834 
" style="fill:none;stroke:#2b908f;stroke-linecap:square;"/>
    </g>
    <g id="line2d_39"/>
    <g id="text_27">
     <!-- 9876T.recal -->
     <defs>
      <path d="M 10.984375 1.515625 
L 10.984375 10.5 
Q 14.703125 8.734375 18.5 7.8125 
Q 22.3125 6.890625 25.984375 6.890625 
Q 35.75 6.890625 40.890625 13.453125 
Q 46.046875 20.015625 46.78125 33.40625 
Q 43.953125 29.203125 39.59375 26.953125 
Q 35.25 24.703125 29.984375 24.703125 
Q 19.046875 24.703125 12.671875 31.3125 
Q 6.296875 37.9375 6.296875 49.421875 
Q 6.296875 60.640625 12.9375 67.421875 
Q 19.578125 74.21875 30.609375 74.21875 
Q 43.265625 74.21875 49.921875 64.515625 
Q 56.59375 54.828125 56.59375 36.375 
Q 56.59375 19.140625 48.40625 8.859375 
Q 40.234375 -1.421875 26.421875 -1.421875 
Q 22.703125 -1.421875 18.890625 -0.6875 
Q 15.09375 0.046875 10.984375 1.515625 
z
M 30.609375 32.421875 
Q 37.25 32.421875 41.125 36.953125 
Q 45.015625 41.5 45.015625 49.421875 
Q 45.015625 57.28125 41.125 61.84375 
Q 37.25 66.40625 30.609375 66.40625 
Q 23.96875 66.40625 20.09375 61.84375 
Q 16.21875 57.28125 16.21875 49.421875 
Q 16.21875 41.5 20.09375 36.953125 
Q 23.96875 32.421875 30.609375 32.421875 
z
" id="DejaVuSans-39"/>
      <path d="M -0.296875 72.90625 
L 61.375 72.90625 
L 61.375 64.59375 
L 35.5 64.59375 
L 35.5 0 
L 25.59375 0 
L 25.59375 64.59375 
L -0.296875 64.59375 
z
" id="DejaVuSans-54"/>
     </defs>
     <g transform="translate(502.766875 340.671834)scale(0.08 -0.08)">
      <use xlink:href="#DejaVuSans-39"/>
      <use x="63.623047" xlink:href="#DejaVuSans-38"/>
      <use x="127.246094" xlink:href="#DejaVuSans-37"/>
      <use x="190.869141" xlink:href="#DejaVuSans-36"/>
      <use x="254.492188" xlink:href="#DejaVuSans-54"/>
      <use x="315.404297" xlink:href="#DejaVuSans-2e"/>
      <use x="347.191406" xlink:href="#DejaVuSans-72"/>
      <use x="388.273438" xlink:href="#DejaVuSans-65"/>
      <use x="449.796875" xlink:href="#DejaVuSans-63"/>
      <use x="504.777344" xlink:href="#DejaVuSans-61"/>
      <use x="566.056641" xlink:href="#DejaVuSans-6c"/>
     </g>
    </g>
    <g id="line2d_40">
     <path d="M 480.366875 349.614334 
L 496.366875 349.614334 
" style="fill:none;stroke:#f45b5b;stroke-linecap:square;"/>
    </g>
    <g id="line2d_41"/>
    <g id="text_28">
     <!-- 9876T_9876T_M1 -->
     <g transform="translate(502.766875 352.414334)scale(0.08 -0.08)">
      <use xlink:href="#DejaVuSans-39"/>
      <use x="63.623047" xlink:href="#DejaVuSans-38"/>
      <use x="127.246094" xlink:href="#DejaVuSans-37"/>
      <use x="190.869141" xlink:href="#DejaVuSans-36"/>
      <use x="254.492188" xlink:href="#DejaVuSans-54"/>
      <use x="315.576172" xlink:href="#DejaVuSans-5f"/>
      <use x="365.576172" xlink:href="#DejaVuSans-39"/>
      <use x="429.199219" xlink:href="#DejaVuSans-38"/>
      <use x="492.822266" xlink:href="#DejaVuSans-37"/>
      <use x="556.445312" xlink:href="#DejaVuSans-36"/>
      <use x="620.068359" xlink:href="#DejaVuSans-54"/>
      <use x="681.152344" xlink:href="#DejaVuSans-5f"/>
      <use x="731.152344" xlink:href="#DejaVuSans-4d"/>
      <use x="817.431641" xlink:href="#DejaVuSans-31"/>
     </g>
    </g>
    <g id="line2d_42">
     <path d="M 686.47 325.906834 
L 702.47 325.906834 
" style="fill:none;stroke:#91e8e1;stroke-linecap:square;"/>
    </g>
    <g id="line2d_43"/>
    <g id="text_29">
     <!-- 9876T_9876T_M2 -->
     <g transform="translate(708.87 328.706834)scale(0.08 -0.08)">
      <use xlink:href="#DejaVuSans-39"/>
      <use x="63.623047" xlink:href="#DejaVuSans-38"/>
      <use x="127.246094" xlink:href="#DejaVuSans-37"/>
      <use x="190.869141" xlink:href="#DejaVuSans-36"/>
      <use x="254.492188" xlink:href="#DejaVuSans-54"/>
      <use x="315.576172" xlink:href="#DejaVuSans-5f"/>
      <use x="365.576172" xlink:href="#DejaVuSans-39"/>
      <use x="429.199219" xlink:href="#DejaVuSans-38"/>
      <use x="492.822266" xlink:href="#DejaVuSans-37"/>
      <use x="556.445312" xlink:href="#DejaVuSans-36"/>
      <use x="620.068359" xlink:href="#DejaVuSans-54"/>
      <use x="681.152344" xlink:href="#DejaVuSans-5f"/>
      <use x="731.152344" xlink:href="#DejaVuSans-4d"/>
      <use x="817.431641" xlink:href="#DejaVuSans-32"/>
     </g>
    </g>
    <g id="line2d_44">
     <path d="M 686.47 337.871834 
L 702.47 337.871834 
" style="fill:none;stroke:#7cb5ec;stroke-linecap:square;"/>
    </g>
    <g id="line2d_45"/>
    <g id="text_30">
     <!-- 9876T_9876T_M3 -->
     <g transform="translate(708.87 340.671834)scale(0.08 -0.08)">
      <use xlink:href="#DejaVuSans-39"/>
      <use x="63.623047" xlink:href="#DejaVuSans-38"/>
      <use x="127.246094" xlink:href="#DejaVuSans-37"/>
      <use x="190.869141" xlink:href="#DejaVuSans-36"/>
      <use x="254.492188" xlink:href="#DejaVuSans-54"/>
      <use x="315.576172" xlink:href="#DejaVuSans-5f"/>
      <use x="365.576172" xlink:href="#DejaVuSans-39"/>
      <use x="429.199219" xlink:href="#DejaVuSans-38"/>
      <use x="492.822266" xlink:href="#DejaVuSans-37"/>
      <use x="556.445312" xlink:href="#DejaVuSans-36"/>
      <use x="620.068359" xlink:href="#DejaVuSans-54"/>
      <use x="681.152344" xlink:href="#DejaVuSans-5f"/>
      <use x="731.152344" xlink:href="#DejaVuSans-4d"/>
      <use x="817.431641" xlink:href="#DejaVuSans-33"/>
     </g>
    </g>
    <g id="line2d_46">
     <path d="M 890.375625 325.906834 
L 906.375625 325.906834 
" style="fill:none;stroke:#434348;stroke-linecap:square;"/>
    </g>
    <g id="line2d_47"/>
    <g id="text_31">
     <!-- 9876T_9876T_M4 -->
     <g transform="translate(912.775625 328.706834)scale(0.08 -0.08)">
      <use xlink:href="#DejaVuSans-39"/>
      <use x="63.623047" xlink:href="#DejaVuSans-38"/>
      <use x="127.246094" xlink:href="#DejaVuSans-37"/>
      <use x="190.869141" xlink:href="#DejaVuSans-36"/>
      <use x="254.492188" xlink:href="#DejaVuSans-54"/>
      <use x="315.576172" xlink:href="#DejaVuSans-5f"/>
      <use x="365.576172" xlink:href="#DejaVuSans-39"/>
      <use x="429.199219" xlink:href="#DejaVuSans-38"/>
      <use x="492.822266" xlink:href="#DejaVuSans-37"/>
      <use x="556.445312" xlink:href="#DejaVuSans-36"/>
      <use x="620.068359" xlink:href="#DejaVuSans-54"/>
      <use x="681.152344" xlink:href="#DejaVuSans-5f"/>
      <use x="731.152344" xlink:href="#DejaVuSans-4d"/>
      <use x="817.431641" xlink:href="#DejaVuSans-34"/>
     </g>
    </g>
    <g id="line2d_48">
     <path d="M 890.375625 337.871834 
L 906.375625 337.871834 
" style="fill:none;stroke:#90ed7d;stroke-linecap:square;"/>
    </g>
    <g id="line2d_49"/>
    <g id="text_32">
     <!-- 9876T_9876T_M5 -->
     <g transform="translate(912.775625 340.671834)scale(0.08 -0.08)">
      <use xlink:href="#DejaVuSans-39"/>
      <use x="63.623047" xlink:href="#DejaVuSans-38"/>
      <use x="127.246094" xlink:href="#DejaVuSans-37"/>
      <use x="190.869141" xlink:href="#DejaVuSans-36"/>
      <use x="254.492188" xlink:href="#DejaVuSans-54"/>
      <use x="315.576172" xlink:href="#DejaVuSans-5f"/>
      <use x="365.576172" xlink:href="#DejaVuSans-39"/>
      <use x="429.199219" xlink:href="#DejaVuSans-38"/>
      <use x="492.822266" xlink:href="#DejaVuSans-37"/>
      <use x="556.445312" xlink:href="#DejaVuSans-36"/>
      <use x="620.068359" xlink:href="#DejaVuSans-54"/>
      <use x="681.152344" xlink:href="#DejaVuSans-5f"/>
      <use x="731.152344" xlink:href="#DejaVuSans-4d"/>
      <use x="817.431641" xlink:href="#DejaVuSans-35"/>
     </g>
    </g>
   </g>
  </g>
 </g>
 <defs>
  <clipPath id="p4167cc5f74">
   <rect height="269.5792" width="929.5" x="60.960625" y="32.83646"/>
  </clipPath>
 </defs>
</svg>
