<?xml version="1.0" encoding="utf-8" standalone="no"?>
<!DOCTYPE svg PUBLIC "-//W3C//DTD SVG 1.1//EN"
  "http://www.w3.org/Graphics/SVG/1.1/DTD/svg11.dtd">
<!-- Created with matplotlib (http://matplotlib.org/) -->
<svg height="417.270125pt" version="1.1" viewBox="0 0 1000.258125 417.270125" width="1000.258125pt" xmlns="http://www.w3.org/2000/svg" xmlns:xlink="http://www.w3.org/1999/xlink">
 <defs>
  <style type="text/css">
*{stroke-linecap:butt;stroke-linejoin:round;}
  </style>
 </defs>
 <g id="figure_1">
  <g id="patch_1">
   <path d="M 0 417.270125 
L 1000.258125 417.270125 
L 1000.258125 0 
L 0 0 
z
" style="fill:#ffffff;"/>
  </g>
  <g id="axes_1">
   <g id="patch_2">
    <path d="M 38.058125 381.6495 
L 985.423125 381.6495 
L 985.423125 36.6095 
L 38.058125 36.6095 
z
" style="fill:#ffffff;"/>
   </g>
   <g id="matplotlib.axis_1">
    <g id="xtick_1">
     <g id="text_1">
      <!-- 0 -->
      <defs>
       <path d="M 31.78125 66.40625 
Q 24.171875 66.40625 20.328125 58.90625 
Q 16.5 51.421875 16.5 36.375 
Q 16.5 21.390625 20.328125 13.890625 
Q 24.171875 6.390625 31.78125 6.390625 
Q 39.453125 6.390625 43.28125 13.890625 
Q 47.125 21.390625 47.125 36.375 
Q 47.125 51.421875 43.28125 58.90625 
Q 39.453125 66.40625 31.78125 66.40625 
z
M 31.78125 74.21875 
Q 44.046875 74.21875 50.515625 64.515625 
Q 56.984375 54.828125 56.984375 36.375 
Q 56.984375 17.96875 50.515625 8.265625 
Q 44.046875 -1.421875 31.78125 -1.421875 
Q 19.53125 -1.421875 13.0625 8.265625 
Q 6.59375 17.96875 6.59375 36.375 
Q 6.59375 54.828125 13.0625 64.515625 
Q 19.53125 74.21875 31.78125 74.21875 
z
" id="DejaVuSans-30"/>
      </defs>
      <g transform="translate(35.513125 394.72825)scale(0.08 -0.08)">
       <use xlink:href="#DejaVuSans-30"/>
      </g>
     </g>
    </g>
    <g id="xtick_2">
     <g id="text_2">
      <!-- 20 -->
      <defs>
       <path d="M 19.1875 8.296875 
L 53.609375 8.296875 
L 53.609375 0 
L 7.328125 0 
L 7.328125 8.296875 
Q 12.9375 14.109375 22.625 23.890625 
Q 32.328125 33.6875 34.8125 36.53125 
Q 39.546875 41.84375 41.421875 45.53125 
Q 43.3125 49.21875 43.3125 52.78125 
Q 43.3125 58.59375 39.234375 62.25 
Q 35.15625 65.921875 28.609375 65.921875 
Q 23.96875 65.921875 18.8125 64.3125 
Q 13.671875 62.703125 7.8125 59.421875 
L 7.8125 69.390625 
Q 13.765625 71.78125 18.9375 73 
Q 24.125 74.21875 28.421875 74.21875 
Q 39.75 74.21875 46.484375 68.546875 
Q 53.21875 62.890625 53.21875 53.421875 
Q 53.21875 48.921875 51.53125 44.890625 
Q 49.859375 40.875 45.40625 35.40625 
Q 44.1875 33.984375 37.640625 27.21875 
Q 31.109375 20.453125 19.1875 8.296875 
z
" id="DejaVuSans-32"/>
      </defs>
      <g transform="translate(222.441125 394.72825)scale(0.08 -0.08)">
       <use xlink:href="#DejaVuSans-32"/>
       <use x="63.623047" xlink:href="#DejaVuSans-30"/>
      </g>
     </g>
    </g>
    <g id="xtick_3">
     <g id="text_3">
      <!-- 40 -->
      <defs>
       <path d="M 37.796875 64.3125 
L 12.890625 25.390625 
L 37.796875 25.390625 
z
M 35.203125 72.90625 
L 47.609375 72.90625 
L 47.609375 25.390625 
L 58.015625 25.390625 
L 58.015625 17.1875 
L 47.609375 17.1875 
L 47.609375 0 
L 37.796875 0 
L 37.796875 17.1875 
L 4.890625 17.1875 
L 4.890625 26.703125 
z
" id="DejaVuSans-34"/>
      </defs>
      <g transform="translate(411.914125 394.72825)scale(0.08 -0.08)">
       <use xlink:href="#DejaVuSans-34"/>
       <use x="63.623047" xlink:href="#DejaVuSans-30"/>
      </g>
     </g>
    </g>
    <g id="xtick_4">
     <g id="text_4">
      <!-- 60 -->
      <defs>
       <path d="M 33.015625 40.375 
Q 26.375 40.375 22.484375 35.828125 
Q 18.609375 31.296875 18.609375 23.390625 
Q 18.609375 15.53125 22.484375 10.953125 
Q 26.375 6.390625 33.015625 6.390625 
Q 39.65625 6.390625 43.53125 10.953125 
Q 47.40625 15.53125 47.40625 23.390625 
Q 47.40625 31.296875 43.53125 35.828125 
Q 39.65625 40.375 33.015625 40.375 
z
M 52.59375 71.296875 
L 52.59375 62.3125 
Q 48.875 64.0625 45.09375 64.984375 
Q 41.3125 65.921875 37.59375 65.921875 
Q 27.828125 65.921875 22.671875 59.328125 
Q 17.53125 52.734375 16.796875 39.40625 
Q 19.671875 43.65625 24.015625 45.921875 
Q 28.375 48.1875 33.59375 48.1875 
Q 44.578125 48.1875 50.953125 41.515625 
Q 57.328125 34.859375 57.328125 23.390625 
Q 57.328125 12.15625 50.6875 5.359375 
Q 44.046875 -1.421875 33.015625 -1.421875 
Q 20.359375 -1.421875 13.671875 8.265625 
Q 6.984375 17.96875 6.984375 36.375 
Q 6.984375 53.65625 15.1875 63.9375 
Q 23.390625 74.21875 37.203125 74.21875 
Q 40.921875 74.21875 44.703125 73.484375 
Q 48.484375 72.75 52.59375 71.296875 
z
" id="DejaVuSans-36"/>
      </defs>
      <g transform="translate(601.387125 394.72825)scale(0.08 -0.08)">
       <use xlink:href="#DejaVuSans-36"/>
       <use x="63.623047" xlink:href="#DejaVuSans-30"/>
      </g>
     </g>
    </g>
    <g id="xtick_5">
     <g id="text_5">
      <!-- 80 -->
      <defs>
       <path d="M 31.78125 34.625 
Q 24.75 34.625 20.71875 30.859375 
Q 16.703125 27.09375 16.703125 20.515625 
Q 16.703125 13.921875 20.71875 10.15625 
Q 24.75 6.390625 31.78125 6.390625 
Q 38.8125 6.390625 42.859375 10.171875 
Q 46.921875 13.96875 46.921875 20.515625 
Q 46.921875 27.09375 42.890625 30.859375 
Q 38.875 34.625 31.78125 34.625 
z
M 21.921875 38.8125 
Q 15.578125 40.375 12.03125 44.71875 
Q 8.5 49.078125 8.5 55.328125 
Q 8.5 64.0625 14.71875 69.140625 
Q 20.953125 74.21875 31.78125 74.21875 
Q 42.671875 74.21875 48.875 69.140625 
Q 55.078125 64.0625 55.078125 55.328125 
Q 55.078125 49.078125 51.53125 44.71875 
Q 48 40.375 41.703125 38.8125 
Q 48.828125 37.15625 52.796875 32.3125 
Q 56.78125 27.484375 56.78125 20.515625 
Q 56.78125 9.90625 50.3125 4.234375 
Q 43.84375 -1.421875 31.78125 -1.421875 
Q 19.734375 -1.421875 13.25 4.234375 
Q 6.78125 9.90625 6.78125 20.515625 
Q 6.78125 27.484375 10.78125 32.3125 
Q 14.796875 37.15625 21.921875 38.8125 
z
M 18.3125 54.390625 
Q 18.3125 48.734375 21.84375 45.5625 
Q 25.390625 42.390625 31.78125 42.390625 
Q 38.140625 42.390625 41.71875 45.5625 
Q 45.3125 48.734375 45.3125 54.390625 
Q 45.3125 60.0625 41.71875 63.234375 
Q 38.140625 66.40625 31.78125 66.40625 
Q 25.390625 66.40625 21.84375 63.234375 
Q 18.3125 60.0625 18.3125 54.390625 
z
" id="DejaVuSans-38"/>
      </defs>
      <g transform="translate(790.860125 394.72825)scale(0.08 -0.08)">
       <use xlink:href="#DejaVuSans-38"/>
       <use x="63.623047" xlink:href="#DejaVuSans-30"/>
      </g>
     </g>
    </g>
    <g id="xtick_6">
     <g id="text_6">
      <!-- 100 -->
      <defs>
       <path d="M 12.40625 8.296875 
L 28.515625 8.296875 
L 28.515625 63.921875 
L 10.984375 60.40625 
L 10.984375 69.390625 
L 28.421875 72.90625 
L 38.28125 72.90625 
L 38.28125 8.296875 
L 54.390625 8.296875 
L 54.390625 0 
L 12.40625 0 
z
" id="DejaVuSans-31"/>
      </defs>
      <g transform="translate(977.788125 394.72825)scale(0.08 -0.08)">
       <use xlink:href="#DejaVuSans-31"/>
       <use x="63.623047" xlink:href="#DejaVuSans-30"/>
       <use x="127.246094" xlink:href="#DejaVuSans-30"/>
      </g>
     </g>
    </g>
    <g id="text_7">
     <!-- % GC -->
     <defs>
      <path d="M 72.703125 32.078125 
Q 68.453125 32.078125 66.03125 28.46875 
Q 63.625 24.859375 63.625 18.40625 
Q 63.625 12.0625 66.03125 8.421875 
Q 68.453125 4.78125 72.703125 4.78125 
Q 76.859375 4.78125 79.265625 8.421875 
Q 81.6875 12.0625 81.6875 18.40625 
Q 81.6875 24.8125 79.265625 28.4375 
Q 76.859375 32.078125 72.703125 32.078125 
z
M 72.703125 38.28125 
Q 80.421875 38.28125 84.953125 32.90625 
Q 89.5 27.546875 89.5 18.40625 
Q 89.5 9.28125 84.9375 3.921875 
Q 80.375 -1.421875 72.703125 -1.421875 
Q 64.890625 -1.421875 60.34375 3.921875 
Q 55.8125 9.28125 55.8125 18.40625 
Q 55.8125 27.59375 60.375 32.9375 
Q 64.9375 38.28125 72.703125 38.28125 
z
M 22.3125 68.015625 
Q 18.109375 68.015625 15.6875 64.375 
Q 13.28125 60.75 13.28125 54.390625 
Q 13.28125 47.953125 15.671875 44.328125 
Q 18.0625 40.71875 22.3125 40.71875 
Q 26.5625 40.71875 28.96875 44.328125 
Q 31.390625 47.953125 31.390625 54.390625 
Q 31.390625 60.6875 28.953125 64.34375 
Q 26.515625 68.015625 22.3125 68.015625 
z
M 66.40625 74.21875 
L 74.21875 74.21875 
L 28.609375 -1.421875 
L 20.796875 -1.421875 
z
M 22.3125 74.21875 
Q 30.03125 74.21875 34.609375 68.875 
Q 39.203125 63.53125 39.203125 54.390625 
Q 39.203125 45.171875 34.640625 39.84375 
Q 30.078125 34.515625 22.3125 34.515625 
Q 14.546875 34.515625 10.03125 39.859375 
Q 5.515625 45.21875 5.515625 54.390625 
Q 5.515625 63.484375 10.046875 68.84375 
Q 14.59375 74.21875 22.3125 74.21875 
z
" id="DejaVuSans-25"/>
      <path id="DejaVuSans-20"/>
      <path d="M 59.515625 10.40625 
L 59.515625 29.984375 
L 43.40625 29.984375 
L 43.40625 38.09375 
L 69.28125 38.09375 
L 69.28125 6.78125 
Q 63.578125 2.734375 56.6875 0.65625 
Q 49.8125 -1.421875 42 -1.421875 
Q 24.90625 -1.421875 15.25 8.5625 
Q 5.609375 18.5625 5.609375 36.375 
Q 5.609375 54.25 15.25 64.234375 
Q 24.90625 74.21875 42 74.21875 
Q 49.125 74.21875 55.546875 72.453125 
Q 61.96875 70.703125 67.390625 67.28125 
L 67.390625 56.78125 
Q 61.921875 61.421875 55.765625 63.765625 
Q 49.609375 66.109375 42.828125 66.109375 
Q 29.4375 66.109375 22.71875 58.640625 
Q 16.015625 51.171875 16.015625 36.375 
Q 16.015625 21.625 22.71875 14.15625 
Q 29.4375 6.6875 42.828125 6.6875 
Q 48.046875 6.6875 52.140625 7.59375 
Q 56.25 8.5 59.515625 10.40625 
z
" id="DejaVuSans-47"/>
      <path d="M 64.40625 67.28125 
L 64.40625 56.890625 
Q 59.421875 61.53125 53.78125 63.8125 
Q 48.140625 66.109375 41.796875 66.109375 
Q 29.296875 66.109375 22.65625 58.46875 
Q 16.015625 50.828125 16.015625 36.375 
Q 16.015625 21.96875 22.65625 14.328125 
Q 29.296875 6.6875 41.796875 6.6875 
Q 48.140625 6.6875 53.78125 8.984375 
Q 59.421875 11.28125 64.40625 15.921875 
L 64.40625 5.609375 
Q 59.234375 2.09375 53.4375 0.328125 
Q 47.65625 -1.421875 41.21875 -1.421875 
Q 24.65625 -1.421875 15.125 8.703125 
Q 5.609375 18.84375 5.609375 36.375 
Q 5.609375 53.953125 15.125 64.078125 
Q 24.65625 74.21875 41.21875 74.21875 
Q 47.75 74.21875 53.53125 72.484375 
Q 59.328125 70.75 64.40625 67.28125 
z
" id="DejaVuSans-43"/>
     </defs>
     <g transform="translate(498.035156 407.990437)scale(0.1 -0.1)">
      <use xlink:href="#DejaVuSans-25"/>
      <use x="95.019531" xlink:href="#DejaVuSans-20"/>
      <use x="126.806641" xlink:href="#DejaVuSans-47"/>
      <use x="204.296875" xlink:href="#DejaVuSans-43"/>
     </g>
    </g>
   </g>
   <g id="matplotlib.axis_2">
    <g id="ytick_1">
     <g id="line2d_1">
      <path clip-path="url(#p4e6e1dfdfb)" d="M 38.058125 381.6495 
L 985.423125 381.6495 
" style="fill:none;stroke:#dedede;stroke-linecap:square;"/>
     </g>
     <g id="text_8">
      <!-- 0 -->
      <g transform="translate(25.968125 384.688875)scale(0.08 -0.08)">
       <use xlink:href="#DejaVuSans-30"/>
      </g>
     </g>
    </g>
    <g id="ytick_2">
     <g id="line2d_2">
      <path clip-path="url(#p4e6e1dfdfb)" d="M 38.058125 323.43867 
L 985.423125 323.43867 
" style="fill:none;stroke:#dedede;stroke-linecap:square;"/>
     </g>
     <g id="text_9">
      <!-- 2 -->
      <g transform="translate(25.968125 326.478045)scale(0.08 -0.08)">
       <use xlink:href="#DejaVuSans-32"/>
      </g>
     </g>
    </g>
    <g id="ytick_3">
     <g id="line2d_3">
      <path clip-path="url(#p4e6e1dfdfb)" d="M 38.058125 265.22784 
L 985.423125 265.22784 
" style="fill:none;stroke:#dedede;stroke-linecap:square;"/>
     </g>
     <g id="text_10">
      <!-- 4 -->
      <g transform="translate(25.968125 268.267215)scale(0.08 -0.08)">
       <use xlink:href="#DejaVuSans-34"/>
      </g>
     </g>
    </g>
    <g id="ytick_4">
     <g id="line2d_4">
      <path clip-path="url(#p4e6e1dfdfb)" d="M 38.058125 207.01701 
L 985.423125 207.01701 
" style="fill:none;stroke:#dedede;stroke-linecap:square;"/>
     </g>
     <g id="text_11">
      <!-- 6 -->
      <g transform="translate(25.968125 210.056385)scale(0.08 -0.08)">
       <use xlink:href="#DejaVuSans-36"/>
      </g>
     </g>
    </g>
    <g id="ytick_5">
     <g id="line2d_5">
      <path clip-path="url(#p4e6e1dfdfb)" d="M 38.058125 148.80618 
L 985.423125 148.80618 
" style="fill:none;stroke:#dedede;stroke-linecap:square;"/>
     </g>
     <g id="text_12">
      <!-- 8 -->
      <g transform="translate(25.968125 151.845555)scale(0.08 -0.08)">
       <use xlink:href="#DejaVuSans-38"/>
      </g>
     </g>
    </g>
    <g id="ytick_6">
     <g id="line2d_6">
      <path clip-path="url(#p4e6e1dfdfb)" d="M 38.058125 90.59535 
L 985.423125 90.59535 
" style="fill:none;stroke:#dedede;stroke-linecap:square;"/>
     </g>
     <g id="text_13">
      <!-- 10 -->
      <g transform="translate(20.878125 93.634725)scale(0.08 -0.08)">
       <use xlink:href="#DejaVuSans-31"/>
       <use x="63.623047" xlink:href="#DejaVuSans-30"/>
      </g>
     </g>
    </g>
    <g id="text_14">
     <!-- Percentage -->
     <defs>
      <path d="M 19.671875 64.796875 
L 19.671875 37.40625 
L 32.078125 37.40625 
Q 38.96875 37.40625 42.71875 40.96875 
Q 46.484375 44.53125 46.484375 51.125 
Q 46.484375 57.671875 42.71875 61.234375 
Q 38.96875 64.796875 32.078125 64.796875 
z
M 9.8125 72.90625 
L 32.078125 72.90625 
Q 44.34375 72.90625 50.609375 67.359375 
Q 56.890625 61.8125 56.890625 51.125 
Q 56.890625 40.328125 50.609375 34.8125 
Q 44.34375 29.296875 32.078125 29.296875 
L 19.671875 29.296875 
L 19.671875 0 
L 9.8125 0 
z
" id="DejaVuSans-50"/>
      <path d="M 56.203125 29.59375 
L 56.203125 25.203125 
L 14.890625 25.203125 
Q 15.484375 15.921875 20.484375 11.0625 
Q 25.484375 6.203125 34.421875 6.203125 
Q 39.59375 6.203125 44.453125 7.46875 
Q 49.3125 8.734375 54.109375 11.28125 
L 54.109375 2.78125 
Q 49.265625 0.734375 44.1875 -0.34375 
Q 39.109375 -1.421875 33.890625 -1.421875 
Q 20.796875 -1.421875 13.15625 6.1875 
Q 5.515625 13.8125 5.515625 26.8125 
Q 5.515625 40.234375 12.765625 48.109375 
Q 20.015625 56 32.328125 56 
Q 43.359375 56 49.78125 48.890625 
Q 56.203125 41.796875 56.203125 29.59375 
z
M 47.21875 32.234375 
Q 47.125 39.59375 43.09375 43.984375 
Q 39.0625 48.390625 32.421875 48.390625 
Q 24.90625 48.390625 20.390625 44.140625 
Q 15.875 39.890625 15.1875 32.171875 
z
" id="DejaVuSans-65"/>
      <path d="M 41.109375 46.296875 
Q 39.59375 47.171875 37.8125 47.578125 
Q 36.03125 48 33.890625 48 
Q 26.265625 48 22.1875 43.046875 
Q 18.109375 38.09375 18.109375 28.8125 
L 18.109375 0 
L 9.078125 0 
L 9.078125 54.6875 
L 18.109375 54.6875 
L 18.109375 46.1875 
Q 20.953125 51.171875 25.484375 53.578125 
Q 30.03125 56 36.53125 56 
Q 37.453125 56 38.578125 55.875 
Q 39.703125 55.765625 41.0625 55.515625 
z
" id="DejaVuSans-72"/>
      <path d="M 48.78125 52.59375 
L 48.78125 44.1875 
Q 44.96875 46.296875 41.140625 47.34375 
Q 37.3125 48.390625 33.40625 48.390625 
Q 24.65625 48.390625 19.8125 42.84375 
Q 14.984375 37.3125 14.984375 27.296875 
Q 14.984375 17.28125 19.8125 11.734375 
Q 24.65625 6.203125 33.40625 6.203125 
Q 37.3125 6.203125 41.140625 7.25 
Q 44.96875 8.296875 48.78125 10.40625 
L 48.78125 2.09375 
Q 45.015625 0.34375 40.984375 -0.53125 
Q 36.96875 -1.421875 32.421875 -1.421875 
Q 20.0625 -1.421875 12.78125 6.34375 
Q 5.515625 14.109375 5.515625 27.296875 
Q 5.515625 40.671875 12.859375 48.328125 
Q 20.21875 56 33.015625 56 
Q 37.15625 56 41.109375 55.140625 
Q 45.0625 54.296875 48.78125 52.59375 
z
" id="DejaVuSans-63"/>
      <path d="M 54.890625 33.015625 
L 54.890625 0 
L 45.90625 0 
L 45.90625 32.71875 
Q 45.90625 40.484375 42.875 44.328125 
Q 39.84375 48.1875 33.796875 48.1875 
Q 26.515625 48.1875 22.3125 43.546875 
Q 18.109375 38.921875 18.109375 30.90625 
L 18.109375 0 
L 9.078125 0 
L 9.078125 54.6875 
L 18.109375 54.6875 
L 18.109375 46.1875 
Q 21.34375 51.125 25.703125 53.5625 
Q 30.078125 56 35.796875 56 
Q 45.21875 56 50.046875 50.171875 
Q 54.890625 44.34375 54.890625 33.015625 
z
" id="DejaVuSans-6e"/>
      <path d="M 18.3125 70.21875 
L 18.3125 54.6875 
L 36.8125 54.6875 
L 36.8125 47.703125 
L 18.3125 47.703125 
L 18.3125 18.015625 
Q 18.3125 11.328125 20.140625 9.421875 
Q 21.96875 7.515625 27.59375 7.515625 
L 36.8125 7.515625 
L 36.8125 0 
L 27.59375 0 
Q 17.1875 0 13.234375 3.875 
Q 9.28125 7.765625 9.28125 18.015625 
L 9.28125 47.703125 
L 2.6875 47.703125 
L 2.6875 54.6875 
L 9.28125 54.6875 
L 9.28125 70.21875 
z
" id="DejaVuSans-74"/>
      <path d="M 34.28125 27.484375 
Q 23.390625 27.484375 19.1875 25 
Q 14.984375 22.515625 14.984375 16.5 
Q 14.984375 11.71875 18.140625 8.90625 
Q 21.296875 6.109375 26.703125 6.109375 
Q 34.1875 6.109375 38.703125 11.40625 
Q 43.21875 16.703125 43.21875 25.484375 
L 43.21875 27.484375 
z
M 52.203125 31.203125 
L 52.203125 0 
L 43.21875 0 
L 43.21875 8.296875 
Q 40.140625 3.328125 35.546875 0.953125 
Q 30.953125 -1.421875 24.3125 -1.421875 
Q 15.921875 -1.421875 10.953125 3.296875 
Q 6 8.015625 6 15.921875 
Q 6 25.140625 12.171875 29.828125 
Q 18.359375 34.515625 30.609375 34.515625 
L 43.21875 34.515625 
L 43.21875 35.40625 
Q 43.21875 41.609375 39.140625 45 
Q 35.0625 48.390625 27.6875 48.390625 
Q 23 48.390625 18.546875 47.265625 
Q 14.109375 46.140625 10.015625 43.890625 
L 10.015625 52.203125 
Q 14.9375 54.109375 19.578125 55.046875 
Q 24.21875 56 28.609375 56 
Q 40.484375 56 46.34375 49.84375 
Q 52.203125 43.703125 52.203125 31.203125 
z
" id="DejaVuSans-61"/>
      <path d="M 45.40625 27.984375 
Q 45.40625 37.75 41.375 43.109375 
Q 37.359375 48.484375 30.078125 48.484375 
Q 22.859375 48.484375 18.828125 43.109375 
Q 14.796875 37.75 14.796875 27.984375 
Q 14.796875 18.265625 18.828125 12.890625 
Q 22.859375 7.515625 30.078125 7.515625 
Q 37.359375 7.515625 41.375 12.890625 
Q 45.40625 18.265625 45.40625 27.984375 
z
M 54.390625 6.78125 
Q 54.390625 -7.171875 48.1875 -13.984375 
Q 42 -20.796875 29.203125 -20.796875 
Q 24.46875 -20.796875 20.265625 -20.09375 
Q 16.0625 -19.390625 12.109375 -17.921875 
L 12.109375 -9.1875 
Q 16.0625 -11.328125 19.921875 -12.34375 
Q 23.78125 -13.375 27.78125 -13.375 
Q 36.625 -13.375 41.015625 -8.765625 
Q 45.40625 -4.15625 45.40625 5.171875 
L 45.40625 9.625 
Q 42.625 4.78125 38.28125 2.390625 
Q 33.9375 0 27.875 0 
Q 17.828125 0 11.671875 7.65625 
Q 5.515625 15.328125 5.515625 27.984375 
Q 5.515625 40.671875 11.671875 48.328125 
Q 17.828125 56 27.875 56 
Q 33.9375 56 38.28125 53.609375 
Q 42.625 51.21875 45.40625 46.390625 
L 45.40625 54.6875 
L 54.390625 54.6875 
z
" id="DejaVuSans-67"/>
     </defs>
     <g transform="translate(14.798438 237.542)rotate(-90)scale(0.1 -0.1)">
      <use xlink:href="#DejaVuSans-50"/>
      <use x="60.255859" xlink:href="#DejaVuSans-65"/>
      <use x="121.779297" xlink:href="#DejaVuSans-72"/>
      <use x="162.861328" xlink:href="#DejaVuSans-63"/>
      <use x="217.841797" xlink:href="#DejaVuSans-65"/>
      <use x="279.365234" xlink:href="#DejaVuSans-6e"/>
      <use x="342.744141" xlink:href="#DejaVuSans-74"/>
      <use x="381.953125" xlink:href="#DejaVuSans-61"/>
      <use x="443.232422" xlink:href="#DejaVuSans-67"/>
      <use x="506.708984" xlink:href="#DejaVuSans-65"/>
     </g>
    </g>
   </g>
   <g id="line2d_7">
    <path clip-path="url(#p4e6e1dfdfb)" d="M 38.058125 381.6495 
L 47.531775 381.6495 
L 57.005425 381.6495 
L 66.479075 381.6495 
L 75.952725 381.6495 
L 85.426375 381.6495 
L 94.900025 381.6495 
L 104.373675 381.6495 
L 113.847325 381.6495 
L 123.320975 381.6495 
L 132.794625 381.6495 
L 142.268275 381.6495 
L 151.741925 381.6495 
L 161.215575 381.6495 
L 170.689225 381.6495 
L 180.162875 381.6495 
L 189.636525 381.6495 
L 199.110175 381.6495 
L 208.583825 381.6495 
L 218.057475 381.6495 
L 227.531125 381.6495 
L 237.004775 381.6495 
L 246.478425 381.6495 
L 255.952075 356.558625 
L 265.425725 331.46775 
L 274.899375 356.558625 
L 284.373025 331.46775 
L 293.846675 306.376875 
L 303.320325 331.46775 
L 312.793975 331.46775 
L 322.267625 306.376875 
L 331.741275 306.376875 
L 341.214925 281.286 
L 350.688575 281.286 
L 360.162225 306.376875 
L 369.635875 306.376875 
L 379.109525 256.195125 
L 388.583175 180.9225 
L 398.056825 155.831625 
L 407.530475 130.74075 
L 417.004125 231.10425 
L 426.477775 281.286 
L 435.951425 180.9225 
L 445.425075 180.9225 
L 454.898725 281.286 
L 464.372375 331.46775 
L 473.846025 306.376875 
L 483.319675 306.376875 
L 492.793325 331.46775 
L 502.266975 331.46775 
L 511.740625 331.46775 
L 521.214275 306.376875 
L 530.687925 306.376875 
L 540.161575 356.558625 
L 549.635225 381.6495 
L 559.108875 381.6495 
L 568.582525 381.6495 
L 578.056175 381.6495 
L 587.529825 381.6495 
L 597.003475 381.6495 
L 606.477125 381.6495 
L 615.950775 381.6495 
L 625.424425 381.6495 
L 634.898075 381.6495 
L 644.371725 381.6495 
L 653.845375 381.6495 
L 663.319025 381.6495 
L 672.792675 381.6495 
L 682.266325 381.6495 
L 691.739975 381.6495 
L 701.213625 381.6495 
L 710.687275 381.6495 
L 720.160925 381.6495 
L 729.634575 381.6495 
L 739.108225 381.6495 
L 748.581875 381.6495 
L 758.055525 381.6495 
L 767.529175 381.6495 
L 777.002825 381.6495 
L 786.476475 381.6495 
L 795.950125 381.6495 
L 805.423775 381.6495 
L 814.897425 381.6495 
L 824.371075 381.6495 
L 833.844725 381.6495 
L 843.318375 381.6495 
L 852.792025 381.6495 
L 862.265675 381.6495 
L 871.739325 381.6495 
L 881.212975 381.6495 
L 890.686625 381.6495 
L 900.160275 381.6495 
L 909.633925 381.6495 
L 919.107575 381.6495 
L 928.581225 381.6495 
L 938.054875 381.6495 
L 947.528525 381.6495 
L 957.002175 381.6495 
L 966.475825 381.6495 
L 975.949475 381.6495 
L 985.423125 381.6495 
" style="fill:none;stroke:#d9534f;stroke-linecap:square;"/>
   </g>
   <g id="line2d_8">
    <path clip-path="url(#p4e6e1dfdfb)" d="M 38.058125 381.6495 
L 47.531775 381.6495 
L 57.005425 381.6495 
L 66.479075 381.6495 
L 75.952725 381.6495 
L 85.426375 381.6495 
L 94.900025 381.6495 
L 104.373675 381.6495 
L 113.847325 381.6495 
L 123.320975 381.6495 
L 132.794625 381.6495 
L 142.268275 381.6495 
L 151.741925 381.6495 
L 161.215575 381.6495 
L 170.689225 381.6495 
L 180.162875 381.6495 
L 189.636525 381.6495 
L 199.110175 381.6495 
L 208.583825 381.6495 
L 218.057475 381.6495 
L 227.531125 381.6495 
L 237.004775 381.6495 
L 246.478425 381.6495 
L 255.952075 381.6495 
L 265.425725 356.558625 
L 274.899375 356.558625 
L 284.373025 356.558625 
L 293.846675 356.558625 
L 303.320325 356.558625 
L 312.793975 331.46775 
L 322.267625 306.376875 
L 331.741275 306.376875 
L 341.214925 281.286 
L 350.688575 281.286 
L 360.162225 231.10425 
L 369.635875 180.9225 
L 379.109525 206.013375 
L 388.583175 231.10425 
L 398.056825 256.195125 
L 407.530475 281.286 
L 417.004125 231.10425 
L 426.477775 206.013375 
L 435.951425 281.286 
L 445.425075 281.286 
L 454.898725 256.195125 
L 464.372375 256.195125 
L 473.846025 256.195125 
L 483.319675 256.195125 
L 492.793325 331.46775 
L 502.266975 331.46775 
L 511.740625 306.376875 
L 521.214275 331.46775 
L 530.687925 331.46775 
L 540.161575 331.46775 
L 549.635225 356.558625 
L 559.108875 381.6495 
L 568.582525 381.6495 
L 578.056175 381.6495 
L 587.529825 381.6495 
L 597.003475 356.558625 
L 606.477125 356.558625 
L 615.950775 381.6495 
L 625.424425 381.6495 
L 634.898075 381.6495 
L 644.371725 381.6495 
L 653.845375 381.6495 
L 663.319025 381.6495 
L 672.792675 381.6495 
L 682.266325 381.6495 
L 691.739975 381.6495 
L 701.213625 381.6495 
L 710.687275 356.558625 
L 720.160925 356.558625 
L 729.634575 381.6495 
L 739.108225 381.6495 
L 748.581875 381.6495 
L 758.055525 381.6495 
L 767.529175 381.6495 
L 777.002825 381.6495 
L 786.476475 381.6495 
L 795.950125 381.6495 
L 805.423775 381.6495 
L 814.897425 381.6495 
L 824.371075 381.6495 
L 833.844725 381.6495 
L 843.318375 381.6495 
L 852.792025 381.6495 
L 862.265675 381.6495 
L 871.739325 381.6495 
L 881.212975 381.6495 
L 890.686625 381.6495 
L 900.160275 381.6495 
L 909.633925 381.6495 
L 919.107575 381.6495 
L 928.581225 381.6495 
L 938.054875 381.6495 
L 947.528525 381.6495 
L 957.002175 381.6495 
L 966.475825 381.6495 
L 975.949475 381.6495 
L 985.423125 381.6495 
" style="fill:none;stroke:#d9534f;stroke-linecap:square;"/>
   </g>
   <g id="line2d_9">
    <path clip-path="url(#p4e6e1dfdfb)" d="M 38.058125 381.6495 
L 47.531775 381.6495 
L 57.005425 381.6495 
L 66.479075 381.6495 
L 75.952725 381.6495 
L 85.426375 381.6495 
L 94.900025 381.6495 
L 104.373675 381.6495 
L 113.847325 381.6495 
L 123.320975 381.6495 
L 132.794625 381.6495 
L 142.268275 381.6495 
L 151.741925 381.6495 
L 161.215575 381.6495 
L 170.689225 381.6495 
L 180.162875 381.6495 
L 189.636525 381.6495 
L 199.110175 381.6495 
L 208.583825 381.6495 
L 218.057475 381.6495 
L 227.531125 381.6495 
L 237.004775 381.6495 
L 246.478425 381.6495 
L 255.952075 381.6495 
L 265.425725 381.6495 
L 274.899375 381.6495 
L 284.373025 381.6495 
L 293.846675 381.6495 
L 303.320325 381.6495 
L 312.793975 146.928412 
L 322.267625 53.039976 
L 331.741275 287.761065 
L 341.214925 334.705282 
L 350.688575 287.761065 
L 360.162225 334.705282 
L 369.635875 287.761065 
L 379.109525 287.761065 
L 388.583175 334.705282 
L 398.056825 287.761065 
L 407.530475 240.816847 
L 417.004125 240.816847 
L 426.477775 287.761065 
L 435.951425 240.816847 
L 445.425075 193.872629 
L 454.898725 193.872629 
L 464.372375 240.816847 
L 473.846025 287.761065 
L 483.319675 287.761065 
L 492.793325 334.705282 
L 502.266975 381.6495 
L 511.740625 334.705282 
L 521.214275 240.816847 
L 530.687925 240.816847 
L 540.161575 287.761065 
L 549.635225 334.705282 
L 559.108875 381.6495 
L 568.582525 381.6495 
L 578.056175 381.6495 
L 587.529825 381.6495 
L 597.003475 381.6495 
L 606.477125 381.6495 
L 615.950775 381.6495 
L 625.424425 381.6495 
L 634.898075 381.6495 
L 644.371725 381.6495 
L 653.845375 381.6495 
L 663.319025 381.6495 
L 672.792675 381.6495 
L 682.266325 381.6495 
L 691.739975 381.6495 
L 701.213625 381.6495 
L 710.687275 381.6495 
L 720.160925 381.6495 
L 729.634575 381.6495 
L 739.108225 381.6495 
L 748.581875 381.6495 
L 758.055525 381.6495 
L 767.529175 381.6495 
L 777.002825 381.6495 
L 786.476475 381.6495 
L 795.950125 381.6495 
L 805.423775 381.6495 
L 814.897425 381.6495 
L 824.371075 381.6495 
L 833.844725 381.6495 
L 843.318375 381.6495 
L 852.792025 381.6495 
L 862.265675 381.6495 
L 871.739325 381.6495 
L 881.212975 381.6495 
L 890.686625 381.6495 
L 900.160275 381.6495 
L 909.633925 381.6495 
L 919.107575 381.6495 
L 928.581225 381.6495 
L 938.054875 381.6495 
L 947.528525 381.6495 
L 957.002175 381.6495 
L 966.475825 381.6495 
L 975.949475 381.6495 
L 985.423125 381.6495 
" style="fill:none;stroke:#d9534f;stroke-linecap:square;"/>
   </g>
   <g id="line2d_10">
    <path clip-path="url(#p4e6e1dfdfb)" d="M 38.058125 381.6495 
L 47.531775 381.6495 
L 57.005425 381.6495 
L 66.479075 381.6495 
L 75.952725 381.6495 
L 85.426375 381.6495 
L 94.900025 381.6495 
L 104.373675 381.6495 
L 113.847325 381.6495 
L 123.320975 381.6495 
L 132.794625 381.6495 
L 142.268275 381.6495 
L 151.741925 381.6495 
L 161.215575 381.6495 
L 170.689225 381.6495 
L 180.162875 381.6495 
L 189.636525 381.6495 
L 199.110175 381.6495 
L 208.583825 381.6495 
L 218.057475 381.6495 
L 227.531125 381.6495 
L 237.004775 381.6495 
L 246.478425 381.6495 
L 255.952075 287.761065 
L 265.425725 287.761065 
L 274.899375 381.6495 
L 284.373025 381.6495 
L 293.846675 381.6495 
L 303.320325 287.761065 
L 312.793975 287.761065 
L 322.267625 381.6495 
L 331.741275 381.6495 
L 341.214925 334.705282 
L 350.688575 240.816847 
L 360.162225 287.761065 
L 369.635875 334.705282 
L 379.109525 334.705282 
L 388.583175 287.761065 
L 398.056825 193.872629 
L 407.530475 193.872629 
L 417.004125 193.872629 
L 426.477775 240.816847 
L 435.951425 146.928412 
L 445.425075 146.928412 
L 454.898725 287.761065 
L 464.372375 334.705282 
L 473.846025 381.6495 
L 483.319675 381.6495 
L 492.793325 146.928412 
L 502.266975 99.984194 
L 511.740625 287.761065 
L 521.214275 287.761065 
L 530.687925 334.705282 
L 540.161575 381.6495 
L 549.635225 381.6495 
L 559.108875 381.6495 
L 568.582525 381.6495 
L 578.056175 381.6495 
L 587.529825 381.6495 
L 597.003475 381.6495 
L 606.477125 381.6495 
L 615.950775 381.6495 
L 625.424425 381.6495 
L 634.898075 381.6495 
L 644.371725 381.6495 
L 653.845375 381.6495 
L 663.319025 381.6495 
L 672.792675 381.6495 
L 682.266325 381.6495 
L 691.739975 381.6495 
L 701.213625 381.6495 
L 710.687275 381.6495 
L 720.160925 381.6495 
L 729.634575 381.6495 
L 739.108225 381.6495 
L 748.581875 381.6495 
L 758.055525 381.6495 
L 767.529175 381.6495 
L 777.002825 381.6495 
L 786.476475 381.6495 
L 795.950125 381.6495 
L 805.423775 381.6495 
L 814.897425 381.6495 
L 824.371075 381.6495 
L 833.844725 381.6495 
L 843.318375 381.6495 
L 852.792025 381.6495 
L 862.265675 381.6495 
L 871.739325 381.6495 
L 881.212975 381.6495 
L 890.686625 381.6495 
L 900.160275 381.6495 
L 909.633925 381.6495 
L 919.107575 381.6495 
L 928.581225 381.6495 
L 938.054875 381.6495 
L 947.528525 381.6495 
L 957.002175 381.6495 
L 966.475825 381.6495 
L 975.949475 381.6495 
L 985.423125 381.6495 
" style="fill:none;stroke:#d9534f;stroke-linecap:square;"/>
   </g>
   <g id="line2d_11">
    <path clip-path="url(#p4e6e1dfdfb)" d="M 38.058125 381.6495 
L 47.531775 381.6495 
L 57.005425 381.6495 
L 66.479075 381.6495 
L 75.952725 381.6495 
L 85.426375 381.6495 
L 94.900025 381.6495 
L 104.373675 381.6495 
L 113.847325 381.6495 
L 123.320975 381.6495 
L 132.794625 381.6495 
L 142.268275 381.6495 
L 151.741925 381.6495 
L 161.215575 381.6495 
L 170.689225 381.6495 
L 180.162875 381.6495 
L 189.636525 381.6495 
L 199.110175 381.6495 
L 208.583825 381.6495 
L 218.057475 381.6495 
L 227.531125 381.6495 
L 237.004775 381.6495 
L 246.478425 381.6495 
L 255.952075 361.152729 
L 265.425725 361.152729 
L 274.899375 381.6495 
L 284.373025 381.6495 
L 293.846675 361.152729 
L 303.320325 320.159187 
L 312.793975 340.655958 
L 322.267625 381.6495 
L 331.741275 381.6495 
L 341.214925 320.159187 
L 350.688575 217.675331 
L 360.162225 176.681789 
L 369.635875 258.668873 
L 379.109525 279.165644 
L 388.583175 258.668873 
L 398.056825 217.675331 
L 407.530475 217.675331 
L 417.004125 279.165644 
L 426.477775 238.172102 
L 435.951425 258.668873 
L 445.425075 299.662416 
L 454.898725 279.165644 
L 464.372375 279.165644 
L 473.846025 197.17856 
L 483.319675 176.681789 
L 492.793325 258.668873 
L 502.266975 299.662416 
L 511.740625 258.668873 
L 521.214275 238.172102 
L 530.687925 340.655958 
L 540.161575 361.152729 
L 549.635225 361.152729 
L 559.108875 361.152729 
L 568.582525 361.152729 
L 578.056175 381.6495 
L 587.529825 381.6495 
L 597.003475 381.6495 
L 606.477125 381.6495 
L 615.950775 381.6495 
L 625.424425 381.6495 
L 634.898075 381.6495 
L 644.371725 381.6495 
L 653.845375 381.6495 
L 663.319025 381.6495 
L 672.792675 381.6495 
L 682.266325 381.6495 
L 691.739975 381.6495 
L 701.213625 381.6495 
L 710.687275 381.6495 
L 720.160925 381.6495 
L 729.634575 381.6495 
L 739.108225 381.6495 
L 748.581875 381.6495 
L 758.055525 381.6495 
L 767.529175 381.6495 
L 777.002825 381.6495 
L 786.476475 381.6495 
L 795.950125 381.6495 
L 805.423775 381.6495 
L 814.897425 381.6495 
L 824.371075 381.6495 
L 833.844725 381.6495 
L 843.318375 381.6495 
L 852.792025 381.6495 
L 862.265675 381.6495 
L 871.739325 381.6495 
L 881.212975 381.6495 
L 890.686625 381.6495 
L 900.160275 381.6495 
L 909.633925 381.6495 
L 919.107575 381.6495 
L 928.581225 381.6495 
L 938.054875 381.6495 
L 947.528525 381.6495 
L 957.002175 381.6495 
L 966.475825 381.6495 
L 975.949475 381.6495 
L 985.423125 381.6495 
" style="fill:none;stroke:#d9534f;stroke-linecap:square;"/>
   </g>
   <g id="line2d_12">
    <path clip-path="url(#p4e6e1dfdfb)" d="M 38.058125 381.6495 
L 47.531775 381.6495 
L 57.005425 381.6495 
L 66.479075 381.6495 
L 75.952725 381.6495 
L 85.426375 381.6495 
L 94.900025 381.6495 
L 104.373675 381.6495 
L 113.847325 381.6495 
L 123.320975 381.6495 
L 132.794625 381.6495 
L 142.268275 381.6495 
L 151.741925 381.6495 
L 161.215575 381.6495 
L 170.689225 381.6495 
L 180.162875 381.6495 
L 189.636525 381.6495 
L 199.110175 381.6495 
L 208.583825 381.6495 
L 218.057475 381.6495 
L 227.531125 381.6495 
L 237.004775 381.6495 
L 246.478425 381.6495 
L 255.952075 381.6495 
L 265.425725 381.6495 
L 274.899375 381.6495 
L 284.373025 381.6495 
L 293.846675 361.152729 
L 303.320325 299.662416 
L 312.793975 258.668873 
L 322.267625 299.662416 
L 331.741275 361.152729 
L 341.214925 340.655958 
L 350.688575 320.159187 
L 360.162225 320.159187 
L 369.635875 340.655958 
L 379.109525 340.655958 
L 388.583175 217.675331 
L 398.056825 135.688247 
L 407.530475 217.675331 
L 417.004125 197.17856 
L 426.477775 115.191476 
L 435.951425 94.694705 
L 445.425075 135.688247 
L 454.898725 238.172102 
L 464.372375 279.165644 
L 473.846025 279.165644 
L 483.319675 238.172102 
L 492.793325 299.662416 
L 502.266975 340.655958 
L 511.740625 340.655958 
L 521.214275 361.152729 
L 530.687925 320.159187 
L 540.161575 340.655958 
L 549.635225 381.6495 
L 559.108875 381.6495 
L 568.582525 381.6495 
L 578.056175 381.6495 
L 587.529825 381.6495 
L 597.003475 381.6495 
L 606.477125 381.6495 
L 615.950775 381.6495 
L 625.424425 381.6495 
L 634.898075 381.6495 
L 644.371725 381.6495 
L 653.845375 381.6495 
L 663.319025 381.6495 
L 672.792675 381.6495 
L 682.266325 381.6495 
L 691.739975 381.6495 
L 701.213625 381.6495 
L 710.687275 381.6495 
L 720.160925 381.6495 
L 729.634575 381.6495 
L 739.108225 381.6495 
L 748.581875 381.6495 
L 758.055525 381.6495 
L 767.529175 381.6495 
L 777.002825 381.6495 
L 786.476475 381.6495 
L 795.950125 381.6495 
L 805.423775 381.6495 
L 814.897425 381.6495 
L 824.371075 381.6495 
L 833.844725 381.6495 
L 843.318375 381.6495 
L 852.792025 381.6495 
L 862.265675 381.6495 
L 871.739325 381.6495 
L 881.212975 381.6495 
L 890.686625 381.6495 
L 900.160275 381.6495 
L 909.633925 381.6495 
L 919.107575 381.6495 
L 928.581225 381.6495 
L 938.054875 381.6495 
L 947.528525 381.6495 
L 957.002175 381.6495 
L 966.475825 381.6495 
L 975.949475 381.6495 
L 985.423125 381.6495 
" style="fill:none;stroke:#d9534f;stroke-linecap:square;"/>
   </g>
   <g id="line2d_13">
    <path clip-path="url(#p4e6e1dfdfb)" d="M 38.058125 381.6495 
L 47.531775 381.6495 
L 57.005425 381.6495 
L 66.479075 381.6495 
L 75.952725 381.6495 
L 85.426375 381.6495 
L 94.900025 381.6495 
L 104.373675 381.6495 
L 113.847325 381.6495 
L 123.320975 381.6495 
L 132.794625 381.6495 
L 142.268275 381.6495 
L 151.741925 381.6495 
L 161.215575 381.6495 
L 170.689225 381.6495 
L 180.162875 381.6495 
L 189.636525 381.6495 
L 199.110175 381.6495 
L 208.583825 381.6495 
L 218.057475 381.6495 
L 227.531125 381.6495 
L 237.004775 381.6495 
L 246.478425 381.6495 
L 255.952075 381.6495 
L 265.425725 338.847419 
L 274.899375 324.580059 
L 284.373025 367.38214 
L 293.846675 353.114779 
L 303.320325 281.777978 
L 312.793975 281.777978 
L 322.267625 353.114779 
L 331.741275 367.38214 
L 341.214925 353.114779 
L 350.688575 324.580059 
L 360.162225 324.580059 
L 369.635875 353.114779 
L 379.109525 196.173816 
L 388.583175 139.104375 
L 398.056825 167.639096 
L 407.530475 167.639096 
L 417.004125 224.708537 
L 426.477775 210.441177 
L 435.951425 267.510618 
L 445.425075 253.243258 
L 454.898725 210.441177 
L 464.372375 267.510618 
L 473.846025 281.777978 
L 483.319675 310.312699 
L 492.793325 281.777978 
L 502.266975 238.975897 
L 511.740625 296.045338 
L 521.214275 338.847419 
L 530.687925 353.114779 
L 540.161575 338.847419 
L 549.635225 353.114779 
L 559.108875 381.6495 
L 568.582525 381.6495 
L 578.056175 381.6495 
L 587.529825 381.6495 
L 597.003475 381.6495 
L 606.477125 381.6495 
L 615.950775 381.6495 
L 625.424425 381.6495 
L 634.898075 381.6495 
L 644.371725 381.6495 
L 653.845375 381.6495 
L 663.319025 381.6495 
L 672.792675 381.6495 
L 682.266325 381.6495 
L 691.739975 381.6495 
L 701.213625 381.6495 
L 710.687275 381.6495 
L 720.160925 381.6495 
L 729.634575 381.6495 
L 739.108225 381.6495 
L 748.581875 381.6495 
L 758.055525 381.6495 
L 767.529175 381.6495 
L 777.002825 381.6495 
L 786.476475 381.6495 
L 795.950125 381.6495 
L 805.423775 381.6495 
L 814.897425 381.6495 
L 824.371075 381.6495 
L 833.844725 381.6495 
L 843.318375 381.6495 
L 852.792025 381.6495 
L 862.265675 381.6495 
L 871.739325 381.6495 
L 881.212975 381.6495 
L 890.686625 381.6495 
L 900.160275 381.6495 
L 909.633925 381.6495 
L 919.107575 381.6495 
L 928.581225 381.6495 
L 938.054875 381.6495 
L 947.528525 381.6495 
L 957.002175 381.6495 
L 966.475825 381.6495 
L 975.949475 381.6495 
L 985.423125 381.6495 
" style="fill:none;stroke:#d9534f;stroke-linecap:square;"/>
   </g>
   <g id="line2d_14">
    <path clip-path="url(#p4e6e1dfdfb)" d="M 38.058125 381.6495 
L 47.531775 381.6495 
L 57.005425 381.6495 
L 66.479075 381.6495 
L 75.952725 381.6495 
L 85.426375 381.6495 
L 94.900025 381.6495 
L 104.373675 381.6495 
L 113.847325 381.6495 
L 123.320975 381.6495 
L 132.794625 381.6495 
L 142.268275 381.6495 
L 151.741925 381.6495 
L 161.215575 381.6495 
L 170.689225 381.6495 
L 180.162875 381.6495 
L 189.636525 381.6495 
L 199.110175 381.6495 
L 208.583825 381.6495 
L 218.057475 381.6495 
L 227.531125 381.6495 
L 237.004775 381.6495 
L 246.478425 381.6495 
L 255.952075 381.6495 
L 265.425725 381.6495 
L 274.899375 367.38214 
L 284.373025 338.847419 
L 293.846675 353.114779 
L 303.320325 353.114779 
L 312.793975 324.580059 
L 322.267625 324.580059 
L 331.741275 338.847419 
L 341.214925 367.38214 
L 350.688575 338.847419 
L 360.162225 267.510618 
L 369.635875 238.975897 
L 379.109525 281.777978 
L 388.583175 196.173816 
L 398.056825 110.569655 
L 407.530475 224.708537 
L 417.004125 224.708537 
L 426.477775 238.975897 
L 435.951425 281.777978 
L 445.425075 253.243258 
L 454.898725 253.243258 
L 464.372375 267.510618 
L 473.846025 310.312699 
L 483.319675 267.510618 
L 492.793325 224.708537 
L 502.266975 253.243258 
L 511.740625 296.045338 
L 521.214275 338.847419 
L 530.687925 338.847419 
L 540.161575 310.312699 
L 549.635225 324.580059 
L 559.108875 367.38214 
L 568.582525 381.6495 
L 578.056175 381.6495 
L 587.529825 381.6495 
L 597.003475 381.6495 
L 606.477125 381.6495 
L 615.950775 381.6495 
L 625.424425 381.6495 
L 634.898075 381.6495 
L 644.371725 381.6495 
L 653.845375 381.6495 
L 663.319025 381.6495 
L 672.792675 381.6495 
L 682.266325 381.6495 
L 691.739975 381.6495 
L 701.213625 367.38214 
L 710.687275 367.38214 
L 720.160925 381.6495 
L 729.634575 381.6495 
L 739.108225 381.6495 
L 748.581875 381.6495 
L 758.055525 381.6495 
L 767.529175 381.6495 
L 777.002825 381.6495 
L 786.476475 381.6495 
L 795.950125 381.6495 
L 805.423775 367.38214 
L 814.897425 367.38214 
L 824.371075 381.6495 
L 833.844725 381.6495 
L 843.318375 381.6495 
L 852.792025 381.6495 
L 862.265675 381.6495 
L 871.739325 381.6495 
L 881.212975 381.6495 
L 890.686625 381.6495 
L 900.160275 381.6495 
L 909.633925 381.6495 
L 919.107575 381.6495 
L 928.581225 381.6495 
L 938.054875 381.6495 
L 947.528525 381.6495 
L 957.002175 381.6495 
L 966.475825 381.6495 
L 975.949475 381.6495 
L 985.423125 381.6495 
" style="fill:none;stroke:#d9534f;stroke-linecap:square;"/>
   </g>
   <g id="line2d_15">
    <path clip-path="url(#p4e6e1dfdfb)" d="M 38.058125 381.6495 
L 47.531775 381.6495 
L 57.005425 381.6495 
L 66.479075 381.6495 
L 75.952725 381.6495 
L 85.426375 381.6495 
L 94.900025 381.6495 
L 104.373675 381.6495 
L 113.847325 381.6495 
L 123.320975 381.6495 
L 132.794625 381.6495 
L 142.268275 381.6495 
L 151.741925 381.6495 
L 161.215575 381.6495 
L 170.689225 381.6495 
L 180.162875 381.6495 
L 189.636525 381.6495 
L 199.110175 381.6495 
L 208.583825 381.6495 
L 218.057475 381.6495 
L 227.531125 381.6495 
L 237.004775 381.6495 
L 246.478425 366.167896 
L 255.952075 350.686293 
L 265.425725 366.167896 
L 274.899375 381.6495 
L 284.373025 366.167896 
L 293.846675 335.204689 
L 303.320325 319.723085 
L 312.793975 350.686293 
L 322.267625 381.6495 
L 331.741275 350.686293 
L 341.214925 304.241481 
L 350.688575 257.79667 
L 360.162225 226.833463 
L 369.635875 226.833463 
L 379.109525 226.833463 
L 388.583175 180.388652 
L 398.056825 164.907048 
L 407.530475 211.351859 
L 417.004125 211.351859 
L 426.477775 180.388652 
L 435.951425 242.315067 
L 445.425075 242.315067 
L 454.898725 226.833463 
L 464.372375 304.241481 
L 473.846025 319.723085 
L 483.319675 350.686293 
L 492.793325 350.686293 
L 502.266975 304.241481 
L 511.740625 319.723085 
L 521.214275 257.79667 
L 530.687925 273.278274 
L 540.161575 366.167896 
L 549.635225 366.167896 
L 559.108875 381.6495 
L 568.582525 381.6495 
L 578.056175 381.6495 
L 587.529825 381.6495 
L 597.003475 381.6495 
L 606.477125 381.6495 
L 615.950775 381.6495 
L 625.424425 381.6495 
L 634.898075 381.6495 
L 644.371725 381.6495 
L 653.845375 381.6495 
L 663.319025 381.6495 
L 672.792675 381.6495 
L 682.266325 381.6495 
L 691.739975 381.6495 
L 701.213625 381.6495 
L 710.687275 381.6495 
L 720.160925 381.6495 
L 729.634575 381.6495 
L 739.108225 381.6495 
L 748.581875 381.6495 
L 758.055525 381.6495 
L 767.529175 381.6495 
L 777.002825 381.6495 
L 786.476475 381.6495 
L 795.950125 381.6495 
L 805.423775 381.6495 
L 814.897425 381.6495 
L 824.371075 381.6495 
L 833.844725 381.6495 
L 843.318375 381.6495 
L 852.792025 381.6495 
L 862.265675 381.6495 
L 871.739325 381.6495 
L 881.212975 381.6495 
L 890.686625 381.6495 
L 900.160275 381.6495 
L 909.633925 381.6495 
L 919.107575 381.6495 
L 928.581225 381.6495 
L 938.054875 381.6495 
L 947.528525 381.6495 
L 957.002175 381.6495 
L 966.475825 381.6495 
L 975.949475 381.6495 
L 985.423125 381.6495 
" style="fill:none;stroke:#d9534f;stroke-linecap:square;"/>
   </g>
   <g id="line2d_16">
    <path clip-path="url(#p4e6e1dfdfb)" d="M 38.058125 381.6495 
L 47.531775 381.6495 
L 57.005425 381.6495 
L 66.479075 381.6495 
L 75.952725 381.6495 
L 85.426375 381.6495 
L 94.900025 381.6495 
L 104.373675 381.6495 
L 113.847325 381.6495 
L 123.320975 381.6495 
L 132.794625 381.6495 
L 142.268275 381.6495 
L 151.741925 381.6495 
L 161.215575 381.6495 
L 170.689225 381.6495 
L 180.162875 381.6495 
L 189.636525 381.6495 
L 199.110175 381.6495 
L 208.583825 381.6495 
L 218.057475 381.6495 
L 227.531125 381.6495 
L 237.004775 381.6495 
L 246.478425 381.6495 
L 255.952075 350.686293 
L 265.425725 335.204689 
L 274.899375 350.686293 
L 284.373025 350.686293 
L 293.846675 350.686293 
L 303.320325 350.686293 
L 312.793975 335.204689 
L 322.267625 319.723085 
L 331.741275 335.204689 
L 341.214925 288.759878 
L 350.688575 288.759878 
L 360.162225 335.204689 
L 369.635875 350.686293 
L 379.109525 273.278274 
L 388.583175 226.833463 
L 398.056825 288.759878 
L 407.530475 195.870256 
L 417.004125 195.870256 
L 426.477775 257.79667 
L 435.951425 180.388652 
L 445.425075 180.388652 
L 454.898725 257.79667 
L 464.372375 304.241481 
L 473.846025 288.759878 
L 483.319675 257.79667 
L 492.793325 257.79667 
L 502.266975 257.79667 
L 511.740625 273.278274 
L 521.214275 257.79667 
L 530.687925 304.241481 
L 540.161575 381.6495 
L 549.635225 381.6495 
L 559.108875 381.6495 
L 568.582525 381.6495 
L 578.056175 381.6495 
L 587.529825 381.6495 
L 597.003475 366.167896 
L 606.477125 366.167896 
L 615.950775 381.6495 
L 625.424425 381.6495 
L 634.898075 381.6495 
L 644.371725 381.6495 
L 653.845375 381.6495 
L 663.319025 381.6495 
L 672.792675 381.6495 
L 682.266325 381.6495 
L 691.739975 381.6495 
L 701.213625 381.6495 
L 710.687275 381.6495 
L 720.160925 381.6495 
L 729.634575 381.6495 
L 739.108225 366.167896 
L 748.581875 366.167896 
L 758.055525 381.6495 
L 767.529175 381.6495 
L 777.002825 381.6495 
L 786.476475 381.6495 
L 795.950125 381.6495 
L 805.423775 381.6495 
L 814.897425 381.6495 
L 824.371075 381.6495 
L 833.844725 381.6495 
L 843.318375 381.6495 
L 852.792025 381.6495 
L 862.265675 381.6495 
L 871.739325 381.6495 
L 881.212975 381.6495 
L 890.686625 381.6495 
L 900.160275 381.6495 
L 909.633925 381.6495 
L 919.107575 381.6495 
L 928.581225 381.6495 
L 938.054875 381.6495 
L 947.528525 381.6495 
L 957.002175 381.6495 
L 966.475825 381.6495 
L 975.949475 381.6495 
L 985.423125 381.6495 
" style="fill:none;stroke:#d9534f;stroke-linecap:square;"/>
   </g>
   <g id="line2d_17">
    <path clip-path="url(#p4e6e1dfdfb)" d="M 38.058125 381.6495 
L 47.531775 381.6495 
L 57.005425 381.6495 
L 66.479075 381.6495 
L 75.952725 381.6495 
L 85.426375 381.6495 
L 94.900025 381.6495 
L 104.373675 381.6495 
L 113.847325 381.6495 
L 123.320975 381.6495 
L 132.794625 381.6495 
L 142.268275 381.6495 
L 151.741925 381.6495 
L 161.215575 381.6495 
L 170.689225 381.6495 
L 180.162875 381.6495 
L 189.636525 381.6495 
L 199.110175 381.6495 
L 208.583825 381.6495 
L 218.057475 381.6495 
L 227.531125 381.6495 
L 237.004775 381.6495 
L 246.478425 381.6495 
L 255.952075 363.228351 
L 265.425725 363.228351 
L 274.899375 381.6495 
L 284.373025 381.6495 
L 293.846675 381.6495 
L 303.320325 381.6495 
L 312.793975 344.807203 
L 322.267625 326.386054 
L 331.741275 363.228351 
L 341.214925 326.386054 
L 350.688575 252.701459 
L 360.162225 197.438013 
L 369.635875 234.28031 
L 379.109525 234.28031 
L 388.583175 234.28031 
L 398.056825 271.122608 
L 407.530475 234.28031 
L 417.004125 142.174567 
L 426.477775 142.174567 
L 435.951425 252.701459 
L 445.425075 197.438013 
L 454.898725 179.016864 
L 464.372375 289.543756 
L 473.846025 289.543756 
L 483.319675 289.543756 
L 492.793325 344.807203 
L 502.266975 289.543756 
L 511.740625 289.543756 
L 521.214275 307.964905 
L 530.687925 289.543756 
L 540.161575 344.807203 
L 549.635225 381.6495 
L 559.108875 381.6495 
L 568.582525 381.6495 
L 578.056175 381.6495 
L 587.529825 381.6495 
L 597.003475 381.6495 
L 606.477125 381.6495 
L 615.950775 381.6495 
L 625.424425 381.6495 
L 634.898075 381.6495 
L 644.371725 381.6495 
L 653.845375 381.6495 
L 663.319025 381.6495 
L 672.792675 381.6495 
L 682.266325 381.6495 
L 691.739975 381.6495 
L 701.213625 381.6495 
L 710.687275 381.6495 
L 720.160925 381.6495 
L 729.634575 381.6495 
L 739.108225 381.6495 
L 748.581875 381.6495 
L 758.055525 381.6495 
L 767.529175 381.6495 
L 777.002825 381.6495 
L 786.476475 381.6495 
L 795.950125 381.6495 
L 805.423775 381.6495 
L 814.897425 381.6495 
L 824.371075 381.6495 
L 833.844725 381.6495 
L 843.318375 381.6495 
L 852.792025 381.6495 
L 862.265675 381.6495 
L 871.739325 381.6495 
L 881.212975 381.6495 
L 890.686625 381.6495 
L 900.160275 381.6495 
L 909.633925 381.6495 
L 919.107575 381.6495 
L 928.581225 381.6495 
L 938.054875 381.6495 
L 947.528525 381.6495 
L 957.002175 381.6495 
L 966.475825 381.6495 
L 975.949475 381.6495 
L 985.423125 381.6495 
" style="fill:none;stroke:#d9534f;stroke-linecap:square;"/>
   </g>
   <g id="line2d_18">
    <path clip-path="url(#p4e6e1dfdfb)" d="M 38.058125 381.6495 
L 47.531775 381.6495 
L 57.005425 381.6495 
L 66.479075 381.6495 
L 75.952725 381.6495 
L 85.426375 381.6495 
L 94.900025 381.6495 
L 104.373675 381.6495 
L 113.847325 381.6495 
L 123.320975 381.6495 
L 132.794625 381.6495 
L 142.268275 381.6495 
L 151.741925 381.6495 
L 161.215575 381.6495 
L 170.689225 381.6495 
L 180.162875 381.6495 
L 189.636525 381.6495 
L 199.110175 381.6495 
L 208.583825 381.6495 
L 218.057475 381.6495 
L 227.531125 381.6495 
L 237.004775 381.6495 
L 246.478425 381.6495 
L 255.952075 381.6495 
L 265.425725 344.807203 
L 274.899375 344.807203 
L 284.373025 363.228351 
L 293.846675 363.228351 
L 303.320325 381.6495 
L 312.793975 381.6495 
L 322.267625 381.6495 
L 331.741275 344.807203 
L 341.214925 326.386054 
L 350.688575 326.386054 
L 360.162225 307.964905 
L 369.635875 234.28031 
L 379.109525 197.438013 
L 388.583175 197.438013 
L 398.056825 197.438013 
L 407.530475 234.28031 
L 417.004125 215.859162 
L 426.477775 160.595715 
L 435.951425 179.016864 
L 445.425075 271.122608 
L 454.898725 271.122608 
L 464.372375 252.701459 
L 473.846025 234.28031 
L 483.319675 179.016864 
L 492.793325 234.28031 
L 502.266975 326.386054 
L 511.740625 363.228351 
L 521.214275 363.228351 
L 530.687925 344.807203 
L 540.161575 344.807203 
L 549.635225 326.386054 
L 559.108875 344.807203 
L 568.582525 381.6495 
L 578.056175 381.6495 
L 587.529825 381.6495 
L 597.003475 381.6495 
L 606.477125 381.6495 
L 615.950775 381.6495 
L 625.424425 381.6495 
L 634.898075 381.6495 
L 644.371725 381.6495 
L 653.845375 381.6495 
L 663.319025 381.6495 
L 672.792675 381.6495 
L 682.266325 363.228351 
L 691.739975 363.228351 
L 701.213625 381.6495 
L 710.687275 381.6495 
L 720.160925 381.6495 
L 729.634575 381.6495 
L 739.108225 381.6495 
L 748.581875 381.6495 
L 758.055525 381.6495 
L 767.529175 381.6495 
L 777.002825 381.6495 
L 786.476475 381.6495 
L 795.950125 381.6495 
L 805.423775 381.6495 
L 814.897425 381.6495 
L 824.371075 381.6495 
L 833.844725 381.6495 
L 843.318375 381.6495 
L 852.792025 381.6495 
L 862.265675 381.6495 
L 871.739325 381.6495 
L 881.212975 381.6495 
L 890.686625 381.6495 
L 900.160275 381.6495 
L 909.633925 381.6495 
L 919.107575 381.6495 
L 928.581225 381.6495 
L 938.054875 381.6495 
L 947.528525 381.6495 
L 957.002175 381.6495 
L 966.475825 381.6495 
L 975.949475 381.6495 
L 985.423125 381.6495 
" style="fill:none;stroke:#d9534f;stroke-linecap:square;"/>
   </g>
   <g id="line2d_19">
    <path clip-path="url(#p4e6e1dfdfb)" d="M 38.058125 381.6495 
L 47.531775 381.6495 
L 57.005425 381.6495 
L 66.479075 381.6495 
L 75.952725 381.6495 
L 85.426375 381.6495 
L 94.900025 381.6495 
L 104.373675 381.6495 
L 113.847325 381.6495 
L 123.320975 381.6495 
L 132.794625 381.6495 
L 142.268275 381.6495 
L 151.741925 381.6495 
L 161.215575 381.6495 
L 170.689225 381.6495 
L 180.162875 381.6495 
L 189.636525 381.6495 
L 199.110175 381.6495 
L 208.583825 381.6495 
L 218.057475 381.6495 
L 227.531125 381.6495 
L 237.004775 381.6495 
L 246.478425 368.2677 
L 255.952075 364.92225 
L 265.425725 356.558625 
L 274.899375 329.795025 
L 284.373025 336.485925 
L 293.846675 336.485925 
L 303.320325 289.649625 
L 312.793975 276.267825 
L 322.267625 311.39505 
L 331.741275 329.795025 
L 341.214925 299.685975 
L 350.688575 252.849675 
L 360.162225 221.0679 
L 369.635875 234.4497 
L 379.109525 241.1406 
L 388.583175 190.95885 
L 398.056825 184.26795 
L 407.530475 206.013375 
L 417.004125 209.358825 
L 426.477775 237.79515 
L 435.951425 289.649625 
L 445.425075 321.4314 
L 454.898725 304.70415 
L 464.372375 287.9769 
L 473.846025 272.922375 
L 483.319675 274.5951 
L 492.793325 311.39505 
L 502.266975 321.4314 
L 511.740625 319.758675 
L 521.214275 329.795025 
L 530.687925 343.176825 
L 540.161575 358.23135 
L 549.635225 373.285875 
L 559.108875 379.976775 
L 568.582525 381.6495 
L 578.056175 381.6495 
L 587.529825 381.6495 
L 597.003475 381.6495 
L 606.477125 381.6495 
L 615.950775 381.6495 
L 625.424425 381.6495 
L 634.898075 381.6495 
L 644.371725 381.6495 
L 653.845375 381.6495 
L 663.319025 381.6495 
L 672.792675 381.6495 
L 682.266325 381.6495 
L 691.739975 381.6495 
L 701.213625 381.6495 
L 710.687275 381.6495 
L 720.160925 381.6495 
L 729.634575 381.6495 
L 739.108225 381.6495 
L 748.581875 381.6495 
L 758.055525 381.6495 
L 767.529175 381.6495 
L 777.002825 381.6495 
L 786.476475 381.6495 
L 795.950125 381.6495 
L 805.423775 381.6495 
L 814.897425 381.6495 
L 824.371075 381.6495 
L 833.844725 381.6495 
L 843.318375 381.6495 
L 852.792025 381.6495 
L 862.265675 381.6495 
L 871.739325 381.6495 
L 881.212975 381.6495 
L 890.686625 381.6495 
L 900.160275 381.6495 
L 909.633925 381.6495 
L 919.107575 381.6495 
L 928.581225 381.6495 
L 938.054875 381.6495 
L 947.528525 381.6495 
L 957.002175 381.6495 
L 966.475825 381.6495 
L 975.949475 381.6495 
L 985.423125 381.6495 
" style="fill:none;stroke:#f0ad4e;stroke-linecap:square;"/>
   </g>
   <g id="line2d_20">
    <path clip-path="url(#p4e6e1dfdfb)" d="M 38.058125 381.6495 
L 47.531775 381.6495 
L 57.005425 381.6495 
L 66.479075 381.6495 
L 75.952725 381.6495 
L 85.426375 381.6495 
L 94.900025 381.6495 
L 104.373675 381.6495 
L 113.847325 381.6495 
L 123.320975 381.6495 
L 132.794625 381.6495 
L 142.268275 381.6495 
L 151.741925 381.6495 
L 161.215575 381.6495 
L 170.689225 381.6495 
L 180.162875 381.6495 
L 189.636525 381.6495 
L 199.110175 381.6495 
L 208.583825 381.6495 
L 218.057475 381.6495 
L 227.531125 381.6495 
L 237.004775 381.6495 
L 246.478425 379.976775 
L 255.952075 363.249525 
L 265.425725 348.195 
L 274.899375 349.867725 
L 284.373025 353.213175 
L 293.846675 318.08595 
L 303.320325 277.94055 
L 312.793975 289.649625 
L 322.267625 328.1223 
L 331.741275 329.795025 
L 341.214925 316.413225 
L 350.688575 281.286 
L 360.162225 241.1406 
L 369.635875 241.1406 
L 379.109525 211.03155 
L 388.583175 164.19525 
L 398.056825 174.2316 
L 407.530475 200.9952 
L 417.004125 206.013375 
L 426.477775 249.504225 
L 435.951425 304.70415 
L 445.425075 328.1223 
L 454.898725 294.6678 
L 464.372375 261.2133 
L 473.846025 249.504225 
L 483.319675 266.231475 
L 492.793325 323.104125 
L 502.266975 313.067775 
L 511.740625 306.376875 
L 521.214275 339.831375 
L 530.687925 354.8859 
L 540.161575 371.61315 
L 549.635225 374.9586 
L 559.108875 374.9586 
L 568.582525 378.30405 
L 578.056175 379.976775 
L 587.529825 381.6495 
L 597.003475 381.6495 
L 606.477125 381.6495 
L 615.950775 381.6495 
L 625.424425 381.6495 
L 634.898075 379.976775 
L 644.371725 378.30405 
L 653.845375 379.976775 
L 663.319025 381.6495 
L 672.792675 381.6495 
L 682.266325 381.6495 
L 691.739975 381.6495 
L 701.213625 381.6495 
L 710.687275 381.6495 
L 720.160925 381.6495 
L 729.634575 381.6495 
L 739.108225 379.976775 
L 748.581875 379.976775 
L 758.055525 381.6495 
L 767.529175 381.6495 
L 777.002825 381.6495 
L 786.476475 381.6495 
L 795.950125 381.6495 
L 805.423775 381.6495 
L 814.897425 381.6495 
L 824.371075 381.6495 
L 833.844725 381.6495 
L 843.318375 381.6495 
L 852.792025 381.6495 
L 862.265675 381.6495 
L 871.739325 381.6495 
L 881.212975 379.976775 
L 890.686625 379.976775 
L 900.160275 379.976775 
L 909.633925 379.976775 
L 919.107575 381.6495 
L 928.581225 381.6495 
L 938.054875 381.6495 
L 947.528525 381.6495 
L 957.002175 381.6495 
L 966.475825 381.6495 
L 975.949475 381.6495 
L 985.423125 381.6495 
" style="fill:none;stroke:#d9534f;stroke-linecap:square;"/>
   </g>
   <g id="line2d_21">
    <path clip-path="url(#p4e6e1dfdfb)" d="M 38.058125 381.6495 
L 47.531775 381.6495 
L 57.005425 381.6495 
L 66.479075 381.6495 
L 75.952725 381.6495 
L 85.426375 381.6495 
L 94.900025 381.6495 
L 104.373675 381.6495 
L 113.847325 381.6495 
L 123.320975 381.6495 
L 132.794625 381.6495 
L 142.268275 381.6495 
L 151.741925 381.6495 
L 161.215575 381.6495 
L 170.689225 381.6495 
L 180.162875 381.6495 
L 189.636525 381.6495 
L 199.110175 381.6495 
L 208.583825 381.6495 
L 218.057475 381.6495 
L 227.531125 381.6495 
L 237.004775 379.828135 
L 246.478425 367.078579 
L 255.952075 365.257214 
L 265.425725 352.507658 
L 274.899375 332.472641 
L 284.373025 325.187181 
L 293.846675 321.54445 
L 303.320325 296.045338 
L 312.793975 290.581243 
L 322.267625 328.829911 
L 331.741275 336.115371 
L 341.214925 297.866703 
L 350.688575 254.15394 
L 360.162225 257.79667 
L 369.635875 263.260766 
L 379.109525 204.977081 
L 388.583175 133.943841 
L 398.056825 148.514762 
L 407.530475 186.76343 
L 417.004125 186.76343 
L 426.477775 245.047114 
L 435.951425 299.688069 
L 445.425075 296.045338 
L 454.898725 301.509434 
L 464.372375 308.794894 
L 473.846025 299.688069 
L 483.319675 299.688069 
L 492.793325 310.616259 
L 502.266975 308.794894 
L 511.740625 327.008546 
L 521.214275 347.043562 
L 530.687925 348.864927 
L 540.161575 363.435849 
L 549.635225 379.828135 
L 559.108875 381.6495 
L 568.582525 381.6495 
L 578.056175 381.6495 
L 587.529825 381.6495 
L 597.003475 381.6495 
L 606.477125 381.6495 
L 615.950775 381.6495 
L 625.424425 381.6495 
L 634.898075 381.6495 
L 644.371725 381.6495 
L 653.845375 381.6495 
L 663.319025 381.6495 
L 672.792675 381.6495 
L 682.266325 381.6495 
L 691.739975 381.6495 
L 701.213625 381.6495 
L 710.687275 381.6495 
L 720.160925 381.6495 
L 729.634575 381.6495 
L 739.108225 381.6495 
L 748.581875 381.6495 
L 758.055525 381.6495 
L 767.529175 381.6495 
L 777.002825 381.6495 
L 786.476475 381.6495 
L 795.950125 381.6495 
L 805.423775 381.6495 
L 814.897425 381.6495 
L 824.371075 381.6495 
L 833.844725 381.6495 
L 843.318375 381.6495 
L 852.792025 381.6495 
L 862.265675 381.6495 
L 871.739325 381.6495 
L 881.212975 381.6495 
L 890.686625 381.6495 
L 900.160275 381.6495 
L 909.633925 381.6495 
L 919.107575 381.6495 
L 928.581225 381.6495 
L 938.054875 381.6495 
L 947.528525 381.6495 
L 957.002175 381.6495 
L 966.475825 381.6495 
L 975.949475 381.6495 
L 985.423125 381.6495 
" style="fill:none;stroke:#f0ad4e;stroke-linecap:square;"/>
   </g>
   <g id="line2d_22">
    <path clip-path="url(#p4e6e1dfdfb)" d="M 38.058125 381.6495 
L 47.531775 381.6495 
L 57.005425 381.6495 
L 66.479075 381.6495 
L 75.952725 381.6495 
L 85.426375 381.6495 
L 94.900025 381.6495 
L 104.373675 381.6495 
L 113.847325 381.6495 
L 123.320975 381.6495 
L 132.794625 381.6495 
L 142.268275 381.6495 
L 151.741925 381.6495 
L 161.215575 381.6495 
L 170.689225 381.6495 
L 180.162875 381.6495 
L 189.636525 381.6495 
L 199.110175 381.6495 
L 208.583825 381.6495 
L 218.057475 381.6495 
L 227.531125 381.6495 
L 237.004775 381.6495 
L 246.478425 370.721309 
L 255.952075 359.793118 
L 265.425725 348.864927 
L 274.899375 341.579467 
L 284.373025 330.651276 
L 293.846675 303.330799 
L 303.320325 290.581243 
L 312.793975 296.045338 
L 322.267625 319.723085 
L 331.741275 343.400832 
L 341.214925 303.330799 
L 350.688575 261.439401 
L 360.162225 257.79667 
L 369.635875 243.225749 
L 379.109525 232.297558 
L 388.583175 199.512986 
L 398.056825 179.477969 
L 407.530475 164.907048 
L 417.004125 184.942065 
L 426.477775 276.010322 
L 435.951425 306.973529 
L 445.425075 290.581243 
L 454.898725 305.152164 
L 464.372375 312.437625 
L 473.846025 268.724861 
L 483.319675 268.724861 
L 492.793325 310.616259 
L 502.266975 299.688069 
L 511.740625 308.794894 
L 521.214275 330.651276 
L 530.687925 348.864927 
L 540.161575 374.364039 
L 549.635225 376.185405 
L 559.108875 378.00677 
L 568.582525 381.6495 
L 578.056175 379.828135 
L 587.529825 379.828135 
L 597.003475 381.6495 
L 606.477125 379.828135 
L 615.950775 379.828135 
L 625.424425 378.00677 
L 634.898075 378.00677 
L 644.371725 379.828135 
L 653.845375 379.828135 
L 663.319025 381.6495 
L 672.792675 381.6495 
L 682.266325 379.828135 
L 691.739975 379.828135 
L 701.213625 381.6495 
L 710.687275 381.6495 
L 720.160925 381.6495 
L 729.634575 381.6495 
L 739.108225 381.6495 
L 748.581875 381.6495 
L 758.055525 381.6495 
L 767.529175 381.6495 
L 777.002825 381.6495 
L 786.476475 381.6495 
L 795.950125 381.6495 
L 805.423775 381.6495 
L 814.897425 381.6495 
L 824.371075 381.6495 
L 833.844725 381.6495 
L 843.318375 381.6495 
L 852.792025 381.6495 
L 862.265675 381.6495 
L 871.739325 381.6495 
L 881.212975 381.6495 
L 890.686625 381.6495 
L 900.160275 381.6495 
L 909.633925 381.6495 
L 919.107575 381.6495 
L 928.581225 381.6495 
L 938.054875 381.6495 
L 947.528525 381.6495 
L 957.002175 381.6495 
L 966.475825 381.6495 
L 975.949475 381.6495 
L 985.423125 381.6495 
" style="fill:none;stroke:#d9534f;stroke-linecap:square;"/>
   </g>
   <g id="line2d_23">
    <path clip-path="url(#p4e6e1dfdfb)" d="M 38.058125 381.6495 
L 47.531775 381.6495 
L 57.005425 381.6495 
L 66.479075 381.6495 
L 75.952725 381.6495 
L 85.426375 381.6495 
L 94.900025 381.6495 
L 104.373675 381.6495 
L 113.847325 381.6495 
L 123.320975 381.6495 
L 132.794625 381.6495 
L 142.268275 381.6495 
L 151.741925 381.6495 
L 161.215575 381.6495 
L 170.689225 381.6495 
L 180.162875 381.6495 
L 189.636525 381.6495 
L 199.110175 381.6495 
L 208.583825 381.6495 
L 218.057475 381.6495 
L 227.531125 381.6495 
L 237.004775 381.6495 
L 246.478425 371.065713 
L 255.952075 349.898138 
L 265.425725 348.134174 
L 274.899375 351.662103 
L 284.373025 332.258493 
L 293.846675 311.090918 
L 303.320325 293.451273 
L 312.793975 268.755769 
L 322.267625 302.271096 
L 331.741275 337.550386 
L 341.214925 298.743166 
L 350.688575 265.22784 
L 360.162225 244.060266 
L 369.635875 238.768372 
L 379.109525 207.01701 
L 388.583175 157.626003 
L 398.056825 154.098074 
L 407.530475 185.849436 
L 417.004125 208.780975 
L 426.477775 244.060266 
L 435.951425 307.562989 
L 445.425075 330.494528 
L 454.898725 318.146776 
L 464.372375 305.799025 
L 473.846025 265.22784 
L 483.319675 288.159379 
L 492.793325 335.786422 
L 502.266975 321.674706 
L 511.740625 319.910741 
L 521.214275 330.494528 
L 530.687925 351.662103 
L 540.161575 364.009855 
L 549.635225 374.593642 
L 559.108875 381.6495 
L 568.582525 381.6495 
L 578.056175 381.6495 
L 587.529825 381.6495 
L 597.003475 381.6495 
L 606.477125 381.6495 
L 615.950775 381.6495 
L 625.424425 381.6495 
L 634.898075 381.6495 
L 644.371725 381.6495 
L 653.845375 381.6495 
L 663.319025 381.6495 
L 672.792675 381.6495 
L 682.266325 381.6495 
L 691.739975 381.6495 
L 701.213625 381.6495 
L 710.687275 381.6495 
L 720.160925 381.6495 
L 729.634575 381.6495 
L 739.108225 381.6495 
L 748.581875 381.6495 
L 758.055525 381.6495 
L 767.529175 381.6495 
L 777.002825 381.6495 
L 786.476475 381.6495 
L 795.950125 381.6495 
L 805.423775 381.6495 
L 814.897425 381.6495 
L 824.371075 381.6495 
L 833.844725 381.6495 
L 843.318375 381.6495 
L 852.792025 381.6495 
L 862.265675 381.6495 
L 871.739325 381.6495 
L 881.212975 381.6495 
L 890.686625 381.6495 
L 900.160275 381.6495 
L 909.633925 381.6495 
L 919.107575 381.6495 
L 928.581225 381.6495 
L 938.054875 381.6495 
L 947.528525 381.6495 
L 957.002175 381.6495 
L 966.475825 381.6495 
L 975.949475 381.6495 
L 985.423125 381.6495 
" style="fill:none;stroke:#f0ad4e;stroke-linecap:square;"/>
   </g>
   <g id="line2d_24">
    <path clip-path="url(#p4e6e1dfdfb)" d="M 38.058125 381.6495 
L 47.531775 381.6495 
L 57.005425 381.6495 
L 66.479075 381.6495 
L 75.952725 381.6495 
L 85.426375 381.6495 
L 94.900025 381.6495 
L 104.373675 381.6495 
L 113.847325 381.6495 
L 123.320975 381.6495 
L 132.794625 381.6495 
L 142.268275 381.6495 
L 151.741925 381.6495 
L 161.215575 381.6495 
L 170.689225 381.6495 
L 180.162875 381.6495 
L 189.636525 381.6495 
L 199.110175 381.6495 
L 208.583825 381.6495 
L 218.057475 381.6495 
L 227.531125 379.885535 
L 237.004775 379.885535 
L 246.478425 372.829677 
L 255.952075 360.481925 
L 265.425725 355.190032 
L 274.899375 344.606245 
L 284.373025 334.022457 
L 293.846675 323.43867 
L 303.320325 288.159379 
L 312.793975 277.575592 
L 322.267625 316.382812 
L 331.741275 334.022457 
L 341.214925 307.562989 
L 350.688575 251.116124 
L 360.162225 219.364762 
L 369.635875 231.712514 
L 379.109525 212.308904 
L 388.583175 168.20979 
L 398.056825 182.321507 
L 407.530475 205.253046 
L 417.004125 205.253046 
L 426.477775 261.699911 
L 435.951425 316.382812 
L 445.425075 309.326954 
L 454.898725 312.854883 
L 464.372375 312.854883 
L 473.846025 277.575592 
L 483.319675 279.339556 
L 492.793325 302.271096 
L 502.266975 296.979202 
L 511.740625 316.382812 
L 521.214275 351.662103 
L 530.687925 349.898138 
L 540.161575 353.426067 
L 549.635225 374.593642 
L 559.108875 381.6495 
L 568.582525 379.885535 
L 578.056175 378.121571 
L 587.529825 378.121571 
L 597.003475 379.885535 
L 606.477125 381.6495 
L 615.950775 381.6495 
L 625.424425 381.6495 
L 634.898075 381.6495 
L 644.371725 381.6495 
L 653.845375 379.885535 
L 663.319025 379.885535 
L 672.792675 381.6495 
L 682.266325 381.6495 
L 691.739975 381.6495 
L 701.213625 381.6495 
L 710.687275 381.6495 
L 720.160925 381.6495 
L 729.634575 381.6495 
L 739.108225 381.6495 
L 748.581875 381.6495 
L 758.055525 381.6495 
L 767.529175 379.885535 
L 777.002825 379.885535 
L 786.476475 381.6495 
L 795.950125 381.6495 
L 805.423775 381.6495 
L 814.897425 381.6495 
L 824.371075 381.6495 
L 833.844725 381.6495 
L 843.318375 381.6495 
L 852.792025 381.6495 
L 862.265675 381.6495 
L 871.739325 381.6495 
L 881.212975 381.6495 
L 890.686625 381.6495 
L 900.160275 381.6495 
L 909.633925 381.6495 
L 919.107575 381.6495 
L 928.581225 381.6495 
L 938.054875 381.6495 
L 947.528525 381.6495 
L 957.002175 381.6495 
L 966.475825 381.6495 
L 975.949475 381.6495 
L 985.423125 381.6495 
" style="fill:none;stroke:#f0ad4e;stroke-linecap:square;"/>
   </g>
   <g id="line2d_25">
    <path clip-path="url(#p4e6e1dfdfb)" d="M 38.058125 381.6495 
L 47.531775 381.6495 
L 57.005425 381.6495 
L 66.479075 381.6495 
L 75.952725 381.6495 
L 85.426375 381.6495 
L 94.900025 381.6495 
L 104.373675 381.6495 
L 113.847325 381.6495 
L 123.320975 381.6495 
L 132.794625 381.6495 
L 142.268275 381.6495 
L 151.741925 381.6495 
L 161.215575 381.6495 
L 170.689225 381.6495 
L 180.162875 381.6495 
L 189.636525 381.6495 
L 199.110175 381.6495 
L 208.583825 381.6495 
L 218.057475 381.6495 
L 227.531125 381.6495 
L 237.004775 381.6495 
L 246.478425 373.858971 
L 255.952075 355.161703 
L 265.425725 348.92928 
L 274.899375 350.487385 
L 284.373025 333.348222 
L 293.846675 319.325271 
L 303.320325 267.907782 
L 312.793975 242.97809 
L 322.267625 309.976637 
L 331.741275 339.580645 
L 341.214925 305.302319 
L 350.688575 260.117253 
L 360.162225 236.745667 
L 369.635875 236.745667 
L 379.109525 230.513245 
L 388.583175 190.002496 
L 398.056825 135.468795 
L 407.530475 177.53765 
L 417.004125 241.419985 
L 426.477775 263.233465 
L 435.951425 300.628002 
L 445.425075 320.883377 
L 454.898725 314.650954 
L 464.372375 302.186108 
L 473.846025 291.279368 
L 483.319675 286.605051 
L 492.793325 303.744214 
L 502.266975 305.302319 
L 511.740625 308.418531 
L 521.214275 325.557694 
L 530.687925 353.603597 
L 540.161575 375.417077 
L 549.635225 376.975183 
L 559.108875 381.6495 
L 568.582525 381.6495 
L 578.056175 381.6495 
L 587.529825 381.6495 
L 597.003475 381.6495 
L 606.477125 381.6495 
L 615.950775 381.6495 
L 625.424425 381.6495 
L 634.898075 381.6495 
L 644.371725 381.6495 
L 653.845375 381.6495 
L 663.319025 381.6495 
L 672.792675 381.6495 
L 682.266325 381.6495 
L 691.739975 381.6495 
L 701.213625 381.6495 
L 710.687275 381.6495 
L 720.160925 381.6495 
L 729.634575 381.6495 
L 739.108225 381.6495 
L 748.581875 381.6495 
L 758.055525 381.6495 
L 767.529175 381.6495 
L 777.002825 381.6495 
L 786.476475 381.6495 
L 795.950125 381.6495 
L 805.423775 381.6495 
L 814.897425 381.6495 
L 824.371075 381.6495 
L 833.844725 381.6495 
L 843.318375 381.6495 
L 852.792025 381.6495 
L 862.265675 381.6495 
L 871.739325 381.6495 
L 881.212975 381.6495 
L 890.686625 381.6495 
L 900.160275 381.6495 
L 909.633925 381.6495 
L 919.107575 381.6495 
L 928.581225 381.6495 
L 938.054875 381.6495 
L 947.528525 381.6495 
L 957.002175 381.6495 
L 966.475825 381.6495 
L 975.949475 381.6495 
L 985.423125 381.6495 
" style="fill:none;stroke:#d9534f;stroke-linecap:square;"/>
   </g>
   <g id="line2d_26">
    <path clip-path="url(#p4e6e1dfdfb)" d="M 38.058125 381.6495 
L 47.531775 381.6495 
L 57.005425 381.6495 
L 66.479075 381.6495 
L 75.952725 381.6495 
L 85.426375 381.6495 
L 94.900025 381.6495 
L 104.373675 381.6495 
L 113.847325 381.6495 
L 123.320975 381.6495 
L 132.794625 381.6495 
L 142.268275 381.6495 
L 151.741925 381.6495 
L 161.215575 381.6495 
L 170.689225 381.6495 
L 180.162875 381.6495 
L 189.636525 381.6495 
L 199.110175 381.6495 
L 208.583825 381.6495 
L 218.057475 381.6495 
L 227.531125 381.6495 
L 237.004775 380.091394 
L 246.478425 372.300866 
L 255.952075 367.626548 
L 265.425725 352.045491 
L 274.899375 347.371174 
L 284.373025 342.696857 
L 293.846675 325.557694 
L 303.320325 295.953685 
L 312.793975 277.256416 
L 322.267625 311.534742 
L 331.741275 334.906328 
L 341.214925 322.441482 
L 350.688575 280.372628 
L 360.162225 228.955139 
L 369.635875 202.467341 
L 379.109525 197.793024 
L 388.583175 169.747121 
L 398.056825 163.514698 
L 407.530475 200.909236 
L 417.004125 232.07135 
L 426.477775 274.140205 
L 435.951425 303.744214 
L 445.425075 311.534742 
L 454.898725 308.418531 
L 464.372375 281.930734 
L 473.846025 266.349676 
L 483.319675 275.698311 
L 492.793325 303.744214 
L 502.266975 303.744214 
L 511.740625 309.976637 
L 521.214275 344.254963 
L 530.687925 356.719808 
L 540.161575 362.952231 
L 549.635225 370.74276 
L 559.108875 380.091394 
L 568.582525 381.6495 
L 578.056175 381.6495 
L 587.529825 381.6495 
L 597.003475 381.6495 
L 606.477125 381.6495 
L 615.950775 381.6495 
L 625.424425 381.6495 
L 634.898075 381.6495 
L 644.371725 381.6495 
L 653.845375 381.6495 
L 663.319025 380.091394 
L 672.792675 380.091394 
L 682.266325 378.533289 
L 691.739975 378.533289 
L 701.213625 381.6495 
L 710.687275 381.6495 
L 720.160925 381.6495 
L 729.634575 381.6495 
L 739.108225 381.6495 
L 748.581875 381.6495 
L 758.055525 381.6495 
L 767.529175 381.6495 
L 777.002825 381.6495 
L 786.476475 381.6495 
L 795.950125 381.6495 
L 805.423775 381.6495 
L 814.897425 381.6495 
L 824.371075 381.6495 
L 833.844725 380.091394 
L 843.318375 380.091394 
L 852.792025 381.6495 
L 862.265675 381.6495 
L 871.739325 381.6495 
L 881.212975 381.6495 
L 890.686625 381.6495 
L 900.160275 381.6495 
L 909.633925 381.6495 
L 919.107575 381.6495 
L 928.581225 381.6495 
L 938.054875 381.6495 
L 947.528525 381.6495 
L 957.002175 381.6495 
L 966.475825 381.6495 
L 975.949475 381.6495 
L 985.423125 381.6495 
" style="fill:none;stroke:#d9534f;stroke-linecap:square;"/>
   </g>
   <g id="line2d_27">
    <path clip-path="url(#p4e6e1dfdfb)" d="M 38.058125 381.6495 
L 47.531775 381.6495 
L 57.005425 381.6495 
L 66.479075 381.6495 
L 75.952725 381.6495 
L 85.426375 381.6495 
L 94.900025 381.6495 
L 104.373675 381.6495 
L 113.847325 381.6495 
L 123.320975 381.6495 
L 132.794625 381.6495 
L 142.268275 381.6495 
L 151.741925 381.6495 
L 161.215575 381.6495 
L 170.689225 381.6495 
L 180.162875 381.6495 
L 189.636525 381.6495 
L 199.110175 381.6495 
L 208.583825 381.6495 
L 218.057475 381.6495 
L 227.531125 381.6495 
L 237.004775 381.6495 
L 246.478425 366.949795 
L 255.952075 353.883391 
L 265.425725 353.883391 
L 274.899375 350.61679 
L 284.373025 334.283785 
L 293.846675 306.517677 
L 303.320325 250.98546 
L 312.793975 255.885361 
L 322.267625 322.850682 
L 331.741275 335.917086 
L 341.214925 314.684179 
L 350.688575 246.085558 
L 360.162225 215.052849 
L 369.635875 246.085558 
L 379.109525 231.385854 
L 388.583175 174.220336 
L 398.056825 152.98743 
L 407.530475 185.65344 
L 417.004125 228.119253 
L 426.477775 264.051864 
L 435.951425 303.251076 
L 445.425075 329.383884 
L 454.898725 324.483982 
L 464.372375 314.684179 
L 473.846025 285.28477 
L 483.319675 285.28477 
L 492.793325 314.684179 
L 502.266975 309.784278 
L 511.740625 317.95078 
L 521.214275 337.550386 
L 530.687925 342.450288 
L 540.161575 355.516692 
L 549.635225 373.482997 
L 559.108875 381.6495 
L 568.582525 381.6495 
L 578.056175 381.6495 
L 587.529825 381.6495 
L 597.003475 381.6495 
L 606.477125 381.6495 
L 615.950775 381.6495 
L 625.424425 381.6495 
L 634.898075 381.6495 
L 644.371725 381.6495 
L 653.845375 381.6495 
L 663.319025 381.6495 
L 672.792675 381.6495 
L 682.266325 381.6495 
L 691.739975 381.6495 
L 701.213625 381.6495 
L 710.687275 381.6495 
L 720.160925 381.6495 
L 729.634575 381.6495 
L 739.108225 381.6495 
L 748.581875 381.6495 
L 758.055525 381.6495 
L 767.529175 381.6495 
L 777.002825 381.6495 
L 786.476475 381.6495 
L 795.950125 381.6495 
L 805.423775 381.6495 
L 814.897425 381.6495 
L 824.371075 381.6495 
L 833.844725 381.6495 
L 843.318375 381.6495 
L 852.792025 381.6495 
L 862.265675 381.6495 
L 871.739325 381.6495 
L 881.212975 381.6495 
L 890.686625 381.6495 
L 900.160275 381.6495 
L 909.633925 381.6495 
L 919.107575 381.6495 
L 928.581225 381.6495 
L 938.054875 381.6495 
L 947.528525 381.6495 
L 957.002175 381.6495 
L 966.475825 381.6495 
L 975.949475 381.6495 
L 985.423125 381.6495 
" style="fill:none;stroke:#d9534f;stroke-linecap:square;"/>
   </g>
   <g id="line2d_28">
    <path clip-path="url(#p4e6e1dfdfb)" d="M 38.058125 381.6495 
L 47.531775 381.6495 
L 57.005425 381.6495 
L 66.479075 381.6495 
L 75.952725 381.6495 
L 85.426375 381.6495 
L 94.900025 381.6495 
L 104.373675 381.6495 
L 113.847325 381.6495 
L 123.320975 381.6495 
L 132.794625 381.6495 
L 142.268275 381.6495 
L 151.741925 381.6495 
L 161.215575 381.6495 
L 170.689225 381.6495 
L 180.162875 381.6495 
L 189.636525 381.6495 
L 199.110175 381.6495 
L 208.583825 381.6495 
L 218.057475 381.6495 
L 227.531125 381.6495 
L 237.004775 381.6495 
L 246.478425 378.382899 
L 255.952075 362.049894 
L 265.425725 345.716889 
L 274.899375 340.816987 
L 284.373025 337.550386 
L 293.846675 321.217381 
L 303.320325 270.585066 
L 312.793975 250.98546 
L 322.267625 306.517677 
L 331.741275 345.716889 
L 341.214925 314.684179 
L 350.688575 260.785263 
L 360.162225 226.485952 
L 369.635875 239.552356 
L 379.109525 224.852652 
L 388.583175 185.65344 
L 398.056825 170.953735 
L 407.530475 164.420533 
L 417.004125 208.519647 
L 426.477775 273.851667 
L 435.951425 309.784278 
L 445.425075 303.251076 
L 454.898725 286.918071 
L 464.372375 291.817972 
L 473.846025 291.817972 
L 483.319675 313.050879 
L 492.793325 334.283785 
L 502.266975 317.95078 
L 511.740625 309.784278 
L 521.214275 334.283785 
L 530.687925 350.61679 
L 540.161575 360.416593 
L 549.635225 378.382899 
L 559.108875 378.382899 
L 568.582525 380.016199 
L 578.056175 378.382899 
L 587.529825 375.116298 
L 597.003475 378.382899 
L 606.477125 380.016199 
L 615.950775 380.016199 
L 625.424425 381.6495 
L 634.898075 381.6495 
L 644.371725 381.6495 
L 653.845375 381.6495 
L 663.319025 381.6495 
L 672.792675 381.6495 
L 682.266325 380.016199 
L 691.739975 380.016199 
L 701.213625 381.6495 
L 710.687275 381.6495 
L 720.160925 381.6495 
L 729.634575 381.6495 
L 739.108225 381.6495 
L 748.581875 381.6495 
L 758.055525 380.016199 
L 767.529175 380.016199 
L 777.002825 381.6495 
L 786.476475 381.6495 
L 795.950125 381.6495 
L 805.423775 381.6495 
L 814.897425 381.6495 
L 824.371075 381.6495 
L 833.844725 381.6495 
L 843.318375 381.6495 
L 852.792025 381.6495 
L 862.265675 381.6495 
L 871.739325 381.6495 
L 881.212975 381.6495 
L 890.686625 381.6495 
L 900.160275 381.6495 
L 909.633925 381.6495 
L 919.107575 381.6495 
L 928.581225 381.6495 
L 938.054875 381.6495 
L 947.528525 381.6495 
L 957.002175 381.6495 
L 966.475825 381.6495 
L 975.949475 381.6495 
L 985.423125 381.6495 
" style="fill:none;stroke:#f0ad4e;stroke-linecap:square;"/>
   </g>
   <g id="line2d_29">
    <path clip-path="url(#p4e6e1dfdfb)" d="M 38.058125 381.6495 
L 985.423125 381.6495 
" style="fill:none;stroke:#dedede;stroke-linecap:square;stroke-width:2;"/>
   </g>
   <g id="text_15">
    <!-- FastQC: Per Sequence GC Content -->
    <defs>
     <path d="M 9.8125 72.90625 
L 51.703125 72.90625 
L 51.703125 64.59375 
L 19.671875 64.59375 
L 19.671875 43.109375 
L 48.578125 43.109375 
L 48.578125 34.8125 
L 19.671875 34.8125 
L 19.671875 0 
L 9.8125 0 
z
" id="DejaVuSans-46"/>
     <path d="M 44.28125 53.078125 
L 44.28125 44.578125 
Q 40.484375 46.53125 36.375 47.5 
Q 32.28125 48.484375 27.875 48.484375 
Q 21.1875 48.484375 17.84375 46.4375 
Q 14.5 44.390625 14.5 40.28125 
Q 14.5 37.15625 16.890625 35.375 
Q 19.28125 33.59375 26.515625 31.984375 
L 29.59375 31.296875 
Q 39.15625 29.25 43.1875 25.515625 
Q 47.21875 21.78125 47.21875 15.09375 
Q 47.21875 7.46875 41.1875 3.015625 
Q 35.15625 -1.421875 24.609375 -1.421875 
Q 20.21875 -1.421875 15.453125 -0.5625 
Q 10.6875 0.296875 5.421875 2 
L 5.421875 11.28125 
Q 10.40625 8.6875 15.234375 7.390625 
Q 20.0625 6.109375 24.8125 6.109375 
Q 31.15625 6.109375 34.5625 8.28125 
Q 37.984375 10.453125 37.984375 14.40625 
Q 37.984375 18.0625 35.515625 20.015625 
Q 33.0625 21.96875 24.703125 23.78125 
L 21.578125 24.515625 
Q 13.234375 26.265625 9.515625 29.90625 
Q 5.8125 33.546875 5.8125 39.890625 
Q 5.8125 47.609375 11.28125 51.796875 
Q 16.75 56 26.8125 56 
Q 31.78125 56 36.171875 55.265625 
Q 40.578125 54.546875 44.28125 53.078125 
z
" id="DejaVuSans-73"/>
     <path d="M 39.40625 66.21875 
Q 28.65625 66.21875 22.328125 58.203125 
Q 16.015625 50.203125 16.015625 36.375 
Q 16.015625 22.609375 22.328125 14.59375 
Q 28.65625 6.59375 39.40625 6.59375 
Q 50.140625 6.59375 56.421875 14.59375 
Q 62.703125 22.609375 62.703125 36.375 
Q 62.703125 50.203125 56.421875 58.203125 
Q 50.140625 66.21875 39.40625 66.21875 
z
M 53.21875 1.3125 
L 66.21875 -12.890625 
L 54.296875 -12.890625 
L 43.5 -1.21875 
Q 41.890625 -1.3125 41.03125 -1.359375 
Q 40.1875 -1.421875 39.40625 -1.421875 
Q 24.03125 -1.421875 14.8125 8.859375 
Q 5.609375 19.140625 5.609375 36.375 
Q 5.609375 53.65625 14.8125 63.9375 
Q 24.03125 74.21875 39.40625 74.21875 
Q 54.734375 74.21875 63.90625 63.9375 
Q 73.09375 53.65625 73.09375 36.375 
Q 73.09375 23.6875 67.984375 14.640625 
Q 62.890625 5.609375 53.21875 1.3125 
z
" id="DejaVuSans-51"/>
     <path d="M 11.71875 12.40625 
L 22.015625 12.40625 
L 22.015625 0 
L 11.71875 0 
z
M 11.71875 51.703125 
L 22.015625 51.703125 
L 22.015625 39.3125 
L 11.71875 39.3125 
z
" id="DejaVuSans-3a"/>
     <path d="M 53.515625 70.515625 
L 53.515625 60.890625 
Q 47.90625 63.578125 42.921875 64.890625 
Q 37.9375 66.21875 33.296875 66.21875 
Q 25.25 66.21875 20.875 63.09375 
Q 16.5 59.96875 16.5 54.203125 
Q 16.5 49.359375 19.40625 46.890625 
Q 22.3125 44.4375 30.421875 42.921875 
L 36.375 41.703125 
Q 47.40625 39.59375 52.65625 34.296875 
Q 57.90625 29 57.90625 20.125 
Q 57.90625 9.515625 50.796875 4.046875 
Q 43.703125 -1.421875 29.984375 -1.421875 
Q 24.8125 -1.421875 18.96875 -0.25 
Q 13.140625 0.921875 6.890625 3.21875 
L 6.890625 13.375 
Q 12.890625 10.015625 18.65625 8.296875 
Q 24.421875 6.59375 29.984375 6.59375 
Q 38.421875 6.59375 43.015625 9.90625 
Q 47.609375 13.234375 47.609375 19.390625 
Q 47.609375 24.75 44.3125 27.78125 
Q 41.015625 30.8125 33.5 32.328125 
L 27.484375 33.5 
Q 16.453125 35.6875 11.515625 40.375 
Q 6.59375 45.0625 6.59375 53.421875 
Q 6.59375 63.09375 13.40625 68.65625 
Q 20.21875 74.21875 32.171875 74.21875 
Q 37.3125 74.21875 42.625 73.28125 
Q 47.953125 72.359375 53.515625 70.515625 
z
" id="DejaVuSans-53"/>
     <path d="M 14.796875 27.296875 
Q 14.796875 17.390625 18.875 11.75 
Q 22.953125 6.109375 30.078125 6.109375 
Q 37.203125 6.109375 41.296875 11.75 
Q 45.40625 17.390625 45.40625 27.296875 
Q 45.40625 37.203125 41.296875 42.84375 
Q 37.203125 48.484375 30.078125 48.484375 
Q 22.953125 48.484375 18.875 42.84375 
Q 14.796875 37.203125 14.796875 27.296875 
z
M 45.40625 8.203125 
Q 42.578125 3.328125 38.25 0.953125 
Q 33.9375 -1.421875 27.875 -1.421875 
Q 17.96875 -1.421875 11.734375 6.484375 
Q 5.515625 14.40625 5.515625 27.296875 
Q 5.515625 40.1875 11.734375 48.09375 
Q 17.96875 56 27.875 56 
Q 33.9375 56 38.25 53.625 
Q 42.578125 51.265625 45.40625 46.390625 
L 45.40625 54.6875 
L 54.390625 54.6875 
L 54.390625 -20.796875 
L 45.40625 -20.796875 
z
" id="DejaVuSans-71"/>
     <path d="M 8.5 21.578125 
L 8.5 54.6875 
L 17.484375 54.6875 
L 17.484375 21.921875 
Q 17.484375 14.15625 20.5 10.265625 
Q 23.53125 6.390625 29.59375 6.390625 
Q 36.859375 6.390625 41.078125 11.03125 
Q 45.3125 15.671875 45.3125 23.6875 
L 45.3125 54.6875 
L 54.296875 54.6875 
L 54.296875 0 
L 45.3125 0 
L 45.3125 8.40625 
Q 42.046875 3.421875 37.71875 1 
Q 33.40625 -1.421875 27.6875 -1.421875 
Q 18.265625 -1.421875 13.375 4.4375 
Q 8.5 10.296875 8.5 21.578125 
z
M 31.109375 56 
z
" id="DejaVuSans-75"/>
     <path d="M 30.609375 48.390625 
Q 23.390625 48.390625 19.1875 42.75 
Q 14.984375 37.109375 14.984375 27.296875 
Q 14.984375 17.484375 19.15625 11.84375 
Q 23.34375 6.203125 30.609375 6.203125 
Q 37.796875 6.203125 41.984375 11.859375 
Q 46.1875 17.53125 46.1875 27.296875 
Q 46.1875 37.015625 41.984375 42.703125 
Q 37.796875 48.390625 30.609375 48.390625 
z
M 30.609375 56 
Q 42.328125 56 49.015625 48.375 
Q 55.71875 40.765625 55.71875 27.296875 
Q 55.71875 13.875 49.015625 6.21875 
Q 42.328125 -1.421875 30.609375 -1.421875 
Q 18.84375 -1.421875 12.171875 6.21875 
Q 5.515625 13.875 5.515625 27.296875 
Q 5.515625 40.765625 12.171875 48.375 
Q 18.84375 56 30.609375 56 
z
" id="DejaVuSans-6f"/>
    </defs>
    <g transform="translate(374.099375 19.3575)scale(0.16 -0.16)">
     <use xlink:href="#DejaVuSans-46"/>
     <use x="57.378906" xlink:href="#DejaVuSans-61"/>
     <use x="118.658203" xlink:href="#DejaVuSans-73"/>
     <use x="170.757812" xlink:href="#DejaVuSans-74"/>
     <use x="209.966797" xlink:href="#DejaVuSans-51"/>
     <use x="288.677734" xlink:href="#DejaVuSans-43"/>
     <use x="358.501953" xlink:href="#DejaVuSans-3a"/>
     <use x="392.193359" xlink:href="#DejaVuSans-20"/>
     <use x="423.980469" xlink:href="#DejaVuSans-50"/>
     <use x="484.236328" xlink:href="#DejaVuSans-65"/>
     <use x="545.759766" xlink:href="#DejaVuSans-72"/>
     <use x="586.873047" xlink:href="#DejaVuSans-20"/>
     <use x="618.660156" xlink:href="#DejaVuSans-53"/>
     <use x="682.136719" xlink:href="#DejaVuSans-65"/>
     <use x="743.660156" xlink:href="#DejaVuSans-71"/>
     <use x="807.136719" xlink:href="#DejaVuSans-75"/>
     <use x="870.515625" xlink:href="#DejaVuSans-65"/>
     <use x="932.039062" xlink:href="#DejaVuSans-6e"/>
     <use x="995.417969" xlink:href="#DejaVuSans-63"/>
     <use x="1050.398438" xlink:href="#DejaVuSans-65"/>
     <use x="1111.921875" xlink:href="#DejaVuSans-20"/>
     <use x="1143.708984" xlink:href="#DejaVuSans-47"/>
     <use x="1221.199219" xlink:href="#DejaVuSans-43"/>
     <use x="1291.023438" xlink:href="#DejaVuSans-20"/>
     <use x="1322.810547" xlink:href="#DejaVuSans-43"/>
     <use x="1392.634766" xlink:href="#DejaVuSans-6f"/>
     <use x="1453.816406" xlink:href="#DejaVuSans-6e"/>
     <use x="1517.195312" xlink:href="#DejaVuSans-74"/>
     <use x="1556.404297" xlink:href="#DejaVuSans-65"/>
     <use x="1617.927734" xlink:href="#DejaVuSans-6e"/>
     <use x="1681.306641" xlink:href="#DejaVuSans-74"/>
    </g>
   </g>
  </g>
 </g>
 <defs>
  <clipPath id="p4e6e1dfdfb">
   <rect height="345.04" width="947.365" x="38.058125" y="36.6095"/>
  </clipPath>
 </defs>
</svg>
