<?xml version="1.0" encoding="utf-8" standalone="no"?>
<!DOCTYPE svg PUBLIC "-//W3C//DTD SVG 1.1//EN"
  "http://www.w3.org/Graphics/SVG/1.1/DTD/svg11.dtd">
<!-- Created with matplotlib (http://matplotlib.org/) -->
<svg height="417.270125pt" version="1.1" viewBox="0 0 1001.338125 417.270125" width="1001.338125pt" xmlns="http://www.w3.org/2000/svg" xmlns:xlink="http://www.w3.org/1999/xlink">
 <defs>
  <style type="text/css">
*{stroke-linecap:butt;stroke-linejoin:round;}
  </style>
 </defs>
 <g id="figure_1">
  <g id="patch_1">
   <path d="M 0 417.270125 
L 1001.338125 417.270125 
L 1001.338125 0 
L 0 0 
z
" style="fill:#ffffff;"/>
  </g>
  <g id="axes_1">
   <g id="patch_2">
    <path d="M 32.968125 381.6495 
L 990.638125 381.6495 
L 990.638125 36.6095 
L 32.968125 36.6095 
z
" style="fill:#ffffff;"/>
   </g>
   <g id="patch_3">
    <path clip-path="url(#p8ad0150823)" d="M 32.968125 -310.62123 
L 990.638125 -310.62123 
L 990.638125 -3079.704151 
L 32.968125 -3079.704151 
z
" style="fill:#e6c3c3;"/>
   </g>
   <g id="patch_4">
    <path clip-path="url(#p8ad0150823)" d="M 32.968125 208.581817 
L 990.638125 208.581817 
L 990.638125 -310.62123 
L 32.968125 -310.62123 
z
" style="fill:#e6dcc3;"/>
   </g>
   <g id="patch_5">
    <path clip-path="url(#p8ad0150823)" d="M 32.968125 381.6495 
L 990.638125 381.6495 
L 990.638125 208.581817 
L 32.968125 208.581817 
z
" style="fill:#c3e6c3;"/>
   </g>
   <g id="matplotlib.axis_1">
    <g id="xtick_1">
     <g id="text_1">
      <!-- 0 -->
      <defs>
       <path d="M 31.78125 66.40625 
Q 24.171875 66.40625 20.328125 58.90625 
Q 16.5 51.421875 16.5 36.375 
Q 16.5 21.390625 20.328125 13.890625 
Q 24.171875 6.390625 31.78125 6.390625 
Q 39.453125 6.390625 43.28125 13.890625 
Q 47.125 21.390625 47.125 36.375 
Q 47.125 51.421875 43.28125 58.90625 
Q 39.453125 66.40625 31.78125 66.40625 
z
M 31.78125 74.21875 
Q 44.046875 74.21875 50.515625 64.515625 
Q 56.984375 54.828125 56.984375 36.375 
Q 56.984375 17.96875 50.515625 8.265625 
Q 44.046875 -1.421875 31.78125 -1.421875 
Q 19.53125 -1.421875 13.0625 8.265625 
Q 6.59375 17.96875 6.59375 36.375 
Q 6.59375 54.828125 13.0625 64.515625 
Q 19.53125 74.21875 31.78125 74.21875 
z
" id="DejaVuSans-30"/>
      </defs>
      <g transform="translate(30.423125 394.72825)scale(0.08 -0.08)">
       <use xlink:href="#DejaVuSans-30"/>
      </g>
     </g>
    </g>
    <g id="xtick_2">
     <g id="text_2">
      <!-- 20 -->
      <defs>
       <path d="M 19.1875 8.296875 
L 53.609375 8.296875 
L 53.609375 0 
L 7.328125 0 
L 7.328125 8.296875 
Q 12.9375 14.109375 22.625 23.890625 
Q 32.328125 33.6875 34.8125 36.53125 
Q 39.546875 41.84375 41.421875 45.53125 
Q 43.3125 49.21875 43.3125 52.78125 
Q 43.3125 58.59375 39.234375 62.25 
Q 35.15625 65.921875 28.609375 65.921875 
Q 23.96875 65.921875 18.8125 64.3125 
Q 13.671875 62.703125 7.8125 59.421875 
L 7.8125 69.390625 
Q 13.765625 71.78125 18.9375 73 
Q 24.125 74.21875 28.421875 74.21875 
Q 39.75 74.21875 46.484375 68.546875 
Q 53.21875 62.890625 53.21875 53.421875 
Q 53.21875 48.921875 51.53125 44.890625 
Q 49.859375 40.875 45.40625 35.40625 
Q 44.1875 33.984375 37.640625 27.21875 
Q 31.109375 20.453125 19.1875 8.296875 
z
" id="DejaVuSans-32"/>
      </defs>
      <g transform="translate(210.378363 394.72825)scale(0.08 -0.08)">
       <use xlink:href="#DejaVuSans-32"/>
       <use x="63.623047" xlink:href="#DejaVuSans-30"/>
      </g>
     </g>
    </g>
    <g id="xtick_3">
     <g id="text_3">
      <!-- 40 -->
      <defs>
       <path d="M 37.796875 64.3125 
L 12.890625 25.390625 
L 37.796875 25.390625 
z
M 35.203125 72.90625 
L 47.609375 72.90625 
L 47.609375 25.390625 
L 58.015625 25.390625 
L 58.015625 17.1875 
L 47.609375 17.1875 
L 47.609375 0 
L 37.796875 0 
L 37.796875 17.1875 
L 4.890625 17.1875 
L 4.890625 26.703125 
z
" id="DejaVuSans-34"/>
      </defs>
      <g transform="translate(392.878601 394.72825)scale(0.08 -0.08)">
       <use xlink:href="#DejaVuSans-34"/>
       <use x="63.623047" xlink:href="#DejaVuSans-30"/>
      </g>
     </g>
    </g>
    <g id="xtick_4">
     <g id="text_4">
      <!-- 60 -->
      <defs>
       <path d="M 33.015625 40.375 
Q 26.375 40.375 22.484375 35.828125 
Q 18.609375 31.296875 18.609375 23.390625 
Q 18.609375 15.53125 22.484375 10.953125 
Q 26.375 6.390625 33.015625 6.390625 
Q 39.65625 6.390625 43.53125 10.953125 
Q 47.40625 15.53125 47.40625 23.390625 
Q 47.40625 31.296875 43.53125 35.828125 
Q 39.65625 40.375 33.015625 40.375 
z
M 52.59375 71.296875 
L 52.59375 62.3125 
Q 48.875 64.0625 45.09375 64.984375 
Q 41.3125 65.921875 37.59375 65.921875 
Q 27.828125 65.921875 22.671875 59.328125 
Q 17.53125 52.734375 16.796875 39.40625 
Q 19.671875 43.65625 24.015625 45.921875 
Q 28.375 48.1875 33.59375 48.1875 
Q 44.578125 48.1875 50.953125 41.515625 
Q 57.328125 34.859375 57.328125 23.390625 
Q 57.328125 12.15625 50.6875 5.359375 
Q 44.046875 -1.421875 33.015625 -1.421875 
Q 20.359375 -1.421875 13.671875 8.265625 
Q 6.984375 17.96875 6.984375 36.375 
Q 6.984375 53.65625 15.1875 63.9375 
Q 23.390625 74.21875 37.203125 74.21875 
Q 40.921875 74.21875 44.703125 73.484375 
Q 48.484375 72.75 52.59375 71.296875 
z
" id="DejaVuSans-36"/>
      </defs>
      <g transform="translate(575.37884 394.72825)scale(0.08 -0.08)">
       <use xlink:href="#DejaVuSans-36"/>
       <use x="63.623047" xlink:href="#DejaVuSans-30"/>
      </g>
     </g>
    </g>
    <g id="xtick_5">
     <g id="text_5">
      <!-- 80 -->
      <defs>
       <path d="M 31.78125 34.625 
Q 24.75 34.625 20.71875 30.859375 
Q 16.703125 27.09375 16.703125 20.515625 
Q 16.703125 13.921875 20.71875 10.15625 
Q 24.75 6.390625 31.78125 6.390625 
Q 38.8125 6.390625 42.859375 10.171875 
Q 46.921875 13.96875 46.921875 20.515625 
Q 46.921875 27.09375 42.890625 30.859375 
Q 38.875 34.625 31.78125 34.625 
z
M 21.921875 38.8125 
Q 15.578125 40.375 12.03125 44.71875 
Q 8.5 49.078125 8.5 55.328125 
Q 8.5 64.0625 14.71875 69.140625 
Q 20.953125 74.21875 31.78125 74.21875 
Q 42.671875 74.21875 48.875 69.140625 
Q 55.078125 64.0625 55.078125 55.328125 
Q 55.078125 49.078125 51.53125 44.71875 
Q 48 40.375 41.703125 38.8125 
Q 48.828125 37.15625 52.796875 32.3125 
Q 56.78125 27.484375 56.78125 20.515625 
Q 56.78125 9.90625 50.3125 4.234375 
Q 43.84375 -1.421875 31.78125 -1.421875 
Q 19.734375 -1.421875 13.25 4.234375 
Q 6.78125 9.90625 6.78125 20.515625 
Q 6.78125 27.484375 10.78125 32.3125 
Q 14.796875 37.15625 21.921875 38.8125 
z
M 18.3125 54.390625 
Q 18.3125 48.734375 21.84375 45.5625 
Q 25.390625 42.390625 31.78125 42.390625 
Q 38.140625 42.390625 41.71875 45.5625 
Q 45.3125 48.734375 45.3125 54.390625 
Q 45.3125 60.0625 41.71875 63.234375 
Q 38.140625 66.40625 31.78125 66.40625 
Q 25.390625 66.40625 21.84375 63.234375 
Q 18.3125 60.0625 18.3125 54.390625 
z
" id="DejaVuSans-38"/>
      </defs>
      <g transform="translate(757.879078 394.72825)scale(0.08 -0.08)">
       <use xlink:href="#DejaVuSans-38"/>
       <use x="63.623047" xlink:href="#DejaVuSans-30"/>
      </g>
     </g>
    </g>
    <g id="xtick_6">
     <g id="text_6">
      <!-- 100 -->
      <defs>
       <path d="M 12.40625 8.296875 
L 28.515625 8.296875 
L 28.515625 63.921875 
L 10.984375 60.40625 
L 10.984375 69.390625 
L 28.421875 72.90625 
L 38.28125 72.90625 
L 38.28125 8.296875 
L 54.390625 8.296875 
L 54.390625 0 
L 12.40625 0 
z
" id="DejaVuSans-31"/>
      </defs>
      <g transform="translate(937.834316 394.72825)scale(0.08 -0.08)">
       <use xlink:href="#DejaVuSans-31"/>
       <use x="63.623047" xlink:href="#DejaVuSans-30"/>
       <use x="127.246094" xlink:href="#DejaVuSans-30"/>
      </g>
     </g>
    </g>
    <g id="text_7">
     <!-- Position in Read (bp) -->
     <defs>
      <path d="M 19.671875 64.796875 
L 19.671875 37.40625 
L 32.078125 37.40625 
Q 38.96875 37.40625 42.71875 40.96875 
Q 46.484375 44.53125 46.484375 51.125 
Q 46.484375 57.671875 42.71875 61.234375 
Q 38.96875 64.796875 32.078125 64.796875 
z
M 9.8125 72.90625 
L 32.078125 72.90625 
Q 44.34375 72.90625 50.609375 67.359375 
Q 56.890625 61.8125 56.890625 51.125 
Q 56.890625 40.328125 50.609375 34.8125 
Q 44.34375 29.296875 32.078125 29.296875 
L 19.671875 29.296875 
L 19.671875 0 
L 9.8125 0 
z
" id="DejaVuSans-50"/>
      <path d="M 30.609375 48.390625 
Q 23.390625 48.390625 19.1875 42.75 
Q 14.984375 37.109375 14.984375 27.296875 
Q 14.984375 17.484375 19.15625 11.84375 
Q 23.34375 6.203125 30.609375 6.203125 
Q 37.796875 6.203125 41.984375 11.859375 
Q 46.1875 17.53125 46.1875 27.296875 
Q 46.1875 37.015625 41.984375 42.703125 
Q 37.796875 48.390625 30.609375 48.390625 
z
M 30.609375 56 
Q 42.328125 56 49.015625 48.375 
Q 55.71875 40.765625 55.71875 27.296875 
Q 55.71875 13.875 49.015625 6.21875 
Q 42.328125 -1.421875 30.609375 -1.421875 
Q 18.84375 -1.421875 12.171875 6.21875 
Q 5.515625 13.875 5.515625 27.296875 
Q 5.515625 40.765625 12.171875 48.375 
Q 18.84375 56 30.609375 56 
z
" id="DejaVuSans-6f"/>
      <path d="M 44.28125 53.078125 
L 44.28125 44.578125 
Q 40.484375 46.53125 36.375 47.5 
Q 32.28125 48.484375 27.875 48.484375 
Q 21.1875 48.484375 17.84375 46.4375 
Q 14.5 44.390625 14.5 40.28125 
Q 14.5 37.15625 16.890625 35.375 
Q 19.28125 33.59375 26.515625 31.984375 
L 29.59375 31.296875 
Q 39.15625 29.25 43.1875 25.515625 
Q 47.21875 21.78125 47.21875 15.09375 
Q 47.21875 7.46875 41.1875 3.015625 
Q 35.15625 -1.421875 24.609375 -1.421875 
Q 20.21875 -1.421875 15.453125 -0.5625 
Q 10.6875 0.296875 5.421875 2 
L 5.421875 11.28125 
Q 10.40625 8.6875 15.234375 7.390625 
Q 20.0625 6.109375 24.8125 6.109375 
Q 31.15625 6.109375 34.5625 8.28125 
Q 37.984375 10.453125 37.984375 14.40625 
Q 37.984375 18.0625 35.515625 20.015625 
Q 33.0625 21.96875 24.703125 23.78125 
L 21.578125 24.515625 
Q 13.234375 26.265625 9.515625 29.90625 
Q 5.8125 33.546875 5.8125 39.890625 
Q 5.8125 47.609375 11.28125 51.796875 
Q 16.75 56 26.8125 56 
Q 31.78125 56 36.171875 55.265625 
Q 40.578125 54.546875 44.28125 53.078125 
z
" id="DejaVuSans-73"/>
      <path d="M 9.421875 54.6875 
L 18.40625 54.6875 
L 18.40625 0 
L 9.421875 0 
z
M 9.421875 75.984375 
L 18.40625 75.984375 
L 18.40625 64.59375 
L 9.421875 64.59375 
z
" id="DejaVuSans-69"/>
      <path d="M 18.3125 70.21875 
L 18.3125 54.6875 
L 36.8125 54.6875 
L 36.8125 47.703125 
L 18.3125 47.703125 
L 18.3125 18.015625 
Q 18.3125 11.328125 20.140625 9.421875 
Q 21.96875 7.515625 27.59375 7.515625 
L 36.8125 7.515625 
L 36.8125 0 
L 27.59375 0 
Q 17.1875 0 13.234375 3.875 
Q 9.28125 7.765625 9.28125 18.015625 
L 9.28125 47.703125 
L 2.6875 47.703125 
L 2.6875 54.6875 
L 9.28125 54.6875 
L 9.28125 70.21875 
z
" id="DejaVuSans-74"/>
      <path d="M 54.890625 33.015625 
L 54.890625 0 
L 45.90625 0 
L 45.90625 32.71875 
Q 45.90625 40.484375 42.875 44.328125 
Q 39.84375 48.1875 33.796875 48.1875 
Q 26.515625 48.1875 22.3125 43.546875 
Q 18.109375 38.921875 18.109375 30.90625 
L 18.109375 0 
L 9.078125 0 
L 9.078125 54.6875 
L 18.109375 54.6875 
L 18.109375 46.1875 
Q 21.34375 51.125 25.703125 53.5625 
Q 30.078125 56 35.796875 56 
Q 45.21875 56 50.046875 50.171875 
Q 54.890625 44.34375 54.890625 33.015625 
z
" id="DejaVuSans-6e"/>
      <path id="DejaVuSans-20"/>
      <path d="M 44.390625 34.1875 
Q 47.5625 33.109375 50.5625 29.59375 
Q 53.5625 26.078125 56.59375 19.921875 
L 66.609375 0 
L 56 0 
L 46.6875 18.703125 
Q 43.0625 26.03125 39.671875 28.421875 
Q 36.28125 30.8125 30.421875 30.8125 
L 19.671875 30.8125 
L 19.671875 0 
L 9.8125 0 
L 9.8125 72.90625 
L 32.078125 72.90625 
Q 44.578125 72.90625 50.734375 67.671875 
Q 56.890625 62.453125 56.890625 51.90625 
Q 56.890625 45.015625 53.6875 40.46875 
Q 50.484375 35.9375 44.390625 34.1875 
z
M 19.671875 64.796875 
L 19.671875 38.921875 
L 32.078125 38.921875 
Q 39.203125 38.921875 42.84375 42.21875 
Q 46.484375 45.515625 46.484375 51.90625 
Q 46.484375 58.296875 42.84375 61.546875 
Q 39.203125 64.796875 32.078125 64.796875 
z
" id="DejaVuSans-52"/>
      <path d="M 56.203125 29.59375 
L 56.203125 25.203125 
L 14.890625 25.203125 
Q 15.484375 15.921875 20.484375 11.0625 
Q 25.484375 6.203125 34.421875 6.203125 
Q 39.59375 6.203125 44.453125 7.46875 
Q 49.3125 8.734375 54.109375 11.28125 
L 54.109375 2.78125 
Q 49.265625 0.734375 44.1875 -0.34375 
Q 39.109375 -1.421875 33.890625 -1.421875 
Q 20.796875 -1.421875 13.15625 6.1875 
Q 5.515625 13.8125 5.515625 26.8125 
Q 5.515625 40.234375 12.765625 48.109375 
Q 20.015625 56 32.328125 56 
Q 43.359375 56 49.78125 48.890625 
Q 56.203125 41.796875 56.203125 29.59375 
z
M 47.21875 32.234375 
Q 47.125 39.59375 43.09375 43.984375 
Q 39.0625 48.390625 32.421875 48.390625 
Q 24.90625 48.390625 20.390625 44.140625 
Q 15.875 39.890625 15.1875 32.171875 
z
" id="DejaVuSans-65"/>
      <path d="M 34.28125 27.484375 
Q 23.390625 27.484375 19.1875 25 
Q 14.984375 22.515625 14.984375 16.5 
Q 14.984375 11.71875 18.140625 8.90625 
Q 21.296875 6.109375 26.703125 6.109375 
Q 34.1875 6.109375 38.703125 11.40625 
Q 43.21875 16.703125 43.21875 25.484375 
L 43.21875 27.484375 
z
M 52.203125 31.203125 
L 52.203125 0 
L 43.21875 0 
L 43.21875 8.296875 
Q 40.140625 3.328125 35.546875 0.953125 
Q 30.953125 -1.421875 24.3125 -1.421875 
Q 15.921875 -1.421875 10.953125 3.296875 
Q 6 8.015625 6 15.921875 
Q 6 25.140625 12.171875 29.828125 
Q 18.359375 34.515625 30.609375 34.515625 
L 43.21875 34.515625 
L 43.21875 35.40625 
Q 43.21875 41.609375 39.140625 45 
Q 35.0625 48.390625 27.6875 48.390625 
Q 23 48.390625 18.546875 47.265625 
Q 14.109375 46.140625 10.015625 43.890625 
L 10.015625 52.203125 
Q 14.9375 54.109375 19.578125 55.046875 
Q 24.21875 56 28.609375 56 
Q 40.484375 56 46.34375 49.84375 
Q 52.203125 43.703125 52.203125 31.203125 
z
" id="DejaVuSans-61"/>
      <path d="M 45.40625 46.390625 
L 45.40625 75.984375 
L 54.390625 75.984375 
L 54.390625 0 
L 45.40625 0 
L 45.40625 8.203125 
Q 42.578125 3.328125 38.25 0.953125 
Q 33.9375 -1.421875 27.875 -1.421875 
Q 17.96875 -1.421875 11.734375 6.484375 
Q 5.515625 14.40625 5.515625 27.296875 
Q 5.515625 40.1875 11.734375 48.09375 
Q 17.96875 56 27.875 56 
Q 33.9375 56 38.25 53.625 
Q 42.578125 51.265625 45.40625 46.390625 
z
M 14.796875 27.296875 
Q 14.796875 17.390625 18.875 11.75 
Q 22.953125 6.109375 30.078125 6.109375 
Q 37.203125 6.109375 41.296875 11.75 
Q 45.40625 17.390625 45.40625 27.296875 
Q 45.40625 37.203125 41.296875 42.84375 
Q 37.203125 48.484375 30.078125 48.484375 
Q 22.953125 48.484375 18.875 42.84375 
Q 14.796875 37.203125 14.796875 27.296875 
z
" id="DejaVuSans-64"/>
      <path d="M 31 75.875 
Q 24.46875 64.65625 21.28125 53.65625 
Q 18.109375 42.671875 18.109375 31.390625 
Q 18.109375 20.125 21.3125 9.0625 
Q 24.515625 -2 31 -13.1875 
L 23.1875 -13.1875 
Q 15.875 -1.703125 12.234375 9.375 
Q 8.59375 20.453125 8.59375 31.390625 
Q 8.59375 42.28125 12.203125 53.3125 
Q 15.828125 64.359375 23.1875 75.875 
z
" id="DejaVuSans-28"/>
      <path d="M 48.6875 27.296875 
Q 48.6875 37.203125 44.609375 42.84375 
Q 40.53125 48.484375 33.40625 48.484375 
Q 26.265625 48.484375 22.1875 42.84375 
Q 18.109375 37.203125 18.109375 27.296875 
Q 18.109375 17.390625 22.1875 11.75 
Q 26.265625 6.109375 33.40625 6.109375 
Q 40.53125 6.109375 44.609375 11.75 
Q 48.6875 17.390625 48.6875 27.296875 
z
M 18.109375 46.390625 
Q 20.953125 51.265625 25.265625 53.625 
Q 29.59375 56 35.59375 56 
Q 45.5625 56 51.78125 48.09375 
Q 58.015625 40.1875 58.015625 27.296875 
Q 58.015625 14.40625 51.78125 6.484375 
Q 45.5625 -1.421875 35.59375 -1.421875 
Q 29.59375 -1.421875 25.265625 0.953125 
Q 20.953125 3.328125 18.109375 8.203125 
L 18.109375 0 
L 9.078125 0 
L 9.078125 75.984375 
L 18.109375 75.984375 
z
" id="DejaVuSans-62"/>
      <path d="M 18.109375 8.203125 
L 18.109375 -20.796875 
L 9.078125 -20.796875 
L 9.078125 54.6875 
L 18.109375 54.6875 
L 18.109375 46.390625 
Q 20.953125 51.265625 25.265625 53.625 
Q 29.59375 56 35.59375 56 
Q 45.5625 56 51.78125 48.09375 
Q 58.015625 40.1875 58.015625 27.296875 
Q 58.015625 14.40625 51.78125 6.484375 
Q 45.5625 -1.421875 35.59375 -1.421875 
Q 29.59375 -1.421875 25.265625 0.953125 
Q 20.953125 3.328125 18.109375 8.203125 
z
M 48.6875 27.296875 
Q 48.6875 37.203125 44.609375 42.84375 
Q 40.53125 48.484375 33.40625 48.484375 
Q 26.265625 48.484375 22.1875 42.84375 
Q 18.109375 37.203125 18.109375 27.296875 
Q 18.109375 17.390625 22.1875 11.75 
Q 26.265625 6.109375 33.40625 6.109375 
Q 40.53125 6.109375 44.609375 11.75 
Q 48.6875 17.390625 48.6875 27.296875 
z
" id="DejaVuSans-70"/>
      <path d="M 8.015625 75.875 
L 15.828125 75.875 
Q 23.140625 64.359375 26.78125 53.3125 
Q 30.421875 42.28125 30.421875 31.390625 
Q 30.421875 20.453125 26.78125 9.375 
Q 23.140625 -1.703125 15.828125 -13.1875 
L 8.015625 -13.1875 
Q 14.5 -2 17.703125 9.0625 
Q 20.90625 20.125 20.90625 31.390625 
Q 20.90625 42.671875 17.703125 53.65625 
Q 14.5 64.65625 8.015625 75.875 
z
" id="DejaVuSans-29"/>
     </defs>
     <g transform="translate(459.799219 407.990437)scale(0.1 -0.1)">
      <use xlink:href="#DejaVuSans-50"/>
      <use x="60.255859" xlink:href="#DejaVuSans-6f"/>
      <use x="121.4375" xlink:href="#DejaVuSans-73"/>
      <use x="173.537109" xlink:href="#DejaVuSans-69"/>
      <use x="201.320312" xlink:href="#DejaVuSans-74"/>
      <use x="240.529297" xlink:href="#DejaVuSans-69"/>
      <use x="268.3125" xlink:href="#DejaVuSans-6f"/>
      <use x="329.494141" xlink:href="#DejaVuSans-6e"/>
      <use x="392.873047" xlink:href="#DejaVuSans-20"/>
      <use x="424.660156" xlink:href="#DejaVuSans-69"/>
      <use x="452.443359" xlink:href="#DejaVuSans-6e"/>
      <use x="515.822266" xlink:href="#DejaVuSans-20"/>
      <use x="547.609375" xlink:href="#DejaVuSans-52"/>
      <use x="617.029297" xlink:href="#DejaVuSans-65"/>
      <use x="678.552734" xlink:href="#DejaVuSans-61"/>
      <use x="739.832031" xlink:href="#DejaVuSans-64"/>
      <use x="803.308594" xlink:href="#DejaVuSans-20"/>
      <use x="835.095703" xlink:href="#DejaVuSans-28"/>
      <use x="874.109375" xlink:href="#DejaVuSans-62"/>
      <use x="937.585938" xlink:href="#DejaVuSans-70"/>
      <use x="1001.0625" xlink:href="#DejaVuSans-29"/>
     </g>
    </g>
   </g>
   <g id="matplotlib.axis_2">
    <g id="ytick_1">
     <g id="line2d_1">
      <path clip-path="url(#p8ad0150823)" d="M 32.968125 381.6495 
L 990.638125 381.6495 
" style="fill:none;stroke:#dedede;stroke-linecap:square;"/>
     </g>
     <g id="text_8">
      <!-- 0 -->
      <g transform="translate(20.878125 384.688875)scale(0.08 -0.08)">
       <use xlink:href="#DejaVuSans-30"/>
      </g>
     </g>
    </g>
    <g id="ytick_2">
     <g id="line2d_2">
      <path clip-path="url(#p8ad0150823)" d="M 32.968125 312.422427 
L 990.638125 312.422427 
" style="fill:none;stroke:#dedede;stroke-linecap:square;"/>
     </g>
     <g id="text_9">
      <!-- 2 -->
      <g transform="translate(20.878125 315.461802)scale(0.08 -0.08)">
       <use xlink:href="#DejaVuSans-32"/>
      </g>
     </g>
    </g>
    <g id="ytick_3">
     <g id="line2d_3">
      <path clip-path="url(#p8ad0150823)" d="M 32.968125 243.195354 
L 990.638125 243.195354 
" style="fill:none;stroke:#dedede;stroke-linecap:square;"/>
     </g>
     <g id="text_10">
      <!-- 4 -->
      <g transform="translate(20.878125 246.234729)scale(0.08 -0.08)">
       <use xlink:href="#DejaVuSans-34"/>
      </g>
     </g>
    </g>
    <g id="ytick_4">
     <g id="line2d_4">
      <path clip-path="url(#p8ad0150823)" d="M 32.968125 173.968281 
L 990.638125 173.968281 
" style="fill:none;stroke:#dedede;stroke-linecap:square;"/>
     </g>
     <g id="text_11">
      <!-- 6 -->
      <g transform="translate(20.878125 177.007656)scale(0.08 -0.08)">
       <use xlink:href="#DejaVuSans-36"/>
      </g>
     </g>
    </g>
    <g id="ytick_5">
     <g id="line2d_5">
      <path clip-path="url(#p8ad0150823)" d="M 32.968125 104.741208 
L 990.638125 104.741208 
" style="fill:none;stroke:#dedede;stroke-linecap:square;"/>
     </g>
     <g id="text_12">
      <!-- 8 -->
      <g transform="translate(20.878125 107.780583)scale(0.08 -0.08)">
       <use xlink:href="#DejaVuSans-38"/>
      </g>
     </g>
    </g>
    <g id="text_13">
     <!-- Percentage N-Count -->
     <defs>
      <path d="M 41.109375 46.296875 
Q 39.59375 47.171875 37.8125 47.578125 
Q 36.03125 48 33.890625 48 
Q 26.265625 48 22.1875 43.046875 
Q 18.109375 38.09375 18.109375 28.8125 
L 18.109375 0 
L 9.078125 0 
L 9.078125 54.6875 
L 18.109375 54.6875 
L 18.109375 46.1875 
Q 20.953125 51.171875 25.484375 53.578125 
Q 30.03125 56 36.53125 56 
Q 37.453125 56 38.578125 55.875 
Q 39.703125 55.765625 41.0625 55.515625 
z
" id="DejaVuSans-72"/>
      <path d="M 48.78125 52.59375 
L 48.78125 44.1875 
Q 44.96875 46.296875 41.140625 47.34375 
Q 37.3125 48.390625 33.40625 48.390625 
Q 24.65625 48.390625 19.8125 42.84375 
Q 14.984375 37.3125 14.984375 27.296875 
Q 14.984375 17.28125 19.8125 11.734375 
Q 24.65625 6.203125 33.40625 6.203125 
Q 37.3125 6.203125 41.140625 7.25 
Q 44.96875 8.296875 48.78125 10.40625 
L 48.78125 2.09375 
Q 45.015625 0.34375 40.984375 -0.53125 
Q 36.96875 -1.421875 32.421875 -1.421875 
Q 20.0625 -1.421875 12.78125 6.34375 
Q 5.515625 14.109375 5.515625 27.296875 
Q 5.515625 40.671875 12.859375 48.328125 
Q 20.21875 56 33.015625 56 
Q 37.15625 56 41.109375 55.140625 
Q 45.0625 54.296875 48.78125 52.59375 
z
" id="DejaVuSans-63"/>
      <path d="M 45.40625 27.984375 
Q 45.40625 37.75 41.375 43.109375 
Q 37.359375 48.484375 30.078125 48.484375 
Q 22.859375 48.484375 18.828125 43.109375 
Q 14.796875 37.75 14.796875 27.984375 
Q 14.796875 18.265625 18.828125 12.890625 
Q 22.859375 7.515625 30.078125 7.515625 
Q 37.359375 7.515625 41.375 12.890625 
Q 45.40625 18.265625 45.40625 27.984375 
z
M 54.390625 6.78125 
Q 54.390625 -7.171875 48.1875 -13.984375 
Q 42 -20.796875 29.203125 -20.796875 
Q 24.46875 -20.796875 20.265625 -20.09375 
Q 16.0625 -19.390625 12.109375 -17.921875 
L 12.109375 -9.1875 
Q 16.0625 -11.328125 19.921875 -12.34375 
Q 23.78125 -13.375 27.78125 -13.375 
Q 36.625 -13.375 41.015625 -8.765625 
Q 45.40625 -4.15625 45.40625 5.171875 
L 45.40625 9.625 
Q 42.625 4.78125 38.28125 2.390625 
Q 33.9375 0 27.875 0 
Q 17.828125 0 11.671875 7.65625 
Q 5.515625 15.328125 5.515625 27.984375 
Q 5.515625 40.671875 11.671875 48.328125 
Q 17.828125 56 27.875 56 
Q 33.9375 56 38.28125 53.609375 
Q 42.625 51.21875 45.40625 46.390625 
L 45.40625 54.6875 
L 54.390625 54.6875 
z
" id="DejaVuSans-67"/>
      <path d="M 9.8125 72.90625 
L 23.09375 72.90625 
L 55.421875 11.921875 
L 55.421875 72.90625 
L 64.984375 72.90625 
L 64.984375 0 
L 51.703125 0 
L 19.390625 60.984375 
L 19.390625 0 
L 9.8125 0 
z
" id="DejaVuSans-4e"/>
      <path d="M 4.890625 31.390625 
L 31.203125 31.390625 
L 31.203125 23.390625 
L 4.890625 23.390625 
z
" id="DejaVuSans-2d"/>
      <path d="M 64.40625 67.28125 
L 64.40625 56.890625 
Q 59.421875 61.53125 53.78125 63.8125 
Q 48.140625 66.109375 41.796875 66.109375 
Q 29.296875 66.109375 22.65625 58.46875 
Q 16.015625 50.828125 16.015625 36.375 
Q 16.015625 21.96875 22.65625 14.328125 
Q 29.296875 6.6875 41.796875 6.6875 
Q 48.140625 6.6875 53.78125 8.984375 
Q 59.421875 11.28125 64.40625 15.921875 
L 64.40625 5.609375 
Q 59.234375 2.09375 53.4375 0.328125 
Q 47.65625 -1.421875 41.21875 -1.421875 
Q 24.65625 -1.421875 15.125 8.703125 
Q 5.609375 18.84375 5.609375 36.375 
Q 5.609375 53.953125 15.125 64.078125 
Q 24.65625 74.21875 41.21875 74.21875 
Q 47.75 74.21875 53.53125 72.484375 
Q 59.328125 70.75 64.40625 67.28125 
z
" id="DejaVuSans-43"/>
      <path d="M 8.5 21.578125 
L 8.5 54.6875 
L 17.484375 54.6875 
L 17.484375 21.921875 
Q 17.484375 14.15625 20.5 10.265625 
Q 23.53125 6.390625 29.59375 6.390625 
Q 36.859375 6.390625 41.078125 11.03125 
Q 45.3125 15.671875 45.3125 23.6875 
L 45.3125 54.6875 
L 54.296875 54.6875 
L 54.296875 0 
L 45.3125 0 
L 45.3125 8.40625 
Q 42.046875 3.421875 37.71875 1 
Q 33.40625 -1.421875 27.6875 -1.421875 
Q 18.265625 -1.421875 13.375 4.4375 
Q 8.5 10.296875 8.5 21.578125 
z
M 31.109375 56 
z
" id="DejaVuSans-75"/>
     </defs>
     <g transform="translate(14.798438 259.524031)rotate(-90)scale(0.1 -0.1)">
      <use xlink:href="#DejaVuSans-50"/>
      <use x="60.255859" xlink:href="#DejaVuSans-65"/>
      <use x="121.779297" xlink:href="#DejaVuSans-72"/>
      <use x="162.861328" xlink:href="#DejaVuSans-63"/>
      <use x="217.841797" xlink:href="#DejaVuSans-65"/>
      <use x="279.365234" xlink:href="#DejaVuSans-6e"/>
      <use x="342.744141" xlink:href="#DejaVuSans-74"/>
      <use x="381.953125" xlink:href="#DejaVuSans-61"/>
      <use x="443.232422" xlink:href="#DejaVuSans-67"/>
      <use x="506.708984" xlink:href="#DejaVuSans-65"/>
      <use x="568.232422" xlink:href="#DejaVuSans-20"/>
      <use x="600.019531" xlink:href="#DejaVuSans-4e"/>
      <use x="674.824219" xlink:href="#DejaVuSans-2d"/>
      <use x="710.908203" xlink:href="#DejaVuSans-43"/>
      <use x="780.732422" xlink:href="#DejaVuSans-6f"/>
      <use x="841.914062" xlink:href="#DejaVuSans-75"/>
      <use x="905.292969" xlink:href="#DejaVuSans-6e"/>
      <use x="968.671875" xlink:href="#DejaVuSans-74"/>
     </g>
    </g>
   </g>
   <g id="line2d_6">
    <path clip-path="url(#p8ad0150823)" d="M 42.093137 381.6495 
L 51.218149 381.6495 
L 60.343161 381.6495 
L 69.468173 381.6495 
L 78.593185 381.6495 
L 87.718196 381.6495 
L 96.843208 381.6495 
L 105.96822 381.6495 
L 115.093232 381.6495 
L 124.218244 381.6495 
L 142.468268 381.6495 
L 160.718292 381.6495 
L 178.968316 381.6495 
L 197.218339 381.6495 
L 215.468363 381.6495 
L 233.718387 381.6495 
L 251.968411 381.6495 
L 270.218435 381.6495 
L 288.468458 381.6495 
L 306.718482 381.6495 
L 324.968506 381.6495 
L 343.21853 381.6495 
L 361.468554 381.6495 
L 379.718578 381.6495 
L 397.968601 381.6495 
L 416.218625 381.6495 
L 434.468649 381.6495 
L 452.718673 381.6495 
L 470.968697 381.6495 
L 489.218721 381.6495 
L 507.468744 381.6495 
L 525.718768 381.6495 
L 543.968792 381.6495 
L 562.218816 381.6495 
L 580.46884 381.6495 
L 598.718863 381.6495 
L 616.968887 381.6495 
L 635.218911 381.6495 
L 653.468935 381.6495 
L 671.718959 113.0962 
L 689.968983 381.6495 
L 708.219006 381.6495 
L 726.46903 381.6495 
L 744.719054 381.6495 
L 762.969078 381.6495 
L 781.219102 381.6495 
L 799.469125 381.6495 
L 817.719149 381.6495 
L 835.969173 381.6495 
L 854.219197 381.6495 
L 872.469221 381.6495 
L 890.719245 381.6495 
L 908.969268 381.6495 
L 927.219292 381.6495 
L 945.469316 381.6495 
" style="fill:none;stroke:#f0ad4e;stroke-linecap:square;"/>
   </g>
   <g id="line2d_7">
    <path clip-path="url(#p8ad0150823)" d="M 42.093137 381.6495 
L 51.218149 381.6495 
L 60.343161 381.6495 
L 69.468173 381.6495 
L 78.593185 381.6495 
L 87.718196 381.6495 
L 96.843208 381.6495 
L 105.96822 381.6495 
L 115.093232 381.6495 
L 124.218244 381.6495 
L 142.468268 381.6495 
L 160.718292 381.6495 
L 178.968316 381.6495 
L 197.218339 381.6495 
L 215.468363 381.6495 
L 233.718387 381.6495 
L 251.968411 381.6495 
L 270.218435 381.6495 
L 288.468458 381.6495 
L 306.718482 381.6495 
L 324.968506 381.6495 
L 343.21853 381.6495 
L 361.468554 381.6495 
L 379.718578 381.6495 
L 397.968601 381.6495 
L 416.218625 381.6495 
L 434.468649 381.6495 
L 452.718673 381.6495 
L 470.968697 381.6495 
L 489.218721 381.6495 
L 507.468744 381.6495 
L 525.718768 381.6495 
L 543.968792 381.6495 
L 562.218816 381.6495 
L 580.46884 381.6495 
L 598.718863 381.6495 
L 616.968887 381.6495 
L 635.218911 381.6495 
L 653.468935 381.6495 
L 671.718959 381.6495 
L 689.968983 381.6495 
L 708.219006 381.6495 
L 726.46903 381.6495 
L 744.719054 381.6495 
L 762.969078 381.6495 
L 781.219102 381.6495 
L 799.469125 381.6495 
L 817.719149 381.6495 
L 835.969173 381.6495 
L 854.219197 381.6495 
L 872.469221 381.6495 
L 890.719245 381.6495 
L 908.969268 381.6495 
L 927.219292 381.6495 
L 945.469316 381.6495 
" style="fill:none;stroke:#5cb85c;stroke-linecap:square;"/>
   </g>
   <g id="line2d_8">
    <path clip-path="url(#p8ad0150823)" d="M 42.093137 381.6495 
L 51.218149 381.6495 
L 60.343161 381.6495 
L 69.468173 381.6495 
L 78.593185 381.6495 
L 87.718196 381.6495 
L 96.843208 381.6495 
L 105.96822 381.6495 
L 115.093232 381.6495 
L 124.218244 381.6495 
L 142.468268 381.6495 
L 160.718292 381.6495 
L 178.968316 381.6495 
L 197.218339 381.6495 
L 215.468363 381.6495 
L 233.718387 381.6495 
L 251.968411 381.6495 
L 270.218435 381.6495 
L 288.468458 381.6495 
L 306.718482 381.6495 
L 324.968506 381.6495 
L 343.21853 381.6495 
L 361.468554 381.6495 
L 379.718578 381.6495 
L 397.968601 381.6495 
L 416.218625 381.6495 
L 434.468649 381.6495 
L 452.718673 381.6495 
L 470.968697 381.6495 
L 489.218721 381.6495 
L 507.468744 381.6495 
L 525.718768 381.6495 
L 543.968792 381.6495 
L 562.218816 381.6495 
L 580.46884 381.6495 
L 598.718863 381.6495 
L 616.968887 381.6495 
L 635.218911 381.6495 
L 653.468935 381.6495 
L 671.718959 381.6495 
L 689.968983 381.6495 
L 708.219006 381.6495 
L 726.46903 381.6495 
L 744.719054 381.6495 
L 762.969078 381.6495 
L 781.219102 381.6495 
L 799.469125 381.6495 
L 817.719149 381.6495 
L 835.969173 381.6495 
L 854.219197 381.6495 
L 872.469221 381.6495 
L 890.719245 381.6495 
L 908.969268 381.6495 
L 927.219292 381.6495 
L 945.469316 381.6495 
" style="fill:none;stroke:#5cb85c;stroke-linecap:square;"/>
   </g>
   <g id="line2d_9">
    <path clip-path="url(#p8ad0150823)" d="M 42.093137 381.6495 
L 51.218149 381.6495 
L 60.343161 381.6495 
L 69.468173 381.6495 
L 78.593185 381.6495 
L 87.718196 381.6495 
L 96.843208 381.6495 
L 105.96822 381.6495 
L 115.093232 381.6495 
L 124.218244 381.6495 
L 142.468268 381.6495 
L 160.718292 381.6495 
L 178.968316 381.6495 
L 197.218339 381.6495 
L 215.468363 381.6495 
L 233.718387 381.6495 
L 251.968411 381.6495 
L 270.218435 381.6495 
L 288.468458 381.6495 
L 306.718482 381.6495 
L 324.968506 381.6495 
L 343.21853 381.6495 
L 361.468554 381.6495 
L 379.718578 381.6495 
L 397.968601 381.6495 
L 416.218625 381.6495 
L 434.468649 381.6495 
L 452.718673 381.6495 
L 470.968697 381.6495 
L 489.218721 381.6495 
L 507.468744 381.6495 
L 525.718768 381.6495 
L 543.968792 381.6495 
L 562.218816 381.6495 
L 580.46884 381.6495 
L 598.718863 381.6495 
L 616.968887 381.6495 
L 635.218911 381.6495 
L 653.468935 381.6495 
L 671.718959 381.6495 
L 689.968983 381.6495 
L 708.219006 381.6495 
L 726.46903 381.6495 
L 744.719054 381.6495 
L 762.969078 381.6495 
L 781.219102 381.6495 
L 799.469125 381.6495 
L 817.719149 381.6495 
L 835.969173 381.6495 
L 854.219197 381.6495 
L 872.469221 381.6495 
L 890.719245 381.6495 
L 908.969268 381.6495 
L 927.219292 381.6495 
L 945.469316 381.6495 
" style="fill:none;stroke:#5cb85c;stroke-linecap:square;"/>
   </g>
   <g id="line2d_10">
    <path clip-path="url(#p8ad0150823)" d="M 42.093137 381.6495 
L 51.218149 381.6495 
L 60.343161 381.6495 
L 69.468173 381.6495 
L 78.593185 381.6495 
L 87.718196 381.6495 
L 96.843208 381.6495 
L 105.96822 381.6495 
L 115.093232 381.6495 
L 124.218244 381.6495 
L 142.468268 381.6495 
L 160.718292 381.6495 
L 178.968316 381.6495 
L 197.218339 381.6495 
L 215.468363 381.6495 
L 233.718387 381.6495 
L 251.968411 381.6495 
L 270.218435 381.6495 
L 288.468458 381.6495 
L 306.718482 381.6495 
L 324.968506 381.6495 
L 343.21853 381.6495 
L 361.468554 381.6495 
L 379.718578 381.6495 
L 397.968601 381.6495 
L 416.218625 381.6495 
L 434.468649 381.6495 
L 452.718673 381.6495 
L 470.968697 381.6495 
L 489.218721 381.6495 
L 507.468744 381.6495 
L 525.718768 381.6495 
L 543.968792 381.6495 
L 562.218816 381.6495 
L 580.46884 381.6495 
L 598.718863 381.6495 
L 616.968887 381.6495 
L 635.218911 381.6495 
L 653.468935 381.6495 
L 671.718959 381.6495 
L 689.968983 381.6495 
L 708.219006 381.6495 
L 726.46903 381.6495 
L 744.719054 381.6495 
L 762.969078 381.6495 
L 781.219102 381.6495 
L 799.469125 381.6495 
L 817.719149 381.6495 
L 835.969173 381.6495 
L 854.219197 381.6495 
L 872.469221 381.6495 
L 890.719245 381.6495 
L 908.969268 381.6495 
L 927.219292 381.6495 
L 945.469316 381.6495 
" style="fill:none;stroke:#5cb85c;stroke-linecap:square;"/>
   </g>
   <g id="line2d_11">
    <path clip-path="url(#p8ad0150823)" d="M 42.093137 381.6495 
L 51.218149 381.6495 
L 60.343161 381.6495 
L 69.468173 381.6495 
L 78.593185 381.6495 
L 87.718196 381.6495 
L 96.843208 381.6495 
L 105.96822 381.6495 
L 115.093232 381.6495 
L 124.218244 381.6495 
L 142.468268 381.6495 
L 160.718292 381.6495 
L 178.968316 381.6495 
L 197.218339 381.6495 
L 215.468363 381.6495 
L 233.718387 381.6495 
L 251.968411 381.6495 
L 270.218435 381.6495 
L 288.468458 381.6495 
L 306.718482 381.6495 
L 324.968506 381.6495 
L 343.21853 381.6495 
L 361.468554 381.6495 
L 379.718578 381.6495 
L 397.968601 381.6495 
L 416.218625 381.6495 
L 434.468649 381.6495 
L 452.718673 381.6495 
L 470.968697 381.6495 
L 489.218721 381.6495 
L 507.468744 381.6495 
L 525.718768 381.6495 
L 543.968792 381.6495 
L 562.218816 381.6495 
L 580.46884 381.6495 
L 598.718863 381.6495 
L 616.968887 381.6495 
L 635.218911 381.6495 
L 653.468935 381.6495 
L 671.718959 381.6495 
L 689.968983 381.6495 
L 708.219006 381.6495 
L 726.46903 381.6495 
L 744.719054 381.6495 
L 762.969078 381.6495 
L 781.219102 381.6495 
L 799.469125 381.6495 
L 817.719149 381.6495 
L 835.969173 381.6495 
L 854.219197 381.6495 
L 872.469221 381.6495 
L 890.719245 381.6495 
L 908.969268 381.6495 
L 927.219292 381.6495 
L 945.469316 381.6495 
" style="fill:none;stroke:#5cb85c;stroke-linecap:square;"/>
   </g>
   <g id="line2d_12">
    <path clip-path="url(#p8ad0150823)" d="M 42.093137 381.6495 
L 51.218149 381.6495 
L 60.343161 381.6495 
L 69.468173 381.6495 
L 78.593185 381.6495 
L 87.718196 381.6495 
L 96.843208 381.6495 
L 105.96822 381.6495 
L 115.093232 381.6495 
L 124.218244 381.6495 
L 142.468268 381.6495 
L 160.718292 381.6495 
L 178.968316 381.6495 
L 197.218339 381.6495 
L 215.468363 381.6495 
L 233.718387 381.6495 
L 251.968411 381.6495 
L 270.218435 381.6495 
L 288.468458 381.6495 
L 306.718482 381.6495 
L 324.968506 381.6495 
L 343.21853 381.6495 
L 361.468554 381.6495 
L 379.718578 381.6495 
L 397.968601 381.6495 
L 416.218625 381.6495 
L 434.468649 381.6495 
L 452.718673 381.6495 
L 470.968697 381.6495 
L 489.218721 381.6495 
L 507.468744 381.6495 
L 525.718768 381.6495 
L 543.968792 381.6495 
L 562.218816 381.6495 
L 580.46884 381.6495 
L 598.718863 381.6495 
L 616.968887 381.6495 
L 635.218911 381.6495 
L 653.468935 381.6495 
L 671.718959 381.6495 
L 689.968983 381.6495 
L 708.219006 381.6495 
L 726.46903 381.6495 
L 744.719054 381.6495 
L 762.969078 381.6495 
L 781.219102 381.6495 
L 799.469125 381.6495 
L 817.719149 381.6495 
L 835.969173 381.6495 
L 854.219197 381.6495 
L 872.469221 381.6495 
L 890.719245 381.6495 
L 908.969268 381.6495 
L 927.219292 381.6495 
L 945.469316 381.6495 
" style="fill:none;stroke:#5cb85c;stroke-linecap:square;"/>
   </g>
   <g id="line2d_13">
    <path clip-path="url(#p8ad0150823)" d="M 42.093137 381.6495 
L 51.218149 381.6495 
L 60.343161 381.6495 
L 69.468173 381.6495 
L 78.593185 381.6495 
L 87.718196 381.6495 
L 96.843208 381.6495 
L 105.96822 381.6495 
L 115.093232 381.6495 
L 124.218244 381.6495 
L 142.468268 381.6495 
L 160.718292 381.6495 
L 178.968316 381.6495 
L 197.218339 381.6495 
L 215.468363 381.6495 
L 233.718387 381.6495 
L 251.968411 381.6495 
L 270.218435 381.6495 
L 288.468458 381.6495 
L 306.718482 381.6495 
L 324.968506 381.6495 
L 343.21853 381.6495 
L 361.468554 381.6495 
L 379.718578 381.6495 
L 397.968601 381.6495 
L 416.218625 381.6495 
L 434.468649 381.6495 
L 452.718673 381.6495 
L 470.968697 381.6495 
L 489.218721 381.6495 
L 507.468744 381.6495 
L 525.718768 381.6495 
L 543.968792 381.6495 
L 562.218816 381.6495 
L 580.46884 381.6495 
L 598.718863 381.6495 
L 616.968887 381.6495 
L 635.218911 381.6495 
L 653.468935 381.6495 
L 671.718959 381.6495 
L 689.968983 381.6495 
L 708.219006 381.6495 
L 726.46903 381.6495 
L 744.719054 381.6495 
L 762.969078 381.6495 
L 781.219102 381.6495 
L 799.469125 381.6495 
L 817.719149 381.6495 
L 835.969173 381.6495 
L 854.219197 381.6495 
L 872.469221 381.6495 
L 890.719245 381.6495 
L 908.969268 381.6495 
L 927.219292 381.6495 
L 945.469316 381.6495 
" style="fill:none;stroke:#5cb85c;stroke-linecap:square;"/>
   </g>
   <g id="line2d_14">
    <path clip-path="url(#p8ad0150823)" d="M 42.093137 381.6495 
L 51.218149 381.6495 
L 60.343161 381.6495 
L 69.468173 381.6495 
L 78.593185 381.6495 
L 87.718196 381.6495 
L 96.843208 381.6495 
L 105.96822 381.6495 
L 115.093232 381.6495 
L 124.218244 381.6495 
L 142.468268 381.6495 
L 160.718292 381.6495 
L 178.968316 381.6495 
L 197.218339 381.6495 
L 215.468363 381.6495 
L 233.718387 381.6495 
L 251.968411 381.6495 
L 270.218435 381.6495 
L 288.468458 381.6495 
L 306.718482 381.6495 
L 324.968506 381.6495 
L 343.21853 381.6495 
L 361.468554 381.6495 
L 379.718578 381.6495 
L 397.968601 381.6495 
L 416.218625 381.6495 
L 434.468649 381.6495 
L 452.718673 381.6495 
L 470.968697 381.6495 
L 489.218721 381.6495 
L 507.468744 381.6495 
L 525.718768 381.6495 
L 543.968792 381.6495 
L 562.218816 381.6495 
L 580.46884 381.6495 
L 598.718863 381.6495 
L 616.968887 381.6495 
L 635.218911 381.6495 
L 653.468935 381.6495 
L 671.718959 381.6495 
L 689.968983 381.6495 
L 708.219006 381.6495 
L 726.46903 381.6495 
L 744.719054 381.6495 
L 762.969078 381.6495 
L 781.219102 381.6495 
L 799.469125 381.6495 
L 817.719149 381.6495 
L 835.969173 381.6495 
L 854.219197 381.6495 
L 872.469221 381.6495 
L 890.719245 381.6495 
L 908.969268 381.6495 
L 927.219292 381.6495 
L 945.469316 381.6495 
" style="fill:none;stroke:#5cb85c;stroke-linecap:square;"/>
   </g>
   <g id="line2d_15">
    <path clip-path="url(#p8ad0150823)" d="M 42.093137 381.6495 
L 51.218149 381.6495 
L 60.343161 381.6495 
L 69.468173 381.6495 
L 78.593185 381.6495 
L 87.718196 381.6495 
L 96.843208 381.6495 
L 105.96822 381.6495 
L 115.093232 381.6495 
L 124.218244 381.6495 
L 142.468268 381.6495 
L 160.718292 381.6495 
L 178.968316 381.6495 
L 197.218339 381.6495 
L 215.468363 381.6495 
L 233.718387 381.6495 
L 251.968411 381.6495 
L 270.218435 381.6495 
L 288.468458 381.6495 
L 306.718482 381.6495 
L 324.968506 381.6495 
L 343.21853 381.6495 
L 361.468554 381.6495 
L 379.718578 381.6495 
L 397.968601 381.6495 
L 416.218625 381.6495 
L 434.468649 381.6495 
L 452.718673 381.6495 
L 470.968697 381.6495 
L 489.218721 381.6495 
L 507.468744 381.6495 
L 525.718768 381.6495 
L 543.968792 381.6495 
L 562.218816 381.6495 
L 580.46884 381.6495 
L 598.718863 381.6495 
L 616.968887 381.6495 
L 635.218911 381.6495 
L 653.468935 381.6495 
L 671.718959 381.6495 
L 689.968983 381.6495 
L 708.219006 381.6495 
L 726.46903 381.6495 
L 744.719054 381.6495 
L 762.969078 381.6495 
L 781.219102 381.6495 
L 799.469125 381.6495 
L 817.719149 381.6495 
L 835.969173 381.6495 
L 854.219197 381.6495 
L 872.469221 381.6495 
L 890.719245 381.6495 
L 908.969268 381.6495 
L 927.219292 381.6495 
L 945.469316 381.6495 
" style="fill:none;stroke:#5cb85c;stroke-linecap:square;"/>
   </g>
   <g id="line2d_16">
    <path clip-path="url(#p8ad0150823)" d="M 42.093137 381.6495 
L 51.218149 381.6495 
L 60.343161 381.6495 
L 69.468173 381.6495 
L 78.593185 381.6495 
L 87.718196 381.6495 
L 96.843208 381.6495 
L 105.96822 381.6495 
L 115.093232 381.6495 
L 124.218244 381.6495 
L 142.468268 381.6495 
L 160.718292 381.6495 
L 178.968316 381.6495 
L 197.218339 381.6495 
L 215.468363 381.6495 
L 233.718387 381.6495 
L 251.968411 381.6495 
L 270.218435 381.6495 
L 288.468458 381.6495 
L 306.718482 381.6495 
L 324.968506 381.6495 
L 343.21853 381.6495 
L 361.468554 381.6495 
L 379.718578 381.6495 
L 397.968601 381.6495 
L 416.218625 381.6495 
L 434.468649 381.6495 
L 452.718673 381.6495 
L 470.968697 381.6495 
L 489.218721 272.112992 
L 507.468744 381.6495 
L 525.718768 381.6495 
L 543.968792 381.6495 
L 562.218816 381.6495 
L 580.46884 381.6495 
L 598.718863 381.6495 
L 616.968887 381.6495 
L 635.218911 381.6495 
L 653.468935 381.6495 
L 671.718959 381.6495 
L 689.968983 381.6495 
L 708.219006 381.6495 
L 726.46903 381.6495 
L 744.719054 381.6495 
L 762.969078 381.6495 
L 781.219102 381.6495 
L 799.469125 381.6495 
L 817.719149 381.6495 
L 835.969173 381.6495 
L 854.219197 381.6495 
L 872.469221 381.6495 
L 890.719245 381.6495 
L 908.969268 381.6495 
L 927.219292 381.6495 
L 945.469316 381.6495 
" style="fill:none;stroke:#5cb85c;stroke-linecap:square;"/>
   </g>
   <g id="line2d_17">
    <path clip-path="url(#p8ad0150823)" d="M 42.093137 381.6495 
L 51.218149 381.6495 
L 60.343161 381.6495 
L 69.468173 381.6495 
L 78.593185 381.6495 
L 87.718196 381.6495 
L 96.843208 381.6495 
L 105.96822 381.6495 
L 115.093232 381.6495 
L 124.218244 381.6495 
L 142.468268 381.6495 
L 160.718292 381.6495 
L 178.968316 381.6495 
L 197.218339 381.6495 
L 215.468363 381.6495 
L 233.718387 381.6495 
L 251.968411 381.6495 
L 270.218435 381.6495 
L 288.468458 381.6495 
L 306.718482 381.6495 
L 324.968506 53.039976 
L 343.21853 381.6495 
L 361.468554 381.6495 
L 379.718578 381.6495 
L 397.968601 381.6495 
L 416.218625 381.6495 
L 434.468649 381.6495 
L 452.718673 381.6495 
L 470.968697 381.6495 
L 489.218721 381.6495 
L 507.468744 381.6495 
L 525.718768 381.6495 
L 543.968792 381.6495 
L 562.218816 381.6495 
L 580.46884 381.6495 
L 598.718863 381.6495 
L 616.968887 381.6495 
L 635.218911 381.6495 
L 653.468935 381.6495 
L 671.718959 381.6495 
L 689.968983 381.6495 
L 708.219006 381.6495 
L 726.46903 381.6495 
L 744.719054 381.6495 
L 762.969078 381.6495 
L 781.219102 381.6495 
L 799.469125 381.6495 
L 817.719149 381.6495 
L 835.969173 381.6495 
L 854.219197 381.6495 
L 872.469221 381.6495 
L 890.719245 381.6495 
L 908.969268 381.6495 
L 927.219292 381.6495 
L 945.469316 381.6495 
" style="fill:none;stroke:#f0ad4e;stroke-linecap:square;"/>
   </g>
   <g id="line2d_18">
    <path clip-path="url(#p8ad0150823)" d="M 42.093137 377.670933 
L 51.218149 381.6495 
L 60.343161 381.6495 
L 69.468173 377.670933 
L 78.593185 381.6495 
L 87.718196 381.6495 
L 96.843208 381.6495 
L 105.96822 381.6495 
L 115.093232 381.6495 
L 124.218244 381.6495 
L 142.468268 381.6495 
L 160.718292 381.6495 
L 178.968316 381.6495 
L 197.218339 381.6495 
L 215.468363 381.6495 
L 233.718387 381.6495 
L 251.968411 381.6495 
L 270.218435 381.6495 
L 288.468458 381.6495 
L 306.718482 381.6495 
L 324.968506 381.6495 
L 343.21853 381.6495 
L 361.468554 381.6495 
L 379.718578 381.6495 
L 397.968601 381.6495 
L 416.218625 381.6495 
L 434.468649 381.6495 
L 452.718673 381.6495 
L 470.968697 381.6495 
L 489.218721 381.6495 
L 507.468744 381.6495 
L 525.718768 381.6495 
L 543.968792 381.6495 
L 562.218816 381.6495 
L 580.46884 381.6495 
L 598.718863 381.6495 
L 616.968887 381.6495 
L 635.218911 381.6495 
L 653.468935 381.6495 
L 671.718959 381.6495 
L 689.968983 381.6495 
L 708.219006 381.6495 
L 726.46903 381.6495 
L 744.719054 381.6495 
L 762.969078 381.6495 
L 781.219102 381.6495 
L 799.469125 381.6495 
L 817.719149 381.6495 
L 835.969173 381.6495 
L 854.219197 381.6495 
L 872.469221 381.6495 
L 890.719245 381.6495 
L 908.969268 381.6495 
L 927.219292 381.6495 
L 945.469316 375.681649 
" style="fill:none;stroke:#5cb85c;stroke-linecap:square;"/>
   </g>
   <g id="line2d_19">
    <path clip-path="url(#p8ad0150823)" d="M 42.093137 381.6495 
L 51.218149 381.6495 
L 60.343161 381.6495 
L 69.468173 381.6495 
L 78.593185 381.6495 
L 87.718196 381.6495 
L 96.843208 381.6495 
L 105.96822 381.6495 
L 115.093232 381.6495 
L 124.218244 381.6495 
L 142.468268 381.6495 
L 160.718292 381.6495 
L 178.968316 381.6495 
L 197.218339 381.6495 
L 215.468363 381.6495 
L 233.718387 381.6495 
L 251.968411 381.6495 
L 270.218435 381.6495 
L 288.468458 381.6495 
L 306.718482 381.6495 
L 324.968506 381.6495 
L 343.21853 381.6495 
L 361.468554 381.6495 
L 379.718578 381.6495 
L 397.968601 381.6495 
L 416.218625 381.6495 
L 434.468649 381.6495 
L 452.718673 381.6495 
L 470.968697 381.6495 
L 489.218721 381.6495 
L 507.468744 381.6495 
L 525.718768 381.6495 
L 543.968792 381.6495 
L 562.218816 381.6495 
L 580.46884 381.6495 
L 598.718863 381.6495 
L 616.968887 381.6495 
L 635.218911 381.6495 
L 653.468935 381.6495 
L 671.718959 381.6495 
L 689.968983 381.6495 
L 708.219006 381.6495 
L 726.46903 381.6495 
L 744.719054 381.6495 
L 762.969078 381.6495 
L 781.219102 381.6495 
L 799.469125 381.6495 
L 817.719149 381.6495 
L 835.969173 381.6495 
L 854.219197 381.6495 
L 872.469221 381.6495 
L 890.719245 379.660216 
L 908.969268 377.670933 
L 927.219292 377.670933 
L 945.469316 363.745947 
" style="fill:none;stroke:#5cb85c;stroke-linecap:square;"/>
   </g>
   <g id="line2d_20">
    <path clip-path="url(#p8ad0150823)" d="M 42.093137 372.985286 
L 51.218149 381.6495 
L 60.343161 381.6495 
L 69.468173 381.6495 
L 78.593185 381.6495 
L 87.718196 381.6495 
L 96.843208 381.6495 
L 105.96822 381.6495 
L 115.093232 381.6495 
L 124.218244 381.6495 
L 142.468268 381.6495 
L 160.718292 381.6495 
L 178.968316 381.6495 
L 197.218339 381.6495 
L 215.468363 381.6495 
L 233.718387 381.6495 
L 251.968411 381.6495 
L 270.218435 381.6495 
L 288.468458 381.6495 
L 306.718482 381.6495 
L 324.968506 381.6495 
L 343.21853 381.6495 
L 361.468554 381.6495 
L 379.718578 381.6495 
L 397.968601 381.6495 
L 416.218625 381.6495 
L 434.468649 381.6495 
L 452.718673 381.6495 
L 470.968697 381.6495 
L 489.218721 381.6495 
L 507.468744 381.6495 
L 525.718768 381.6495 
L 543.968792 381.6495 
L 562.218816 381.6495 
L 580.46884 381.6495 
L 598.718863 381.6495 
L 616.968887 381.6495 
L 635.218911 381.6495 
L 653.468935 381.6495 
L 671.718959 381.6495 
L 689.968983 381.6495 
L 708.219006 381.6495 
L 726.46903 381.6495 
L 744.719054 381.6495 
L 762.969078 381.6495 
L 781.219102 381.6495 
L 799.469125 381.6495 
L 817.719149 381.6495 
L 835.969173 381.6495 
L 854.219197 381.6495 
L 872.469221 381.6495 
L 890.719245 381.6495 
L 908.969268 381.6495 
L 927.219292 381.6495 
L 945.469316 377.317393 
" style="fill:none;stroke:#5cb85c;stroke-linecap:square;"/>
   </g>
   <g id="line2d_21">
    <path clip-path="url(#p8ad0150823)" d="M 42.093137 381.6495 
L 51.218149 381.6495 
L 60.343161 381.6495 
L 69.468173 381.6495 
L 78.593185 381.6495 
L 87.718196 381.6495 
L 96.843208 381.6495 
L 105.96822 381.6495 
L 115.093232 381.6495 
L 124.218244 381.6495 
L 142.468268 381.6495 
L 160.718292 381.6495 
L 178.968316 381.6495 
L 197.218339 381.6495 
L 215.468363 381.6495 
L 233.718387 381.6495 
L 251.968411 381.6495 
L 270.218435 381.6495 
L 288.468458 381.6495 
L 306.718482 381.6495 
L 324.968506 381.6495 
L 343.21853 381.6495 
L 361.468554 381.6495 
L 379.718578 381.6495 
L 397.968601 381.6495 
L 416.218625 381.6495 
L 434.468649 381.6495 
L 452.718673 381.6495 
L 470.968697 381.6495 
L 489.218721 381.6495 
L 507.468744 381.6495 
L 525.718768 381.6495 
L 543.968792 381.6495 
L 562.218816 381.6495 
L 580.46884 381.6495 
L 598.718863 381.6495 
L 616.968887 381.6495 
L 635.218911 381.6495 
L 653.468935 381.6495 
L 671.718959 381.6495 
L 689.968983 381.6495 
L 708.219006 381.6495 
L 726.46903 381.6495 
L 744.719054 381.6495 
L 762.969078 381.6495 
L 781.219102 381.6495 
L 799.469125 381.6495 
L 817.719149 381.6495 
L 835.969173 381.6495 
L 854.219197 381.6495 
L 872.469221 381.6495 
L 890.719245 381.6495 
L 908.969268 381.6495 
L 927.219292 381.6495 
L 945.469316 372.985286 
" style="fill:none;stroke:#5cb85c;stroke-linecap:square;"/>
   </g>
   <g id="line2d_22">
    <path clip-path="url(#p8ad0150823)" d="M 42.093137 381.6495 
L 51.218149 381.6495 
L 60.343161 381.6495 
L 69.468173 381.6495 
L 78.593185 381.6495 
L 87.718196 381.6495 
L 96.843208 381.6495 
L 105.96822 381.6495 
L 115.093232 381.6495 
L 124.218244 381.6495 
L 142.468268 381.6495 
L 160.718292 381.6495 
L 178.968316 381.6495 
L 197.218339 381.6495 
L 215.468363 381.6495 
L 233.718387 381.6495 
L 251.968411 381.6495 
L 270.218435 381.6495 
L 288.468458 381.6495 
L 306.718482 381.6495 
L 324.968506 381.6495 
L 343.21853 381.6495 
L 361.468554 381.6495 
L 379.718578 381.6495 
L 397.968601 381.6495 
L 416.218625 381.6495 
L 434.468649 381.6495 
L 452.718673 381.6495 
L 470.968697 381.6495 
L 489.218721 381.6495 
L 507.468744 381.6495 
L 525.718768 381.6495 
L 543.968792 381.6495 
L 562.218816 381.6495 
L 580.46884 381.6495 
L 598.718863 381.6495 
L 616.968887 381.6495 
L 635.218911 381.6495 
L 653.468935 381.6495 
L 671.718959 381.6495 
L 689.968983 381.6495 
L 708.219006 381.6495 
L 726.46903 381.6495 
L 744.719054 381.6495 
L 762.969078 381.6495 
L 781.219102 381.6495 
L 799.469125 381.6495 
L 817.719149 381.6495 
L 835.969173 381.6495 
L 854.219197 381.6495 
L 872.469221 381.6495 
L 890.719245 381.6495 
L 908.969268 381.6495 
L 927.219292 381.6495 
L 945.469316 375.35613 
" style="fill:none;stroke:#5cb85c;stroke-linecap:square;"/>
   </g>
   <g id="line2d_23">
    <path clip-path="url(#p8ad0150823)" d="M 42.093137 381.6495 
L 51.218149 381.6495 
L 60.343161 381.6495 
L 69.468173 381.6495 
L 78.593185 381.6495 
L 87.718196 381.6495 
L 96.843208 381.6495 
L 105.96822 381.6495 
L 115.093232 381.6495 
L 124.218244 381.6495 
L 142.468268 381.6495 
L 160.718292 381.6495 
L 178.968316 381.6495 
L 197.218339 381.6495 
L 215.468363 381.6495 
L 233.718387 381.6495 
L 251.968411 381.6495 
L 270.218435 381.6495 
L 288.468458 381.6495 
L 306.718482 381.6495 
L 324.968506 381.6495 
L 343.21853 381.6495 
L 361.468554 381.6495 
L 379.718578 381.6495 
L 397.968601 381.6495 
L 416.218625 381.6495 
L 434.468649 381.6495 
L 452.718673 381.6495 
L 470.968697 381.6495 
L 489.218721 381.6495 
L 507.468744 381.6495 
L 525.718768 381.6495 
L 543.968792 381.6495 
L 562.218816 381.6495 
L 580.46884 381.6495 
L 598.718863 381.6495 
L 616.968887 381.6495 
L 635.218911 381.6495 
L 653.468935 381.6495 
L 671.718959 381.6495 
L 689.968983 381.6495 
L 708.219006 381.6495 
L 726.46903 381.6495 
L 744.719054 381.6495 
L 762.969078 381.6495 
L 781.219102 381.6495 
L 799.469125 381.6495 
L 817.719149 381.6495 
L 835.969173 381.6495 
L 854.219197 381.6495 
L 872.469221 381.6495 
L 890.719245 381.6495 
L 908.969268 381.6495 
L 927.219292 381.6495 
L 945.469316 369.062759 
" style="fill:none;stroke:#5cb85c;stroke-linecap:square;"/>
   </g>
   <g id="line2d_24">
    <path clip-path="url(#p8ad0150823)" d="M 42.093137 381.6495 
L 51.218149 381.6495 
L 60.343161 381.6495 
L 69.468173 377.943554 
L 78.593185 381.6495 
L 87.718196 381.6495 
L 96.843208 381.6495 
L 105.96822 381.6495 
L 115.093232 381.6495 
L 124.218244 381.6495 
L 142.468268 381.6495 
L 160.718292 381.6495 
L 178.968316 381.6495 
L 197.218339 381.6495 
L 215.468363 381.6495 
L 233.718387 381.6495 
L 251.968411 381.6495 
L 270.218435 381.6495 
L 288.468458 381.6495 
L 306.718482 381.6495 
L 324.968506 381.6495 
L 343.21853 381.6495 
L 361.468554 381.6495 
L 379.718578 381.6495 
L 397.968601 381.6495 
L 416.218625 381.6495 
L 434.468649 381.6495 
L 452.718673 381.6495 
L 470.968697 381.6495 
L 489.218721 381.6495 
L 507.468744 381.6495 
L 525.718768 381.6495 
L 543.968792 381.6495 
L 562.218816 381.6495 
L 580.46884 381.6495 
L 598.718863 381.6495 
L 616.968887 381.6495 
L 635.218911 381.6495 
L 653.468935 381.6495 
L 671.718959 381.6495 
L 689.968983 381.6495 
L 708.219006 381.6495 
L 726.46903 381.6495 
L 744.719054 381.6495 
L 762.969078 381.6495 
L 781.219102 381.6495 
L 799.469125 381.6495 
L 817.719149 381.6495 
L 835.969173 381.6495 
L 854.219197 381.6495 
L 872.469221 381.6495 
L 890.719245 381.6495 
L 908.969268 381.6495 
L 927.219292 381.6495 
L 945.469316 372.384635 
" style="fill:none;stroke:#5cb85c;stroke-linecap:square;"/>
   </g>
   <g id="line2d_25">
    <path clip-path="url(#p8ad0150823)" d="M 42.093137 381.6495 
L 51.218149 381.6495 
L 60.343161 381.6495 
L 69.468173 381.6495 
L 78.593185 381.6495 
L 87.718196 381.6495 
L 96.843208 381.6495 
L 105.96822 381.6495 
L 115.093232 381.6495 
L 124.218244 381.6495 
L 142.468268 381.6495 
L 160.718292 381.6495 
L 178.968316 381.6495 
L 197.218339 381.6495 
L 215.468363 381.6495 
L 233.718387 381.6495 
L 251.968411 381.6495 
L 270.218435 381.6495 
L 288.468458 381.6495 
L 306.718482 381.6495 
L 324.968506 381.6495 
L 343.21853 381.6495 
L 361.468554 381.6495 
L 379.718578 381.6495 
L 397.968601 381.6495 
L 416.218625 381.6495 
L 434.468649 381.6495 
L 452.718673 381.6495 
L 470.968697 381.6495 
L 489.218721 381.6495 
L 507.468744 381.6495 
L 525.718768 381.6495 
L 543.968792 381.6495 
L 562.218816 381.6495 
L 580.46884 381.6495 
L 598.718863 381.6495 
L 616.968887 381.6495 
L 635.218911 381.6495 
L 653.468935 381.6495 
L 671.718959 381.6495 
L 689.968983 381.6495 
L 708.219006 381.6495 
L 726.46903 381.6495 
L 744.719054 381.6495 
L 762.969078 381.6495 
L 781.219102 381.6495 
L 799.469125 381.6495 
L 817.719149 381.6495 
L 835.969173 381.6495 
L 854.219197 381.6495 
L 872.469221 381.6495 
L 890.719245 381.6495 
L 908.969268 381.6495 
L 927.219292 381.6495 
L 945.469316 370.531662 
" style="fill:none;stroke:#5cb85c;stroke-linecap:square;"/>
   </g>
   <g id="line2d_26">
    <path clip-path="url(#p8ad0150823)" d="M 42.093137 377.764704 
L 51.218149 381.6495 
L 60.343161 381.6495 
L 69.468173 373.879907 
L 78.593185 381.6495 
L 87.718196 381.6495 
L 96.843208 381.6495 
L 105.96822 381.6495 
L 115.093232 381.6495 
L 124.218244 381.6495 
L 142.468268 381.6495 
L 160.718292 381.6495 
L 178.968316 381.6495 
L 197.218339 381.6495 
L 215.468363 381.6495 
L 233.718387 381.6495 
L 251.968411 381.6495 
L 270.218435 381.6495 
L 288.468458 381.6495 
L 306.718482 381.6495 
L 324.968506 381.6495 
L 343.21853 381.6495 
L 361.468554 381.6495 
L 379.718578 381.6495 
L 397.968601 381.6495 
L 416.218625 381.6495 
L 434.468649 381.6495 
L 452.718673 381.6495 
L 470.968697 381.6495 
L 489.218721 381.6495 
L 507.468744 381.6495 
L 525.718768 381.6495 
L 543.968792 381.6495 
L 562.218816 381.6495 
L 580.46884 381.6495 
L 598.718863 381.6495 
L 616.968887 381.6495 
L 635.218911 381.6495 
L 653.468935 381.6495 
L 671.718959 381.6495 
L 689.968983 381.6495 
L 708.219006 381.6495 
L 726.46903 381.6495 
L 744.719054 381.6495 
L 762.969078 381.6495 
L 781.219102 381.6495 
L 799.469125 381.6495 
L 817.719149 381.6495 
L 835.969173 381.6495 
L 854.219197 381.6495 
L 872.469221 381.6495 
L 890.719245 381.6495 
L 908.969268 381.6495 
L 927.219292 381.6495 
L 945.469316 368.052712 
" style="fill:none;stroke:#5cb85c;stroke-linecap:square;"/>
   </g>
   <g id="line2d_27">
    <path clip-path="url(#p8ad0150823)" d="M 42.093137 377.764704 
L 51.218149 377.764704 
L 60.343161 377.764704 
L 69.468173 377.764704 
L 78.593185 381.6495 
L 87.718196 381.6495 
L 96.843208 381.6495 
L 105.96822 381.6495 
L 115.093232 381.6495 
L 124.218244 381.6495 
L 142.468268 381.6495 
L 160.718292 381.6495 
L 178.968316 381.6495 
L 197.218339 381.6495 
L 215.468363 381.6495 
L 233.718387 381.6495 
L 251.968411 381.6495 
L 270.218435 381.6495 
L 288.468458 381.6495 
L 306.718482 381.6495 
L 324.968506 381.6495 
L 343.21853 381.6495 
L 361.468554 381.6495 
L 379.718578 381.6495 
L 397.968601 381.6495 
L 416.218625 381.6495 
L 434.468649 381.6495 
L 452.718673 381.6495 
L 470.968697 381.6495 
L 489.218721 381.6495 
L 507.468744 381.6495 
L 525.718768 381.6495 
L 543.968792 381.6495 
L 562.218816 381.6495 
L 580.46884 381.6495 
L 598.718863 381.6495 
L 616.968887 381.6495 
L 635.218911 381.6495 
L 653.468935 381.6495 
L 671.718959 381.6495 
L 689.968983 381.6495 
L 708.219006 381.6495 
L 726.46903 381.6495 
L 744.719054 381.6495 
L 762.969078 381.6495 
L 781.219102 381.6495 
L 799.469125 381.6495 
L 817.719149 381.6495 
L 835.969173 381.6495 
L 854.219197 381.6495 
L 872.469221 381.6495 
L 890.719245 381.6495 
L 908.969268 381.6495 
L 927.219292 381.6495 
L 945.469316 366.110314 
" style="fill:none;stroke:#5cb85c;stroke-linecap:square;"/>
   </g>
   <g id="line2d_28">
    <path clip-path="url(#p8ad0150823)" d="M 32.968125 381.6495 
L 990.638125 381.6495 
" style="fill:none;stroke:#dedede;stroke-linecap:square;stroke-width:2;"/>
   </g>
   <g id="text_14">
    <!-- FastQC: Per Base N Content -->
    <defs>
     <path d="M 9.8125 72.90625 
L 51.703125 72.90625 
L 51.703125 64.59375 
L 19.671875 64.59375 
L 19.671875 43.109375 
L 48.578125 43.109375 
L 48.578125 34.8125 
L 19.671875 34.8125 
L 19.671875 0 
L 9.8125 0 
z
" id="DejaVuSans-46"/>
     <path d="M 39.40625 66.21875 
Q 28.65625 66.21875 22.328125 58.203125 
Q 16.015625 50.203125 16.015625 36.375 
Q 16.015625 22.609375 22.328125 14.59375 
Q 28.65625 6.59375 39.40625 6.59375 
Q 50.140625 6.59375 56.421875 14.59375 
Q 62.703125 22.609375 62.703125 36.375 
Q 62.703125 50.203125 56.421875 58.203125 
Q 50.140625 66.21875 39.40625 66.21875 
z
M 53.21875 1.3125 
L 66.21875 -12.890625 
L 54.296875 -12.890625 
L 43.5 -1.21875 
Q 41.890625 -1.3125 41.03125 -1.359375 
Q 40.1875 -1.421875 39.40625 -1.421875 
Q 24.03125 -1.421875 14.8125 8.859375 
Q 5.609375 19.140625 5.609375 36.375 
Q 5.609375 53.65625 14.8125 63.9375 
Q 24.03125 74.21875 39.40625 74.21875 
Q 54.734375 74.21875 63.90625 63.9375 
Q 73.09375 53.65625 73.09375 36.375 
Q 73.09375 23.6875 67.984375 14.640625 
Q 62.890625 5.609375 53.21875 1.3125 
z
" id="DejaVuSans-51"/>
     <path d="M 11.71875 12.40625 
L 22.015625 12.40625 
L 22.015625 0 
L 11.71875 0 
z
M 11.71875 51.703125 
L 22.015625 51.703125 
L 22.015625 39.3125 
L 11.71875 39.3125 
z
" id="DejaVuSans-3a"/>
     <path d="M 19.671875 34.8125 
L 19.671875 8.109375 
L 35.5 8.109375 
Q 43.453125 8.109375 47.28125 11.40625 
Q 51.125 14.703125 51.125 21.484375 
Q 51.125 28.328125 47.28125 31.5625 
Q 43.453125 34.8125 35.5 34.8125 
z
M 19.671875 64.796875 
L 19.671875 42.828125 
L 34.28125 42.828125 
Q 41.5 42.828125 45.03125 45.53125 
Q 48.578125 48.25 48.578125 53.8125 
Q 48.578125 59.328125 45.03125 62.0625 
Q 41.5 64.796875 34.28125 64.796875 
z
M 9.8125 72.90625 
L 35.015625 72.90625 
Q 46.296875 72.90625 52.390625 68.21875 
Q 58.5 63.53125 58.5 54.890625 
Q 58.5 48.1875 55.375 44.234375 
Q 52.25 40.28125 46.1875 39.3125 
Q 53.46875 37.75 57.5 32.78125 
Q 61.53125 27.828125 61.53125 20.40625 
Q 61.53125 10.640625 54.890625 5.3125 
Q 48.25 0 35.984375 0 
L 9.8125 0 
z
" id="DejaVuSans-42"/>
    </defs>
    <g transform="translate(399.944375 19.3575)scale(0.16 -0.16)">
     <use xlink:href="#DejaVuSans-46"/>
     <use x="57.378906" xlink:href="#DejaVuSans-61"/>
     <use x="118.658203" xlink:href="#DejaVuSans-73"/>
     <use x="170.757812" xlink:href="#DejaVuSans-74"/>
     <use x="209.966797" xlink:href="#DejaVuSans-51"/>
     <use x="288.677734" xlink:href="#DejaVuSans-43"/>
     <use x="358.501953" xlink:href="#DejaVuSans-3a"/>
     <use x="392.193359" xlink:href="#DejaVuSans-20"/>
     <use x="423.980469" xlink:href="#DejaVuSans-50"/>
     <use x="484.236328" xlink:href="#DejaVuSans-65"/>
     <use x="545.759766" xlink:href="#DejaVuSans-72"/>
     <use x="586.873047" xlink:href="#DejaVuSans-20"/>
     <use x="618.660156" xlink:href="#DejaVuSans-42"/>
     <use x="687.263672" xlink:href="#DejaVuSans-61"/>
     <use x="748.542969" xlink:href="#DejaVuSans-73"/>
     <use x="800.642578" xlink:href="#DejaVuSans-65"/>
     <use x="862.166016" xlink:href="#DejaVuSans-20"/>
     <use x="893.953125" xlink:href="#DejaVuSans-4e"/>
     <use x="968.757812" xlink:href="#DejaVuSans-20"/>
     <use x="1000.544922" xlink:href="#DejaVuSans-43"/>
     <use x="1070.369141" xlink:href="#DejaVuSans-6f"/>
     <use x="1131.550781" xlink:href="#DejaVuSans-6e"/>
     <use x="1194.929688" xlink:href="#DejaVuSans-74"/>
     <use x="1234.138672" xlink:href="#DejaVuSans-65"/>
     <use x="1295.662109" xlink:href="#DejaVuSans-6e"/>
     <use x="1359.041016" xlink:href="#DejaVuSans-74"/>
    </g>
   </g>
  </g>
 </g>
 <defs>
  <clipPath id="p8ad0150823">
   <rect height="345.04" width="957.67" x="32.968125" y="36.6095"/>
  </clipPath>
 </defs>
</svg>
