<?xml version="1.0" encoding="utf-8" standalone="no"?>
<!DOCTYPE svg PUBLIC "-//W3C//DTD SVG 1.1//EN"
  "http://www.w3.org/Graphics/SVG/1.1/DTD/svg11.dtd">
<!-- Created with matplotlib (http://matplotlib.org/) -->
<svg height="417.270125pt" version="1.1" viewBox="0 0 1000.258125 417.270125" width="1000.258125pt" xmlns="http://www.w3.org/2000/svg" xmlns:xlink="http://www.w3.org/1999/xlink">
 <defs>
  <style type="text/css">
*{stroke-linecap:butt;stroke-linejoin:round;}
  </style>
 </defs>
 <g id="figure_1">
  <g id="patch_1">
   <path d="M 0 417.270125 
L 1000.258125 417.270125 
L 1000.258125 0 
L 0 0 
z
" style="fill:#ffffff;"/>
  </g>
  <g id="axes_1">
   <g id="patch_2">
    <path d="M 38.058125 381.6495 
L 985.423125 381.6495 
L 985.423125 36.6095 
L 38.058125 36.6095 
z
" style="fill:#ffffff;"/>
   </g>
   <g id="matplotlib.axis_1">
    <g id="xtick_1">
     <g id="text_1">
      <!-- 0 -->
      <defs>
       <path d="M 31.78125 66.40625 
Q 24.171875 66.40625 20.328125 58.90625 
Q 16.5 51.421875 16.5 36.375 
Q 16.5 21.390625 20.328125 13.890625 
Q 24.171875 6.390625 31.78125 6.390625 
Q 39.453125 6.390625 43.28125 13.890625 
Q 47.125 21.390625 47.125 36.375 
Q 47.125 51.421875 43.28125 58.90625 
Q 39.453125 66.40625 31.78125 66.40625 
z
M 31.78125 74.21875 
Q 44.046875 74.21875 50.515625 64.515625 
Q 56.984375 54.828125 56.984375 36.375 
Q 56.984375 17.96875 50.515625 8.265625 
Q 44.046875 -1.421875 31.78125 -1.421875 
Q 19.53125 -1.421875 13.0625 8.265625 
Q 6.59375 17.96875 6.59375 36.375 
Q 6.59375 54.828125 13.0625 64.515625 
Q 19.53125 74.21875 31.78125 74.21875 
z
" id="DejaVuSans-30"/>
      </defs>
      <g transform="translate(35.513125 394.72825)scale(0.08 -0.08)">
       <use xlink:href="#DejaVuSans-30"/>
      </g>
     </g>
    </g>
    <g id="xtick_2">
     <g id="text_2">
      <!-- 20 -->
      <defs>
       <path d="M 19.1875 8.296875 
L 53.609375 8.296875 
L 53.609375 0 
L 7.328125 0 
L 7.328125 8.296875 
Q 12.9375 14.109375 22.625 23.890625 
Q 32.328125 33.6875 34.8125 36.53125 
Q 39.546875 41.84375 41.421875 45.53125 
Q 43.3125 49.21875 43.3125 52.78125 
Q 43.3125 58.59375 39.234375 62.25 
Q 35.15625 65.921875 28.609375 65.921875 
Q 23.96875 65.921875 18.8125 64.3125 
Q 13.671875 62.703125 7.8125 59.421875 
L 7.8125 69.390625 
Q 13.765625 71.78125 18.9375 73 
Q 24.125 74.21875 28.421875 74.21875 
Q 39.75 74.21875 46.484375 68.546875 
Q 53.21875 62.890625 53.21875 53.421875 
Q 53.21875 48.921875 51.53125 44.890625 
Q 49.859375 40.875 45.40625 35.40625 
Q 44.1875 33.984375 37.640625 27.21875 
Q 31.109375 20.453125 19.1875 8.296875 
z
" id="DejaVuSans-32"/>
      </defs>
      <g transform="translate(222.441125 394.72825)scale(0.08 -0.08)">
       <use xlink:href="#DejaVuSans-32"/>
       <use x="63.623047" xlink:href="#DejaVuSans-30"/>
      </g>
     </g>
    </g>
    <g id="xtick_3">
     <g id="text_3">
      <!-- 40 -->
      <defs>
       <path d="M 37.796875 64.3125 
L 12.890625 25.390625 
L 37.796875 25.390625 
z
M 35.203125 72.90625 
L 47.609375 72.90625 
L 47.609375 25.390625 
L 58.015625 25.390625 
L 58.015625 17.1875 
L 47.609375 17.1875 
L 47.609375 0 
L 37.796875 0 
L 37.796875 17.1875 
L 4.890625 17.1875 
L 4.890625 26.703125 
z
" id="DejaVuSans-34"/>
      </defs>
      <g transform="translate(411.914125 394.72825)scale(0.08 -0.08)">
       <use xlink:href="#DejaVuSans-34"/>
       <use x="63.623047" xlink:href="#DejaVuSans-30"/>
      </g>
     </g>
    </g>
    <g id="xtick_4">
     <g id="text_4">
      <!-- 60 -->
      <defs>
       <path d="M 33.015625 40.375 
Q 26.375 40.375 22.484375 35.828125 
Q 18.609375 31.296875 18.609375 23.390625 
Q 18.609375 15.53125 22.484375 10.953125 
Q 26.375 6.390625 33.015625 6.390625 
Q 39.65625 6.390625 43.53125 10.953125 
Q 47.40625 15.53125 47.40625 23.390625 
Q 47.40625 31.296875 43.53125 35.828125 
Q 39.65625 40.375 33.015625 40.375 
z
M 52.59375 71.296875 
L 52.59375 62.3125 
Q 48.875 64.0625 45.09375 64.984375 
Q 41.3125 65.921875 37.59375 65.921875 
Q 27.828125 65.921875 22.671875 59.328125 
Q 17.53125 52.734375 16.796875 39.40625 
Q 19.671875 43.65625 24.015625 45.921875 
Q 28.375 48.1875 33.59375 48.1875 
Q 44.578125 48.1875 50.953125 41.515625 
Q 57.328125 34.859375 57.328125 23.390625 
Q 57.328125 12.15625 50.6875 5.359375 
Q 44.046875 -1.421875 33.015625 -1.421875 
Q 20.359375 -1.421875 13.671875 8.265625 
Q 6.984375 17.96875 6.984375 36.375 
Q 6.984375 53.65625 15.1875 63.9375 
Q 23.390625 74.21875 37.203125 74.21875 
Q 40.921875 74.21875 44.703125 73.484375 
Q 48.484375 72.75 52.59375 71.296875 
z
" id="DejaVuSans-36"/>
      </defs>
      <g transform="translate(601.387125 394.72825)scale(0.08 -0.08)">
       <use xlink:href="#DejaVuSans-36"/>
       <use x="63.623047" xlink:href="#DejaVuSans-30"/>
      </g>
     </g>
    </g>
    <g id="xtick_5">
     <g id="text_5">
      <!-- 80 -->
      <defs>
       <path d="M 31.78125 34.625 
Q 24.75 34.625 20.71875 30.859375 
Q 16.703125 27.09375 16.703125 20.515625 
Q 16.703125 13.921875 20.71875 10.15625 
Q 24.75 6.390625 31.78125 6.390625 
Q 38.8125 6.390625 42.859375 10.171875 
Q 46.921875 13.96875 46.921875 20.515625 
Q 46.921875 27.09375 42.890625 30.859375 
Q 38.875 34.625 31.78125 34.625 
z
M 21.921875 38.8125 
Q 15.578125 40.375 12.03125 44.71875 
Q 8.5 49.078125 8.5 55.328125 
Q 8.5 64.0625 14.71875 69.140625 
Q 20.953125 74.21875 31.78125 74.21875 
Q 42.671875 74.21875 48.875 69.140625 
Q 55.078125 64.0625 55.078125 55.328125 
Q 55.078125 49.078125 51.53125 44.71875 
Q 48 40.375 41.703125 38.8125 
Q 48.828125 37.15625 52.796875 32.3125 
Q 56.78125 27.484375 56.78125 20.515625 
Q 56.78125 9.90625 50.3125 4.234375 
Q 43.84375 -1.421875 31.78125 -1.421875 
Q 19.734375 -1.421875 13.25 4.234375 
Q 6.78125 9.90625 6.78125 20.515625 
Q 6.78125 27.484375 10.78125 32.3125 
Q 14.796875 37.15625 21.921875 38.8125 
z
M 18.3125 54.390625 
Q 18.3125 48.734375 21.84375 45.5625 
Q 25.390625 42.390625 31.78125 42.390625 
Q 38.140625 42.390625 41.71875 45.5625 
Q 45.3125 48.734375 45.3125 54.390625 
Q 45.3125 60.0625 41.71875 63.234375 
Q 38.140625 66.40625 31.78125 66.40625 
Q 25.390625 66.40625 21.84375 63.234375 
Q 18.3125 60.0625 18.3125 54.390625 
z
" id="DejaVuSans-38"/>
      </defs>
      <g transform="translate(790.860125 394.72825)scale(0.08 -0.08)">
       <use xlink:href="#DejaVuSans-38"/>
       <use x="63.623047" xlink:href="#DejaVuSans-30"/>
      </g>
     </g>
    </g>
    <g id="xtick_6">
     <g id="text_6">
      <!-- 100 -->
      <defs>
       <path d="M 12.40625 8.296875 
L 28.515625 8.296875 
L 28.515625 63.921875 
L 10.984375 60.40625 
L 10.984375 69.390625 
L 28.421875 72.90625 
L 38.28125 72.90625 
L 38.28125 8.296875 
L 54.390625 8.296875 
L 54.390625 0 
L 12.40625 0 
z
" id="DejaVuSans-31"/>
      </defs>
      <g transform="translate(977.788125 394.72825)scale(0.08 -0.08)">
       <use xlink:href="#DejaVuSans-31"/>
       <use x="63.623047" xlink:href="#DejaVuSans-30"/>
       <use x="127.246094" xlink:href="#DejaVuSans-30"/>
      </g>
     </g>
    </g>
    <g id="text_7">
     <!-- % GC -->
     <defs>
      <path d="M 72.703125 32.078125 
Q 68.453125 32.078125 66.03125 28.46875 
Q 63.625 24.859375 63.625 18.40625 
Q 63.625 12.0625 66.03125 8.421875 
Q 68.453125 4.78125 72.703125 4.78125 
Q 76.859375 4.78125 79.265625 8.421875 
Q 81.6875 12.0625 81.6875 18.40625 
Q 81.6875 24.8125 79.265625 28.4375 
Q 76.859375 32.078125 72.703125 32.078125 
z
M 72.703125 38.28125 
Q 80.421875 38.28125 84.953125 32.90625 
Q 89.5 27.546875 89.5 18.40625 
Q 89.5 9.28125 84.9375 3.921875 
Q 80.375 -1.421875 72.703125 -1.421875 
Q 64.890625 -1.421875 60.34375 3.921875 
Q 55.8125 9.28125 55.8125 18.40625 
Q 55.8125 27.59375 60.375 32.9375 
Q 64.9375 38.28125 72.703125 38.28125 
z
M 22.3125 68.015625 
Q 18.109375 68.015625 15.6875 64.375 
Q 13.28125 60.75 13.28125 54.390625 
Q 13.28125 47.953125 15.671875 44.328125 
Q 18.0625 40.71875 22.3125 40.71875 
Q 26.5625 40.71875 28.96875 44.328125 
Q 31.390625 47.953125 31.390625 54.390625 
Q 31.390625 60.6875 28.953125 64.34375 
Q 26.515625 68.015625 22.3125 68.015625 
z
M 66.40625 74.21875 
L 74.21875 74.21875 
L 28.609375 -1.421875 
L 20.796875 -1.421875 
z
M 22.3125 74.21875 
Q 30.03125 74.21875 34.609375 68.875 
Q 39.203125 63.53125 39.203125 54.390625 
Q 39.203125 45.171875 34.640625 39.84375 
Q 30.078125 34.515625 22.3125 34.515625 
Q 14.546875 34.515625 10.03125 39.859375 
Q 5.515625 45.21875 5.515625 54.390625 
Q 5.515625 63.484375 10.046875 68.84375 
Q 14.59375 74.21875 22.3125 74.21875 
z
" id="DejaVuSans-25"/>
      <path id="DejaVuSans-20"/>
      <path d="M 59.515625 10.40625 
L 59.515625 29.984375 
L 43.40625 29.984375 
L 43.40625 38.09375 
L 69.28125 38.09375 
L 69.28125 6.78125 
Q 63.578125 2.734375 56.6875 0.65625 
Q 49.8125 -1.421875 42 -1.421875 
Q 24.90625 -1.421875 15.25 8.5625 
Q 5.609375 18.5625 5.609375 36.375 
Q 5.609375 54.25 15.25 64.234375 
Q 24.90625 74.21875 42 74.21875 
Q 49.125 74.21875 55.546875 72.453125 
Q 61.96875 70.703125 67.390625 67.28125 
L 67.390625 56.78125 
Q 61.921875 61.421875 55.765625 63.765625 
Q 49.609375 66.109375 42.828125 66.109375 
Q 29.4375 66.109375 22.71875 58.640625 
Q 16.015625 51.171875 16.015625 36.375 
Q 16.015625 21.625 22.71875 14.15625 
Q 29.4375 6.6875 42.828125 6.6875 
Q 48.046875 6.6875 52.140625 7.59375 
Q 56.25 8.5 59.515625 10.40625 
z
" id="DejaVuSans-47"/>
      <path d="M 64.40625 67.28125 
L 64.40625 56.890625 
Q 59.421875 61.53125 53.78125 63.8125 
Q 48.140625 66.109375 41.796875 66.109375 
Q 29.296875 66.109375 22.65625 58.46875 
Q 16.015625 50.828125 16.015625 36.375 
Q 16.015625 21.96875 22.65625 14.328125 
Q 29.296875 6.6875 41.796875 6.6875 
Q 48.140625 6.6875 53.78125 8.984375 
Q 59.421875 11.28125 64.40625 15.921875 
L 64.40625 5.609375 
Q 59.234375 2.09375 53.4375 0.328125 
Q 47.65625 -1.421875 41.21875 -1.421875 
Q 24.65625 -1.421875 15.125 8.703125 
Q 5.609375 18.84375 5.609375 36.375 
Q 5.609375 53.953125 15.125 64.078125 
Q 24.65625 74.21875 41.21875 74.21875 
Q 47.75 74.21875 53.53125 72.484375 
Q 59.328125 70.75 64.40625 67.28125 
z
" id="DejaVuSans-43"/>
     </defs>
     <g transform="translate(498.035156 407.990437)scale(0.1 -0.1)">
      <use xlink:href="#DejaVuSans-25"/>
      <use x="95.019531" xlink:href="#DejaVuSans-20"/>
      <use x="126.806641" xlink:href="#DejaVuSans-47"/>
      <use x="204.296875" xlink:href="#DejaVuSans-43"/>
     </g>
    </g>
   </g>
   <g id="matplotlib.axis_2">
    <g id="ytick_1">
     <g id="line2d_1">
      <path clip-path="url(#pb11a5158c9)" d="M 38.058125 381.6495 
L 985.423125 381.6495 
" style="fill:none;stroke:#dedede;stroke-linecap:square;"/>
     </g>
     <g id="text_8">
      <!-- 0 -->
      <g transform="translate(25.968125 384.688875)scale(0.08 -0.08)">
       <use xlink:href="#DejaVuSans-30"/>
      </g>
     </g>
    </g>
    <g id="ytick_2">
     <g id="line2d_2">
      <path clip-path="url(#pb11a5158c9)" d="M 38.058125 340.053358 
L 985.423125 340.053358 
" style="fill:none;stroke:#dedede;stroke-linecap:square;"/>
     </g>
     <g id="text_9">
      <!-- 10 -->
      <g transform="translate(20.878125 343.092733)scale(0.08 -0.08)">
       <use xlink:href="#DejaVuSans-31"/>
       <use x="63.623047" xlink:href="#DejaVuSans-30"/>
      </g>
     </g>
    </g>
    <g id="ytick_3">
     <g id="line2d_3">
      <path clip-path="url(#pb11a5158c9)" d="M 38.058125 298.457215 
L 985.423125 298.457215 
" style="fill:none;stroke:#dedede;stroke-linecap:square;"/>
     </g>
     <g id="text_10">
      <!-- 20 -->
      <g transform="translate(20.878125 301.49659)scale(0.08 -0.08)">
       <use xlink:href="#DejaVuSans-32"/>
       <use x="63.623047" xlink:href="#DejaVuSans-30"/>
      </g>
     </g>
    </g>
    <g id="ytick_4">
     <g id="line2d_4">
      <path clip-path="url(#pb11a5158c9)" d="M 38.058125 256.861073 
L 985.423125 256.861073 
" style="fill:none;stroke:#dedede;stroke-linecap:square;"/>
     </g>
     <g id="text_11">
      <!-- 30 -->
      <defs>
       <path d="M 40.578125 39.3125 
Q 47.65625 37.796875 51.625 33 
Q 55.609375 28.21875 55.609375 21.1875 
Q 55.609375 10.40625 48.1875 4.484375 
Q 40.765625 -1.421875 27.09375 -1.421875 
Q 22.515625 -1.421875 17.65625 -0.515625 
Q 12.796875 0.390625 7.625 2.203125 
L 7.625 11.71875 
Q 11.71875 9.328125 16.59375 8.109375 
Q 21.484375 6.890625 26.8125 6.890625 
Q 36.078125 6.890625 40.9375 10.546875 
Q 45.796875 14.203125 45.796875 21.1875 
Q 45.796875 27.640625 41.28125 31.265625 
Q 36.765625 34.90625 28.71875 34.90625 
L 20.21875 34.90625 
L 20.21875 43.015625 
L 29.109375 43.015625 
Q 36.375 43.015625 40.234375 45.921875 
Q 44.09375 48.828125 44.09375 54.296875 
Q 44.09375 59.90625 40.109375 62.90625 
Q 36.140625 65.921875 28.71875 65.921875 
Q 24.65625 65.921875 20.015625 65.03125 
Q 15.375 64.15625 9.8125 62.3125 
L 9.8125 71.09375 
Q 15.4375 72.65625 20.34375 73.4375 
Q 25.25 74.21875 29.59375 74.21875 
Q 40.828125 74.21875 47.359375 69.109375 
Q 53.90625 64.015625 53.90625 55.328125 
Q 53.90625 49.265625 50.4375 45.09375 
Q 46.96875 40.921875 40.578125 39.3125 
z
" id="DejaVuSans-33"/>
      </defs>
      <g transform="translate(20.878125 259.900448)scale(0.08 -0.08)">
       <use xlink:href="#DejaVuSans-33"/>
       <use x="63.623047" xlink:href="#DejaVuSans-30"/>
      </g>
     </g>
    </g>
    <g id="ytick_5">
     <g id="line2d_5">
      <path clip-path="url(#pb11a5158c9)" d="M 38.058125 215.264931 
L 985.423125 215.264931 
" style="fill:none;stroke:#dedede;stroke-linecap:square;"/>
     </g>
     <g id="text_12">
      <!-- 40 -->
      <g transform="translate(20.878125 218.304306)scale(0.08 -0.08)">
       <use xlink:href="#DejaVuSans-34"/>
       <use x="63.623047" xlink:href="#DejaVuSans-30"/>
      </g>
     </g>
    </g>
    <g id="ytick_6">
     <g id="line2d_6">
      <path clip-path="url(#pb11a5158c9)" d="M 38.058125 173.668789 
L 985.423125 173.668789 
" style="fill:none;stroke:#dedede;stroke-linecap:square;"/>
     </g>
     <g id="text_13">
      <!-- 50 -->
      <defs>
       <path d="M 10.796875 72.90625 
L 49.515625 72.90625 
L 49.515625 64.59375 
L 19.828125 64.59375 
L 19.828125 46.734375 
Q 21.96875 47.46875 24.109375 47.828125 
Q 26.265625 48.1875 28.421875 48.1875 
Q 40.625 48.1875 47.75 41.5 
Q 54.890625 34.8125 54.890625 23.390625 
Q 54.890625 11.625 47.5625 5.09375 
Q 40.234375 -1.421875 26.90625 -1.421875 
Q 22.3125 -1.421875 17.546875 -0.640625 
Q 12.796875 0.140625 7.71875 1.703125 
L 7.71875 11.625 
Q 12.109375 9.234375 16.796875 8.0625 
Q 21.484375 6.890625 26.703125 6.890625 
Q 35.15625 6.890625 40.078125 11.328125 
Q 45.015625 15.765625 45.015625 23.390625 
Q 45.015625 31 40.078125 35.4375 
Q 35.15625 39.890625 26.703125 39.890625 
Q 22.75 39.890625 18.8125 39.015625 
Q 14.890625 38.140625 10.796875 36.28125 
z
" id="DejaVuSans-35"/>
      </defs>
      <g transform="translate(20.878125 176.708164)scale(0.08 -0.08)">
       <use xlink:href="#DejaVuSans-35"/>
       <use x="63.623047" xlink:href="#DejaVuSans-30"/>
      </g>
     </g>
    </g>
    <g id="ytick_7">
     <g id="line2d_7">
      <path clip-path="url(#pb11a5158c9)" d="M 38.058125 132.072646 
L 985.423125 132.072646 
" style="fill:none;stroke:#dedede;stroke-linecap:square;"/>
     </g>
     <g id="text_14">
      <!-- 60 -->
      <g transform="translate(20.878125 135.112021)scale(0.08 -0.08)">
       <use xlink:href="#DejaVuSans-36"/>
       <use x="63.623047" xlink:href="#DejaVuSans-30"/>
      </g>
     </g>
    </g>
    <g id="ytick_8">
     <g id="line2d_8">
      <path clip-path="url(#pb11a5158c9)" d="M 38.058125 90.476504 
L 985.423125 90.476504 
" style="fill:none;stroke:#dedede;stroke-linecap:square;"/>
     </g>
     <g id="text_15">
      <!-- 70 -->
      <defs>
       <path d="M 8.203125 72.90625 
L 55.078125 72.90625 
L 55.078125 68.703125 
L 28.609375 0 
L 18.3125 0 
L 43.21875 64.59375 
L 8.203125 64.59375 
z
" id="DejaVuSans-37"/>
      </defs>
      <g transform="translate(20.878125 93.515879)scale(0.08 -0.08)">
       <use xlink:href="#DejaVuSans-37"/>
       <use x="63.623047" xlink:href="#DejaVuSans-30"/>
      </g>
     </g>
    </g>
    <g id="ytick_9">
     <g id="line2d_9">
      <path clip-path="url(#pb11a5158c9)" d="M 38.058125 48.880362 
L 985.423125 48.880362 
" style="fill:none;stroke:#dedede;stroke-linecap:square;"/>
     </g>
     <g id="text_16">
      <!-- 80 -->
      <g transform="translate(20.878125 51.919737)scale(0.08 -0.08)">
       <use xlink:href="#DejaVuSans-38"/>
       <use x="63.623047" xlink:href="#DejaVuSans-30"/>
      </g>
     </g>
    </g>
    <g id="text_17">
     <!-- Count -->
     <defs>
      <path d="M 30.609375 48.390625 
Q 23.390625 48.390625 19.1875 42.75 
Q 14.984375 37.109375 14.984375 27.296875 
Q 14.984375 17.484375 19.15625 11.84375 
Q 23.34375 6.203125 30.609375 6.203125 
Q 37.796875 6.203125 41.984375 11.859375 
Q 46.1875 17.53125 46.1875 27.296875 
Q 46.1875 37.015625 41.984375 42.703125 
Q 37.796875 48.390625 30.609375 48.390625 
z
M 30.609375 56 
Q 42.328125 56 49.015625 48.375 
Q 55.71875 40.765625 55.71875 27.296875 
Q 55.71875 13.875 49.015625 6.21875 
Q 42.328125 -1.421875 30.609375 -1.421875 
Q 18.84375 -1.421875 12.171875 6.21875 
Q 5.515625 13.875 5.515625 27.296875 
Q 5.515625 40.765625 12.171875 48.375 
Q 18.84375 56 30.609375 56 
z
" id="DejaVuSans-6f"/>
      <path d="M 8.5 21.578125 
L 8.5 54.6875 
L 17.484375 54.6875 
L 17.484375 21.921875 
Q 17.484375 14.15625 20.5 10.265625 
Q 23.53125 6.390625 29.59375 6.390625 
Q 36.859375 6.390625 41.078125 11.03125 
Q 45.3125 15.671875 45.3125 23.6875 
L 45.3125 54.6875 
L 54.296875 54.6875 
L 54.296875 0 
L 45.3125 0 
L 45.3125 8.40625 
Q 42.046875 3.421875 37.71875 1 
Q 33.40625 -1.421875 27.6875 -1.421875 
Q 18.265625 -1.421875 13.375 4.4375 
Q 8.5 10.296875 8.5 21.578125 
z
M 31.109375 56 
z
" id="DejaVuSans-75"/>
      <path d="M 54.890625 33.015625 
L 54.890625 0 
L 45.90625 0 
L 45.90625 32.71875 
Q 45.90625 40.484375 42.875 44.328125 
Q 39.84375 48.1875 33.796875 48.1875 
Q 26.515625 48.1875 22.3125 43.546875 
Q 18.109375 38.921875 18.109375 30.90625 
L 18.109375 0 
L 9.078125 0 
L 9.078125 54.6875 
L 18.109375 54.6875 
L 18.109375 46.1875 
Q 21.34375 51.125 25.703125 53.5625 
Q 30.078125 56 35.796875 56 
Q 45.21875 56 50.046875 50.171875 
Q 54.890625 44.34375 54.890625 33.015625 
z
" id="DejaVuSans-6e"/>
      <path d="M 18.3125 70.21875 
L 18.3125 54.6875 
L 36.8125 54.6875 
L 36.8125 47.703125 
L 18.3125 47.703125 
L 18.3125 18.015625 
Q 18.3125 11.328125 20.140625 9.421875 
Q 21.96875 7.515625 27.59375 7.515625 
L 36.8125 7.515625 
L 36.8125 0 
L 27.59375 0 
Q 17.1875 0 13.234375 3.875 
Q 9.28125 7.765625 9.28125 18.015625 
L 9.28125 47.703125 
L 2.6875 47.703125 
L 2.6875 54.6875 
L 9.28125 54.6875 
L 9.28125 70.21875 
z
" id="DejaVuSans-74"/>
     </defs>
     <g transform="translate(14.798438 223.977937)rotate(-90)scale(0.1 -0.1)">
      <use xlink:href="#DejaVuSans-43"/>
      <use x="69.824219" xlink:href="#DejaVuSans-6f"/>
      <use x="131.005859" xlink:href="#DejaVuSans-75"/>
      <use x="194.384766" xlink:href="#DejaVuSans-6e"/>
      <use x="257.763672" xlink:href="#DejaVuSans-74"/>
     </g>
    </g>
   </g>
   <g id="line2d_10">
    <path clip-path="url(#pb11a5158c9)" d="M 38.058125 381.6495 
L 47.531775 381.6495 
L 57.005425 381.6495 
L 66.479075 381.6495 
L 75.952725 381.6495 
L 85.426375 381.6495 
L 94.900025 381.6495 
L 104.373675 381.6495 
L 113.847325 381.6495 
L 123.320975 381.6495 
L 132.794625 381.6495 
L 142.268275 381.6495 
L 151.741925 381.6495 
L 161.215575 381.6495 
L 170.689225 381.6495 
L 180.162875 381.6495 
L 189.636525 381.6495 
L 199.110175 381.6495 
L 208.583825 381.6495 
L 218.057475 381.6495 
L 227.531125 381.6495 
L 237.004775 381.6495 
L 246.478425 381.6495 
L 255.952075 379.569693 
L 265.425725 377.489886 
L 274.899375 379.569693 
L 284.373025 377.489886 
L 293.846675 375.410079 
L 303.320325 377.489886 
L 312.793975 377.489886 
L 322.267625 375.410079 
L 331.741275 375.410079 
L 341.214925 373.330272 
L 350.688575 373.330272 
L 360.162225 375.410079 
L 369.635875 375.410079 
L 379.109525 371.250464 
L 388.583175 365.011043 
L 398.056825 362.931236 
L 407.530475 360.851429 
L 417.004125 369.170657 
L 426.477775 373.330272 
L 435.951425 365.011043 
L 445.425075 365.011043 
L 454.898725 373.330272 
L 464.372375 377.489886 
L 473.846025 375.410079 
L 483.319675 375.410079 
L 492.793325 377.489886 
L 502.266975 377.489886 
L 511.740625 377.489886 
L 521.214275 375.410079 
L 530.687925 375.410079 
L 540.161575 379.569693 
L 549.635225 381.6495 
L 559.108875 381.6495 
L 568.582525 381.6495 
L 578.056175 381.6495 
L 587.529825 381.6495 
L 597.003475 381.6495 
L 606.477125 381.6495 
L 615.950775 381.6495 
L 625.424425 381.6495 
L 634.898075 381.6495 
L 644.371725 381.6495 
L 653.845375 381.6495 
L 663.319025 381.6495 
L 672.792675 381.6495 
L 682.266325 381.6495 
L 691.739975 381.6495 
L 701.213625 381.6495 
L 710.687275 381.6495 
L 720.160925 381.6495 
L 729.634575 381.6495 
L 739.108225 381.6495 
L 748.581875 381.6495 
L 758.055525 381.6495 
L 767.529175 381.6495 
L 777.002825 381.6495 
L 786.476475 381.6495 
L 795.950125 381.6495 
L 805.423775 381.6495 
L 814.897425 381.6495 
L 824.371075 381.6495 
L 833.844725 381.6495 
L 843.318375 381.6495 
L 852.792025 381.6495 
L 862.265675 381.6495 
L 871.739325 381.6495 
L 881.212975 381.6495 
L 890.686625 381.6495 
L 900.160275 381.6495 
L 909.633925 381.6495 
L 919.107575 381.6495 
L 928.581225 381.6495 
L 938.054875 381.6495 
L 947.528525 381.6495 
L 957.002175 381.6495 
L 966.475825 381.6495 
L 975.949475 381.6495 
L 985.423125 381.6495 
" style="fill:none;stroke:#d9534f;stroke-linecap:square;"/>
   </g>
   <g id="line2d_11">
    <path clip-path="url(#pb11a5158c9)" d="M 38.058125 381.6495 
L 47.531775 381.6495 
L 57.005425 381.6495 
L 66.479075 381.6495 
L 75.952725 381.6495 
L 85.426375 381.6495 
L 94.900025 381.6495 
L 104.373675 381.6495 
L 113.847325 381.6495 
L 123.320975 381.6495 
L 132.794625 381.6495 
L 142.268275 381.6495 
L 151.741925 381.6495 
L 161.215575 381.6495 
L 170.689225 381.6495 
L 180.162875 381.6495 
L 189.636525 381.6495 
L 199.110175 381.6495 
L 208.583825 381.6495 
L 218.057475 381.6495 
L 227.531125 381.6495 
L 237.004775 381.6495 
L 246.478425 381.6495 
L 255.952075 381.6495 
L 265.425725 379.569693 
L 274.899375 379.569693 
L 284.373025 379.569693 
L 293.846675 379.569693 
L 303.320325 379.569693 
L 312.793975 377.489886 
L 322.267625 375.410079 
L 331.741275 375.410079 
L 341.214925 373.330272 
L 350.688575 373.330272 
L 360.162225 369.170657 
L 369.635875 365.011043 
L 379.109525 367.09085 
L 388.583175 369.170657 
L 398.056825 371.250464 
L 407.530475 373.330272 
L 417.004125 369.170657 
L 426.477775 367.09085 
L 435.951425 373.330272 
L 445.425075 373.330272 
L 454.898725 371.250464 
L 464.372375 371.250464 
L 473.846025 371.250464 
L 483.319675 371.250464 
L 492.793325 377.489886 
L 502.266975 377.489886 
L 511.740625 375.410079 
L 521.214275 377.489886 
L 530.687925 377.489886 
L 540.161575 377.489886 
L 549.635225 379.569693 
L 559.108875 381.6495 
L 568.582525 381.6495 
L 578.056175 381.6495 
L 587.529825 381.6495 
L 597.003475 379.569693 
L 606.477125 379.569693 
L 615.950775 381.6495 
L 625.424425 381.6495 
L 634.898075 381.6495 
L 644.371725 381.6495 
L 653.845375 381.6495 
L 663.319025 381.6495 
L 672.792675 381.6495 
L 682.266325 381.6495 
L 691.739975 381.6495 
L 701.213625 381.6495 
L 710.687275 379.569693 
L 720.160925 379.569693 
L 729.634575 381.6495 
L 739.108225 381.6495 
L 748.581875 381.6495 
L 758.055525 381.6495 
L 767.529175 381.6495 
L 777.002825 381.6495 
L 786.476475 381.6495 
L 795.950125 381.6495 
L 805.423775 381.6495 
L 814.897425 381.6495 
L 824.371075 381.6495 
L 833.844725 381.6495 
L 843.318375 381.6495 
L 852.792025 381.6495 
L 862.265675 381.6495 
L 871.739325 381.6495 
L 881.212975 381.6495 
L 890.686625 381.6495 
L 900.160275 381.6495 
L 909.633925 381.6495 
L 919.107575 381.6495 
L 928.581225 381.6495 
L 938.054875 381.6495 
L 947.528525 381.6495 
L 957.002175 381.6495 
L 966.475825 381.6495 
L 975.949475 381.6495 
L 985.423125 381.6495 
" style="fill:none;stroke:#d9534f;stroke-linecap:square;"/>
   </g>
   <g id="line2d_12">
    <path clip-path="url(#pb11a5158c9)" d="M 38.058125 381.6495 
L 47.531775 381.6495 
L 57.005425 381.6495 
L 66.479075 381.6495 
L 75.952725 381.6495 
L 85.426375 381.6495 
L 94.900025 381.6495 
L 104.373675 381.6495 
L 113.847325 381.6495 
L 123.320975 381.6495 
L 132.794625 381.6495 
L 142.268275 381.6495 
L 151.741925 381.6495 
L 161.215575 381.6495 
L 170.689225 381.6495 
L 180.162875 381.6495 
L 189.636525 381.6495 
L 199.110175 381.6495 
L 208.583825 381.6495 
L 218.057475 381.6495 
L 227.531125 381.6495 
L 237.004775 381.6495 
L 246.478425 381.6495 
L 255.952075 381.6495 
L 265.425725 381.6495 
L 274.899375 381.6495 
L 284.373025 381.6495 
L 293.846675 381.6495 
L 303.320325 381.6495 
L 312.793975 371.250464 
L 322.267625 367.09085 
L 331.741275 377.489886 
L 341.214925 379.569693 
L 350.688575 377.489886 
L 360.162225 379.569693 
L 369.635875 377.489886 
L 379.109525 377.489886 
L 388.583175 379.569693 
L 398.056825 377.489886 
L 407.530475 375.410079 
L 417.004125 375.410079 
L 426.477775 377.489886 
L 435.951425 375.410079 
L 445.425075 373.330272 
L 454.898725 373.330272 
L 464.372375 375.410079 
L 473.846025 377.489886 
L 483.319675 377.489886 
L 492.793325 379.569693 
L 502.266975 381.6495 
L 511.740625 379.569693 
L 521.214275 375.410079 
L 530.687925 375.410079 
L 540.161575 377.489886 
L 549.635225 379.569693 
L 559.108875 381.6495 
L 568.582525 381.6495 
L 578.056175 381.6495 
L 587.529825 381.6495 
L 597.003475 381.6495 
L 606.477125 381.6495 
L 615.950775 381.6495 
L 625.424425 381.6495 
L 634.898075 381.6495 
L 644.371725 381.6495 
L 653.845375 381.6495 
L 663.319025 381.6495 
L 672.792675 381.6495 
L 682.266325 381.6495 
L 691.739975 381.6495 
L 701.213625 381.6495 
L 710.687275 381.6495 
L 720.160925 381.6495 
L 729.634575 381.6495 
L 739.108225 381.6495 
L 748.581875 381.6495 
L 758.055525 381.6495 
L 767.529175 381.6495 
L 777.002825 381.6495 
L 786.476475 381.6495 
L 795.950125 381.6495 
L 805.423775 381.6495 
L 814.897425 381.6495 
L 824.371075 381.6495 
L 833.844725 381.6495 
L 843.318375 381.6495 
L 852.792025 381.6495 
L 862.265675 381.6495 
L 871.739325 381.6495 
L 881.212975 381.6495 
L 890.686625 381.6495 
L 900.160275 381.6495 
L 909.633925 381.6495 
L 919.107575 381.6495 
L 928.581225 381.6495 
L 938.054875 381.6495 
L 947.528525 381.6495 
L 957.002175 381.6495 
L 966.475825 381.6495 
L 975.949475 381.6495 
L 985.423125 381.6495 
" style="fill:none;stroke:#d9534f;stroke-linecap:square;"/>
   </g>
   <g id="line2d_13">
    <path clip-path="url(#pb11a5158c9)" d="M 38.058125 381.6495 
L 47.531775 381.6495 
L 57.005425 381.6495 
L 66.479075 381.6495 
L 75.952725 381.6495 
L 85.426375 381.6495 
L 94.900025 381.6495 
L 104.373675 381.6495 
L 113.847325 381.6495 
L 123.320975 381.6495 
L 132.794625 381.6495 
L 142.268275 381.6495 
L 151.741925 381.6495 
L 161.215575 381.6495 
L 170.689225 381.6495 
L 180.162875 381.6495 
L 189.636525 381.6495 
L 199.110175 381.6495 
L 208.583825 381.6495 
L 218.057475 381.6495 
L 227.531125 381.6495 
L 237.004775 381.6495 
L 246.478425 381.6495 
L 255.952075 377.489886 
L 265.425725 377.489886 
L 274.899375 381.6495 
L 284.373025 381.6495 
L 293.846675 381.6495 
L 303.320325 377.489886 
L 312.793975 377.489886 
L 322.267625 381.6495 
L 331.741275 381.6495 
L 341.214925 379.569693 
L 350.688575 375.410079 
L 360.162225 377.489886 
L 369.635875 379.569693 
L 379.109525 379.569693 
L 388.583175 377.489886 
L 398.056825 373.330272 
L 407.530475 373.330272 
L 417.004125 373.330272 
L 426.477775 375.410079 
L 435.951425 371.250464 
L 445.425075 371.250464 
L 454.898725 377.489886 
L 464.372375 379.569693 
L 473.846025 381.6495 
L 483.319675 381.6495 
L 492.793325 371.250464 
L 502.266975 369.170657 
L 511.740625 377.489886 
L 521.214275 377.489886 
L 530.687925 379.569693 
L 540.161575 381.6495 
L 549.635225 381.6495 
L 559.108875 381.6495 
L 568.582525 381.6495 
L 578.056175 381.6495 
L 587.529825 381.6495 
L 597.003475 381.6495 
L 606.477125 381.6495 
L 615.950775 381.6495 
L 625.424425 381.6495 
L 634.898075 381.6495 
L 644.371725 381.6495 
L 653.845375 381.6495 
L 663.319025 381.6495 
L 672.792675 381.6495 
L 682.266325 381.6495 
L 691.739975 381.6495 
L 701.213625 381.6495 
L 710.687275 381.6495 
L 720.160925 381.6495 
L 729.634575 381.6495 
L 739.108225 381.6495 
L 748.581875 381.6495 
L 758.055525 381.6495 
L 767.529175 381.6495 
L 777.002825 381.6495 
L 786.476475 381.6495 
L 795.950125 381.6495 
L 805.423775 381.6495 
L 814.897425 381.6495 
L 824.371075 381.6495 
L 833.844725 381.6495 
L 843.318375 381.6495 
L 852.792025 381.6495 
L 862.265675 381.6495 
L 871.739325 381.6495 
L 881.212975 381.6495 
L 890.686625 381.6495 
L 900.160275 381.6495 
L 909.633925 381.6495 
L 919.107575 381.6495 
L 928.581225 381.6495 
L 938.054875 381.6495 
L 947.528525 381.6495 
L 957.002175 381.6495 
L 966.475825 381.6495 
L 975.949475 381.6495 
L 985.423125 381.6495 
" style="fill:none;stroke:#d9534f;stroke-linecap:square;"/>
   </g>
   <g id="line2d_14">
    <path clip-path="url(#pb11a5158c9)" d="M 38.058125 381.6495 
L 47.531775 381.6495 
L 57.005425 381.6495 
L 66.479075 381.6495 
L 75.952725 381.6495 
L 85.426375 381.6495 
L 94.900025 381.6495 
L 104.373675 381.6495 
L 113.847325 381.6495 
L 123.320975 381.6495 
L 132.794625 381.6495 
L 142.268275 381.6495 
L 151.741925 381.6495 
L 161.215575 381.6495 
L 170.689225 381.6495 
L 180.162875 381.6495 
L 189.636525 381.6495 
L 199.110175 381.6495 
L 208.583825 381.6495 
L 218.057475 381.6495 
L 227.531125 381.6495 
L 237.004775 381.6495 
L 246.478425 381.6495 
L 255.952075 379.569693 
L 265.425725 379.569693 
L 274.899375 381.6495 
L 284.373025 381.6495 
L 293.846675 379.569693 
L 303.320325 375.410079 
L 312.793975 377.489886 
L 322.267625 381.6495 
L 331.741275 381.6495 
L 341.214925 375.410079 
L 350.688575 365.011043 
L 360.162225 360.851429 
L 369.635875 369.170657 
L 379.109525 371.250464 
L 388.583175 369.170657 
L 398.056825 365.011043 
L 407.530475 365.011043 
L 417.004125 371.250464 
L 426.477775 367.09085 
L 435.951425 369.170657 
L 445.425075 373.330272 
L 454.898725 371.250464 
L 464.372375 371.250464 
L 473.846025 362.931236 
L 483.319675 360.851429 
L 492.793325 369.170657 
L 502.266975 373.330272 
L 511.740625 369.170657 
L 521.214275 367.09085 
L 530.687925 377.489886 
L 540.161575 379.569693 
L 549.635225 379.569693 
L 559.108875 379.569693 
L 568.582525 379.569693 
L 578.056175 381.6495 
L 587.529825 381.6495 
L 597.003475 381.6495 
L 606.477125 381.6495 
L 615.950775 381.6495 
L 625.424425 381.6495 
L 634.898075 381.6495 
L 644.371725 381.6495 
L 653.845375 381.6495 
L 663.319025 381.6495 
L 672.792675 381.6495 
L 682.266325 381.6495 
L 691.739975 381.6495 
L 701.213625 381.6495 
L 710.687275 381.6495 
L 720.160925 381.6495 
L 729.634575 381.6495 
L 739.108225 381.6495 
L 748.581875 381.6495 
L 758.055525 381.6495 
L 767.529175 381.6495 
L 777.002825 381.6495 
L 786.476475 381.6495 
L 795.950125 381.6495 
L 805.423775 381.6495 
L 814.897425 381.6495 
L 824.371075 381.6495 
L 833.844725 381.6495 
L 843.318375 381.6495 
L 852.792025 381.6495 
L 862.265675 381.6495 
L 871.739325 381.6495 
L 881.212975 381.6495 
L 890.686625 381.6495 
L 900.160275 381.6495 
L 909.633925 381.6495 
L 919.107575 381.6495 
L 928.581225 381.6495 
L 938.054875 381.6495 
L 947.528525 381.6495 
L 957.002175 381.6495 
L 966.475825 381.6495 
L 975.949475 381.6495 
L 985.423125 381.6495 
" style="fill:none;stroke:#d9534f;stroke-linecap:square;"/>
   </g>
   <g id="line2d_15">
    <path clip-path="url(#pb11a5158c9)" d="M 38.058125 381.6495 
L 47.531775 381.6495 
L 57.005425 381.6495 
L 66.479075 381.6495 
L 75.952725 381.6495 
L 85.426375 381.6495 
L 94.900025 381.6495 
L 104.373675 381.6495 
L 113.847325 381.6495 
L 123.320975 381.6495 
L 132.794625 381.6495 
L 142.268275 381.6495 
L 151.741925 381.6495 
L 161.215575 381.6495 
L 170.689225 381.6495 
L 180.162875 381.6495 
L 189.636525 381.6495 
L 199.110175 381.6495 
L 208.583825 381.6495 
L 218.057475 381.6495 
L 227.531125 381.6495 
L 237.004775 381.6495 
L 246.478425 381.6495 
L 255.952075 381.6495 
L 265.425725 381.6495 
L 274.899375 381.6495 
L 284.373025 381.6495 
L 293.846675 379.569693 
L 303.320325 373.330272 
L 312.793975 369.170657 
L 322.267625 373.330272 
L 331.741275 379.569693 
L 341.214925 377.489886 
L 350.688575 375.410079 
L 360.162225 375.410079 
L 369.635875 377.489886 
L 379.109525 377.489886 
L 388.583175 365.011043 
L 398.056825 356.691815 
L 407.530475 365.011043 
L 417.004125 362.931236 
L 426.477775 354.612008 
L 435.951425 352.5322 
L 445.425075 356.691815 
L 454.898725 367.09085 
L 464.372375 371.250464 
L 473.846025 371.250464 
L 483.319675 367.09085 
L 492.793325 373.330272 
L 502.266975 377.489886 
L 511.740625 377.489886 
L 521.214275 379.569693 
L 530.687925 375.410079 
L 540.161575 377.489886 
L 549.635225 381.6495 
L 559.108875 381.6495 
L 568.582525 381.6495 
L 578.056175 381.6495 
L 587.529825 381.6495 
L 597.003475 381.6495 
L 606.477125 381.6495 
L 615.950775 381.6495 
L 625.424425 381.6495 
L 634.898075 381.6495 
L 644.371725 381.6495 
L 653.845375 381.6495 
L 663.319025 381.6495 
L 672.792675 381.6495 
L 682.266325 381.6495 
L 691.739975 381.6495 
L 701.213625 381.6495 
L 710.687275 381.6495 
L 720.160925 381.6495 
L 729.634575 381.6495 
L 739.108225 381.6495 
L 748.581875 381.6495 
L 758.055525 381.6495 
L 767.529175 381.6495 
L 777.002825 381.6495 
L 786.476475 381.6495 
L 795.950125 381.6495 
L 805.423775 381.6495 
L 814.897425 381.6495 
L 824.371075 381.6495 
L 833.844725 381.6495 
L 843.318375 381.6495 
L 852.792025 381.6495 
L 862.265675 381.6495 
L 871.739325 381.6495 
L 881.212975 381.6495 
L 890.686625 381.6495 
L 900.160275 381.6495 
L 909.633925 381.6495 
L 919.107575 381.6495 
L 928.581225 381.6495 
L 938.054875 381.6495 
L 947.528525 381.6495 
L 957.002175 381.6495 
L 966.475825 381.6495 
L 975.949475 381.6495 
L 985.423125 381.6495 
" style="fill:none;stroke:#d9534f;stroke-linecap:square;"/>
   </g>
   <g id="line2d_16">
    <path clip-path="url(#pb11a5158c9)" d="M 38.058125 381.6495 
L 47.531775 381.6495 
L 57.005425 381.6495 
L 66.479075 381.6495 
L 75.952725 381.6495 
L 85.426375 381.6495 
L 94.900025 381.6495 
L 104.373675 381.6495 
L 113.847325 381.6495 
L 123.320975 381.6495 
L 132.794625 381.6495 
L 142.268275 381.6495 
L 151.741925 381.6495 
L 161.215575 381.6495 
L 170.689225 381.6495 
L 180.162875 381.6495 
L 189.636525 381.6495 
L 199.110175 381.6495 
L 208.583825 381.6495 
L 218.057475 381.6495 
L 227.531125 381.6495 
L 237.004775 381.6495 
L 246.478425 381.6495 
L 255.952075 381.6495 
L 265.425725 375.410079 
L 274.899375 373.330272 
L 284.373025 379.569693 
L 293.846675 377.489886 
L 303.320325 367.09085 
L 312.793975 367.09085 
L 322.267625 377.489886 
L 331.741275 379.569693 
L 341.214925 377.489886 
L 350.688575 373.330272 
L 360.162225 373.330272 
L 369.635875 377.489886 
L 379.109525 354.612008 
L 388.583175 346.292779 
L 398.056825 350.452393 
L 407.530475 350.452393 
L 417.004125 358.771622 
L 426.477775 356.691815 
L 435.951425 365.011043 
L 445.425075 362.931236 
L 454.898725 356.691815 
L 464.372375 365.011043 
L 473.846025 367.09085 
L 483.319675 371.250464 
L 492.793325 367.09085 
L 502.266975 360.851429 
L 511.740625 369.170657 
L 521.214275 375.410079 
L 530.687925 377.489886 
L 540.161575 375.410079 
L 549.635225 377.489886 
L 559.108875 381.6495 
L 568.582525 381.6495 
L 578.056175 381.6495 
L 587.529825 381.6495 
L 597.003475 381.6495 
L 606.477125 381.6495 
L 615.950775 381.6495 
L 625.424425 381.6495 
L 634.898075 381.6495 
L 644.371725 381.6495 
L 653.845375 381.6495 
L 663.319025 381.6495 
L 672.792675 381.6495 
L 682.266325 381.6495 
L 691.739975 381.6495 
L 701.213625 381.6495 
L 710.687275 381.6495 
L 720.160925 381.6495 
L 729.634575 381.6495 
L 739.108225 381.6495 
L 748.581875 381.6495 
L 758.055525 381.6495 
L 767.529175 381.6495 
L 777.002825 381.6495 
L 786.476475 381.6495 
L 795.950125 381.6495 
L 805.423775 381.6495 
L 814.897425 381.6495 
L 824.371075 381.6495 
L 833.844725 381.6495 
L 843.318375 381.6495 
L 852.792025 381.6495 
L 862.265675 381.6495 
L 871.739325 381.6495 
L 881.212975 381.6495 
L 890.686625 381.6495 
L 900.160275 381.6495 
L 909.633925 381.6495 
L 919.107575 381.6495 
L 928.581225 381.6495 
L 938.054875 381.6495 
L 947.528525 381.6495 
L 957.002175 381.6495 
L 966.475825 381.6495 
L 975.949475 381.6495 
L 985.423125 381.6495 
" style="fill:none;stroke:#d9534f;stroke-linecap:square;"/>
   </g>
   <g id="line2d_17">
    <path clip-path="url(#pb11a5158c9)" d="M 38.058125 381.6495 
L 47.531775 381.6495 
L 57.005425 381.6495 
L 66.479075 381.6495 
L 75.952725 381.6495 
L 85.426375 381.6495 
L 94.900025 381.6495 
L 104.373675 381.6495 
L 113.847325 381.6495 
L 123.320975 381.6495 
L 132.794625 381.6495 
L 142.268275 381.6495 
L 151.741925 381.6495 
L 161.215575 381.6495 
L 170.689225 381.6495 
L 180.162875 381.6495 
L 189.636525 381.6495 
L 199.110175 381.6495 
L 208.583825 381.6495 
L 218.057475 381.6495 
L 227.531125 381.6495 
L 237.004775 381.6495 
L 246.478425 381.6495 
L 255.952075 381.6495 
L 265.425725 381.6495 
L 274.899375 379.569693 
L 284.373025 375.410079 
L 293.846675 377.489886 
L 303.320325 377.489886 
L 312.793975 373.330272 
L 322.267625 373.330272 
L 331.741275 375.410079 
L 341.214925 379.569693 
L 350.688575 375.410079 
L 360.162225 365.011043 
L 369.635875 360.851429 
L 379.109525 367.09085 
L 388.583175 354.612008 
L 398.056825 342.133165 
L 407.530475 358.771622 
L 417.004125 358.771622 
L 426.477775 360.851429 
L 435.951425 367.09085 
L 445.425075 362.931236 
L 454.898725 362.931236 
L 464.372375 365.011043 
L 473.846025 371.250464 
L 483.319675 365.011043 
L 492.793325 358.771622 
L 502.266975 362.931236 
L 511.740625 369.170657 
L 521.214275 375.410079 
L 530.687925 375.410079 
L 540.161575 371.250464 
L 549.635225 373.330272 
L 559.108875 379.569693 
L 568.582525 381.6495 
L 578.056175 381.6495 
L 587.529825 381.6495 
L 597.003475 381.6495 
L 606.477125 381.6495 
L 615.950775 381.6495 
L 625.424425 381.6495 
L 634.898075 381.6495 
L 644.371725 381.6495 
L 653.845375 381.6495 
L 663.319025 381.6495 
L 672.792675 381.6495 
L 682.266325 381.6495 
L 691.739975 381.6495 
L 701.213625 379.569693 
L 710.687275 379.569693 
L 720.160925 381.6495 
L 729.634575 381.6495 
L 739.108225 381.6495 
L 748.581875 381.6495 
L 758.055525 381.6495 
L 767.529175 381.6495 
L 777.002825 381.6495 
L 786.476475 381.6495 
L 795.950125 381.6495 
L 805.423775 379.569693 
L 814.897425 379.569693 
L 824.371075 381.6495 
L 833.844725 381.6495 
L 843.318375 381.6495 
L 852.792025 381.6495 
L 862.265675 381.6495 
L 871.739325 381.6495 
L 881.212975 381.6495 
L 890.686625 381.6495 
L 900.160275 381.6495 
L 909.633925 381.6495 
L 919.107575 381.6495 
L 928.581225 381.6495 
L 938.054875 381.6495 
L 947.528525 381.6495 
L 957.002175 381.6495 
L 966.475825 381.6495 
L 975.949475 381.6495 
L 985.423125 381.6495 
" style="fill:none;stroke:#d9534f;stroke-linecap:square;"/>
   </g>
   <g id="line2d_18">
    <path clip-path="url(#pb11a5158c9)" d="M 38.058125 381.6495 
L 47.531775 381.6495 
L 57.005425 381.6495 
L 66.479075 381.6495 
L 75.952725 381.6495 
L 85.426375 381.6495 
L 94.900025 381.6495 
L 104.373675 381.6495 
L 113.847325 381.6495 
L 123.320975 381.6495 
L 132.794625 381.6495 
L 142.268275 381.6495 
L 151.741925 381.6495 
L 161.215575 381.6495 
L 170.689225 381.6495 
L 180.162875 381.6495 
L 189.636525 381.6495 
L 199.110175 381.6495 
L 208.583825 381.6495 
L 218.057475 381.6495 
L 227.531125 381.6495 
L 237.004775 381.6495 
L 246.478425 379.569693 
L 255.952075 377.489886 
L 265.425725 379.569693 
L 274.899375 381.6495 
L 284.373025 379.569693 
L 293.846675 375.410079 
L 303.320325 373.330272 
L 312.793975 377.489886 
L 322.267625 381.6495 
L 331.741275 377.489886 
L 341.214925 371.250464 
L 350.688575 365.011043 
L 360.162225 360.851429 
L 369.635875 360.851429 
L 379.109525 360.851429 
L 388.583175 354.612008 
L 398.056825 352.5322 
L 407.530475 358.771622 
L 417.004125 358.771622 
L 426.477775 354.612008 
L 435.951425 362.931236 
L 445.425075 362.931236 
L 454.898725 360.851429 
L 464.372375 371.250464 
L 473.846025 373.330272 
L 483.319675 377.489886 
L 492.793325 377.489886 
L 502.266975 371.250464 
L 511.740625 373.330272 
L 521.214275 365.011043 
L 530.687925 367.09085 
L 540.161575 379.569693 
L 549.635225 379.569693 
L 559.108875 381.6495 
L 568.582525 381.6495 
L 578.056175 381.6495 
L 587.529825 381.6495 
L 597.003475 381.6495 
L 606.477125 381.6495 
L 615.950775 381.6495 
L 625.424425 381.6495 
L 634.898075 381.6495 
L 644.371725 381.6495 
L 653.845375 381.6495 
L 663.319025 381.6495 
L 672.792675 381.6495 
L 682.266325 381.6495 
L 691.739975 381.6495 
L 701.213625 381.6495 
L 710.687275 381.6495 
L 720.160925 381.6495 
L 729.634575 381.6495 
L 739.108225 381.6495 
L 748.581875 381.6495 
L 758.055525 381.6495 
L 767.529175 381.6495 
L 777.002825 381.6495 
L 786.476475 381.6495 
L 795.950125 381.6495 
L 805.423775 381.6495 
L 814.897425 381.6495 
L 824.371075 381.6495 
L 833.844725 381.6495 
L 843.318375 381.6495 
L 852.792025 381.6495 
L 862.265675 381.6495 
L 871.739325 381.6495 
L 881.212975 381.6495 
L 890.686625 381.6495 
L 900.160275 381.6495 
L 909.633925 381.6495 
L 919.107575 381.6495 
L 928.581225 381.6495 
L 938.054875 381.6495 
L 947.528525 381.6495 
L 957.002175 381.6495 
L 966.475825 381.6495 
L 975.949475 381.6495 
L 985.423125 381.6495 
" style="fill:none;stroke:#d9534f;stroke-linecap:square;"/>
   </g>
   <g id="line2d_19">
    <path clip-path="url(#pb11a5158c9)" d="M 38.058125 381.6495 
L 47.531775 381.6495 
L 57.005425 381.6495 
L 66.479075 381.6495 
L 75.952725 381.6495 
L 85.426375 381.6495 
L 94.900025 381.6495 
L 104.373675 381.6495 
L 113.847325 381.6495 
L 123.320975 381.6495 
L 132.794625 381.6495 
L 142.268275 381.6495 
L 151.741925 381.6495 
L 161.215575 381.6495 
L 170.689225 381.6495 
L 180.162875 381.6495 
L 189.636525 381.6495 
L 199.110175 381.6495 
L 208.583825 381.6495 
L 218.057475 381.6495 
L 227.531125 381.6495 
L 237.004775 381.6495 
L 246.478425 381.6495 
L 255.952075 377.489886 
L 265.425725 375.410079 
L 274.899375 377.489886 
L 284.373025 377.489886 
L 293.846675 377.489886 
L 303.320325 377.489886 
L 312.793975 375.410079 
L 322.267625 373.330272 
L 331.741275 375.410079 
L 341.214925 369.170657 
L 350.688575 369.170657 
L 360.162225 375.410079 
L 369.635875 377.489886 
L 379.109525 367.09085 
L 388.583175 360.851429 
L 398.056825 369.170657 
L 407.530475 356.691815 
L 417.004125 356.691815 
L 426.477775 365.011043 
L 435.951425 354.612008 
L 445.425075 354.612008 
L 454.898725 365.011043 
L 464.372375 371.250464 
L 473.846025 369.170657 
L 483.319675 365.011043 
L 492.793325 365.011043 
L 502.266975 365.011043 
L 511.740625 367.09085 
L 521.214275 365.011043 
L 530.687925 371.250464 
L 540.161575 381.6495 
L 549.635225 381.6495 
L 559.108875 381.6495 
L 568.582525 381.6495 
L 578.056175 381.6495 
L 587.529825 381.6495 
L 597.003475 379.569693 
L 606.477125 379.569693 
L 615.950775 381.6495 
L 625.424425 381.6495 
L 634.898075 381.6495 
L 644.371725 381.6495 
L 653.845375 381.6495 
L 663.319025 381.6495 
L 672.792675 381.6495 
L 682.266325 381.6495 
L 691.739975 381.6495 
L 701.213625 381.6495 
L 710.687275 381.6495 
L 720.160925 381.6495 
L 729.634575 381.6495 
L 739.108225 379.569693 
L 748.581875 379.569693 
L 758.055525 381.6495 
L 767.529175 381.6495 
L 777.002825 381.6495 
L 786.476475 381.6495 
L 795.950125 381.6495 
L 805.423775 381.6495 
L 814.897425 381.6495 
L 824.371075 381.6495 
L 833.844725 381.6495 
L 843.318375 381.6495 
L 852.792025 381.6495 
L 862.265675 381.6495 
L 871.739325 381.6495 
L 881.212975 381.6495 
L 890.686625 381.6495 
L 900.160275 381.6495 
L 909.633925 381.6495 
L 919.107575 381.6495 
L 928.581225 381.6495 
L 938.054875 381.6495 
L 947.528525 381.6495 
L 957.002175 381.6495 
L 966.475825 381.6495 
L 975.949475 381.6495 
L 985.423125 381.6495 
" style="fill:none;stroke:#d9534f;stroke-linecap:square;"/>
   </g>
   <g id="line2d_20">
    <path clip-path="url(#pb11a5158c9)" d="M 38.058125 381.6495 
L 47.531775 381.6495 
L 57.005425 381.6495 
L 66.479075 381.6495 
L 75.952725 381.6495 
L 85.426375 381.6495 
L 94.900025 381.6495 
L 104.373675 381.6495 
L 113.847325 381.6495 
L 123.320975 381.6495 
L 132.794625 381.6495 
L 142.268275 381.6495 
L 151.741925 381.6495 
L 161.215575 381.6495 
L 170.689225 381.6495 
L 180.162875 381.6495 
L 189.636525 381.6495 
L 199.110175 381.6495 
L 208.583825 381.6495 
L 218.057475 381.6495 
L 227.531125 381.6495 
L 237.004775 381.6495 
L 246.478425 381.6495 
L 255.952075 379.569693 
L 265.425725 379.569693 
L 274.899375 381.6495 
L 284.373025 381.6495 
L 293.846675 381.6495 
L 303.320325 381.6495 
L 312.793975 377.489886 
L 322.267625 375.410079 
L 331.741275 379.569693 
L 341.214925 375.410079 
L 350.688575 367.09085 
L 360.162225 360.851429 
L 369.635875 365.011043 
L 379.109525 365.011043 
L 388.583175 365.011043 
L 398.056825 369.170657 
L 407.530475 365.011043 
L 417.004125 354.612008 
L 426.477775 354.612008 
L 435.951425 367.09085 
L 445.425075 360.851429 
L 454.898725 358.771622 
L 464.372375 371.250464 
L 473.846025 371.250464 
L 483.319675 371.250464 
L 492.793325 377.489886 
L 502.266975 371.250464 
L 511.740625 371.250464 
L 521.214275 373.330272 
L 530.687925 371.250464 
L 540.161575 377.489886 
L 549.635225 381.6495 
L 559.108875 381.6495 
L 568.582525 381.6495 
L 578.056175 381.6495 
L 587.529825 381.6495 
L 597.003475 381.6495 
L 606.477125 381.6495 
L 615.950775 381.6495 
L 625.424425 381.6495 
L 634.898075 381.6495 
L 644.371725 381.6495 
L 653.845375 381.6495 
L 663.319025 381.6495 
L 672.792675 381.6495 
L 682.266325 381.6495 
L 691.739975 381.6495 
L 701.213625 381.6495 
L 710.687275 381.6495 
L 720.160925 381.6495 
L 729.634575 381.6495 
L 739.108225 381.6495 
L 748.581875 381.6495 
L 758.055525 381.6495 
L 767.529175 381.6495 
L 777.002825 381.6495 
L 786.476475 381.6495 
L 795.950125 381.6495 
L 805.423775 381.6495 
L 814.897425 381.6495 
L 824.371075 381.6495 
L 833.844725 381.6495 
L 843.318375 381.6495 
L 852.792025 381.6495 
L 862.265675 381.6495 
L 871.739325 381.6495 
L 881.212975 381.6495 
L 890.686625 381.6495 
L 900.160275 381.6495 
L 909.633925 381.6495 
L 919.107575 381.6495 
L 928.581225 381.6495 
L 938.054875 381.6495 
L 947.528525 381.6495 
L 957.002175 381.6495 
L 966.475825 381.6495 
L 975.949475 381.6495 
L 985.423125 381.6495 
" style="fill:none;stroke:#d9534f;stroke-linecap:square;"/>
   </g>
   <g id="line2d_21">
    <path clip-path="url(#pb11a5158c9)" d="M 38.058125 381.6495 
L 47.531775 381.6495 
L 57.005425 381.6495 
L 66.479075 381.6495 
L 75.952725 381.6495 
L 85.426375 381.6495 
L 94.900025 381.6495 
L 104.373675 381.6495 
L 113.847325 381.6495 
L 123.320975 381.6495 
L 132.794625 381.6495 
L 142.268275 381.6495 
L 151.741925 381.6495 
L 161.215575 381.6495 
L 170.689225 381.6495 
L 180.162875 381.6495 
L 189.636525 381.6495 
L 199.110175 381.6495 
L 208.583825 381.6495 
L 218.057475 381.6495 
L 227.531125 381.6495 
L 237.004775 381.6495 
L 246.478425 381.6495 
L 255.952075 381.6495 
L 265.425725 377.489886 
L 274.899375 377.489886 
L 284.373025 379.569693 
L 293.846675 379.569693 
L 303.320325 381.6495 
L 312.793975 381.6495 
L 322.267625 381.6495 
L 331.741275 377.489886 
L 341.214925 375.410079 
L 350.688575 375.410079 
L 360.162225 373.330272 
L 369.635875 365.011043 
L 379.109525 360.851429 
L 388.583175 360.851429 
L 398.056825 360.851429 
L 407.530475 365.011043 
L 417.004125 362.931236 
L 426.477775 356.691815 
L 435.951425 358.771622 
L 445.425075 369.170657 
L 454.898725 369.170657 
L 464.372375 367.09085 
L 473.846025 365.011043 
L 483.319675 358.771622 
L 492.793325 365.011043 
L 502.266975 375.410079 
L 511.740625 379.569693 
L 521.214275 379.569693 
L 530.687925 377.489886 
L 540.161575 377.489886 
L 549.635225 375.410079 
L 559.108875 377.489886 
L 568.582525 381.6495 
L 578.056175 381.6495 
L 587.529825 381.6495 
L 597.003475 381.6495 
L 606.477125 381.6495 
L 615.950775 381.6495 
L 625.424425 381.6495 
L 634.898075 381.6495 
L 644.371725 381.6495 
L 653.845375 381.6495 
L 663.319025 381.6495 
L 672.792675 381.6495 
L 682.266325 379.569693 
L 691.739975 379.569693 
L 701.213625 381.6495 
L 710.687275 381.6495 
L 720.160925 381.6495 
L 729.634575 381.6495 
L 739.108225 381.6495 
L 748.581875 381.6495 
L 758.055525 381.6495 
L 767.529175 381.6495 
L 777.002825 381.6495 
L 786.476475 381.6495 
L 795.950125 381.6495 
L 805.423775 381.6495 
L 814.897425 381.6495 
L 824.371075 381.6495 
L 833.844725 381.6495 
L 843.318375 381.6495 
L 852.792025 381.6495 
L 862.265675 381.6495 
L 871.739325 381.6495 
L 881.212975 381.6495 
L 890.686625 381.6495 
L 900.160275 381.6495 
L 909.633925 381.6495 
L 919.107575 381.6495 
L 928.581225 381.6495 
L 938.054875 381.6495 
L 947.528525 381.6495 
L 957.002175 381.6495 
L 966.475825 381.6495 
L 975.949475 381.6495 
L 985.423125 381.6495 
" style="fill:none;stroke:#d9534f;stroke-linecap:square;"/>
   </g>
   <g id="line2d_22">
    <path clip-path="url(#pb11a5158c9)" d="M 38.058125 381.6495 
L 47.531775 381.6495 
L 57.005425 381.6495 
L 66.479075 381.6495 
L 75.952725 381.6495 
L 85.426375 381.6495 
L 94.900025 381.6495 
L 104.373675 381.6495 
L 113.847325 381.6495 
L 123.320975 381.6495 
L 132.794625 381.6495 
L 142.268275 381.6495 
L 151.741925 381.6495 
L 161.215575 381.6495 
L 170.689225 381.6495 
L 180.162875 381.6495 
L 189.636525 381.6495 
L 199.110175 381.6495 
L 208.583825 381.6495 
L 218.057475 381.6495 
L 227.531125 381.6495 
L 237.004775 381.6495 
L 246.478425 365.011043 
L 255.952075 360.851429 
L 265.425725 350.452393 
L 274.899375 317.17548 
L 284.373025 325.494708 
L 293.846675 325.494708 
L 303.320325 267.260109 
L 312.793975 250.621652 
L 322.267625 294.297601 
L 331.741275 317.17548 
L 341.214925 279.738951 
L 350.688575 221.504352 
L 360.162225 181.988017 
L 369.635875 198.626474 
L 379.109525 206.945703 
L 388.583175 144.551489 
L 398.056825 136.232261 
L 407.530475 163.269753 
L 417.004125 167.429367 
L 426.477775 202.786088 
L 435.951425 267.260109 
L 445.425075 306.776444 
L 454.898725 285.978373 
L 464.372375 265.180302 
L 473.846025 246.462038 
L 483.319675 248.541845 
L 492.793325 294.297601 
L 502.266975 306.776444 
L 511.740625 304.696637 
L 521.214275 317.17548 
L 530.687925 333.813936 
L 540.161575 352.5322 
L 549.635225 371.250464 
L 559.108875 379.569693 
L 568.582525 381.6495 
L 578.056175 381.6495 
L 587.529825 381.6495 
L 597.003475 381.6495 
L 606.477125 381.6495 
L 615.950775 381.6495 
L 625.424425 381.6495 
L 634.898075 381.6495 
L 644.371725 381.6495 
L 653.845375 381.6495 
L 663.319025 381.6495 
L 672.792675 381.6495 
L 682.266325 381.6495 
L 691.739975 381.6495 
L 701.213625 381.6495 
L 710.687275 381.6495 
L 720.160925 381.6495 
L 729.634575 381.6495 
L 739.108225 381.6495 
L 748.581875 381.6495 
L 758.055525 381.6495 
L 767.529175 381.6495 
L 777.002825 381.6495 
L 786.476475 381.6495 
L 795.950125 381.6495 
L 805.423775 381.6495 
L 814.897425 381.6495 
L 824.371075 381.6495 
L 833.844725 381.6495 
L 843.318375 381.6495 
L 852.792025 381.6495 
L 862.265675 381.6495 
L 871.739325 381.6495 
L 881.212975 381.6495 
L 890.686625 381.6495 
L 900.160275 381.6495 
L 909.633925 381.6495 
L 919.107575 381.6495 
L 928.581225 381.6495 
L 938.054875 381.6495 
L 947.528525 381.6495 
L 957.002175 381.6495 
L 966.475825 381.6495 
L 975.949475 381.6495 
L 985.423125 381.6495 
" style="fill:none;stroke:#f0ad4e;stroke-linecap:square;"/>
   </g>
   <g id="line2d_23">
    <path clip-path="url(#pb11a5158c9)" d="M 38.058125 381.6495 
L 47.531775 381.6495 
L 57.005425 381.6495 
L 66.479075 381.6495 
L 75.952725 381.6495 
L 85.426375 381.6495 
L 94.900025 381.6495 
L 104.373675 381.6495 
L 113.847325 381.6495 
L 123.320975 381.6495 
L 132.794625 381.6495 
L 142.268275 381.6495 
L 151.741925 381.6495 
L 161.215575 381.6495 
L 170.689225 381.6495 
L 180.162875 381.6495 
L 189.636525 381.6495 
L 199.110175 381.6495 
L 208.583825 381.6495 
L 218.057475 381.6495 
L 227.531125 381.6495 
L 237.004775 381.6495 
L 246.478425 379.569693 
L 255.952075 358.771622 
L 265.425725 340.053358 
L 274.899375 342.133165 
L 284.373025 346.292779 
L 293.846675 302.61683 
L 303.320325 252.701459 
L 312.793975 267.260109 
L 322.267625 315.095672 
L 331.741275 317.17548 
L 341.214925 300.537023 
L 350.688575 256.861073 
L 360.162225 206.945703 
L 369.635875 206.945703 
L 379.109525 169.509175 
L 388.583175 111.274575 
L 398.056825 123.753418 
L 407.530475 157.030332 
L 417.004125 163.269753 
L 426.477775 217.344738 
L 435.951425 285.978373 
L 445.425075 315.095672 
L 454.898725 273.49953 
L 464.372375 231.903388 
L 473.846025 217.344738 
L 483.319675 238.142809 
L 492.793325 308.856251 
L 502.266975 296.377408 
L 511.740625 288.05818 
L 521.214275 329.654322 
L 530.687925 348.372586 
L 540.161575 369.170657 
L 549.635225 373.330272 
L 559.108875 373.330272 
L 568.582525 377.489886 
L 578.056175 379.569693 
L 587.529825 381.6495 
L 597.003475 381.6495 
L 606.477125 381.6495 
L 615.950775 381.6495 
L 625.424425 381.6495 
L 634.898075 379.569693 
L 644.371725 377.489886 
L 653.845375 379.569693 
L 663.319025 381.6495 
L 672.792675 381.6495 
L 682.266325 381.6495 
L 691.739975 381.6495 
L 701.213625 381.6495 
L 710.687275 381.6495 
L 720.160925 381.6495 
L 729.634575 381.6495 
L 739.108225 379.569693 
L 748.581875 379.569693 
L 758.055525 381.6495 
L 767.529175 381.6495 
L 777.002825 381.6495 
L 786.476475 381.6495 
L 795.950125 381.6495 
L 805.423775 381.6495 
L 814.897425 381.6495 
L 824.371075 381.6495 
L 833.844725 381.6495 
L 843.318375 381.6495 
L 852.792025 381.6495 
L 862.265675 381.6495 
L 871.739325 381.6495 
L 881.212975 379.569693 
L 890.686625 379.569693 
L 900.160275 379.569693 
L 909.633925 379.569693 
L 919.107575 381.6495 
L 928.581225 381.6495 
L 938.054875 381.6495 
L 947.528525 381.6495 
L 957.002175 381.6495 
L 966.475825 381.6495 
L 975.949475 381.6495 
L 985.423125 381.6495 
" style="fill:none;stroke:#d9534f;stroke-linecap:square;"/>
   </g>
   <g id="line2d_24">
    <path clip-path="url(#pb11a5158c9)" d="M 38.058125 381.6495 
L 47.531775 381.6495 
L 57.005425 381.6495 
L 66.479075 381.6495 
L 75.952725 381.6495 
L 85.426375 381.6495 
L 94.900025 381.6495 
L 104.373675 381.6495 
L 113.847325 381.6495 
L 123.320975 381.6495 
L 132.794625 381.6495 
L 142.268275 381.6495 
L 151.741925 381.6495 
L 161.215575 381.6495 
L 170.689225 381.6495 
L 180.162875 381.6495 
L 189.636525 381.6495 
L 199.110175 381.6495 
L 208.583825 381.6495 
L 218.057475 381.6495 
L 227.531125 381.6495 
L 237.004775 379.569693 
L 246.478425 365.011043 
L 255.952075 362.931236 
L 265.425725 348.372586 
L 274.899375 325.494708 
L 284.373025 317.17548 
L 293.846675 313.015865 
L 303.320325 283.898566 
L 312.793975 277.659144 
L 322.267625 321.335094 
L 331.741275 329.654322 
L 341.214925 285.978373 
L 350.688575 236.063002 
L 360.162225 240.222616 
L 369.635875 246.462038 
L 379.109525 179.90821 
L 388.583175 98.795733 
L 398.056825 115.43419 
L 407.530475 159.110139 
L 417.004125 159.110139 
L 426.477775 225.663967 
L 435.951425 288.05818 
L 445.425075 283.898566 
L 454.898725 290.137987 
L 464.372375 298.457215 
L 473.846025 288.05818 
L 483.319675 288.05818 
L 492.793325 300.537023 
L 502.266975 298.457215 
L 511.740625 319.255287 
L 521.214275 342.133165 
L 530.687925 344.212972 
L 540.161575 360.851429 
L 549.635225 379.569693 
L 559.108875 381.6495 
L 568.582525 381.6495 
L 578.056175 381.6495 
L 587.529825 381.6495 
L 597.003475 381.6495 
L 606.477125 381.6495 
L 615.950775 381.6495 
L 625.424425 381.6495 
L 634.898075 381.6495 
L 644.371725 381.6495 
L 653.845375 381.6495 
L 663.319025 381.6495 
L 672.792675 381.6495 
L 682.266325 381.6495 
L 691.739975 381.6495 
L 701.213625 381.6495 
L 710.687275 381.6495 
L 720.160925 381.6495 
L 729.634575 381.6495 
L 739.108225 381.6495 
L 748.581875 381.6495 
L 758.055525 381.6495 
L 767.529175 381.6495 
L 777.002825 381.6495 
L 786.476475 381.6495 
L 795.950125 381.6495 
L 805.423775 381.6495 
L 814.897425 381.6495 
L 824.371075 381.6495 
L 833.844725 381.6495 
L 843.318375 381.6495 
L 852.792025 381.6495 
L 862.265675 381.6495 
L 871.739325 381.6495 
L 881.212975 381.6495 
L 890.686625 381.6495 
L 900.160275 381.6495 
L 909.633925 381.6495 
L 919.107575 381.6495 
L 928.581225 381.6495 
L 938.054875 381.6495 
L 947.528525 381.6495 
L 957.002175 381.6495 
L 966.475825 381.6495 
L 975.949475 381.6495 
L 985.423125 381.6495 
" style="fill:none;stroke:#f0ad4e;stroke-linecap:square;"/>
   </g>
   <g id="line2d_25">
    <path clip-path="url(#pb11a5158c9)" d="M 38.058125 381.6495 
L 47.531775 381.6495 
L 57.005425 381.6495 
L 66.479075 381.6495 
L 75.952725 381.6495 
L 85.426375 381.6495 
L 94.900025 381.6495 
L 104.373675 381.6495 
L 113.847325 381.6495 
L 123.320975 381.6495 
L 132.794625 381.6495 
L 142.268275 381.6495 
L 151.741925 381.6495 
L 161.215575 381.6495 
L 170.689225 381.6495 
L 180.162875 381.6495 
L 189.636525 381.6495 
L 199.110175 381.6495 
L 208.583825 381.6495 
L 218.057475 381.6495 
L 227.531125 381.6495 
L 237.004775 381.6495 
L 246.478425 369.170657 
L 255.952075 356.691815 
L 265.425725 344.212972 
L 274.899375 335.893744 
L 284.373025 323.414901 
L 293.846675 292.217794 
L 303.320325 277.659144 
L 312.793975 283.898566 
L 322.267625 310.936058 
L 331.741275 337.973551 
L 341.214925 292.217794 
L 350.688575 244.382231 
L 360.162225 240.222616 
L 369.635875 223.584159 
L 379.109525 211.105317 
L 388.583175 173.668789 
L 398.056825 150.79091 
L 407.530475 134.152454 
L 417.004125 157.030332 
L 426.477775 261.020687 
L 435.951425 296.377408 
L 445.425075 277.659144 
L 454.898725 294.297601 
L 464.372375 302.61683 
L 473.846025 252.701459 
L 483.319675 252.701459 
L 492.793325 300.537023 
L 502.266975 288.05818 
L 511.740625 298.457215 
L 521.214275 323.414901 
L 530.687925 344.212972 
L 540.161575 373.330272 
L 549.635225 375.410079 
L 559.108875 377.489886 
L 568.582525 381.6495 
L 578.056175 379.569693 
L 587.529825 379.569693 
L 597.003475 381.6495 
L 606.477125 379.569693 
L 615.950775 379.569693 
L 625.424425 377.489886 
L 634.898075 377.489886 
L 644.371725 379.569693 
L 653.845375 379.569693 
L 663.319025 381.6495 
L 672.792675 381.6495 
L 682.266325 379.569693 
L 691.739975 379.569693 
L 701.213625 381.6495 
L 710.687275 381.6495 
L 720.160925 381.6495 
L 729.634575 381.6495 
L 739.108225 381.6495 
L 748.581875 381.6495 
L 758.055525 381.6495 
L 767.529175 381.6495 
L 777.002825 381.6495 
L 786.476475 381.6495 
L 795.950125 381.6495 
L 805.423775 381.6495 
L 814.897425 381.6495 
L 824.371075 381.6495 
L 833.844725 381.6495 
L 843.318375 381.6495 
L 852.792025 381.6495 
L 862.265675 381.6495 
L 871.739325 381.6495 
L 881.212975 381.6495 
L 890.686625 381.6495 
L 900.160275 381.6495 
L 909.633925 381.6495 
L 919.107575 381.6495 
L 928.581225 381.6495 
L 938.054875 381.6495 
L 947.528525 381.6495 
L 957.002175 381.6495 
L 966.475825 381.6495 
L 975.949475 381.6495 
L 985.423125 381.6495 
" style="fill:none;stroke:#d9534f;stroke-linecap:square;"/>
   </g>
   <g id="line2d_26">
    <path clip-path="url(#pb11a5158c9)" d="M 38.058125 381.6495 
L 47.531775 381.6495 
L 57.005425 381.6495 
L 66.479075 381.6495 
L 75.952725 381.6495 
L 85.426375 381.6495 
L 94.900025 381.6495 
L 104.373675 381.6495 
L 113.847325 381.6495 
L 123.320975 381.6495 
L 132.794625 381.6495 
L 142.268275 381.6495 
L 151.741925 381.6495 
L 161.215575 381.6495 
L 170.689225 381.6495 
L 180.162875 381.6495 
L 189.636525 381.6495 
L 199.110175 381.6495 
L 208.583825 381.6495 
L 218.057475 381.6495 
L 227.531125 381.6495 
L 237.004775 381.6495 
L 246.478425 369.170657 
L 255.952075 344.212972 
L 265.425725 342.133165 
L 274.899375 346.292779 
L 284.373025 323.414901 
L 293.846675 298.457215 
L 303.320325 277.659144 
L 312.793975 248.541845 
L 322.267625 288.05818 
L 331.741275 329.654322 
L 341.214925 283.898566 
L 350.688575 244.382231 
L 360.162225 219.424545 
L 369.635875 213.185124 
L 379.109525 175.748596 
L 388.583175 117.513997 
L 398.056825 113.354382 
L 407.530475 150.79091 
L 417.004125 177.828403 
L 426.477775 219.424545 
L 435.951425 294.297601 
L 445.425075 321.335094 
L 454.898725 306.776444 
L 464.372375 292.217794 
L 473.846025 244.382231 
L 483.319675 271.419723 
L 492.793325 327.574515 
L 502.266975 310.936058 
L 511.740625 308.856251 
L 521.214275 321.335094 
L 530.687925 346.292779 
L 540.161575 360.851429 
L 549.635225 373.330272 
L 559.108875 381.6495 
L 568.582525 381.6495 
L 578.056175 381.6495 
L 587.529825 381.6495 
L 597.003475 381.6495 
L 606.477125 381.6495 
L 615.950775 381.6495 
L 625.424425 381.6495 
L 634.898075 381.6495 
L 644.371725 381.6495 
L 653.845375 381.6495 
L 663.319025 381.6495 
L 672.792675 381.6495 
L 682.266325 381.6495 
L 691.739975 381.6495 
L 701.213625 381.6495 
L 710.687275 381.6495 
L 720.160925 381.6495 
L 729.634575 381.6495 
L 739.108225 381.6495 
L 748.581875 381.6495 
L 758.055525 381.6495 
L 767.529175 381.6495 
L 777.002825 381.6495 
L 786.476475 381.6495 
L 795.950125 381.6495 
L 805.423775 381.6495 
L 814.897425 381.6495 
L 824.371075 381.6495 
L 833.844725 381.6495 
L 843.318375 381.6495 
L 852.792025 381.6495 
L 862.265675 381.6495 
L 871.739325 381.6495 
L 881.212975 381.6495 
L 890.686625 381.6495 
L 900.160275 381.6495 
L 909.633925 381.6495 
L 919.107575 381.6495 
L 928.581225 381.6495 
L 938.054875 381.6495 
L 947.528525 381.6495 
L 957.002175 381.6495 
L 966.475825 381.6495 
L 975.949475 381.6495 
L 985.423125 381.6495 
" style="fill:none;stroke:#f0ad4e;stroke-linecap:square;"/>
   </g>
   <g id="line2d_27">
    <path clip-path="url(#pb11a5158c9)" d="M 38.058125 381.6495 
L 47.531775 381.6495 
L 57.005425 381.6495 
L 66.479075 381.6495 
L 75.952725 381.6495 
L 85.426375 381.6495 
L 94.900025 381.6495 
L 104.373675 381.6495 
L 113.847325 381.6495 
L 123.320975 381.6495 
L 132.794625 381.6495 
L 142.268275 381.6495 
L 151.741925 381.6495 
L 161.215575 381.6495 
L 170.689225 381.6495 
L 180.162875 381.6495 
L 189.636525 381.6495 
L 199.110175 381.6495 
L 208.583825 381.6495 
L 218.057475 381.6495 
L 227.531125 379.569693 
L 237.004775 379.569693 
L 246.478425 371.250464 
L 255.952075 356.691815 
L 265.425725 350.452393 
L 274.899375 337.973551 
L 284.373025 325.494708 
L 293.846675 313.015865 
L 303.320325 271.419723 
L 312.793975 258.94088 
L 322.267625 304.696637 
L 331.741275 325.494708 
L 341.214925 294.297601 
L 350.688575 227.743774 
L 360.162225 190.307246 
L 369.635875 204.865895 
L 379.109525 181.988017 
L 388.583175 129.992839 
L 398.056825 146.631296 
L 407.530475 173.668789 
L 417.004125 173.668789 
L 426.477775 240.222616 
L 435.951425 304.696637 
L 445.425075 296.377408 
L 454.898725 300.537023 
L 464.372375 300.537023 
L 473.846025 258.94088 
L 483.319675 261.020687 
L 492.793325 288.05818 
L 502.266975 281.818759 
L 511.740625 304.696637 
L 521.214275 346.292779 
L 530.687925 344.212972 
L 540.161575 348.372586 
L 549.635225 373.330272 
L 559.108875 381.6495 
L 568.582525 379.569693 
L 578.056175 377.489886 
L 587.529825 377.489886 
L 597.003475 379.569693 
L 606.477125 381.6495 
L 615.950775 381.6495 
L 625.424425 381.6495 
L 634.898075 381.6495 
L 644.371725 381.6495 
L 653.845375 379.569693 
L 663.319025 379.569693 
L 672.792675 381.6495 
L 682.266325 381.6495 
L 691.739975 381.6495 
L 701.213625 381.6495 
L 710.687275 381.6495 
L 720.160925 381.6495 
L 729.634575 381.6495 
L 739.108225 381.6495 
L 748.581875 381.6495 
L 758.055525 381.6495 
L 767.529175 379.569693 
L 777.002825 379.569693 
L 786.476475 381.6495 
L 795.950125 381.6495 
L 805.423775 381.6495 
L 814.897425 381.6495 
L 824.371075 381.6495 
L 833.844725 381.6495 
L 843.318375 381.6495 
L 852.792025 381.6495 
L 862.265675 381.6495 
L 871.739325 381.6495 
L 881.212975 381.6495 
L 890.686625 381.6495 
L 900.160275 381.6495 
L 909.633925 381.6495 
L 919.107575 381.6495 
L 928.581225 381.6495 
L 938.054875 381.6495 
L 947.528525 381.6495 
L 957.002175 381.6495 
L 966.475825 381.6495 
L 975.949475 381.6495 
L 985.423125 381.6495 
" style="fill:none;stroke:#f0ad4e;stroke-linecap:square;"/>
   </g>
   <g id="line2d_28">
    <path clip-path="url(#pb11a5158c9)" d="M 38.058125 381.6495 
L 47.531775 381.6495 
L 57.005425 381.6495 
L 66.479075 381.6495 
L 75.952725 381.6495 
L 85.426375 381.6495 
L 94.900025 381.6495 
L 104.373675 381.6495 
L 113.847325 381.6495 
L 123.320975 381.6495 
L 132.794625 381.6495 
L 142.268275 381.6495 
L 151.741925 381.6495 
L 161.215575 381.6495 
L 170.689225 381.6495 
L 180.162875 381.6495 
L 189.636525 381.6495 
L 199.110175 381.6495 
L 208.583825 381.6495 
L 218.057475 381.6495 
L 227.531125 381.6495 
L 237.004775 381.6495 
L 246.478425 371.250464 
L 255.952075 346.292779 
L 265.425725 337.973551 
L 274.899375 340.053358 
L 284.373025 317.17548 
L 293.846675 298.457215 
L 303.320325 229.823581 
L 312.793975 196.546667 
L 322.267625 285.978373 
L 331.741275 325.494708 
L 341.214925 279.738951 
L 350.688575 219.424545 
L 360.162225 188.227439 
L 369.635875 188.227439 
L 379.109525 179.90821 
L 388.583175 125.833225 
L 398.056825 53.039976 
L 407.530475 109.194768 
L 417.004125 194.46686 
L 426.477775 223.584159 
L 435.951425 273.49953 
L 445.425075 300.537023 
L 454.898725 292.217794 
L 464.372375 275.579337 
L 473.846025 261.020687 
L 483.319675 254.781266 
L 492.793325 277.659144 
L 502.266975 279.738951 
L 511.740625 283.898566 
L 521.214275 306.776444 
L 530.687925 344.212972 
L 540.161575 373.330272 
L 549.635225 375.410079 
L 559.108875 381.6495 
L 568.582525 381.6495 
L 578.056175 381.6495 
L 587.529825 381.6495 
L 597.003475 381.6495 
L 606.477125 381.6495 
L 615.950775 381.6495 
L 625.424425 381.6495 
L 634.898075 381.6495 
L 644.371725 381.6495 
L 653.845375 381.6495 
L 663.319025 381.6495 
L 672.792675 381.6495 
L 682.266325 381.6495 
L 691.739975 381.6495 
L 701.213625 381.6495 
L 710.687275 381.6495 
L 720.160925 381.6495 
L 729.634575 381.6495 
L 739.108225 381.6495 
L 748.581875 381.6495 
L 758.055525 381.6495 
L 767.529175 381.6495 
L 777.002825 381.6495 
L 786.476475 381.6495 
L 795.950125 381.6495 
L 805.423775 381.6495 
L 814.897425 381.6495 
L 824.371075 381.6495 
L 833.844725 381.6495 
L 843.318375 381.6495 
L 852.792025 381.6495 
L 862.265675 381.6495 
L 871.739325 381.6495 
L 881.212975 381.6495 
L 890.686625 381.6495 
L 900.160275 381.6495 
L 909.633925 381.6495 
L 919.107575 381.6495 
L 928.581225 381.6495 
L 938.054875 381.6495 
L 947.528525 381.6495 
L 957.002175 381.6495 
L 966.475825 381.6495 
L 975.949475 381.6495 
L 985.423125 381.6495 
" style="fill:none;stroke:#d9534f;stroke-linecap:square;"/>
   </g>
   <g id="line2d_29">
    <path clip-path="url(#pb11a5158c9)" d="M 38.058125 381.6495 
L 47.531775 381.6495 
L 57.005425 381.6495 
L 66.479075 381.6495 
L 75.952725 381.6495 
L 85.426375 381.6495 
L 94.900025 381.6495 
L 104.373675 381.6495 
L 113.847325 381.6495 
L 123.320975 381.6495 
L 132.794625 381.6495 
L 142.268275 381.6495 
L 151.741925 381.6495 
L 161.215575 381.6495 
L 170.689225 381.6495 
L 180.162875 381.6495 
L 189.636525 381.6495 
L 199.110175 381.6495 
L 208.583825 381.6495 
L 218.057475 381.6495 
L 227.531125 381.6495 
L 237.004775 379.569693 
L 246.478425 369.170657 
L 255.952075 362.931236 
L 265.425725 342.133165 
L 274.899375 335.893744 
L 284.373025 329.654322 
L 293.846675 306.776444 
L 303.320325 267.260109 
L 312.793975 242.302423 
L 322.267625 288.05818 
L 331.741275 319.255287 
L 341.214925 302.61683 
L 350.688575 246.462038 
L 360.162225 177.828403 
L 369.635875 142.471682 
L 379.109525 136.232261 
L 388.583175 98.795733 
L 398.056825 90.476504 
L 407.530475 140.391875 
L 417.004125 181.988017 
L 426.477775 238.142809 
L 435.951425 277.659144 
L 445.425075 288.05818 
L 454.898725 283.898566 
L 464.372375 248.541845 
L 473.846025 227.743774 
L 483.319675 240.222616 
L 492.793325 277.659144 
L 502.266975 277.659144 
L 511.740625 285.978373 
L 521.214275 331.734129 
L 530.687925 348.372586 
L 540.161575 356.691815 
L 549.635225 367.09085 
L 559.108875 379.569693 
L 568.582525 381.6495 
L 578.056175 381.6495 
L 587.529825 381.6495 
L 597.003475 381.6495 
L 606.477125 381.6495 
L 615.950775 381.6495 
L 625.424425 381.6495 
L 634.898075 381.6495 
L 644.371725 381.6495 
L 653.845375 381.6495 
L 663.319025 379.569693 
L 672.792675 379.569693 
L 682.266325 377.489886 
L 691.739975 377.489886 
L 701.213625 381.6495 
L 710.687275 381.6495 
L 720.160925 381.6495 
L 729.634575 381.6495 
L 739.108225 381.6495 
L 748.581875 381.6495 
L 758.055525 381.6495 
L 767.529175 381.6495 
L 777.002825 381.6495 
L 786.476475 381.6495 
L 795.950125 381.6495 
L 805.423775 381.6495 
L 814.897425 381.6495 
L 824.371075 381.6495 
L 833.844725 379.569693 
L 843.318375 379.569693 
L 852.792025 381.6495 
L 862.265675 381.6495 
L 871.739325 381.6495 
L 881.212975 381.6495 
L 890.686625 381.6495 
L 900.160275 381.6495 
L 909.633925 381.6495 
L 919.107575 381.6495 
L 928.581225 381.6495 
L 938.054875 381.6495 
L 947.528525 381.6495 
L 957.002175 381.6495 
L 966.475825 381.6495 
L 975.949475 381.6495 
L 985.423125 381.6495 
" style="fill:none;stroke:#d9534f;stroke-linecap:square;"/>
   </g>
   <g id="line2d_30">
    <path clip-path="url(#pb11a5158c9)" d="M 38.058125 381.6495 
L 47.531775 381.6495 
L 57.005425 381.6495 
L 66.479075 381.6495 
L 75.952725 381.6495 
L 85.426375 381.6495 
L 94.900025 381.6495 
L 104.373675 381.6495 
L 113.847325 381.6495 
L 123.320975 381.6495 
L 132.794625 381.6495 
L 142.268275 381.6495 
L 151.741925 381.6495 
L 161.215575 381.6495 
L 170.689225 381.6495 
L 180.162875 381.6495 
L 189.636525 381.6495 
L 199.110175 381.6495 
L 208.583825 381.6495 
L 218.057475 381.6495 
L 227.531125 381.6495 
L 237.004775 381.6495 
L 246.478425 362.931236 
L 255.952075 346.292779 
L 265.425725 346.292779 
L 274.899375 342.133165 
L 284.373025 321.335094 
L 293.846675 285.978373 
L 303.320325 215.264931 
L 312.793975 221.504352 
L 322.267625 306.776444 
L 331.741275 323.414901 
L 341.214925 296.377408 
L 350.688575 209.02551 
L 360.162225 169.509175 
L 369.635875 209.02551 
L 379.109525 190.307246 
L 388.583175 117.513997 
L 398.056825 90.476504 
L 407.530475 132.072646 
L 417.004125 186.147631 
L 426.477775 231.903388 
L 435.951425 281.818759 
L 445.425075 315.095672 
L 454.898725 308.856251 
L 464.372375 296.377408 
L 473.846025 258.94088 
L 483.319675 258.94088 
L 492.793325 296.377408 
L 502.266975 290.137987 
L 511.740625 300.537023 
L 521.214275 325.494708 
L 530.687925 331.734129 
L 540.161575 348.372586 
L 549.635225 371.250464 
L 559.108875 381.6495 
L 568.582525 381.6495 
L 578.056175 381.6495 
L 587.529825 381.6495 
L 597.003475 381.6495 
L 606.477125 381.6495 
L 615.950775 381.6495 
L 625.424425 381.6495 
L 634.898075 381.6495 
L 644.371725 381.6495 
L 653.845375 381.6495 
L 663.319025 381.6495 
L 672.792675 381.6495 
L 682.266325 381.6495 
L 691.739975 381.6495 
L 701.213625 381.6495 
L 710.687275 381.6495 
L 720.160925 381.6495 
L 729.634575 381.6495 
L 739.108225 381.6495 
L 748.581875 381.6495 
L 758.055525 381.6495 
L 767.529175 381.6495 
L 777.002825 381.6495 
L 786.476475 381.6495 
L 795.950125 381.6495 
L 805.423775 381.6495 
L 814.897425 381.6495 
L 824.371075 381.6495 
L 833.844725 381.6495 
L 843.318375 381.6495 
L 852.792025 381.6495 
L 862.265675 381.6495 
L 871.739325 381.6495 
L 881.212975 381.6495 
L 890.686625 381.6495 
L 900.160275 381.6495 
L 909.633925 381.6495 
L 919.107575 381.6495 
L 928.581225 381.6495 
L 938.054875 381.6495 
L 947.528525 381.6495 
L 957.002175 381.6495 
L 966.475825 381.6495 
L 975.949475 381.6495 
L 985.423125 381.6495 
" style="fill:none;stroke:#d9534f;stroke-linecap:square;"/>
   </g>
   <g id="line2d_31">
    <path clip-path="url(#pb11a5158c9)" d="M 38.058125 381.6495 
L 47.531775 381.6495 
L 57.005425 381.6495 
L 66.479075 381.6495 
L 75.952725 381.6495 
L 85.426375 381.6495 
L 94.900025 381.6495 
L 104.373675 381.6495 
L 113.847325 381.6495 
L 123.320975 381.6495 
L 132.794625 381.6495 
L 142.268275 381.6495 
L 151.741925 381.6495 
L 161.215575 381.6495 
L 170.689225 381.6495 
L 180.162875 381.6495 
L 189.636525 381.6495 
L 199.110175 381.6495 
L 208.583825 381.6495 
L 218.057475 381.6495 
L 227.531125 381.6495 
L 237.004775 381.6495 
L 246.478425 377.489886 
L 255.952075 356.691815 
L 265.425725 335.893744 
L 274.899375 329.654322 
L 284.373025 325.494708 
L 293.846675 304.696637 
L 303.320325 240.222616 
L 312.793975 215.264931 
L 322.267625 285.978373 
L 331.741275 335.893744 
L 341.214925 296.377408 
L 350.688575 227.743774 
L 360.162225 184.067824 
L 369.635875 200.706281 
L 379.109525 181.988017 
L 388.583175 132.072646 
L 398.056825 113.354382 
L 407.530475 105.035154 
L 417.004125 161.189946 
L 426.477775 244.382231 
L 435.951425 290.137987 
L 445.425075 281.818759 
L 454.898725 261.020687 
L 464.372375 267.260109 
L 473.846025 267.260109 
L 483.319675 294.297601 
L 492.793325 321.335094 
L 502.266975 300.537023 
L 511.740625 290.137987 
L 521.214275 321.335094 
L 530.687925 342.133165 
L 540.161575 354.612008 
L 549.635225 377.489886 
L 559.108875 377.489886 
L 568.582525 379.569693 
L 578.056175 377.489886 
L 587.529825 373.330272 
L 597.003475 377.489886 
L 606.477125 379.569693 
L 615.950775 379.569693 
L 625.424425 381.6495 
L 634.898075 381.6495 
L 644.371725 381.6495 
L 653.845375 381.6495 
L 663.319025 381.6495 
L 672.792675 381.6495 
L 682.266325 379.569693 
L 691.739975 379.569693 
L 701.213625 381.6495 
L 710.687275 381.6495 
L 720.160925 381.6495 
L 729.634575 381.6495 
L 739.108225 381.6495 
L 748.581875 381.6495 
L 758.055525 379.569693 
L 767.529175 379.569693 
L 777.002825 381.6495 
L 786.476475 381.6495 
L 795.950125 381.6495 
L 805.423775 381.6495 
L 814.897425 381.6495 
L 824.371075 381.6495 
L 833.844725 381.6495 
L 843.318375 381.6495 
L 852.792025 381.6495 
L 862.265675 381.6495 
L 871.739325 381.6495 
L 881.212975 381.6495 
L 890.686625 381.6495 
L 900.160275 381.6495 
L 909.633925 381.6495 
L 919.107575 381.6495 
L 928.581225 381.6495 
L 938.054875 381.6495 
L 947.528525 381.6495 
L 957.002175 381.6495 
L 966.475825 381.6495 
L 975.949475 381.6495 
L 985.423125 381.6495 
" style="fill:none;stroke:#f0ad4e;stroke-linecap:square;"/>
   </g>
   <g id="line2d_32">
    <path clip-path="url(#pb11a5158c9)" d="M 38.058125 381.6495 
L 985.423125 381.6495 
" style="fill:none;stroke:#dedede;stroke-linecap:square;stroke-width:2;"/>
   </g>
   <g id="text_18">
    <!-- FastQC: Per Sequence GC Content -->
    <defs>
     <path d="M 9.8125 72.90625 
L 51.703125 72.90625 
L 51.703125 64.59375 
L 19.671875 64.59375 
L 19.671875 43.109375 
L 48.578125 43.109375 
L 48.578125 34.8125 
L 19.671875 34.8125 
L 19.671875 0 
L 9.8125 0 
z
" id="DejaVuSans-46"/>
     <path d="M 34.28125 27.484375 
Q 23.390625 27.484375 19.1875 25 
Q 14.984375 22.515625 14.984375 16.5 
Q 14.984375 11.71875 18.140625 8.90625 
Q 21.296875 6.109375 26.703125 6.109375 
Q 34.1875 6.109375 38.703125 11.40625 
Q 43.21875 16.703125 43.21875 25.484375 
L 43.21875 27.484375 
z
M 52.203125 31.203125 
L 52.203125 0 
L 43.21875 0 
L 43.21875 8.296875 
Q 40.140625 3.328125 35.546875 0.953125 
Q 30.953125 -1.421875 24.3125 -1.421875 
Q 15.921875 -1.421875 10.953125 3.296875 
Q 6 8.015625 6 15.921875 
Q 6 25.140625 12.171875 29.828125 
Q 18.359375 34.515625 30.609375 34.515625 
L 43.21875 34.515625 
L 43.21875 35.40625 
Q 43.21875 41.609375 39.140625 45 
Q 35.0625 48.390625 27.6875 48.390625 
Q 23 48.390625 18.546875 47.265625 
Q 14.109375 46.140625 10.015625 43.890625 
L 10.015625 52.203125 
Q 14.9375 54.109375 19.578125 55.046875 
Q 24.21875 56 28.609375 56 
Q 40.484375 56 46.34375 49.84375 
Q 52.203125 43.703125 52.203125 31.203125 
z
" id="DejaVuSans-61"/>
     <path d="M 44.28125 53.078125 
L 44.28125 44.578125 
Q 40.484375 46.53125 36.375 47.5 
Q 32.28125 48.484375 27.875 48.484375 
Q 21.1875 48.484375 17.84375 46.4375 
Q 14.5 44.390625 14.5 40.28125 
Q 14.5 37.15625 16.890625 35.375 
Q 19.28125 33.59375 26.515625 31.984375 
L 29.59375 31.296875 
Q 39.15625 29.25 43.1875 25.515625 
Q 47.21875 21.78125 47.21875 15.09375 
Q 47.21875 7.46875 41.1875 3.015625 
Q 35.15625 -1.421875 24.609375 -1.421875 
Q 20.21875 -1.421875 15.453125 -0.5625 
Q 10.6875 0.296875 5.421875 2 
L 5.421875 11.28125 
Q 10.40625 8.6875 15.234375 7.390625 
Q 20.0625 6.109375 24.8125 6.109375 
Q 31.15625 6.109375 34.5625 8.28125 
Q 37.984375 10.453125 37.984375 14.40625 
Q 37.984375 18.0625 35.515625 20.015625 
Q 33.0625 21.96875 24.703125 23.78125 
L 21.578125 24.515625 
Q 13.234375 26.265625 9.515625 29.90625 
Q 5.8125 33.546875 5.8125 39.890625 
Q 5.8125 47.609375 11.28125 51.796875 
Q 16.75 56 26.8125 56 
Q 31.78125 56 36.171875 55.265625 
Q 40.578125 54.546875 44.28125 53.078125 
z
" id="DejaVuSans-73"/>
     <path d="M 39.40625 66.21875 
Q 28.65625 66.21875 22.328125 58.203125 
Q 16.015625 50.203125 16.015625 36.375 
Q 16.015625 22.609375 22.328125 14.59375 
Q 28.65625 6.59375 39.40625 6.59375 
Q 50.140625 6.59375 56.421875 14.59375 
Q 62.703125 22.609375 62.703125 36.375 
Q 62.703125 50.203125 56.421875 58.203125 
Q 50.140625 66.21875 39.40625 66.21875 
z
M 53.21875 1.3125 
L 66.21875 -12.890625 
L 54.296875 -12.890625 
L 43.5 -1.21875 
Q 41.890625 -1.3125 41.03125 -1.359375 
Q 40.1875 -1.421875 39.40625 -1.421875 
Q 24.03125 -1.421875 14.8125 8.859375 
Q 5.609375 19.140625 5.609375 36.375 
Q 5.609375 53.65625 14.8125 63.9375 
Q 24.03125 74.21875 39.40625 74.21875 
Q 54.734375 74.21875 63.90625 63.9375 
Q 73.09375 53.65625 73.09375 36.375 
Q 73.09375 23.6875 67.984375 14.640625 
Q 62.890625 5.609375 53.21875 1.3125 
z
" id="DejaVuSans-51"/>
     <path d="M 11.71875 12.40625 
L 22.015625 12.40625 
L 22.015625 0 
L 11.71875 0 
z
M 11.71875 51.703125 
L 22.015625 51.703125 
L 22.015625 39.3125 
L 11.71875 39.3125 
z
" id="DejaVuSans-3a"/>
     <path d="M 19.671875 64.796875 
L 19.671875 37.40625 
L 32.078125 37.40625 
Q 38.96875 37.40625 42.71875 40.96875 
Q 46.484375 44.53125 46.484375 51.125 
Q 46.484375 57.671875 42.71875 61.234375 
Q 38.96875 64.796875 32.078125 64.796875 
z
M 9.8125 72.90625 
L 32.078125 72.90625 
Q 44.34375 72.90625 50.609375 67.359375 
Q 56.890625 61.8125 56.890625 51.125 
Q 56.890625 40.328125 50.609375 34.8125 
Q 44.34375 29.296875 32.078125 29.296875 
L 19.671875 29.296875 
L 19.671875 0 
L 9.8125 0 
z
" id="DejaVuSans-50"/>
     <path d="M 56.203125 29.59375 
L 56.203125 25.203125 
L 14.890625 25.203125 
Q 15.484375 15.921875 20.484375 11.0625 
Q 25.484375 6.203125 34.421875 6.203125 
Q 39.59375 6.203125 44.453125 7.46875 
Q 49.3125 8.734375 54.109375 11.28125 
L 54.109375 2.78125 
Q 49.265625 0.734375 44.1875 -0.34375 
Q 39.109375 -1.421875 33.890625 -1.421875 
Q 20.796875 -1.421875 13.15625 6.1875 
Q 5.515625 13.8125 5.515625 26.8125 
Q 5.515625 40.234375 12.765625 48.109375 
Q 20.015625 56 32.328125 56 
Q 43.359375 56 49.78125 48.890625 
Q 56.203125 41.796875 56.203125 29.59375 
z
M 47.21875 32.234375 
Q 47.125 39.59375 43.09375 43.984375 
Q 39.0625 48.390625 32.421875 48.390625 
Q 24.90625 48.390625 20.390625 44.140625 
Q 15.875 39.890625 15.1875 32.171875 
z
" id="DejaVuSans-65"/>
     <path d="M 41.109375 46.296875 
Q 39.59375 47.171875 37.8125 47.578125 
Q 36.03125 48 33.890625 48 
Q 26.265625 48 22.1875 43.046875 
Q 18.109375 38.09375 18.109375 28.8125 
L 18.109375 0 
L 9.078125 0 
L 9.078125 54.6875 
L 18.109375 54.6875 
L 18.109375 46.1875 
Q 20.953125 51.171875 25.484375 53.578125 
Q 30.03125 56 36.53125 56 
Q 37.453125 56 38.578125 55.875 
Q 39.703125 55.765625 41.0625 55.515625 
z
" id="DejaVuSans-72"/>
     <path d="M 53.515625 70.515625 
L 53.515625 60.890625 
Q 47.90625 63.578125 42.921875 64.890625 
Q 37.9375 66.21875 33.296875 66.21875 
Q 25.25 66.21875 20.875 63.09375 
Q 16.5 59.96875 16.5 54.203125 
Q 16.5 49.359375 19.40625 46.890625 
Q 22.3125 44.4375 30.421875 42.921875 
L 36.375 41.703125 
Q 47.40625 39.59375 52.65625 34.296875 
Q 57.90625 29 57.90625 20.125 
Q 57.90625 9.515625 50.796875 4.046875 
Q 43.703125 -1.421875 29.984375 -1.421875 
Q 24.8125 -1.421875 18.96875 -0.25 
Q 13.140625 0.921875 6.890625 3.21875 
L 6.890625 13.375 
Q 12.890625 10.015625 18.65625 8.296875 
Q 24.421875 6.59375 29.984375 6.59375 
Q 38.421875 6.59375 43.015625 9.90625 
Q 47.609375 13.234375 47.609375 19.390625 
Q 47.609375 24.75 44.3125 27.78125 
Q 41.015625 30.8125 33.5 32.328125 
L 27.484375 33.5 
Q 16.453125 35.6875 11.515625 40.375 
Q 6.59375 45.0625 6.59375 53.421875 
Q 6.59375 63.09375 13.40625 68.65625 
Q 20.21875 74.21875 32.171875 74.21875 
Q 37.3125 74.21875 42.625 73.28125 
Q 47.953125 72.359375 53.515625 70.515625 
z
" id="DejaVuSans-53"/>
     <path d="M 14.796875 27.296875 
Q 14.796875 17.390625 18.875 11.75 
Q 22.953125 6.109375 30.078125 6.109375 
Q 37.203125 6.109375 41.296875 11.75 
Q 45.40625 17.390625 45.40625 27.296875 
Q 45.40625 37.203125 41.296875 42.84375 
Q 37.203125 48.484375 30.078125 48.484375 
Q 22.953125 48.484375 18.875 42.84375 
Q 14.796875 37.203125 14.796875 27.296875 
z
M 45.40625 8.203125 
Q 42.578125 3.328125 38.25 0.953125 
Q 33.9375 -1.421875 27.875 -1.421875 
Q 17.96875 -1.421875 11.734375 6.484375 
Q 5.515625 14.40625 5.515625 27.296875 
Q 5.515625 40.1875 11.734375 48.09375 
Q 17.96875 56 27.875 56 
Q 33.9375 56 38.25 53.625 
Q 42.578125 51.265625 45.40625 46.390625 
L 45.40625 54.6875 
L 54.390625 54.6875 
L 54.390625 -20.796875 
L 45.40625 -20.796875 
z
" id="DejaVuSans-71"/>
     <path d="M 48.78125 52.59375 
L 48.78125 44.1875 
Q 44.96875 46.296875 41.140625 47.34375 
Q 37.3125 48.390625 33.40625 48.390625 
Q 24.65625 48.390625 19.8125 42.84375 
Q 14.984375 37.3125 14.984375 27.296875 
Q 14.984375 17.28125 19.8125 11.734375 
Q 24.65625 6.203125 33.40625 6.203125 
Q 37.3125 6.203125 41.140625 7.25 
Q 44.96875 8.296875 48.78125 10.40625 
L 48.78125 2.09375 
Q 45.015625 0.34375 40.984375 -0.53125 
Q 36.96875 -1.421875 32.421875 -1.421875 
Q 20.0625 -1.421875 12.78125 6.34375 
Q 5.515625 14.109375 5.515625 27.296875 
Q 5.515625 40.671875 12.859375 48.328125 
Q 20.21875 56 33.015625 56 
Q 37.15625 56 41.109375 55.140625 
Q 45.0625 54.296875 48.78125 52.59375 
z
" id="DejaVuSans-63"/>
    </defs>
    <g transform="translate(374.099375 19.3575)scale(0.16 -0.16)">
     <use xlink:href="#DejaVuSans-46"/>
     <use x="57.378906" xlink:href="#DejaVuSans-61"/>
     <use x="118.658203" xlink:href="#DejaVuSans-73"/>
     <use x="170.757812" xlink:href="#DejaVuSans-74"/>
     <use x="209.966797" xlink:href="#DejaVuSans-51"/>
     <use x="288.677734" xlink:href="#DejaVuSans-43"/>
     <use x="358.501953" xlink:href="#DejaVuSans-3a"/>
     <use x="392.193359" xlink:href="#DejaVuSans-20"/>
     <use x="423.980469" xlink:href="#DejaVuSans-50"/>
     <use x="484.236328" xlink:href="#DejaVuSans-65"/>
     <use x="545.759766" xlink:href="#DejaVuSans-72"/>
     <use x="586.873047" xlink:href="#DejaVuSans-20"/>
     <use x="618.660156" xlink:href="#DejaVuSans-53"/>
     <use x="682.136719" xlink:href="#DejaVuSans-65"/>
     <use x="743.660156" xlink:href="#DejaVuSans-71"/>
     <use x="807.136719" xlink:href="#DejaVuSans-75"/>
     <use x="870.515625" xlink:href="#DejaVuSans-65"/>
     <use x="932.039062" xlink:href="#DejaVuSans-6e"/>
     <use x="995.417969" xlink:href="#DejaVuSans-63"/>
     <use x="1050.398438" xlink:href="#DejaVuSans-65"/>
     <use x="1111.921875" xlink:href="#DejaVuSans-20"/>
     <use x="1143.708984" xlink:href="#DejaVuSans-47"/>
     <use x="1221.199219" xlink:href="#DejaVuSans-43"/>
     <use x="1291.023438" xlink:href="#DejaVuSans-20"/>
     <use x="1322.810547" xlink:href="#DejaVuSans-43"/>
     <use x="1392.634766" xlink:href="#DejaVuSans-6f"/>
     <use x="1453.816406" xlink:href="#DejaVuSans-6e"/>
     <use x="1517.195312" xlink:href="#DejaVuSans-74"/>
     <use x="1556.404297" xlink:href="#DejaVuSans-65"/>
     <use x="1617.927734" xlink:href="#DejaVuSans-6e"/>
     <use x="1681.306641" xlink:href="#DejaVuSans-74"/>
    </g>
   </g>
  </g>
 </g>
 <defs>
  <clipPath id="pb11a5158c9">
   <rect height="345.04" width="947.365" x="38.058125" y="36.6095"/>
  </clipPath>
 </defs>
</svg>
